<svg width="72" height="72" viewBox="0 0 72 72" fill="none" xmlns="http://www.w3.org/2000/svg">
<g id="Image">
<rect width="72" height="72" rx="36" fill="white"/>
<g id="Google Play">
<path id="Vector" d="M37.6335 35.1426L44.1174 28.6587L23.1747 16.8882C21.7868 16.1383 20.4865 16.0331 19.3463 16.8531L37.6335 35.1426ZM45.2225 42.7338L51.9629 38.9426C53.2785 38.2058 53.9999 37.1621 53.9999 36.0043C53.9999 34.8488 53.2785 33.8028 51.9651 33.0661L45.8628 29.6389L38.993 36.5064L45.2225 42.7338ZM18.2192 18.4472C18.0789 18.8792 17.9999 19.3616 17.9999 19.89V52.1339C17.9999 52.9694 18.1841 53.6886 18.5174 54.2609L36.2718 36.5043L18.2192 18.4472ZM37.6335 37.8637L19.9778 55.5217C20.3154 55.651 20.6794 55.719 21.0632 55.719C21.7473 55.719 22.4599 55.5173 23.1857 55.1138L43.4793 43.7183L37.6335 37.8637Z" fill="#38A3A5"/>
</g>
</g>
</svg>
