<svg width="44" height="54" viewBox="0 0 44 54" fill="none" xmlns="http://www.w3.org/2000/svg">
<g id="Vector">
<path d="M25.031 42.2097C21.401 39.7797 17.441 37.9697 13.571 35.9097C9.74098 33.8297 5.89098 31.3297 3.25098 27.5697C0.580984 23.8197 -0.409016 19.0497 0.150984 14.5197C0.710984 9.99974 3.01098 5.53974 6.86098 2.80974C10.721 0.11974 15.681 -0.58026 20.161 0.45974C22.401 0.99974 24.551 1.99974 26.361 3.44974C28.181 4.88974 29.621 6.84974 30.471 8.95974C31.361 11.0597 31.841 13.2597 32.221 15.4197L33.301 21.8797C33.961 26.1897 34.691 30.4997 35.301 34.8197C34.251 30.5797 33.331 26.3097 32.341 22.0597L30.941 15.6697C30.471 13.5597 29.941 11.4797 29.051 9.58974C28.181 7.68974 26.901 6.07974 25.281 4.82974C23.661 3.58974 21.741 2.73974 19.731 2.29974C15.731 1.40974 11.311 2.08974 8.00098 4.43974C4.66098 6.75974 2.58098 10.6897 2.02098 14.7697C1.41098 18.8597 2.26098 23.2097 4.52098 26.6897C6.82098 30.1997 10.371 32.7997 14.051 35.0597C17.711 37.3797 21.651 39.3997 25.031 42.1997V42.2097Z" fill="#22577A"/>
<path d="M27.021 39.7998C25.311 34.7698 22.341 30.2798 18.441 26.8998C17.981 26.4698 17.531 26.2098 16.991 25.9798C16.481 25.7698 15.921 25.6698 15.591 25.7698C15.431 25.8198 15.361 25.8698 15.301 25.9698C15.231 26.0998 15.191 26.1898 15.211 26.3198C15.221 26.5698 15.511 26.9698 15.861 27.1498C16.151 27.3198 16.691 27.3898 17.221 27.3198C17.771 27.2598 18.371 27.0898 19.011 26.9198C20.271 26.5798 21.491 26.2198 22.511 25.6398C23.561 25.0798 24.341 24.3198 24.731 23.3098C25.141 22.3198 25.051 21.1998 24.481 20.5698C24.231 20.2798 23.771 20.0698 23.411 20.0698C23.071 20.0698 22.881 20.2098 22.771 20.5198C22.661 20.8198 22.761 21.3798 22.961 21.9198C23.151 22.4498 23.471 23.0498 23.761 23.6498C26.081 28.4198 28.331 33.2298 30.411 38.1298C27.591 33.6098 24.951 29.0098 22.381 24.3698C22.071 23.7898 21.721 23.2398 21.411 22.5398C21.141 21.8598 20.851 21.0598 21.081 20.0598C21.211 19.5698 21.481 19.0998 21.911 18.7598C22.341 18.4198 22.871 18.2598 23.361 18.2398C24.331 18.2198 25.191 18.5898 25.851 19.2498C26.491 19.9198 26.801 20.7598 26.901 21.6098C26.971 22.4498 26.841 23.2598 26.551 23.9998C26.261 24.7398 25.851 25.4198 25.291 25.9998C24.741 26.5698 24.121 27.0098 23.471 27.3698C22.161 28.0798 20.801 28.4498 19.501 28.7798C18.861 28.9398 18.181 29.1298 17.411 29.2098C16.631 29.2698 15.771 29.2598 14.901 28.7498C14.121 28.2598 13.491 27.4998 13.391 26.4198C13.341 25.8798 13.541 25.3098 13.841 24.8998C14.151 24.4498 14.701 24.1398 15.181 24.0398C16.171 23.8498 16.951 24.1198 17.651 24.4198C18.331 24.7398 19.001 25.2198 19.481 25.7198C23.401 29.5098 26.101 34.5098 27.011 39.7698L27.021 39.7998Z" fill="#22577A"/>
<path d="M36.341 34.8298C35.031 35.6298 33.801 36.5098 32.621 37.4598C31.431 38.3898 30.291 39.4098 29.071 40.3498C28.471 40.8298 27.831 41.2798 27.321 41.7498C26.801 42.2298 26.361 42.7498 26.201 43.2798C26.121 43.5498 26.101 43.8298 26.151 43.9798C26.201 44.1698 26.351 44.3798 26.541 44.5298C26.731 44.6898 26.961 44.7898 27.121 44.7998C27.291 44.7898 27.271 44.7698 27.341 44.6998L28.661 45.7798C28.451 46.0298 28.331 46.3998 28.351 46.7698C28.371 47.1398 28.521 47.4898 28.741 47.6998C28.961 47.9098 29.311 48.0498 29.671 48.0498C30.031 48.0498 30.371 47.9398 30.591 47.7398L31.961 49.0798C31.671 49.4298 31.681 49.9698 32.011 50.5498C32.341 51.1098 32.931 51.5698 33.501 51.6998C34.801 52.0098 36.421 51.3198 37.911 50.4198C39.441 49.4998 40.991 48.5998 41.571 47.3098C41.721 46.9598 41.771 46.7398 41.751 46.4098C41.731 46.0898 41.631 45.7598 41.471 45.4698C41.131 44.8698 40.631 44.5398 40.171 44.6698L39.831 43.1598C40.081 43.1398 40.311 43.0198 40.501 42.7798C40.691 42.5498 40.831 42.2098 40.871 41.8698C40.971 41.1698 40.721 40.4398 40.161 40.2198L39.451 39.9498L39.861 39.3698C40.631 38.2798 40.441 36.4398 39.301 35.4998C38.181 34.5498 36.201 34.5498 35.001 35.7098C36.001 34.3698 38.141 33.9298 39.711 34.9498C41.251 35.9898 41.831 38.2298 40.851 39.9798L40.551 39.1298C41.151 39.3098 41.661 39.7798 41.931 40.3098C42.201 40.8498 42.301 41.4298 42.261 41.9998C42.221 42.5698 42.051 43.1398 41.691 43.6498C41.341 44.1598 40.731 44.5898 40.061 44.6898L39.721 43.1798C40.341 42.9598 41.101 43.0498 41.661 43.3498C42.231 43.6498 42.651 44.0998 42.951 44.5898C43.251 45.0898 43.441 45.6398 43.511 46.2298C43.591 46.7998 43.461 47.5098 43.241 47.9898C42.811 49.0398 42.051 49.8498 41.281 50.4698C40.501 51.0998 39.701 51.5798 38.911 52.0698C38.111 52.5498 37.251 53.0298 36.281 53.3698C35.301 53.6998 34.211 53.8898 33.041 53.6198C31.841 53.2998 30.911 52.5198 30.331 51.5098C30.041 50.9998 29.841 50.3998 29.831 49.7398C29.811 49.0798 30.061 48.3598 30.491 47.8498L31.861 49.1898C31.211 49.7398 30.381 49.9698 29.601 49.9198C28.821 49.8798 28.031 49.5698 27.451 48.9598C26.871 48.3498 26.601 47.5498 26.601 46.7898C26.601 46.0198 26.851 45.2298 27.401 44.6198L28.721 45.6998C28.331 46.2498 27.511 46.5298 26.921 46.4098C26.321 46.3098 25.861 46.0198 25.491 45.6698C25.121 45.3098 24.821 44.8598 24.701 44.3098C24.581 43.7198 24.701 43.2098 24.861 42.7698C25.221 41.8598 25.881 41.2398 26.521 40.7398C27.181 40.2298 27.831 39.8698 28.451 39.4398C29.711 38.5998 30.971 37.7398 32.271 36.9198C33.581 36.1098 34.941 35.3898 36.361 34.8098L36.341 34.8298Z" fill="#22577A"/>
</g>
</svg>
