 <svg width="248" height="210" viewBox="0 0 248 210" fill="none" xmlns="http://www.w3.org/2000/svg">
<path d="M18.1325 9.08342C15.327 11.0328 12.733 13.3802 10.421 16.1767C-1.19578 30.1592 -0.223019 49.8571 0.242214 65.6461C1.07399 93.5498 1.7366 126.71 14.0159 153.276C26.6618 180.639 56.5495 199.602 93.6836 206.849C130.07 213.952 170.983 209.206 199.813 190.988C230.97 171.3 242.178 139.1 245.138 110.635C247.662 86.4565 249.946 60.9308 245.392 36.9055C242.333 20.7491 234.973 3.9293 209.837 0.469406C194.879 -1.59224 177.933 3.70477 163.06 5.38879C145.113 7.43002 126.828 8.40981 108.768 6.62373C93.0915 5.0826 77.8375 1.50023 62.0477 0.632705C45.0456 -0.296057 29.6506 1.09198 18.1184 9.08342H18.1325Z" fill="#22577A"/>
</svg>