<svg width="308" height="364" viewBox="0 0 308 364" fill="none" xmlns="http://www.w3.org/2000/svg">
<path d="M22.5194 15.7446C19.0352 19.1235 15.8136 23.1924 12.9421 28.0396C-1.48508 52.2759 -0.276975 86.419 0.300814 113.787C1.33383 162.153 2.15674 219.63 17.4069 265.679C33.1123 313.108 70.2309 345.977 116.349 358.538C161.539 370.85 212.35 362.624 248.155 331.046C286.849 296.921 300.769 241.107 304.446 191.767C307.58 149.858 310.416 105.613 304.761 63.9695C300.961 35.9651 291.822 6.81079 260.604 0.813638C242.027 -2.75989 220.981 6.42159 202.51 9.34056C180.221 12.8787 157.512 14.577 135.083 11.4811C115.614 8.80984 96.6691 2.6004 77.0593 1.09669C55.9437 -0.513166 36.8241 1.89277 22.5019 15.7446H22.5194Z" fill="#22577A"/>
</svg>