<svg width="72" height="72" viewBox="0 0 72 72" fill="none" xmlns="http://www.w3.org/2000/svg">
<g id="Image">
<rect width="72" height="72" rx="36" fill="white"/>
<path id="App Store" d="M51.9439 44.4107C51.0991 46.2844 50.6921 47.1209 49.6039 48.7777C48.0862 51.0891 45.9426 53.9691 43.2897 53.9936C40.9333 54.0141 40.3279 52.4595 37.1267 52.4779C33.9277 52.4943 33.2609 54.0223 30.9025 53.9998C28.2495 53.9752 26.2184 51.3755 24.6986 49.0621C20.4503 42.5985 20.0064 35.0099 22.6266 30.9742C24.488 28.1086 27.4273 26.4313 30.1886 26.4313C33.0011 26.4313 34.7704 27.9736 37.094 27.9736C39.3501 27.9736 40.7247 26.4272 43.9769 26.4272C46.4315 26.4272 49.0373 27.767 50.8926 30.0783C44.8135 33.4104 45.7994 42.0912 51.9439 44.4107ZM41.5101 23.8459C42.6903 22.3282 43.5883 20.1886 43.2631 18C41.3322 18.133 39.0761 19.3602 37.7567 20.9618C36.5622 22.4141 35.5743 24.5679 35.9568 26.6624C38.0636 26.7259 40.244 25.4679 41.5101 23.8459Z" fill="#38A3A5"/>
</g>
</svg>
