<svg width="70" height="74" viewBox="0 0 70 74" fill="none" xmlns="http://www.w3.org/2000/svg">
<g id="Vector">
<path d="M0.145238 64.9748C-0.0657795 64.7748 0.0146082 64.4548 0.105044 64.2148C0.195481 63.9648 0.326111 63.7248 0.376353 63.4548L0.758195 61.8848C0.979262 60.8248 1.21038 59.7748 1.4013 58.7148C1.80324 56.5948 2.15493 54.4648 2.51668 52.3448L4.61681 39.5748C6.05374 31.0648 7.65145 22.5748 9.74153 14.1748C9.98269 13.1248 10.2841 12.0848 10.5555 11.0348C10.8569 9.98478 11.0277 8.95478 11.5 7.84478C11.7412 7.30478 12.0828 6.75478 12.6053 6.33478C13.1178 5.90478 13.8212 5.68478 14.4442 5.64478C15.7003 5.58478 16.7152 5.83478 17.8105 5.93478C22.1313 6.47478 26.422 7.19478 30.6926 8.07478C39.2237 9.84478 47.6042 12.3148 55.7535 15.4248L57.2808 16.0148C57.4215 16.0748 57.5019 16.0948 57.6928 16.1748C57.8737 16.2548 58.0546 16.3548 58.2154 16.4748C58.547 16.7048 58.8283 17.0048 59.0393 17.3448C59.4714 18.0148 59.6121 18.8648 59.4312 19.6448L58.9891 21.2448L57.2407 27.4848C56.0851 31.6448 54.8491 35.7848 53.6232 39.9248C51.1613 48.2048 48.5588 56.4348 45.9261 64.6648L43.9365 70.8248L43.6853 71.5948C43.6149 71.8248 43.4943 72.1948 43.2934 72.4448C42.9015 72.9848 42.2684 73.3148 41.6454 73.3848C41.3339 73.4248 41.0023 73.4048 40.721 73.3448L39.9171 73.2048L38.3194 72.9148C34.0488 72.1348 29.7983 71.3048 25.5478 70.4548C21.2973 69.6248 17.0468 68.7648 12.7963 67.8948L6.43558 66.5648L3.26026 65.8548C2.21522 65.5848 1.12999 65.4048 0.13519 64.9748H0.145238ZM0.145238 64.9748C1.14004 65.3948 2.22527 65.5648 3.27031 65.8348L6.44563 66.5248L12.8164 67.8148C17.0669 68.6348 21.3375 69.4048 25.6081 70.1648C29.8787 70.8948 34.1593 71.5948 38.44 72.2448L40.8516 72.6048C41.1129 72.6448 41.3138 72.6548 41.5449 72.6148C41.9871 72.5548 42.389 72.3148 42.6201 71.9648C42.8412 71.6648 42.9316 71.0648 43.1025 70.5648L44.9112 64.3548C47.3228 56.0648 49.6239 47.7548 51.925 39.4448L55.3616 26.9748L57.0698 20.7348L57.4818 19.2148C57.5421 18.9448 57.4919 18.6448 57.3411 18.4148C57.2607 18.2948 57.1703 18.1948 57.0598 18.1148C57.0095 18.0748 56.9392 18.0448 56.8789 18.0148C56.8186 17.9848 56.6478 17.9248 56.5373 17.8748L55.03 17.2848C51.0206 15.7248 46.9309 14.3348 42.8111 13.0748C38.6912 11.7948 34.5311 10.6848 30.3208 9.72478C26.1205 8.73479 21.8901 7.90478 17.6195 7.24478C16.5644 7.10478 15.439 6.84478 14.5246 6.87478C13.6102 6.87478 12.9671 7.42478 12.535 8.32478C12.123 9.18478 11.8819 10.2948 11.5603 11.3148C11.2588 12.3448 10.9373 13.3748 10.666 14.4148C8.36489 22.7148 6.48582 31.1448 4.87807 39.6148C4.08424 43.8548 3.32056 48.1048 2.58702 52.3548C2.21522 54.4748 1.85348 56.6048 1.43144 58.7248C1.23047 59.7848 0.999358 60.8348 0.768244 61.8948L0.376353 63.4648C0.316062 63.7348 0.195481 63.9748 0.094996 64.2248C0.00455976 64.4648 -0.075828 64.7748 0.125141 64.9848L0.145238 64.9748Z" fill="#22577A"/>
<path d="M7.75193 52.4548C10.4751 52.7248 13.148 53.1648 15.8108 53.6348C18.4737 54.0948 21.1164 54.6448 23.7591 55.1948C26.3918 55.7748 29.0245 56.3548 31.6472 57.0248C34.2698 57.6848 36.8825 58.3748 39.475 59.2448C36.7418 59.1948 34.0387 58.9248 31.3457 58.5548C28.6528 58.1948 25.9899 57.6948 23.3371 57.1448C20.6944 56.5548 18.0516 55.9248 15.4591 55.1448C12.8566 54.3848 10.2841 53.5248 7.76198 52.4448L7.75193 52.4548Z" fill="#22577A"/>
<path d="M10.8871 40.4848C13.5399 40.7048 16.1525 41.1048 18.745 41.5848C21.3375 42.0448 23.9099 42.6248 26.4722 43.2148C29.0245 43.8448 31.5769 44.5048 34.099 45.2748C36.6212 46.0348 39.1333 46.8648 41.5952 47.8848C38.9424 47.6748 36.3298 47.2648 33.7373 46.7948C31.1448 46.3348 28.5724 45.7548 26.01 45.1548C23.4577 44.5148 20.9054 43.8548 18.3832 43.0848C15.861 42.3248 13.3489 41.4948 10.8871 40.4748V40.4848Z" fill="#22577A"/>
<path d="M13.992 30.4048C16.8056 30.5748 19.5689 30.9448 22.3222 31.3848C25.0755 31.8048 27.8087 32.3448 30.5419 32.9048C33.265 33.5048 35.9781 34.1248 38.6711 34.8548C41.3641 35.5748 44.037 36.3648 46.6797 37.3548C43.8661 37.1848 41.1028 36.8148 38.3495 36.3848C35.5962 35.9648 32.8631 35.4248 30.1299 34.8648C27.4067 34.2648 24.6937 33.6448 22.0107 32.9148C19.3177 32.1948 16.6448 31.4048 14.0021 30.4148L13.992 30.4048Z" fill="#22577A"/>
<path d="M17.0568 18.9648C19.8503 19.0948 22.6036 19.4648 25.3368 19.9148C28.0699 20.3548 30.773 20.9348 33.476 21.5248C36.169 22.1548 38.8419 22.8148 41.5047 23.5648C44.1676 24.3048 46.8103 25.0948 49.443 26.0348C46.6496 25.9048 43.8963 25.5348 41.1631 25.0848C38.4299 24.6448 35.7269 24.0648 33.0238 23.4648C30.3308 22.8348 27.658 22.1748 24.9951 21.4248C22.3323 20.6848 19.6895 19.8948 17.0568 18.9548V18.9648Z" fill="#22577A"/>
<path d="M20.8652 7.13478L21.86 3.56478C22.0308 2.97478 22.2117 2.37478 22.493 1.79478C22.7744 1.22478 23.1964 0.654785 23.8295 0.344785C24.4525 0.0147846 25.1559 -0.0152154 25.7889 0.00478461C26.432 0.0447846 27.0349 0.124785 27.658 0.184785C28.8939 0.314785 30.1299 0.464785 31.3658 0.624785C36.2996 1.30478 41.2033 2.18478 46.0467 3.33478C50.9101 4.44478 55.6932 5.85478 60.426 7.41478C62.7874 8.21478 65.1287 9.06479 67.46 9.96478L67.892 10.1348C68.0126 10.1848 68.2236 10.2548 68.4347 10.3748C68.8366 10.5948 69.1883 10.9148 69.4495 11.2848C69.9821 12.0148 70.1328 13.0448 69.8816 13.8748L68.9069 17.4548C66.2642 26.9748 63.5009 36.4748 60.5466 45.9048C59.0795 50.6248 57.5522 55.3248 55.9946 60.0148L54.7989 63.5248L54.196 65.2748C54.0854 65.5648 54.0251 65.8548 53.8443 66.1848C53.6734 66.4948 53.4222 66.7648 53.1308 66.9548C52.548 67.3548 51.7542 67.4148 51.1513 67.1848L49.3627 66.6848L45.7854 65.6448L49.433 66.3948L51.2518 66.7848C51.8245 66.9448 52.3872 66.8448 52.8294 66.5248C53.0404 66.3648 53.2112 66.1548 53.3318 65.9148C53.4323 65.6948 53.5026 65.3748 53.5931 65.0848L55.0702 59.7248L59.0594 45.4548L67.9825 13.3448C68.093 12.9848 68.0327 12.6748 67.8418 12.3948C67.7514 12.2548 67.6308 12.1548 67.4901 12.0748C67.4097 12.0248 67.0078 11.8748 66.7566 11.7748C64.4655 10.8548 62.1443 10.0248 59.8231 9.19478C55.1707 7.55478 50.4479 6.11478 45.6749 4.83478C40.9018 3.56478 36.0786 2.48478 31.2151 1.57478C29.9992 1.34478 28.7834 1.11478 27.5575 0.914785C26.3416 0.744785 25.0855 0.354785 24.0606 0.784785C23.0156 1.23478 22.5634 2.50478 22.1514 3.63478L20.8652 7.11478V7.13478Z" fill="#22577A"/>
<path d="M0.0949404 65.3049C0.406443 61.5549 0.939012 57.8249 1.48163 54.1049C2.0343 50.3848 2.68745 46.6849 3.3205 42.9749C4.03394 39.2849 4.72729 35.5849 5.55126 31.9149C6.37524 28.2449 7.2394 24.5749 8.35478 20.9749C8.01314 22.8249 7.63129 24.6649 7.31979 26.5149L6.3049 32.0549L4.30525 43.1449L2.23527 54.2249L0.0949404 65.3049Z" fill="#22577A"/>
<path d="M40.8415 73.0349C37.3949 72.7049 33.9784 72.1749 30.5719 71.6349C27.1555 71.0949 23.7691 70.4549 20.3627 69.8349C16.9764 69.1449 13.59 68.4649 10.2238 67.6749C6.85755 66.8849 3.50136 66.0449 0.205459 64.9949C1.90365 65.3249 3.59179 65.6949 5.28999 66.0049L10.3745 66.9949L20.5436 68.9449L30.7026 70.9549L40.8515 73.0449L40.8415 73.0349Z" fill="#22577A"/>
</g>
</svg>
