<svg width="1728" height="109" viewBox="0 0 1728 109" fill="none" xmlns="http://www.w3.org/2000/svg">
<path d="M-0.000199752 51.453C34.1573 83.3078 70.7395 87.7024 109.789 64.3333C110.39 63.9813 111.022 63.7263 111.591 63.4471C147.404 117.238 213.684 120.261 253.577 75.9268C291.256 101.833 328.281 100.704 365.053 71.7871C383.028 94.5735 405.536 106.495 432.619 104.431C459.513 102.379 480.471 87.5567 495.758 62.1603C532.994 85.4808 567.278 81.2076 599.379 48.6002C600.391 49.8748 601.53 51.2709 602.637 52.7034C626.21 82.9557 663.572 92.4126 695.959 76.206C698.7 74.8342 700.513 73.9359 703.138 77.2136C737.401 119.946 792.095 119.411 825.81 76.2181C826.39 75.4776 826.97 74.725 827.76 73.7174C828.836 74.4822 829.9 75.077 830.807 75.9147C868.517 110.78 917.919 109.833 954.238 73.426C956.452 71.2166 957.959 70.3061 960.964 72.3091C996.84 96.2973 1032.02 94.5856 1066.37 67.9631C1067.08 67.4047 1067.83 66.9069 1068.84 66.1786C1086.92 89.0135 1109.15 100.765 1136.17 98.8831C1163.24 97.0014 1184.02 82.1545 1199.63 56.7702C1236.79 79.9451 1271.24 75.8418 1303.07 43.3072C1331.29 79.071 1365 87.3746 1404.56 68.9464C1421.09 91.1379 1442.46 103.593 1468.58 103.314C1494.72 103.035 1515.92 90.2274 1532.27 67.344C1571.17 87.5446 1605.23 80.4549 1633.86 46.5243C1645.04 50.4575 1655.48 55.532 1666.35 57.6564C1687.46 61.784 1707.15 56.0783 1724.7 41.7655C1726.33 40.4301 1727.63 37.3466 1727.76 34.9793C1728.16 27.9504 1727.91 20.8608 1727.91 12.8C1725.19 12.8 1722.63 12.8 1720.09 12.8C1149.36 12.8 578.621 12.8 7.88554 12.8C5.24993 12.8 2.62487 12.715 -0.0107422 12.6664C-0.0107422 25.5953 -0.0107422 38.5241 -0.0107422 51.453H-0.000199752Z" fill="white" fill-opacity="0.2"/>
<path d="M-0.000199752 37.7865C34.1573 69.6413 70.7395 74.0359 109.789 50.6668C110.39 50.3148 111.022 50.0598 111.591 49.7806C147.404 103.572 213.684 106.595 253.577 62.2603C291.256 88.1666 328.281 87.0376 365.053 58.1206C383.028 80.907 405.536 92.8282 432.619 90.7645C459.513 88.7129 480.471 73.8902 495.758 48.4938C532.994 71.8143 567.278 67.5411 599.379 34.9337C600.391 36.2083 601.53 37.6044 602.637 39.0369C626.21 69.2892 663.572 78.7461 695.959 62.5395C698.7 61.1677 700.513 60.2694 703.138 63.5471C737.401 106.279 792.095 105.745 825.81 62.5516C826.39 61.8111 826.97 61.0585 827.76 60.0508C828.836 60.8157 829.9 61.4105 830.807 62.2481C868.517 97.1136 917.919 96.1667 954.238 59.7595C956.452 57.5501 957.959 56.6396 960.964 58.6426C996.84 82.6308 1032.02 80.9191 1066.37 54.2966C1067.08 53.7382 1067.83 53.2404 1068.84 52.5121C1086.92 75.347 1109.15 87.0983 1136.17 85.2166C1163.24 83.3349 1184.02 68.488 1199.63 43.1037C1236.79 66.2786 1271.24 62.1753 1303.07 29.6407C1331.29 65.4045 1365 73.7081 1404.56 55.2799C1421.09 77.4714 1442.46 89.9268 1468.58 89.6476C1494.72 89.3684 1515.92 76.5609 1532.27 53.6775C1571.17 73.8781 1605.23 66.7884 1633.86 32.8578C1645.04 36.791 1655.48 41.8655 1666.35 43.9899C1687.46 48.1175 1707.15 42.4118 1724.7 28.099C1726.33 26.7636 1727.63 23.6801 1727.76 21.3128C1728.16 14.2839 1727.91 7.19427 1727.91 -0.866539C1725.19 -0.866539 1722.63 -0.866539 1720.09 -0.866539C1149.36 -0.866539 578.621 -0.866539 7.88554 -0.866539C5.24993 -0.866539 2.62487 -0.951515 -0.0107422 -1.00008C-0.0107422 11.9288 -0.0107422 24.8576 -0.0107422 37.7865H-0.000199752Z" fill="white"/>
</svg>
