<svg width="1728" height="109" viewBox="0 0 1728 109" fill="none" xmlns="http://www.w3.org/2000/svg">
<path d="M-0.000199752 57.0033C34.1573 25.4168 70.7395 21.0592 109.789 44.2315C110.39 44.5806 111.022 44.8334 111.591 45.1102C147.404 -8.22814 213.684 -11.2255 253.577 32.7356C291.256 7.04751 328.281 8.167 365.053 36.8404C383.028 14.246 405.536 2.42509 432.619 4.47147C459.513 6.50582 480.471 21.2037 495.758 46.3862C532.994 23.2621 567.278 27.4993 599.379 59.8321C600.391 58.5682 601.53 57.1839 602.637 55.7634C626.21 25.7659 663.572 16.3886 695.959 32.4588C698.7 33.819 700.513 34.7098 703.138 31.4596C737.401 -10.9125 792.095 -10.3829 825.81 32.4467C826.39 33.181 826.97 33.9273 827.76 34.9265C828.836 34.1681 829.9 33.5783 830.807 32.7477C868.517 -1.82416 917.919 -0.885235 954.238 35.2154C956.452 37.4062 957.959 38.309 960.964 36.3228C996.84 12.5366 1032.02 14.2339 1066.37 40.6323C1067.08 41.186 1067.83 41.6795 1068.84 42.4018C1086.92 19.7592 1109.15 8.10681 1136.17 9.97263C1163.24 11.8384 1184.02 26.5604 1199.63 51.7309C1236.79 28.7512 1271.24 32.8199 1303.07 65.0805C1331.29 29.6179 1365 21.3842 1404.56 39.6572C1421.09 17.6526 1442.46 5.30206 1468.58 5.57893C1494.72 5.85579 1515.92 18.5554 1532.27 41.2462C1571.17 21.2157 1605.23 28.2456 1633.86 61.8906C1645.04 57.9904 1655.48 52.9587 1666.35 50.8521C1687.46 46.7594 1707.15 52.417 1724.7 66.6093C1726.33 67.9334 1727.63 70.9909 1727.76 73.3383C1728.16 80.308 1727.91 87.3379 1727.91 95.3309C1725.19 95.3309 1722.63 95.3309 1720.09 95.3309C1149.36 95.3309 578.621 95.3309 7.88554 95.3309C5.24993 95.3309 2.62487 95.4151 -0.0107422 95.4633C-0.0107422 82.6433 -0.0107422 69.8233 -0.0107422 57.0033H-0.000199752Z" fill="white" fill-opacity="0.2"/>
<path d="M-0.000199752 70.5632C34.1573 38.9767 70.7395 34.6191 109.789 57.7914C110.39 58.1405 111.022 58.3933 111.591 58.6702C147.404 5.3318 213.684 2.33445 253.577 46.2956C291.256 20.6074 328.281 21.7269 365.053 50.4004C383.028 27.8059 405.536 15.985 432.619 18.0314C459.513 20.0658 480.471 34.7636 495.758 59.9461C532.994 36.822 567.278 41.0592 599.379 73.3921C600.391 72.1281 601.53 70.7438 602.637 69.3234C626.21 39.3258 663.572 29.9486 695.959 46.0187C698.7 47.3789 700.513 48.2697 703.138 45.0196C737.401 2.64742 792.095 3.17708 825.81 46.0067C826.39 46.741 826.97 47.4873 827.76 48.4864C828.836 47.728 829.9 47.1382 830.807 46.3076C868.517 11.7358 917.919 12.6747 954.238 48.7753C956.452 50.9661 957.959 51.8689 960.964 49.8828C996.84 26.0966 1032.02 27.7939 1066.37 54.1922C1067.08 54.7459 1067.83 55.2395 1068.84 55.9617C1086.92 33.3191 1109.15 21.6667 1136.17 23.5326C1163.24 25.3984 1184.02 40.1203 1199.63 65.2908C1236.79 42.3111 1271.24 46.3798 1303.07 78.6404C1331.29 43.1778 1365 34.9442 1404.56 53.2171C1421.09 31.2125 1442.46 18.862 1468.58 19.1389C1494.72 19.4157 1515.92 32.1153 1532.27 54.8061C1571.17 34.7756 1605.23 41.8056 1633.86 75.4505C1645.04 71.5503 1655.48 66.5186 1666.35 64.4121C1687.46 60.3193 1707.15 65.9769 1724.7 80.1692C1726.33 81.4933 1727.63 84.5509 1727.76 86.8982C1728.16 93.8679 1727.91 100.898 1727.91 108.891C1725.19 108.891 1722.63 108.891 1720.09 108.891C1149.36 108.891 578.621 108.891 7.88554 108.891C5.24993 108.891 2.62487 108.975 -0.0107422 109.023C-0.0107422 96.2032 -0.0107422 83.3832 -0.0107422 70.5632H-0.000199752Z" fill="white"/>
</svg>
