<svg width="676" height="452" viewBox="0 0 676 452" fill="none" xmlns="http://www.w3.org/2000/svg">
<g clip-path="url(#clip0_797_1436)">
<path d="M554.131 98.1699C549.731 98.9399 545.391 97.3699 542.511 93.9499C539.621 90.5199 538.811 85.9599 540.331 81.7399L564.611 14.5399C566.131 10.3199 569.681 7.33994 574.091 6.54994C574.101 6.54994 574.121 6.54994 574.131 6.54994C578.531 5.77994 582.871 7.34994 585.751 10.7699L631.811 65.3999C634.701 68.8299 635.511 73.3899 633.991 77.6099C632.471 81.8299 628.921 84.8099 624.511 85.5999L554.171 98.1699C554.171 98.1699 554.141 98.1699 554.131 98.1699ZM574.771 10.1899C574.771 10.1899 574.751 10.1899 574.741 10.1899C571.651 10.7399 569.161 12.8399 568.091 15.7899L543.811 82.9899C542.741 85.9499 543.311 89.1499 545.341 91.5499C547.361 93.9499 550.411 95.0499 553.491 94.5099C553.491 94.5099 553.511 94.5099 553.521 94.5099L623.861 81.9399C626.961 81.3899 629.441 79.2899 630.511 76.3299C631.581 73.3699 631.011 70.1699 628.981 67.7699L582.921 13.1399C580.901 10.7399 577.851 9.63994 574.771 10.1799V10.1899Z" fill="#E0E0E0"/>
<path d="M580.79 73.1199C580.33 70.6199 581.95 68.2799 584.68 67.7799C587.36 67.2899 589.64 68.9199 590.1 71.4199C590.56 73.9199 589.01 76.3099 586.33 76.7999C583.59 77.2999 581.24 75.6199 580.79 73.1199ZM574.5 36.4299L583.11 34.8599L586.64 62.3699L580.88 63.4199L574.5 36.4299Z" fill="#E0E0E0"/>
<path d="M553.991 349.25C540.061 329.45 544.611 303.72 553.231 282.25C554.671 278.67 555.661 274.69 558.541 272.14C561.421 269.58 566.241 268.87 568.941 271.58C571.181 273.83 571.211 277.39 571.781 280.53C572.531 284.71 574.491 288.65 577.341 291.75C579.221 293.79 581.811 295.56 584.551 295.13C588.311 294.54 590.251 290.35 591.531 286.73C593.931 279.99 596.331 273.24 598.731 266.5C600.021 262.88 601.341 259.19 603.711 256.17C606.081 253.15 609.711 250.87 613.491 251.15C617.271 251.43 620.801 254.95 620.251 258.75C620.021 260.33 619.171 261.75 618.721 263.28C618.281 264.82 618.371 266.73 619.641 267.66C620.931 268.61 622.741 268.11 624.211 267.44C629.261 265.15 633.491 261.37 637.551 257.56C641.611 253.75 645.641 249.8 650.461 247.05C655.281 244.3 661.101 242.85 666.381 244.43C671.661 246.01 676.011 251.2 675.471 256.75C674.931 262.31 670.091 266.4 665.371 269.35C658.361 273.72 650.731 277.07 642.791 279.26C641.361 279.66 639.811 280.08 638.891 281.26C637.231 283.38 638.651 286.6 640.741 288.25C643.111 290.12 646.131 290.9 648.821 292.25C651.511 293.6 654.111 295.95 654.211 299C654.351 303.23 649.861 305.97 645.911 307.41C637.991 310.28 629.591 311.77 621.201 311.79C618.191 311.79 615.091 311.64 612.271 312.73C609.451 313.82 606.981 316.6 607.351 319.61C607.721 322.63 610.751 324.64 613.721 325.14C616.691 325.63 619.731 325.03 622.741 324.99C628.381 324.92 634.661 327.58 636.291 333.02C637.361 336.6 636.121 340.59 633.841 343.56C631.571 346.54 628.371 348.65 625.131 350.5C613.791 356.94 600.891 360.76 587.931 360.58C574.971 360.4 563.921 357.61 554.001 349.28" fill="#EBEBEB"/>
<path d="M564.551 337.66C571.731 327.85 580.501 317.74 590.021 307.49C592.411 304.94 594.781 302.41 597.101 299.92C599.431 297.44 601.741 294.99 604.151 292.72C608.951 288.17 613.911 284.16 618.741 280.51C623.571 276.85 628.281 273.55 632.711 270.5C637.151 267.46 641.341 264.7 645.271 262.35C653.111 257.62 659.881 254.56 664.611 252.65C666.971 251.69 668.831 251 670.101 250.55C670.711 250.34 671.181 250.17 671.541 250.05C671.871 249.94 672.041 249.89 672.041 249.9C672.041 249.91 671.881 249.98 671.571 250.12C671.221 250.26 670.751 250.45 670.151 250.69C668.901 251.18 667.061 251.91 664.711 252.91C660.021 254.9 653.311 258.02 645.521 262.79C641.621 265.16 637.451 267.94 633.041 271C628.631 274.07 623.931 277.38 619.121 281.05C614.321 284.71 609.381 288.72 604.621 293.25C602.231 295.5 599.941 297.94 597.601 300.43C595.271 302.92 592.911 305.44 590.521 307.99C581.001 318.23 572.241 328.3 565.051 338.06" fill="#E0E0E0"/>
<path d="M604.361 292.77C604.361 292.77 604.391 292.17 604.571 291.1C604.741 290.03 605.041 288.5 605.441 286.61C606.231 282.83 607.511 277.65 608.931 271.94C610.361 266.23 611.551 261.04 612.291 257.26C612.661 255.37 612.951 253.84 613.131 252.78C613.321 251.72 613.451 251.13 613.501 251.14C613.551 251.14 613.511 251.74 613.411 252.82C613.311 253.9 613.101 255.45 612.791 257.35C612.181 261.17 611.061 266.39 609.631 272.11C608.211 277.74 606.921 282.83 605.941 286.72C605.511 288.48 605.141 289.96 604.851 291.16C604.591 292.21 604.421 292.78 604.371 292.77H604.361Z" fill="#E0E0E0"/>
<path d="M653.921 300.93C653.921 300.93 653.221 300.81 651.991 300.48C650.761 300.15 648.981 299.67 646.771 299.15C642.351 298.07 636.201 296.78 629.351 295.67C622.491 294.56 616.251 293.83 611.711 293.42C609.441 293.2 607.601 293.08 606.331 292.98C605.061 292.89 604.361 292.82 604.361 292.77C604.361 292.72 605.071 292.7 606.351 292.7C607.631 292.71 609.481 292.76 611.751 292.91C616.311 293.18 622.591 293.85 629.461 294.95C636.331 296.07 642.491 297.44 646.891 298.65C649.091 299.24 650.861 299.79 652.061 300.21C653.271 300.63 653.921 300.88 653.911 300.93H653.921Z" fill="#E0E0E0"/>
<path d="M565.431 337.01C565.431 337.01 565.371 336.78 565.321 336.33C565.271 335.8 565.211 335.15 565.141 334.36C564.991 332.65 564.831 330.17 564.681 327.11C564.371 320.98 564.211 312.5 564.151 303.14C564.101 293.78 564.011 285.31 563.831 279.18C563.731 276.2 563.651 273.75 563.591 271.92C563.571 271.13 563.551 270.48 563.541 269.94C563.541 269.49 563.541 269.25 563.571 269.25C563.591 269.25 563.631 269.48 563.681 269.93C563.731 270.46 563.791 271.11 563.861 271.9C564.011 273.61 564.171 276.09 564.321 279.15C564.631 285.28 564.791 293.76 564.841 303.12C564.891 312.48 564.981 320.95 565.161 327.08C565.261 330.06 565.341 332.51 565.401 334.34C565.421 335.13 565.441 335.78 565.451 336.32C565.451 336.77 565.451 337.01 565.421 337.01H565.431Z" fill="#E0E0E0"/>
<path d="M634.32 339.51C634.32 339.51 634.08 339.54 633.62 339.54C633.08 339.53 632.42 339.51 631.61 339.49C629.76 339.43 627.26 339.34 624.23 339.23C618 339.02 609.39 338.82 599.87 338.61C590.35 338.41 581.73 338.13 575.5 337.78C572.38 337.61 569.87 337.45 568.13 337.3C567.33 337.23 566.67 337.17 566.13 337.12C565.67 337.07 565.43 337.03 565.44 337.01C565.44 336.99 565.68 336.98 566.14 336.98C566.68 336.99 567.34 337.01 568.15 337.03C570 337.09 572.49 337.18 575.53 337.29C581.76 337.51 590.38 337.7 599.89 337.91C609.41 338.11 618.02 338.39 624.25 338.74C627.37 338.91 629.88 339.07 631.62 339.22C632.42 339.29 633.08 339.35 633.62 339.4C634.08 339.45 634.32 339.49 634.31 339.51H634.32Z" fill="#E0E0E0"/>
<path d="M17.4106 59.1798C17.4106 59.1798 8.01061 62.9898 18.8506 82.9498C29.6906 102.91 37.1006 112.74 37.1006 112.74C37.1006 112.74 39.0506 117.39 35.1206 118.22C31.1906 119.05 22.4506 117.89 20.8106 122.77C19.1106 127.83 22.8806 132.47 30.3806 136.43C37.8806 140.39 53.9806 149.67 55.4306 150.51C56.8606 151.34 58.3206 153.49 55.7306 154.48C53.1406 155.48 33.6206 158.03 35.3806 167.22C37.1406 176.41 59.8406 184.01 62.3106 184.89C64.7806 185.77 65.3906 186.79 65.2206 188.13C65.0606 189.47 58.4106 189.71 52.8906 190.67C47.3706 191.62 41.1306 193.7 42.5906 198.91C44.0506 204.13 57.6606 214.82 90.0806 217.15L105.171 217.25L113.051 204.3C128.221 175.55 126.341 158.35 122.681 154.35C119.021 150.35 113.971 154.55 110.241 158.73C106.511 162.91 102.791 168.43 101.571 167.85C100.341 167.28 99.8006 166.22 100.361 163.66C100.921 161.1 106.471 137.82 99.6006 131.46C92.7306 125.1 80.2406 140.32 78.0306 141.99C75.8206 143.66 74.7706 141.28 74.8206 139.63C74.8706 137.95 75.5106 119.38 76.1206 110.92C76.7206 102.46 74.7806 96.8098 69.5806 95.5798C64.5706 94.3898 60.9406 102.42 58.1506 105.32C55.3606 108.22 52.4506 104.1 52.4506 104.1C52.4506 104.1 48.0306 92.6098 36.8206 72.8498C25.6206 53.0898 17.2306 59.2498 17.2306 59.2498" fill="#EBEBEB"/>
<path d="M106.04 220.79C97.8701 206.25 83.7801 180.15 71.5601 157.81C59.3501 135.48 48.2801 115.27 40.1801 100.68C36.1301 93.3998 32.8501 87.5098 30.5701 83.4198C29.4401 81.3898 28.5701 79.8198 27.9601 78.7198C27.6701 78.1898 27.4501 77.7898 27.2901 77.4898C27.1401 77.2098 27.0801 77.0598 27.0801 77.0598C27.0801 77.0598 27.1701 77.1898 27.3401 77.4598C27.5101 77.7498 27.7401 78.1498 28.0501 78.6598C28.6701 79.7398 29.5801 81.3098 30.7401 83.3098C33.0701 87.3498 36.3901 93.2298 40.4801 100.5C48.6501 115.04 59.7701 135.23 71.9801 157.56C84.1901 179.9 98.2401 206.02 106.33 220.6" fill="#E0E0E0"/>
<path d="M32.9707 124.89C32.9707 124.89 33.3607 124.96 34.0307 125.16C34.7007 125.36 35.6707 125.67 36.8607 126.07C39.2407 126.87 42.4907 128.06 46.0607 129.44C49.5707 130.81 52.7507 132.06 55.1807 133.01C56.2807 133.43 57.2007 133.79 57.9507 134.07C58.6007 134.32 58.9607 134.47 58.9507 134.5C58.9507 134.53 58.5607 134.44 57.8907 134.24C57.2207 134.04 56.2507 133.73 55.0707 133.32C52.7007 132.49 49.4607 131.26 45.9007 129.88C42.3807 128.53 39.2007 127.31 36.7607 126.38C35.6607 125.96 34.7307 125.61 33.9807 125.33C33.3307 125.08 32.9707 124.92 32.9807 124.89H32.9707Z" fill="#E0E0E0"/>
<path d="M59.9501 133.51C59.8301 133.47 61.9901 126.65 64.7801 118.29C67.5701 109.92 69.9301 103.17 70.0501 103.21C70.1701 103.25 68.0101 110.07 65.2201 118.43C62.4301 126.8 60.0701 133.54 59.9501 133.5V133.51Z" fill="#E0E0E0"/>
<path d="M77.1504 168.66C77.1504 168.66 77.3404 168.3 77.7404 167.71C78.2004 167.04 78.7804 166.21 79.4604 165.22C80.9104 163.12 82.9004 160.2 84.9804 156.9C87.0704 153.61 88.8604 150.56 90.1304 148.34C90.7304 147.3 91.2404 146.42 91.6404 145.72C92.0004 145.1 92.2104 144.77 92.2404 144.78C92.2704 144.8 92.1104 145.16 91.8004 145.8C91.4904 146.44 91.0204 147.37 90.4204 148.5C89.2204 150.76 87.4704 153.84 85.3804 157.15C83.2904 160.46 81.2504 163.35 79.7304 165.41C78.9604 166.44 78.3304 167.26 77.8804 167.82C77.4304 168.38 77.1704 168.68 77.1504 168.66Z" fill="#E0E0E0"/>
<path d="M51.041 166.23C51.041 166.23 51.411 166.2 52.071 166.23C52.831 166.27 53.761 166.32 54.871 166.38C57.231 166.53 60.491 166.76 64.081 167.05C67.681 167.34 70.931 167.62 73.281 167.86C74.381 167.98 75.311 168.08 76.061 168.16C76.721 168.24 77.081 168.3 77.081 168.33C77.081 168.36 76.711 168.36 76.051 168.33C75.291 168.29 74.361 168.24 73.251 168.18C70.891 168.03 67.631 167.8 64.041 167.51C60.441 167.22 57.191 166.94 54.841 166.7C53.741 166.58 52.811 166.48 52.061 166.4C51.401 166.32 51.041 166.26 51.041 166.23Z" fill="#E0E0E0"/>
<path d="M62.2812 199.19C62.2812 199.19 62.7512 199.16 63.6012 199.19C64.5312 199.24 65.7413 199.3 67.1813 199.37C70.2113 199.54 74.3812 199.81 78.9912 200.13C83.6012 200.45 87.7813 200.78 90.8013 201.03C92.2413 201.16 93.4413 201.27 94.3713 201.36C95.2113 201.45 95.6813 201.51 95.6813 201.54C95.6813 201.57 95.2113 201.57 94.3613 201.54C93.4313 201.49 92.2213 201.43 90.7812 201.36C87.7513 201.19 83.5813 200.92 78.9613 200.6C74.3513 200.28 70.1713 199.96 67.1613 199.7C65.7213 199.57 64.5213 199.46 63.5913 199.37C62.7513 199.28 62.2812 199.22 62.2812 199.19Z" fill="#E0E0E0"/>
<path d="M94.9104 201.26C94.9104 201.26 95.1404 200.81 95.6204 200.04C96.1504 199.2 96.8504 198.12 97.6904 196.8C99.4404 194.07 101.83 190.28 104.36 186.02C106.89 181.77 109.09 177.86 110.65 175.02C111.4 173.66 112.03 172.52 112.51 171.66C112.95 170.87 113.21 170.44 113.24 170.45C113.27 170.46 113.07 170.92 112.67 171.74C112.28 172.56 111.69 173.73 110.94 175.18C109.45 178.06 107.3 182 104.76 186.26C102.23 190.52 99.7804 194.29 97.9704 196.98C97.0604 198.32 96.3104 199.4 95.7704 200.14C95.2404 200.88 94.9304 201.27 94.9004 201.26H94.9104Z" fill="#E0E0E0"/>
<path d="M545.369 75.99H120.459C113.129 75.99 107.199 81.93 107.199 89.25V389.37C107.199 396.7 113.139 402.63 120.459 402.63H283.539C283.539 402.63 293.909 434.71 261.759 451.31H414.249C414.249 451.31 377.939 438.86 387.279 402.63H545.379C552.699 402.63 558.639 396.69 558.639 389.37V89.25C558.639 81.92 552.699 75.99 545.379 75.99H545.369Z" fill="#263238"/>
<path d="M338.589 370.32C344.369 378.58 335.319 387.63 327.059 381.85C326.789 381.66 326.539 381.41 326.349 381.14C320.589 372.88 329.619 363.85 337.879 369.61C338.149 369.8 338.399 370.05 338.589 370.32Z" fill="#455A64"/>
<path d="M124.21 80.73H541.62C546.97 80.73 551.32 85.08 551.32 90.43V346.98H114.51V90.43C114.51 85.08 118.86 80.73 124.21 80.73Z" fill="white"/>
<path d="M123.67 80.73H543.8C547.95 80.73 551.32 84.1 551.32 88.25V102.86H114.51V89.89C114.51 84.84 118.61 80.74 123.66 80.74L123.67 80.73Z" fill="#EBEBEB"/>
<path d="M128.42 95.3299C130.115 95.3299 131.49 93.9555 131.49 92.2599C131.49 90.5644 130.115 89.1899 128.42 89.1899C126.724 89.1899 125.35 90.5644 125.35 92.2599C125.35 93.9555 126.724 95.3299 128.42 95.3299Z" fill="#455A64"/>
<path d="M137.57 95.3299C139.266 95.3299 140.64 93.9555 140.64 92.2599C140.64 90.5644 139.266 89.1899 137.57 89.1899C135.874 89.1899 134.5 90.5644 134.5 92.2599C134.5 93.9555 135.874 95.3299 137.57 95.3299Z" fill="#455A64"/>
<path d="M149.339 92.2599C149.339 93.9499 147.969 95.3299 146.269 95.3299C144.569 95.3299 143.199 93.9599 143.199 92.2599C143.199 90.5599 144.569 89.1899 146.269 89.1899C147.969 89.1899 149.339 90.5599 149.339 92.2599Z" fill="#455A64"/>
<path d="M469.398 401.93C469.398 402.07 408.938 402.18 334.368 402.18C259.798 402.18 199.318 402.07 199.318 401.93C199.318 401.79 259.768 401.68 334.368 401.68C408.968 401.68 469.398 401.79 469.398 401.93Z" fill="#455A64"/>
<path d="M312.515 303.988V305.445H304V293.707H312.284V295.163H305.679V298.768H311.568V300.193H305.679V303.98H312.523L312.515 303.988Z" fill="#263238"/>
<path d="M323.075 305.453L320.544 301.848C320.314 301.864 320.059 301.88 319.804 301.88H316.9V305.453H315.221V293.715H319.796C322.844 293.715 324.69 295.259 324.69 297.806C324.69 299.62 323.751 300.925 322.112 301.514L324.897 305.453H323.067H323.075ZM323.027 297.806C323.027 296.126 321.905 295.172 319.757 295.172H316.908V300.455H319.757C321.905 300.455 323.027 299.485 323.027 297.806Z" fill="#263238"/>
<path d="M335.258 305.453L332.728 301.848C332.497 301.864 332.243 301.88 331.988 301.88H329.083V305.453H327.404V293.715H331.98C335.028 293.715 336.874 295.259 336.874 297.806C336.874 299.62 335.935 300.925 334.288 301.514L337.073 305.453H335.243H335.258ZM335.211 297.806C335.211 296.126 334.089 295.172 331.94 295.172H329.091V300.455H331.94C334.089 300.455 335.211 299.485 335.211 297.806Z" fill="#263238"/>
<path d="M338.646 299.58C338.646 296.142 341.296 293.58 344.901 293.58C348.506 293.58 351.124 296.126 351.124 299.58C351.124 303.034 348.474 305.58 344.901 305.58C341.328 305.58 338.646 303.018 338.646 299.58ZM349.445 299.58C349.445 296.978 347.503 295.068 344.901 295.068C342.299 295.068 340.326 296.978 340.326 299.58C340.326 302.182 342.267 304.092 344.901 304.092C347.535 304.092 349.445 302.182 349.445 299.58Z" fill="#263238"/>
<path d="M361.534 305.453L359.003 301.848C358.764 301.864 358.518 301.88 358.263 301.88H355.367V305.453H353.688V293.715H358.263C361.311 293.715 363.157 295.259 363.157 297.806C363.157 299.62 362.218 300.925 360.579 301.514L363.364 305.453H361.534ZM361.486 297.806C361.486 296.126 360.364 295.172 358.215 295.172H355.367V300.455H358.215C360.364 300.455 361.486 299.485 361.486 297.806Z" fill="#263238"/>
<path d="M538.931 230.51C535.301 253.31 527.401 269.88 515.221 280.2C503.041 290.53 488.121 294.29 470.451 291.48C452.711 288.66 439.611 280.44 431.151 266.83C422.701 253.22 420.281 235.01 423.911 212.21L430.291 172.11C433.901 149.39 441.811 132.82 454.001 122.41C466.191 112 481.161 108.21 498.901 111.03C516.561 113.84 529.621 122.09 538.061 135.78C546.501 149.47 548.911 167.68 545.301 190.4L538.921 230.5L538.931 230.51ZM516.761 181.26C519.041 166.9 518.331 155.89 514.611 148.22C510.891 140.56 504.411 135.99 495.181 134.52C485.951 133.05 478.391 135.39 472.521 141.52C466.641 147.66 462.571 157.91 460.281 172.27L452.531 221C450.231 235.44 450.961 246.52 454.721 254.23C458.471 261.94 464.971 266.53 474.201 268C483.431 269.47 490.971 267.13 496.801 260.99C502.631 254.84 506.711 244.51 509.021 229.99L516.771 181.26H516.761Z" fill="#E0E0E0"/>
<path d="M551.101 222.9C547.471 245.7 539.571 262.27 527.391 272.59C515.211 282.92 500.291 286.68 482.621 283.87C464.881 281.05 451.781 272.83 443.321 259.22C434.871 245.61 432.451 227.4 436.081 204.6L442.461 164.5C446.071 141.78 453.981 125.21 466.171 114.8C478.361 104.39 493.331 100.6 511.071 103.42C528.731 106.23 541.791 114.48 550.231 128.17C558.671 141.86 561.081 160.07 557.471 182.79L551.091 222.89L551.101 222.9ZM528.931 173.65C531.211 159.29 530.501 148.28 526.781 140.61C523.061 132.95 516.581 128.38 507.351 126.91C498.121 125.44 490.561 127.78 484.691 133.91C478.811 140.05 474.741 150.3 472.451 164.66L464.701 213.39C462.401 227.83 463.131 238.91 466.891 246.62C470.641 254.33 477.141 258.92 486.371 260.39C495.601 261.86 503.141 259.52 508.971 253.38C514.801 247.23 518.881 236.9 521.191 222.38L528.941 173.65H528.931Z" fill="#205678"/>
<g opacity="0.4">
<path d="M551.101 222.9C547.471 245.7 539.571 262.27 527.391 272.59C515.211 282.92 500.291 286.68 482.621 283.87C464.881 281.05 451.781 272.83 443.321 259.22C434.871 245.61 432.451 227.4 436.081 204.6L442.461 164.5C446.071 141.78 453.981 125.21 466.171 114.8C478.361 104.39 493.331 100.6 511.071 103.42C528.731 106.23 541.791 114.48 550.231 128.17C558.671 141.86 561.081 160.07 557.471 182.79L551.091 222.89L551.101 222.9ZM528.931 173.65C531.211 159.29 530.501 148.28 526.781 140.61C523.061 132.95 516.581 128.38 507.351 126.91C498.121 125.44 490.561 127.78 484.691 133.91C478.811 140.05 474.741 150.3 472.451 164.66L464.701 213.39C462.401 227.83 463.131 238.91 466.891 246.62C470.641 254.33 477.141 258.92 486.371 260.39C495.601 261.86 503.141 259.52 508.971 253.38C514.801 247.23 518.881 236.9 521.191 222.38L528.941 173.65H528.931Z" fill="black"/>
</g>
<path d="M567.961 225.59C564.331 248.39 556.431 264.96 544.251 275.28C532.071 285.61 517.151 289.37 499.481 286.56C481.741 283.74 468.641 275.52 460.181 261.91C451.731 248.3 449.311 230.09 452.941 207.29L459.321 167.19C462.931 144.47 470.841 127.9 483.031 117.49C495.221 107.08 510.191 103.29 527.931 106.11C545.591 108.92 558.651 117.17 567.091 130.86C575.531 144.55 577.941 162.76 574.331 185.48L567.951 225.58L567.961 225.59ZM545.791 176.34C548.071 161.98 547.361 150.97 543.641 143.3C539.921 135.64 533.441 131.07 524.211 129.6C514.981 128.13 507.421 130.47 501.551 136.6C495.671 142.74 491.601 152.99 489.311 167.35L481.561 216.08C479.261 230.52 479.991 241.6 483.751 249.31C487.501 257.02 494.001 261.61 503.231 263.08C512.461 264.55 520.001 262.21 525.831 256.07C531.661 249.92 535.741 239.59 538.051 225.07L545.801 176.34H545.791Z" fill="#205678"/>
<path d="M459.052 169.58C459.072 169.7 454.912 170.62 449.742 171.62C444.582 172.62 440.372 173.34 440.352 173.22C440.332 173.1 444.492 172.18 449.662 171.18C454.822 170.18 459.032 169.46 459.052 169.58Z" fill="#205678"/>
<path d="M457.35 185.57C457.37 185.69 453.21 186.61 448.04 187.61C442.88 188.61 438.67 189.33 438.65 189.21C438.63 189.09 442.79 188.17 447.96 187.17C453.12 186.17 457.33 185.45 457.35 185.57Z" fill="#205678"/>
<path d="M455.641 201.56C455.661 201.68 451.501 202.6 446.331 203.6C441.171 204.6 436.961 205.32 436.941 205.2C436.921 205.08 441.081 204.16 446.251 203.16C451.411 202.16 455.621 201.44 455.641 201.56Z" fill="#205678"/>
<path d="M453.942 217.54C453.962 217.66 449.802 218.58 444.632 219.58C439.472 220.58 435.262 221.3 435.242 221.18C435.222 221.06 439.382 220.14 444.552 219.14C449.712 218.14 453.922 217.42 453.942 217.54Z" fill="#205678"/>
<path d="M452.241 233.53C452.251 233.59 451.311 233.83 449.781 234.17C448.251 234.51 446.131 234.95 443.781 235.4C441.431 235.86 439.301 236.25 437.751 236.51C436.201 236.77 435.241 236.9 435.231 236.84C435.221 236.78 436.161 236.54 437.691 236.2C439.221 235.86 441.351 235.42 443.701 234.96C446.051 234.5 448.181 234.11 449.731 233.85C451.281 233.59 452.241 233.46 452.251 233.52L452.241 233.53Z" fill="#205678"/>
<path d="M454.321 248.76C454.331 248.82 453.511 249.04 452.181 249.34C450.841 249.64 448.991 250.03 446.941 250.43C444.891 250.83 443.031 251.16 441.681 251.39C440.331 251.61 439.491 251.72 439.481 251.66C439.471 251.6 440.291 251.38 441.621 251.08C442.961 250.78 444.811 250.39 446.861 249.99C448.911 249.59 450.771 249.26 452.121 249.03C453.471 248.81 454.311 248.7 454.321 248.76Z" fill="#205678"/>
<path d="M461.742 263.68C461.752 263.74 461.022 263.94 459.832 264.21C458.642 264.48 456.992 264.83 455.172 265.18C453.342 265.54 451.692 265.83 450.482 266.02C449.282 266.21 448.532 266.3 448.512 266.24C448.502 266.18 449.232 265.98 450.422 265.71C451.612 265.44 453.262 265.09 455.082 264.74C456.912 264.38 458.562 264.09 459.772 263.9C460.972 263.71 461.732 263.62 461.742 263.68Z" fill="#205678"/>
<path d="M476.341 275.1C476.351 275.16 475.621 275.36 474.431 275.63C473.241 275.9 471.591 276.25 469.771 276.6C467.941 276.96 466.291 277.25 465.081 277.44C463.881 277.63 463.131 277.72 463.111 277.66C463.101 277.6 463.831 277.4 465.021 277.13C466.211 276.86 467.861 276.51 469.681 276.16C471.511 275.8 473.161 275.51 474.371 275.32C475.571 275.13 476.331 275.04 476.341 275.1Z" fill="#205678"/>
<path d="M530.532 249.53C530.562 249.65 525.152 251.17 518.452 252.91C511.752 254.66 506.292 255.98 506.262 255.86C506.232 255.74 511.642 254.23 518.342 252.48C525.042 250.73 530.502 249.41 530.532 249.53Z" fill="#205678"/>
<path d="M536.111 236.52C536.141 236.64 531.681 237.91 526.141 239.35C520.601 240.8 516.081 241.87 516.051 241.75C516.021 241.63 520.481 240.36 526.031 238.92C531.571 237.48 536.091 236.4 536.121 236.52H536.111Z" fill="#205678"/>
<path d="M540.201 221.55C540.231 221.67 535.771 222.94 530.231 224.38C524.691 225.83 520.171 226.9 520.141 226.78C520.111 226.66 524.571 225.39 530.121 223.95C535.661 222.51 540.181 221.43 540.211 221.55H540.201Z" fill="#205678"/>
<path d="M544.291 206.58C544.321 206.7 539.851 207.97 534.321 209.41C528.781 210.86 524.261 211.93 524.231 211.81C524.201 211.69 528.661 210.42 534.211 208.98C539.751 207.54 544.271 206.46 544.301 206.58H544.291Z" fill="#205678"/>
<path d="M548.371 191.61C548.401 191.73 543.941 193 538.401 194.44C532.861 195.89 528.341 196.96 528.311 196.84C528.281 196.72 532.741 195.45 538.291 194.01C543.831 192.57 548.351 191.49 548.381 191.61H548.371Z" fill="#205678"/>
<path d="M547.63 177.54C547.66 177.66 543.19 178.93 537.66 180.37C532.12 181.82 527.6 182.89 527.57 182.77C527.54 182.65 532 181.38 537.55 179.94C543.09 178.5 547.61 177.42 547.64 177.54H547.63Z" fill="#205678"/>
<path d="M550.101 162.94C550.131 163.06 545.661 164.33 540.131 165.77C534.591 167.22 530.071 168.29 530.041 168.17C530.011 168.05 534.471 166.78 540.021 165.34C545.561 163.9 550.081 162.82 550.111 162.94H550.101Z" fill="#205678"/>
<path d="M550.912 148.93C550.942 149.05 546.482 150.32 540.942 151.76C535.402 153.21 530.882 154.28 530.852 154.16C530.822 154.04 535.282 152.77 540.832 151.33C546.372 149.89 550.892 148.81 550.922 148.93H550.912Z" fill="#205678"/>
<path d="M539.462 137.15C539.492 137.27 536.782 138.08 533.422 138.96C530.052 139.84 527.292 140.45 527.262 140.33C527.232 140.21 529.932 139.4 533.312 138.52C536.682 137.64 539.442 137.03 539.472 137.15H539.462Z" fill="#205678"/>
<path d="M533.472 130.1C533.502 130.22 530.792 131.03 527.432 131.91C524.062 132.79 521.302 133.4 521.272 133.28C521.242 133.16 523.942 132.35 527.322 131.47C530.692 130.59 533.452 129.98 533.482 130.1H533.472Z" fill="#205678"/>
<path d="M463.042 150.53C463.062 150.65 458.902 151.57 453.732 152.57C448.572 153.57 444.362 154.29 444.342 154.17C444.322 154.05 448.482 153.14 453.652 152.13C458.812 151.13 463.022 150.41 463.042 150.53Z" fill="#205678"/>
<path d="M471.241 131.62C471.261 131.74 466.751 132.72 461.151 133.81C455.551 134.9 451.001 135.68 450.971 135.56C450.951 135.44 455.461 134.46 461.061 133.37C466.661 132.28 471.211 131.5 471.241 131.62Z" fill="#205678"/>
<path d="M487.252 114.24C487.272 114.36 481.552 115.58 474.462 116.96C467.372 118.34 461.612 119.36 461.592 119.23C461.572 119.11 467.292 117.89 474.382 116.51C481.472 115.13 487.232 114.11 487.252 114.24Z" fill="#205678"/>
<path d="M230.111 223.02L252.481 221.28L254.321 244.99L231.951 246.73L235.011 286.12L205.591 288.41L202.531 249.02L140.891 253.81L140.941 227.77L190.861 111.46L221.251 109.1L230.101 223.02H230.111ZM153.151 229L200.691 225.31L195.111 153.46L194.361 153.27L192.341 158.69L153.161 229.01L153.151 229Z" fill="#E0E0E0"/>
<path d="M216.401 211.55L238.771 209.81L240.611 233.52L218.241 235.26L221.301 274.65L191.881 276.94L188.821 237.55L112.831 243.46L110.701 225.49L177.151 100L207.541 97.6401L216.391 211.56L216.401 211.55ZM139.441 217.53L186.981 213.84L181.401 141.99L180.651 141.8L178.631 147.22L139.451 217.54L139.441 217.53Z" fill="#205678"/>
<g opacity="0.4">
<path d="M216.401 211.55L238.771 209.81L240.611 233.52L218.241 235.26L221.301 274.65L191.881 276.94L188.821 237.55L112.831 243.46L110.701 225.49L177.151 100L207.541 97.6401L216.391 211.56L216.401 211.55ZM139.441 217.53L186.981 213.84L181.401 141.99L180.651 141.8L178.631 147.22L139.451 217.54L139.441 217.53Z" fill="black"/>
</g>
<path d="M196.921 212.97L219.291 211.23L221.131 234.94L198.761 236.68L201.821 276.07L172.401 278.36L169.341 238.97L93.3507 244.88L91.2207 226.91L157.671 101.42L188.061 99.0601L196.911 212.98L196.921 212.97ZM119.961 218.95L167.501 215.26L161.921 143.41L161.171 143.22L159.151 148.64L119.971 218.96L119.961 218.95Z" fill="#205678"/>
<path d="M148.671 202.03C148.671 202.03 148.341 202.24 147.731 202.57C147.111 202.89 146.211 203.35 145.101 203.9C142.871 205 139.761 206.47 136.311 208.04C132.861 209.61 129.721 211 127.431 211.96C126.291 212.44 125.361 212.82 124.711 213.07C124.061 213.32 123.701 213.45 123.691 213.43C123.691 213.41 124.031 213.24 124.661 212.95C125.341 212.64 126.251 212.23 127.341 211.73C129.651 210.68 132.751 209.27 136.181 207.72C139.601 206.15 142.701 204.73 145.011 203.67C146.101 203.17 147.001 202.76 147.691 202.44C148.321 202.15 148.681 202 148.691 202.03H148.671Z" fill="#205678"/>
<path d="M159.252 182.87C159.252 182.87 158.922 183.08 158.292 183.39C157.662 183.7 156.752 184.14 155.622 184.67C153.352 185.73 150.202 187.14 146.712 188.66C143.212 190.17 140.032 191.5 137.712 192.42C136.552 192.88 135.612 193.24 134.962 193.49C134.312 193.73 133.942 193.85 133.932 193.83C133.932 193.81 134.272 193.64 134.912 193.36C135.602 193.06 136.522 192.67 137.632 192.19C139.972 191.18 143.112 189.83 146.592 188.33C150.062 186.82 153.202 185.45 155.532 184.44C156.642 183.96 157.552 183.56 158.242 183.26C158.882 182.98 159.242 182.84 159.252 182.86V182.87Z" fill="#205678"/>
<path d="M214.862 199.73C214.862 199.73 214.632 199.91 214.172 200.19C213.722 200.47 213.052 200.86 212.232 201.33C210.582 202.28 208.282 203.55 205.712 204.9C203.142 206.25 200.782 207.41 199.072 208.23C198.212 208.64 197.512 208.96 197.032 209.17C196.542 209.38 196.272 209.49 196.262 209.47C196.252 209.45 196.502 209.3 196.972 209.05C197.502 208.77 198.172 208.42 198.962 208.01C200.712 207.1 203.012 205.91 205.552 204.6C208.082 203.26 210.362 202.05 212.112 201.13C212.902 200.71 213.572 200.37 214.102 200.08C214.572 199.84 214.842 199.71 214.852 199.74L214.862 199.73Z" fill="#205678"/>
<path d="M238.731 213.07C238.731 213.07 238.501 213.25 238.041 213.53C237.591 213.81 236.921 214.2 236.101 214.67C234.451 215.62 232.151 216.89 229.581 218.24C227.011 219.59 224.651 220.75 222.941 221.57C222.081 221.98 221.381 222.3 220.901 222.51C220.411 222.72 220.141 222.83 220.131 222.81C220.121 222.79 220.371 222.64 220.841 222.39C221.371 222.11 222.041 221.76 222.831 221.35C224.581 220.44 226.881 219.25 229.421 217.94C231.951 216.6 234.231 215.39 235.981 214.47C236.771 214.05 237.441 213.71 237.971 213.42C238.441 213.18 238.711 213.05 238.721 213.08L238.731 213.07Z" fill="#205678"/>
<path d="M239.76 225C239.76 225 239.53 225.18 239.07 225.46C238.62 225.74 237.95 226.13 237.13 226.6C235.48 227.55 233.18 228.82 230.61 230.17C228.04 231.52 225.68 232.68 223.97 233.5C223.11 233.91 222.41 234.23 221.93 234.44C221.44 234.65 221.17 234.76 221.16 234.74C221.15 234.72 221.4 234.57 221.87 234.32C222.4 234.04 223.07 233.69 223.86 233.28C225.61 232.37 227.91 231.18 230.45 229.87C232.98 228.53 235.26 227.32 237.01 226.4C237.8 225.98 238.47 225.64 239 225.36C239.47 225.12 239.74 224.99 239.75 225.02L239.76 225Z" fill="#205678"/>
<path d="M218.192 235.66C218.192 235.66 217.972 235.84 217.532 236.12C217.092 236.4 216.452 236.78 215.652 237.26C214.062 238.2 211.832 239.47 209.342 240.8C206.852 242.14 204.572 243.3 202.902 244.11C202.072 244.52 201.392 244.84 200.922 245.05C200.452 245.26 200.182 245.37 200.172 245.35C200.162 245.33 200.402 245.18 200.862 244.93C201.382 244.65 202.032 244.3 202.792 243.89C204.492 242.98 206.712 241.8 209.172 240.5C211.622 239.17 213.832 237.97 215.522 237.05C216.282 236.64 216.932 236.29 217.452 236.01C217.912 235.77 218.172 235.65 218.182 235.67L218.192 235.66Z" fill="#205678"/>
<path d="M219.141 248.54C219.141 248.54 218.921 248.72 218.481 249C218.041 249.28 217.401 249.66 216.601 250.14C215.011 251.08 212.781 252.35 210.291 253.68C207.801 255.02 205.521 256.18 203.851 256.99C203.021 257.4 202.341 257.72 201.871 257.93C201.401 258.14 201.131 258.25 201.121 258.23C201.111 258.21 201.351 258.06 201.811 257.81C202.331 257.53 202.981 257.18 203.741 256.77C205.441 255.86 207.661 254.68 210.121 253.38C212.571 252.05 214.781 250.85 216.471 249.93C217.231 249.52 217.881 249.17 218.401 248.89C218.861 248.65 219.121 248.53 219.131 248.55L219.141 248.54Z" fill="#205678"/>
<path d="M220.091 261.42C220.091 261.42 219.871 261.6 219.431 261.88C218.991 262.16 218.351 262.54 217.551 263.02C215.961 263.96 213.731 265.23 211.241 266.56C208.751 267.9 206.471 269.06 204.801 269.87C203.971 270.28 203.291 270.6 202.821 270.81C202.351 271.02 202.081 271.13 202.071 271.11C202.061 271.09 202.301 270.94 202.761 270.69C203.281 270.41 203.931 270.06 204.691 269.65C206.391 268.74 208.611 267.56 211.071 266.26C213.521 264.93 215.731 263.73 217.421 262.81C218.181 262.4 218.831 262.05 219.351 261.77C219.811 261.53 220.071 261.41 220.081 261.43L220.091 261.42Z" fill="#205678"/>
<path d="M213.882 186.12C213.882 186.12 213.652 186.3 213.192 186.58C212.742 186.86 212.072 187.25 211.252 187.72C209.602 188.67 207.302 189.94 204.732 191.29C202.162 192.64 199.802 193.8 198.092 194.62C197.232 195.03 196.532 195.35 196.052 195.56C195.562 195.77 195.292 195.88 195.282 195.86C195.272 195.84 195.522 195.69 195.992 195.44C196.522 195.16 197.192 194.81 197.982 194.4C199.732 193.49 202.032 192.3 204.572 190.99C207.102 189.65 209.382 188.44 211.132 187.52C211.922 187.1 212.592 186.76 213.122 186.48C213.592 186.24 213.862 186.11 213.872 186.14L213.882 186.12Z" fill="#205678"/>
<path d="M212.891 172.51C212.891 172.51 212.661 172.69 212.201 172.97C211.751 173.25 211.081 173.64 210.261 174.11C208.611 175.06 206.311 176.33 203.741 177.68C201.171 179.03 198.811 180.19 197.101 181.01C196.241 181.42 195.541 181.74 195.061 181.95C194.571 182.16 194.301 182.27 194.291 182.25C194.281 182.23 194.531 182.08 195.001 181.83C195.531 181.55 196.201 181.2 196.991 180.79C198.741 179.88 201.041 178.69 203.581 177.38C206.111 176.04 208.391 174.83 210.141 173.91C210.931 173.49 211.601 173.15 212.131 172.86C212.601 172.62 212.871 172.49 212.881 172.52L212.891 172.51Z" fill="#205678"/>
<path d="M211.402 156.63C211.402 156.63 211.182 156.81 210.752 157.07C210.322 157.34 209.692 157.71 208.902 158.16C207.332 159.06 205.142 160.28 202.692 161.56C200.242 162.84 197.992 163.95 196.362 164.72C195.542 165.11 194.882 165.41 194.412 165.62C193.952 165.82 193.682 165.93 193.672 165.9C193.662 165.88 193.902 165.73 194.352 165.49C194.862 165.22 195.502 164.89 196.252 164.5C197.932 163.63 200.112 162.5 202.532 161.25C204.932 159.98 207.112 158.82 208.782 157.94C209.532 157.55 210.172 157.21 210.682 156.95C211.132 156.72 211.392 156.6 211.402 156.62V156.63Z" fill="#205678"/>
<path d="M210.531 140.06C210.531 140.06 210.311 140.24 209.881 140.5C209.451 140.77 208.821 141.14 208.031 141.59C206.461 142.49 204.271 143.71 201.821 144.99C199.371 146.27 197.121 147.38 195.491 148.15C194.671 148.54 194.011 148.84 193.541 149.05C193.081 149.25 192.811 149.36 192.801 149.33C192.791 149.31 193.031 149.16 193.481 148.92C193.991 148.65 194.631 148.32 195.381 147.93C197.061 147.06 199.241 145.93 201.661 144.68C204.061 143.41 206.241 142.25 207.911 141.37C208.661 140.98 209.301 140.64 209.811 140.38C210.261 140.15 210.521 140.03 210.531 140.05V140.06Z" fill="#205678"/>
<path d="M209.422 123.08C209.422 123.08 209.192 123.27 208.742 123.56C208.292 123.85 207.632 124.26 206.802 124.76C205.152 125.76 202.852 127.1 200.282 128.53C197.702 129.96 195.332 131.19 193.612 132.06C192.752 132.49 192.042 132.84 191.552 133.07C191.062 133.3 190.782 133.42 190.772 133.4C190.762 133.38 191.012 133.22 191.482 132.95C192.022 132.65 192.692 132.28 193.482 131.84C195.252 130.87 197.552 129.62 200.092 128.22C202.622 126.81 204.912 125.53 206.662 124.54C207.452 124.1 208.122 123.73 208.662 123.43C209.142 123.17 209.412 123.04 209.422 123.06V123.08Z" fill="#205678"/>
<path d="M208.781 106.92C208.781 106.92 208.541 107.1 208.071 107.37C207.601 107.64 206.911 108.02 206.061 108.48C204.351 109.4 201.971 110.63 199.301 111.94C196.631 113.24 194.191 114.37 192.401 115.16C191.511 115.55 190.781 115.87 190.281 116.07C189.771 116.28 189.491 116.38 189.481 116.36C189.471 116.34 189.731 116.19 190.221 115.95C190.781 115.68 191.471 115.34 192.291 114.94C194.121 114.06 196.501 112.91 199.131 111.64C201.751 110.34 204.121 109.17 205.941 108.27C206.761 107.87 207.451 107.53 208.011 107.26C208.501 107.03 208.781 106.91 208.791 106.93L208.781 106.92Z" fill="#205678"/>
<path d="M164.102 165.25C164.162 165.36 159.692 167.69 154.132 170.45C148.572 173.21 144.012 175.36 143.962 175.24C143.902 175.13 148.372 172.8 153.932 170.04C159.492 167.28 164.042 165.13 164.102 165.25Z" fill="#205678"/>
<path d="M162.381 151.4C162.451 151.5 161.011 152.55 159.051 153.53C157.091 154.52 155.381 155.04 155.341 154.92C155.291 154.8 156.911 154.1 158.841 153.12C160.781 152.15 162.311 151.28 162.381 151.39V151.4Z" fill="#205678"/>
<path d="M257.861 226.02C264.511 240.69 271.671 250.29 287.331 263.42C306.311 279.33 333.651 284.51 357.281 277.11C380.911 269.71 402.871 249.81 409.561 225.96" fill="#E0E0E0"/>
<path d="M333.68 270.35C381.746 270.35 420.71 231.385 420.71 183.32C420.71 135.255 381.746 96.29 333.68 96.29C285.615 96.29 246.65 135.255 246.65 183.32C246.65 231.385 285.615 270.35 333.68 270.35Z" fill="#00D38E"/>
<path opacity="0.3" d="M306.721 100.84C303.881 103.12 307.981 107.78 310.771 110.12C313.561 112.46 316.881 115.25 316.501 118.87C307.601 120.4 298.391 122.07 290.991 127.24C280.041 134.9 275.351 148.48 269.571 160.52C266.051 167.87 261.911 174.92 258.711 182.42C255.521 189.92 253.271 198.01 253.811 206.14C254.351 214.27 257.991 222.46 264.661 227.14C271.331 231.82 281.171 232.18 287.371 226.9C287.581 229.19 287.781 231.48 287.991 233.77L285.941 256.1L336.491 259.76L342.281 108V96.7C342.281 96.7 312.481 96.21 306.711 100.84H306.721Z" fill="black"/>
<path d="M409.899 183.61C406.299 181.57 402.099 181.14 397.969 181.23C393.829 181.32 389.749 182.25 385.789 183.45C382.439 184.47 379.129 185.7 376.189 187.6L376.599 188.77C387.609 191.67 399.679 190.35 409.789 185.11C410.079 184.96 410.919 184.61 410.859 184.29C410.819 184.09 410.089 183.71 409.899 183.61Z" fill="#263238"/>
<path d="M264.97 186.24C264.13 187.62 264.58 189.54 265.3 190.99C266.02 192.44 267.23 193.58 268.48 194.61C272.3 197.76 276.9 200.24 281.84 200.49C286.79 200.74 292.05 198.35 294.22 193.9C294.75 192.81 295.73 191.13 295.73 191.13C294.99 190.57 292.76 189.57 291.94 189.25C287.49 187.53 283.31 185.57 278.61 184.73C273.91 183.89 269.38 184.4 264.98 186.24" fill="#263238"/>
<path d="M393.021 133.01C390.281 130.01 356.851 117.11 356.851 117.11L325.121 119.34C325.121 119.34 309.651 123.35 298.041 127.57C290.951 130.14 285.281 135.59 282.471 142.59L264.961 186.25C264.961 186.25 267.541 184.79 274.991 184.89C282.651 185 295.711 191.14 295.711 191.14L287.391 256.88C312.961 274.11 343.721 275.65 373.521 260.72L373.691 251.35L376.891 188.51C380.211 184 398.261 178.14 410.831 184.31C410.831 184.31 398.681 139.26 393.001 133.03L393.021 133.01Z" fill="#455A64"/>
<path d="M374.01 148.37C374.01 148.37 374.03 148.09 374.14 147.59C374.25 147.09 374.46 146.38 374.79 145.53C375.44 143.82 376.65 141.56 378.51 139.45C380.37 137.35 382.47 135.87 384.09 135.02C384.9 134.59 385.57 134.29 386.06 134.12C386.54 133.95 386.81 133.86 386.82 133.89C386.85 133.97 385.8 134.38 384.25 135.29C382.7 136.2 380.68 137.69 378.85 139.74C377.03 141.8 375.8 143.99 375.09 145.64C374.37 147.29 374.09 148.38 374.01 148.36V148.37Z" fill="#263238"/>
<path d="M374.1 187.79C373.98 187.79 373.84 179.64 373.81 169.58C373.77 159.52 373.84 151.37 373.97 151.37C374.09 151.37 374.23 159.52 374.26 169.58C374.3 179.64 374.23 187.79 374.1 187.79Z" fill="#263238"/>
<path d="M299.8 152.45C299.92 152.46 299.1 161.01 297.96 171.53C296.82 182.06 295.8 190.58 295.67 190.56C295.54 190.54 296.37 182 297.51 171.48C298.65 160.96 299.67 152.43 299.8 152.45Z" fill="#263238"/>
<path d="M361.161 118.86C361.161 118.86 361.191 119.08 361.191 119.49C361.211 119.91 361.191 120.52 361.121 121.31C360.981 122.88 360.531 125.16 359.361 127.75C358.171 130.31 356.211 133.18 353.221 135.48C350.261 137.8 346.221 139.34 341.881 139.56C337.541 139.76 333.371 138.62 330.201 136.59C327.001 134.59 324.771 131.92 323.341 129.49C321.931 127.03 321.261 124.8 320.971 123.25C320.831 122.47 320.741 121.87 320.721 121.45C320.691 121.04 320.681 120.82 320.691 120.82C320.751 120.82 320.791 121.69 321.141 123.22C321.481 124.74 322.191 126.93 323.621 129.33C325.061 131.71 327.281 134.31 330.431 136.24C333.551 138.2 337.621 139.3 341.871 139.11C346.121 138.89 350.071 137.4 352.981 135.15C355.921 132.92 357.881 130.12 359.091 127.61C360.281 125.08 360.771 122.84 360.971 121.29C361.171 119.73 361.131 118.86 361.181 118.86H361.161Z" fill="#263238"/>
<path d="M296.2 176.51C296.2 176.51 295.85 176.42 295.25 176.18C294.66 175.94 293.79 175.59 292.72 175.19C290.58 174.37 287.57 173.35 284.18 172.51C280.78 171.67 277.65 171.17 275.37 170.89C274.23 170.75 273.31 170.65 272.67 170.59C272.03 170.52 271.68 170.47 271.68 170.44C271.68 170.41 272.04 170.4 272.68 170.41C273.32 170.41 274.26 170.47 275.4 170.57C277.7 170.77 280.86 171.22 284.28 172.07C287.7 172.92 290.71 174 292.83 174.89C293.89 175.34 294.74 175.73 295.32 176.02C295.9 176.31 296.21 176.48 296.19 176.51H296.2Z" fill="#FAFAFA"/>
<path d="M373.571 173.01C373.571 173.13 356.601 172.7 335.671 172.04C314.741 171.38 297.781 170.75 297.781 170.62C297.781 170.49 314.751 170.93 335.681 171.59C356.601 172.25 373.571 172.88 373.561 173.01H373.571Z" fill="#FAFAFA"/>
<path d="M403.611 161.33C403.611 161.33 403.181 161.36 402.421 161.33C401.661 161.29 400.561 161.26 399.191 161.27C396.471 161.28 392.701 161.56 388.641 162.43C384.581 163.32 381.041 164.63 378.561 165.75C377.321 166.31 376.321 166.79 375.651 167.14C374.971 167.49 374.591 167.67 374.571 167.64C374.551 167.61 374.911 167.38 375.561 166.99C376.211 166.59 377.191 166.06 378.421 165.46C380.881 164.26 384.441 162.88 388.541 161.99C392.641 161.1 396.451 160.88 399.181 160.95C400.551 160.98 401.661 161.06 402.421 161.15C403.181 161.24 403.601 161.3 403.601 161.33H403.611Z" fill="#FAFAFA"/>
<path d="M299.62 149.06C299.57 149.12 298.73 148.46 297.28 147.56C295.83 146.66 293.72 145.56 291.24 144.73C288.76 143.91 286.42 143.53 284.71 143.38C283 143.23 281.94 143.26 281.93 143.18C281.93 143.15 282.19 143.11 282.68 143.08C283.16 143.04 283.86 143.03 284.73 143.06C286.46 143.13 288.86 143.46 291.38 144.3C293.9 145.14 296.02 146.3 297.45 147.29C298.16 147.78 298.72 148.21 299.08 148.53C299.45 148.85 299.64 149.03 299.62 149.06Z" fill="#FAFAFA"/>
<path d="M368.301 147.58C368.301 147.58 368.081 147.59 367.651 147.57C367.181 147.54 366.571 147.5 365.801 147.45C364.141 147.33 361.831 147.16 359.001 146.96C353.251 146.55 345.311 146.06 336.531 145.71C327.751 145.37 319.791 145.23 314.031 145.18C311.191 145.16 308.871 145.15 307.211 145.14C306.441 145.14 305.821 145.12 305.351 145.12C304.931 145.11 304.701 145.1 304.701 145.08C304.701 145.06 304.921 145.05 305.351 145.03C305.821 145.01 306.431 144.99 307.201 144.97C308.811 144.92 311.141 144.89 314.021 144.87C319.781 144.84 327.751 144.92 336.541 145.26C345.331 145.61 353.271 146.15 359.011 146.64C361.881 146.88 364.201 147.1 365.801 147.27C366.571 147.36 367.181 147.43 367.641 147.48C368.061 147.53 368.281 147.57 368.281 147.58H368.301Z" fill="#FAFAFA"/>
<path d="M319.981 126.8C319.981 126.92 316.611 126.8 312.461 126.53C308.321 126.26 304.961 125.94 304.971 125.81C304.971 125.69 308.341 125.81 312.491 126.08C316.631 126.35 319.981 126.67 319.981 126.8Z" fill="#FAFAFA"/>
<path d="M379.69 125.89C379.69 126.01 375.34 126.12 369.97 126.12C364.6 126.12 360.25 126.02 360.25 125.89C360.25 125.76 364.6 125.66 369.97 125.66C375.34 125.66 379.69 125.76 379.69 125.89Z" fill="#FAFAFA"/>
<path d="M374.691 205.04C374.691 205.04 374.621 205.05 374.481 205.06C374.321 205.06 374.121 205.06 373.881 205.08C373.311 205.08 372.531 205.09 371.551 205.1C369.531 205.11 366.611 205.09 363.001 205.03C355.781 204.91 345.811 204.58 334.811 203.88C323.811 203.18 313.871 202.24 306.701 201.45C303.111 201.05 300.211 200.7 298.211 200.44C297.241 200.31 296.471 200.2 295.911 200.13C295.671 200.09 295.471 200.06 295.311 200.04C295.181 200.02 295.111 200 295.111 199.99C295.111 199.98 295.181 199.99 295.321 199.99C295.481 200 295.681 200.02 295.921 200.04C296.491 200.1 297.261 200.17 298.231 200.27C300.281 200.48 303.171 200.78 306.731 201.14C313.911 201.86 323.851 202.74 334.841 203.44C345.831 204.14 355.791 204.52 363.011 204.72C366.591 204.81 369.501 204.88 371.561 204.94C372.541 204.97 373.311 204.99 373.881 205.01C374.121 205.02 374.321 205.03 374.481 205.04C374.621 205.04 374.691 205.06 374.691 205.06V205.04Z" fill="#FAFAFA"/>
<path d="M375.281 232.95C375.281 232.95 375.211 232.98 375.071 233.01C374.901 233.05 374.701 233.09 374.441 233.15C373.851 233.27 373.041 233.43 372.011 233.63C370.961 233.84 369.671 234.09 368.161 234.31C366.651 234.54 364.941 234.85 363.031 235.07C361.131 235.32 359.041 235.59 356.791 235.78C354.541 236.03 352.131 236.17 349.601 236.34C344.531 236.6 338.931 236.7 333.071 236.51C327.211 236.28 321.641 235.78 316.591 235.16C314.071 234.81 311.681 234.5 309.451 234.09C307.221 233.73 305.151 233.32 303.271 232.93C301.381 232.57 299.701 232.15 298.211 231.8C296.721 231.47 295.451 231.13 294.411 230.84C293.401 230.56 292.611 230.34 292.031 230.18C291.781 230.11 291.581 230.05 291.411 230C291.271 229.96 291.201 229.93 291.201 229.92C291.201 229.92 291.281 229.92 291.421 229.95C291.591 229.99 291.791 230.03 292.051 230.09C292.631 230.23 293.441 230.42 294.451 230.66C295.491 230.92 296.771 231.23 298.261 231.54C299.751 231.86 301.441 232.26 303.331 232.6C305.211 232.97 307.281 233.36 309.511 233.7C311.731 234.09 314.121 234.39 316.641 234.73C321.681 235.33 327.231 235.82 333.081 236.04C338.931 236.23 344.511 236.14 349.571 235.91C352.101 235.75 354.511 235.63 356.751 235.4C359.001 235.22 361.081 234.97 362.991 234.74C364.901 234.54 366.611 234.26 368.121 234.05C369.631 233.85 370.931 233.63 371.981 233.44C373.011 233.27 373.831 233.14 374.421 233.04C374.681 233 374.891 232.97 375.061 232.95C375.201 232.93 375.281 232.93 375.281 232.93V232.95Z" fill="#FAFAFA"/>
<path d="M373.611 256.8C373.611 256.8 373.541 256.83 373.401 256.88C373.231 256.93 373.031 257 372.771 257.07C372.181 257.24 371.361 257.48 370.331 257.78C369.801 257.93 369.211 258.11 368.561 258.27C367.901 258.42 367.191 258.57 366.431 258.74C365.661 258.91 364.841 259.09 363.981 259.28C363.111 259.46 362.181 259.59 361.211 259.76C360.241 259.92 359.221 260.1 358.151 260.26C357.081 260.39 355.971 260.52 354.821 260.66C354.241 260.73 353.661 260.8 353.061 260.87C352.461 260.92 351.851 260.96 351.241 261.01C350.011 261.1 348.741 261.2 347.441 261.29C342.231 261.53 336.481 261.54 330.471 261.19C324.461 260.79 318.761 260.06 313.611 259.2C312.331 258.95 311.081 258.71 309.871 258.47C309.261 258.35 308.671 258.23 308.081 258.12C307.501 257.98 306.921 257.85 306.361 257.71C305.231 257.44 304.141 257.19 303.091 256.94C302.051 256.65 301.061 256.38 300.111 256.11C292.511 253.95 288.061 251.93 288.061 251.93C288.061 251.93 288.141 251.94 288.281 251.99C288.451 252.05 288.651 252.11 288.911 252.2C289.491 252.41 290.291 252.69 291.301 253.05C291.821 253.23 292.391 253.45 293.031 253.66C293.671 253.86 294.371 254.08 295.111 254.31C295.861 254.54 296.651 254.8 297.501 255.06C298.351 255.32 299.261 255.54 300.211 255.8C301.161 256.05 302.161 256.32 303.191 256.6C304.241 256.84 305.331 257.09 306.461 257.34C307.021 257.47 307.601 257.6 308.181 257.73C308.771 257.84 309.361 257.96 309.971 258.07C311.181 258.3 312.431 258.54 313.711 258.78C318.851 259.62 324.531 260.33 330.521 260.73C336.521 261.08 342.241 261.08 347.441 260.86C348.741 260.77 350.001 260.68 351.231 260.6C351.841 260.56 352.451 260.51 353.051 260.47C353.641 260.4 354.231 260.34 354.801 260.27C355.951 260.14 357.061 260.02 358.131 259.9C359.191 259.76 360.211 259.58 361.181 259.43C362.151 259.27 363.081 259.15 363.951 258.98C364.821 258.8 365.641 258.63 366.401 258.47C367.161 258.31 367.881 258.17 368.541 258.03C369.191 257.88 369.781 257.71 370.321 257.58C371.361 257.32 372.181 257.11 372.781 256.96C373.041 256.9 373.251 256.85 373.421 256.81C373.571 256.78 373.641 256.77 373.641 256.77L373.611 256.8Z" fill="#FAFAFA"/>
<path opacity="0.2" d="M291.461 223.37C305.761 220.57 319.321 214.05 330.431 204.62C332.401 202.95 334.531 201.09 337.111 201C340.021 200.9 342.451 203.07 344.661 204.97C353.411 212.46 364.141 217.61 375.451 219.76C377.091 217.2 376.381 213.68 374.561 211.24C372.751 208.8 370.051 207.21 367.421 205.68C359.241 200.92 351.061 196.15 342.881 191.39C341.021 190.31 338.961 189.18 336.831 189.52C335.421 189.75 334.201 190.59 333.031 191.41C320.251 200.4 307.461 209.39 294.681 218.38C293.001 219.56 291.111 221.62 292.211 223.36" fill="black"/>
<path d="M267.39 185.75C267.39 185.75 261.65 202.85 260.83 205.81C259.25 211.54 260.73 226.47 274.67 226.47C291.57 226.47 353.23 186.67 353.23 186.67L340.63 179.08L290.64 195.4L292.56 189.75C292.56 189.75 278.7 182.59 267.39 185.75Z" fill="#FFBE9D"/>
<path d="M340.9 179.67C340.9 179.67 357.39 158.22 357.39 157.94C357.39 157.66 367.17 149.29 367.17 149.29C367.17 149.29 369.33 149.38 369.15 150.79C368.96 152.2 365.48 157.19 365.48 157.19C365.48 157.19 365.12 158.34 363.79 160.31C362.82 161.75 357.96 170.26 357.96 170.26C357.96 170.26 362.57 165.84 363.42 166.31C364.27 166.78 364.93 167.34 364.45 168.76C363.97 170.18 359.65 174.5 359.65 174.5C359.65 174.5 357.11 183.44 354.29 185.98L347.24 190.68L340.91 179.67H340.9Z" fill="#FFBE9D"/>
<path d="M356.239 173.99C356.299 173.96 356.469 175.15 355.519 176.65C355.069 177.4 354.379 178.16 353.689 179.03C352.979 179.89 352.429 180.95 352.019 182.17C351.599 183.38 351.299 184.59 350.869 185.64C350.439 186.7 349.889 187.59 349.289 188.23C348.699 188.88 348.069 189.24 347.629 189.42C347.169 189.59 346.899 189.61 346.899 189.59C346.859 189.51 347.979 189.32 349.059 188.02C349.589 187.39 350.099 186.52 350.489 185.49C350.889 184.46 351.179 183.26 351.599 182.02C352.009 180.78 352.619 179.63 353.369 178.76C354.099 177.89 354.789 177.17 355.249 176.47C356.219 175.09 356.169 173.97 356.239 173.99Z" fill="#EB996E"/>
<path d="M365.49 157.72C365.49 157.72 365.32 157.52 364.97 157.28C364.62 157.04 363.99 156.83 363.23 156.94C362.47 157.02 361.65 157.51 360.94 158.26C360.23 159.01 359.57 159.98 358.81 160.94C357.32 162.88 355.95 164.62 354.94 165.87C353.93 167.12 353.28 167.87 353.23 167.83C353.18 167.79 353.74 166.97 354.69 165.67C355.64 164.37 356.97 162.6 358.46 160.66C359.22 159.7 359.88 158.75 360.65 157.96C361.41 157.19 362.34 156.66 363.2 156.62C364.05 156.55 364.72 156.84 365.07 157.14C365.43 157.45 365.51 157.71 365.49 157.72Z" fill="#EB996E"/>
<path d="M356.37 179.02C356.25 178.97 356.89 177.07 357.35 174.64C357.83 172.22 357.95 170.21 358.08 170.21C358.2 170.21 358.28 172.26 357.79 174.72C357.31 177.19 356.47 179.06 356.37 179.01V179.02Z" fill="#EB996E"/>
<path d="M404.321 182.17C404.321 182.17 410.371 199.51 411.201 202.46C412.471 207.02 411.301 223.12 397.361 223.12C380.461 223.12 318.801 183.32 318.801 183.32L330.441 175.42L381.391 192.05L379.421 186.24C379.421 186.24 389.941 179.93 404.321 182.17Z" fill="#FFBE9D"/>
<path d="M331.13 176.32C331.13 176.32 314.64 154.87 314.64 154.59C314.64 154.31 304.86 145.94 304.86 145.94C304.86 145.94 302.7 146.03 302.88 147.44C303.07 148.85 306.55 153.84 306.55 153.84C306.55 153.84 306.91 154.99 308.24 156.96C309.21 158.4 314.07 166.91 314.07 166.91C314.07 166.91 309.46 162.49 308.61 162.96C307.76 163.43 307.11 163.99 307.58 165.41C308.05 166.82 312.38 171.15 312.38 171.15C312.38 171.15 314.92 180.09 317.74 182.63L324.79 187.33L331.12 176.32H331.13Z" fill="#FFBE9D"/>
<path d="M315.78 170.65C315.85 170.64 315.8 171.75 316.77 173.13C317.23 173.82 317.93 174.54 318.65 175.42C319.4 176.28 320.01 177.44 320.42 178.68C320.84 179.92 321.14 181.12 321.53 182.15C321.92 183.18 322.42 184.05 322.96 184.68C324.04 185.98 325.16 186.17 325.12 186.25C325.12 186.27 324.84 186.25 324.39 186.08C323.94 185.9 323.31 185.53 322.73 184.89C322.14 184.25 321.58 183.36 321.15 182.3C320.72 181.24 320.41 180.04 320 178.83C319.59 177.61 319.04 176.54 318.33 175.69C317.64 174.82 316.95 174.06 316.5 173.31C315.55 171.81 315.72 170.62 315.78 170.65Z" fill="#EB996E"/>
<path d="M306.529 154.37C306.529 154.37 306.589 154.1 306.949 153.79C307.299 153.49 307.979 153.2 308.819 153.27C309.679 153.31 310.609 153.84 311.369 154.61C312.139 155.39 312.799 156.35 313.559 157.31C315.049 159.25 316.379 161.02 317.329 162.32C318.279 163.62 318.839 164.44 318.789 164.48C318.739 164.52 318.089 163.77 317.079 162.52C316.069 161.27 314.699 159.53 313.209 157.59C312.449 156.63 311.789 155.66 311.079 154.91C310.369 154.16 309.559 153.67 308.789 153.59C308.029 153.49 307.409 153.7 307.049 153.93C306.689 154.17 306.559 154.39 306.529 154.37Z" fill="#EB996E"/>
<path d="M315.66 175.68C315.55 175.73 314.71 173.86 314.24 171.39C313.75 168.92 313.83 166.88 313.95 166.88C314.08 166.88 314.21 168.88 314.68 171.31C315.15 173.73 315.79 175.64 315.66 175.69V175.68Z" fill="#EB996E"/>
<path d="M345.519 199.65C345.459 199.76 339.179 196.03 331.509 191.33C323.839 186.63 317.669 182.73 317.729 182.62C317.789 182.51 324.069 186.24 331.739 190.94C339.409 195.64 345.579 199.54 345.509 199.64L345.519 199.65Z" fill="#EB996E"/>
<path d="M382.429 192.55C382.429 192.55 382.239 192.52 381.889 192.42C381.489 192.3 380.989 192.16 380.359 191.97C378.979 191.54 377.079 190.96 374.759 190.24C370.029 188.76 363.519 186.67 356.329 184.32C349.139 181.97 342.649 179.8 337.969 178.18C335.629 177.37 333.739 176.7 332.439 176.22C331.829 175.99 331.329 175.8 330.949 175.65C330.609 175.51 330.439 175.44 330.439 175.42C330.439 175.41 330.629 175.45 330.979 175.56C331.369 175.69 331.879 175.85 332.499 176.05C333.869 176.5 335.759 177.12 338.069 177.88C342.829 179.43 349.299 181.55 356.469 183.89C363.619 186.24 370.099 188.37 374.849 189.93C377.159 190.71 379.039 191.34 380.409 191.8C381.029 192.02 381.529 192.19 381.919 192.33C382.259 192.46 382.439 192.53 382.439 192.54L382.429 192.55Z" fill="#EB996E"/>
<path d="M335.159 43.5801C322.209 43.5801 311.589 53.8501 311.159 66.7901C310.779 78.3501 310.499 91.1101 310.869 97.2901C311.629 110.1 324.549 111.48 324.549 111.48V119.32C324.529 128.46 331.939 135.88 341.089 135.88C350.099 135.88 357.459 128.67 357.629 119.66L358.629 68.2401C359.149 54.8801 348.539 43.7301 335.169 43.5801H335.159Z" fill="#FFBE9D"/>
<path d="M324.529 111.51C324.529 111.51 332.659 111.79 341.009 105.97C341.009 105.97 337.369 115.52 324.529 114.97V111.51Z" fill="#EB996E"/>
<path d="M315.069 74.1801C315.299 74.4201 316.679 73.3801 318.649 73.3701C320.619 73.3301 322.069 74.3401 322.279 74.1001C322.379 73.9901 322.149 73.5601 321.519 73.1101C320.899 72.6601 319.839 72.2201 318.609 72.2301C317.379 72.2401 316.349 72.7001 315.759 73.1701C315.159 73.6401 314.949 74.0701 315.069 74.1801Z" fill="#263238"/>
<path d="M334.58 73.81C334.81 74.04 336.18 72.98 338.15 72.94C340.12 72.87 341.59 73.84 341.8 73.6C341.9 73.49 341.66 73.07 341.02 72.62C340.39 72.18 339.32 71.76 338.09 71.8C336.86 71.84 335.84 72.32 335.26 72.79C334.67 73.27 334.47 73.71 334.59 73.81H334.58Z" fill="#263238"/>
<path d="M327.15 87.4701C327.15 87.3601 325.92 87.2001 323.92 87.0401C323.41 87.0101 322.93 86.9301 322.83 86.6001C322.69 86.2401 322.88 85.6901 323.1 85.0901C323.52 83.8501 323.95 82.5501 324.41 81.1901C326.22 75.6401 327.5 71.0901 327.28 71.0201C327.06 70.9501 325.41 75.3901 323.6 80.9401C323.17 82.3101 322.75 83.6101 322.36 84.8601C322.2 85.4401 321.9 86.1001 322.19 86.8501C322.34 87.2201 322.73 87.4701 323.05 87.5501C323.38 87.6301 323.66 87.6301 323.91 87.6301C325.91 87.6401 327.15 87.5901 327.15 87.4801V87.4701Z" fill="#263238"/>
<path d="M333.319 69.2701C333.629 69.7501 335.489 69.0701 337.809 68.8301C340.119 68.5501 342.089 68.8001 342.289 68.2601C342.369 68.0101 341.939 67.5901 341.089 67.2401C340.249 66.9001 338.969 66.6801 337.589 66.8401C336.199 67.0001 335.009 67.4901 334.259 68.0101C333.509 68.5301 333.179 69.0401 333.319 69.2701Z" fill="#263238"/>
<path d="M314.419 69.2001C314.669 69.7301 316.209 69.6501 317.919 70.0701C319.649 70.4401 320.999 71.1801 321.449 70.8101C321.649 70.6301 321.539 70.1301 321.009 69.5601C320.489 68.9901 319.539 68.3901 318.349 68.1101C317.169 67.8401 316.049 67.9701 315.339 68.2601C314.619 68.5501 314.309 68.9401 314.409 69.2001H314.419Z" fill="#263238"/>
<path d="M334.739 91.6902C334.659 91.8002 334.199 91.5402 333.429 91.3302C332.669 91.1102 331.559 90.9902 330.429 91.3102C329.299 91.6402 328.439 92.3502 327.909 92.9402C327.379 93.5302 327.129 93.9902 326.999 93.9502C326.889 93.9202 326.929 93.3502 327.389 92.5702C327.839 91.8002 328.799 90.8602 330.169 90.4602C331.539 90.0602 332.849 90.3402 333.649 90.7502C334.459 91.1602 334.799 91.6202 334.729 91.7002L334.739 91.6902Z" fill="#263238"/>
<path d="M316.869 75.94C316.879 76.9 317.699 77.67 318.699 77.68C319.699 77.68 320.499 76.92 320.489 75.96C320.479 75 319.659 74.22 318.659 74.22C317.659 74.22 316.859 74.98 316.869 75.94Z" fill="#263238"/>
<path d="M336.379 75.3801C336.389 76.3401 337.209 77.1102 338.209 77.1202C339.209 77.1202 340.009 76.3602 339.999 75.4002C339.989 74.4402 339.169 73.6602 338.169 73.6602C337.169 73.6602 336.369 74.4201 336.379 75.3801Z" fill="#263238"/>
<path d="M366.89 67.65C367.43 66.91 367.92 65.99 367.69 65.1C367.42 64.06 366.3 63.46 365.91 62.46C365.52 61.47 365.95 60.35 365.91 59.29C365.86 57.81 364.91 56.52 363.83 55.5C363.72 55.39 363.6 55.29 363.48 55.19C362.02 51.93 360.08 49.49 360.08 49.49L363.4 52.57C364.56 49.34 359.84 43.62 355.95 41.95C351.92 40.21 347.62 41.95 347.62 41.95C347.62 41.95 337.81 34.56 328.22 36.96C322.34 38.43 316.43 40.94 312.45 46.85C310.83 47.52 309.65 49.26 309.07 51C308.34 53.2 308.2 55.6 307.11 57.64C306.32 59.12 305.02 60.6 305.43 62.22C305.77 63.55 307.17 64.38 307.62 65.68C308.07 66.99 307.47 68.41 307.48 69.79C307.5 71.9 309.19 73.86 311.27 74.21C311.85 70.73 312.27 67.22 312.52 63.7C314.21 64.8 317.77 65.87 324.67 63.53L333.56 58.51C333.56 58.51 329.17 62.31 331.31 62.96C333.13 63.51 342.66 58.33 345.51 56.74C346.36 56.27 347.33 56.02 348.3 56.12C349.6 56.26 351.12 56.98 351.43 59.52C351.7 61.69 350.43 82.07 352.31 82.08C353.37 82.08 357.45 80.31 358.14 79.84V89.72C358.52 89.55 358.78 89.19 359.02 88.84C360.44 86.82 361.86 84.79 363.28 82.77C364.25 81.38 365.23 79.98 365.88 78.41C366.53 76.84 366.81 75.07 366.36 73.44C366.04 72.3 365.36 71.19 365.55 70.02C365.69 69.11 366.34 68.37 366.88 67.63L366.89 67.65Z" fill="#263238"/>
<path d="M342.889 35.8301C343.029 35.5601 343.679 35.5601 344.579 35.9701C345.479 36.3701 346.589 37.2401 347.429 38.4901C348.269 39.7501 348.659 41.1001 348.699 42.0801C348.739 43.0701 348.489 43.6701 348.189 43.7001C347.549 43.7401 346.939 41.7401 345.559 39.7501C344.229 37.7201 342.609 36.4101 342.879 35.8301H342.889Z" fill="#263238"/>
<path d="M310.699 50.1901C310.749 50.1501 310.889 50.8001 311.729 51.4601C312.539 52.0901 314.149 52.6401 315.969 52.0501C316.869 51.7801 317.799 51.2801 318.739 50.6701C319.689 50.0701 320.669 49.3501 321.829 48.7501C322.959 48.1601 324.339 47.6901 325.789 47.8701C327.229 48.0201 328.569 48.6801 329.889 49.3101C331.209 49.9401 332.509 50.5501 333.849 50.6601C335.189 50.7801 336.449 50.3201 337.499 49.6401C339.609 48.2801 341.029 46.4001 342.619 45.2601C344.169 44.0701 345.729 43.5101 346.829 43.5001C347.379 43.4801 347.799 43.5701 348.079 43.6501C348.349 43.7401 348.489 43.8001 348.489 43.8101C348.479 43.8701 347.909 43.5901 346.849 43.6701C345.789 43.7301 344.309 44.3101 342.819 45.5001C341.299 46.6401 339.909 48.5401 337.729 49.9801C336.649 50.6901 335.279 51.2101 333.829 51.0901C332.379 50.9801 331.029 50.3401 329.709 49.7101C328.389 49.0801 327.089 48.4501 325.759 48.3001C324.429 48.1301 323.139 48.5501 322.039 49.1101C320.919 49.6701 319.939 50.3801 318.959 50.9701C317.989 51.5701 317.029 52.0701 316.079 52.3301C314.149 52.9201 312.459 52.2901 311.639 51.5701C311.219 51.2101 310.979 50.8401 310.859 50.5801C310.739 50.3201 310.709 50.1701 310.719 50.1701L310.699 50.1901Z" fill="#455A64"/>
<path d="M365.529 59.7102C365.529 59.7102 365.509 59.8002 365.429 59.9402C365.349 60.0802 365.199 60.2802 364.969 60.4902C364.519 60.9202 363.659 61.3702 362.519 61.4002C361.379 61.4602 360.049 60.9402 358.899 60.0302C357.739 59.1102 356.689 57.9102 355.629 56.6202C353.509 54.0202 351.989 51.3802 351.059 49.4102C350.589 48.4202 350.259 47.6002 350.049 47.0302C349.839 46.4502 349.749 46.1302 349.779 46.1202C349.849 46.0902 350.349 47.3402 351.349 49.2702C352.349 51.1902 353.899 53.7802 355.989 56.3402C357.039 57.6102 358.069 58.8202 359.169 59.7102C360.259 60.6002 361.469 61.1002 362.529 61.0902C363.589 61.1102 364.409 60.7302 364.869 60.3702C365.339 60.0002 365.499 59.7002 365.539 59.7202L365.529 59.7102Z" fill="#455A64"/>
<path d="M365.65 71.4101C365.65 71.4101 365.45 71.5501 365.04 71.6801C364.63 71.8101 364.02 71.9401 363.25 71.9601C361.72 72.0201 359.56 71.5001 357.6 70.2001C355.65 68.9001 354.26 67.2801 353.31 66.1201C352.36 64.9401 351.83 64.1701 351.88 64.1401C351.93 64.1001 352.55 64.8001 353.55 65.9201C354.56 67.0301 355.96 68.5701 357.85 69.8301C359.74 71.0801 361.78 71.6301 363.25 71.6501C364.73 71.6901 365.62 71.3401 365.65 71.4201V71.4101Z" fill="#455A64"/>
<path d="M354.6 74.45C354.81 74.35 363.28 71.43 363.42 80.2C363.56 88.97 354.72 87.3 354.7 87.05C354.68 86.8 354.6 74.45 354.6 74.45Z" fill="#FFBE9D"/>
<path d="M357.32 83.6901C357.32 83.6901 357.47 83.7901 357.73 83.9101C357.98 84.0201 358.42 84.0901 358.87 83.9101C359.79 83.5601 360.55 82.0701 360.57 80.4901C360.58 79.6901 360.4 78.9301 360.11 78.3101C359.83 77.6701 359.41 77.2301 358.94 77.1501C358.47 77.0501 358.15 77.3301 358.04 77.5801C357.93 77.8301 357.98 78.0001 357.94 78.0201C357.92 78.0401 357.75 77.8801 357.81 77.5101C357.84 77.3401 357.94 77.1301 358.15 76.9501C358.36 76.7801 358.67 76.6801 358.99 76.7101C359.67 76.7501 360.29 77.3601 360.61 78.0501C360.97 78.7401 361.19 79.5901 361.18 80.4901C361.15 82.2601 360.27 83.9301 359.01 84.3101C358.4 84.4801 357.88 84.3101 357.61 84.1001C357.34 83.8901 357.29 83.6901 357.32 83.6801V83.6901Z" fill="#EB996E"/>
<path d="M282.87 322.296C282.87 324.262 281.379 325.396 278.478 325.396H273V313.925H278.145C280.785 313.925 282.259 315.042 282.259 316.889C282.259 318.134 281.617 319.006 280.721 319.45C282.014 319.815 282.87 320.774 282.87 322.304V322.296ZM274.641 315.248V318.919H278.002C279.675 318.919 280.626 318.293 280.626 317.08C280.626 315.867 279.675 315.241 278.002 315.241H274.641V315.248ZM281.213 322.169C281.213 320.845 280.23 320.251 278.407 320.251H274.633V324.072H278.407C280.23 324.072 281.213 323.501 281.213 322.169Z" fill="#205678"/>
<path d="M292.717 322.526H286.621L285.36 325.396H283.672L288.864 313.925H290.49L295.706 325.396H293.986L292.725 322.526H292.717ZM292.146 321.218L289.673 315.597L287.2 321.218H292.146Z" fill="#205678"/>
<path d="M297.4 313.925H302.236C305.922 313.925 308.436 316.255 308.436 319.664C308.436 323.073 305.93 325.404 302.236 325.404H297.4V313.932V313.925ZM302.141 323.977C304.979 323.977 306.795 322.241 306.795 319.664C306.795 317.088 304.971 315.352 302.141 315.352H299.041V323.977H302.141Z" fill="#205678"/>
<path d="M323.023 325.396L320.55 321.868C320.32 321.884 320.074 321.9 319.829 321.9H316.991V325.388H315.35V313.917H319.829C322.809 313.917 324.617 315.423 324.617 317.92C324.617 319.688 323.697 320.972 322.096 321.543L324.815 325.396H323.031H323.023ZM322.976 317.92C322.976 316.279 321.874 315.343 319.781 315.343H316.999V320.504H319.781C321.882 320.504 322.976 319.553 322.976 317.912V317.92Z" fill="#205678"/>
<path d="M335.588 323.969V325.396H327.264V313.925H335.358V315.352H328.897V318.879H334.652V320.275H328.897V323.977H335.588V323.969Z" fill="#205678"/>
<path d="M350.017 326.442C349.28 327.314 348.281 327.79 347.131 327.79C345.689 327.79 344.555 327.164 342.954 325.515C339.656 325.332 337.27 322.891 337.27 319.664C337.27 316.438 339.862 313.798 343.382 313.798C346.901 313.798 349.462 316.287 349.462 319.664C349.462 322.518 347.623 324.73 344.951 325.348C345.72 326.165 346.41 326.498 347.147 326.498C347.964 326.498 348.653 326.173 349.248 325.515L350.017 326.45V326.442ZM343.382 324.064C345.918 324.064 347.821 322.177 347.821 319.656C347.821 317.135 345.918 315.249 343.382 315.249C340.845 315.249 338.903 317.135 338.903 319.656C338.903 322.177 340.805 324.064 343.382 324.064Z" fill="#205678"/>
<path d="M351.863 320.449V313.925H353.504V320.385C353.504 322.93 354.67 324.072 356.731 324.072C358.792 324.072 359.973 322.922 359.973 320.385V313.925H361.567V320.449C361.567 323.778 359.743 325.53 356.715 325.53C353.687 325.53 351.863 323.778 351.863 320.449Z" fill="#205678"/>
<path d="M373.252 323.969V325.396H364.928V313.925H373.022V315.352H366.561V318.879H372.316V320.275H366.561V323.977H373.252V323.969Z" fill="#205678"/>
<path d="M374.854 324.088L375.456 322.811C376.312 323.58 377.771 324.135 379.245 324.135C381.227 324.135 382.083 323.366 382.083 322.367C382.083 319.561 375.131 321.337 375.131 317.072C375.131 315.304 376.51 313.79 379.523 313.79C380.87 313.79 382.258 314.154 383.209 314.805L382.67 316.113C381.671 315.47 380.538 315.177 379.523 315.177C377.573 315.177 376.74 315.994 376.74 317C376.74 319.807 383.693 318.047 383.693 322.264C383.693 324.016 382.282 325.523 379.253 325.523C377.501 325.523 375.781 324.936 374.861 324.08L374.854 324.088Z" fill="#205678"/>
<path d="M388.194 315.352H384.262V313.925H393.751V315.352H389.819V325.404H388.194V315.352Z" fill="#205678"/>
<path d="M294.141 87.34L284.401 70.17C288.711 63.17 291.201 54.9399 291.201 46.1199C291.201 20.7599 270.641 0.199951 245.281 0.199951C219.921 0.199951 199.361 20.7599 199.361 46.1199C199.361 71.4799 219.921 92.04 245.281 92.04C255.871 92.04 265.621 88.45 273.391 82.42L273.371 82.44L294.151 87.33L294.141 87.34Z" fill="#FAFAFA"/>
<path d="M294.141 87.3399C293.251 87.1399 286.611 85.6099 273.331 82.5699C273.261 82.5499 273.221 82.4899 273.231 82.4199C273.231 82.3999 273.241 82.3799 273.251 82.3699L273.271 82.3499L273.451 82.5299C270.831 84.5599 267.691 86.5599 264.001 88.2199C260.311 89.8599 256.081 91.1899 251.411 91.8099C249.081 92.1099 246.641 92.2999 244.141 92.1799C242.891 92.1099 241.621 92.0799 240.331 91.9699C239.051 91.7799 237.761 91.5799 236.451 91.3799C231.251 90.3499 225.941 88.3799 220.981 85.2999C216.031 82.2299 211.441 78.0699 207.761 72.9599C204.091 67.8499 201.301 61.7999 200.001 55.2199C198.711 48.6499 198.821 41.6099 200.541 34.7999C202.281 28.0099 205.521 21.3799 210.381 15.9199L212.261 13.8599C212.881 13.1699 213.611 12.5899 214.281 11.9599C214.981 11.3599 215.611 10.6799 216.361 10.1399C217.101 9.58995 217.831 9.03995 218.561 8.48995C219.271 7.90995 220.061 7.44995 220.841 6.97995C221.621 6.50995 222.391 6.03995 223.171 5.56995C223.981 5.16995 224.801 4.77995 225.611 4.38995C226.431 4.00995 227.211 3.56995 228.071 3.29995C234.741 0.649946 241.851 -0.360054 248.651 0.139946C255.451 0.629946 261.961 2.57995 267.541 5.71995C273.141 8.83995 277.861 12.9999 281.511 17.6499C285.171 22.2999 287.741 27.4299 289.341 32.5399C290.931 37.6699 291.351 42.7599 291.341 47.4799C291.201 52.1999 290.351 56.5599 289.091 60.3799C287.841 64.2099 286.191 67.4999 284.491 70.2599V70.1399C290.661 81.1799 293.701 86.5999 294.131 87.3699C293.691 86.6099 290.591 81.2199 284.281 70.2599C284.261 70.2199 284.261 70.1699 284.281 70.1299C285.961 67.3699 287.581 64.0899 288.801 60.2799C290.031 56.4799 290.861 52.1599 290.981 47.4699C290.981 42.7899 290.541 37.7499 288.951 32.6599C287.351 27.5999 284.791 22.5199 281.161 17.9199C277.541 13.3199 272.861 9.20995 267.311 6.12995C261.781 3.02995 255.341 1.10995 248.611 0.629946C241.881 0.149946 234.851 1.14995 228.251 3.76995C227.401 4.03995 226.621 4.47995 225.821 4.84995C225.021 5.23995 224.211 5.62995 223.411 6.01995C222.641 6.48995 221.881 6.94995 221.111 7.41995C220.341 7.87995 219.561 8.33995 218.851 8.90995C218.131 9.44995 217.401 9.99995 216.671 10.5399C215.931 11.0699 215.301 11.7399 214.611 12.3399C213.951 12.9699 213.221 13.5299 212.611 14.2199L210.761 16.2599C205.951 21.6599 202.751 28.2199 201.021 34.9299C199.311 41.6699 199.201 48.6299 200.471 55.1299C201.751 61.6399 204.501 67.6299 208.131 72.6899C211.761 77.7599 216.301 81.8899 221.201 84.9299C226.101 87.9899 231.371 89.9599 236.521 90.9899C237.821 91.1899 239.101 91.3899 240.361 91.5799C241.631 91.6899 242.901 91.7199 244.141 91.7999C246.621 91.9299 249.041 91.7499 251.351 91.4599C255.991 90.8599 260.191 89.5499 263.861 87.9399C267.531 86.2999 270.661 84.3299 273.281 82.3299C273.341 82.2899 273.421 82.2999 273.461 82.3499C273.501 82.3999 273.491 82.4599 273.461 82.5099L273.441 82.5299L273.371 82.3299C286.611 85.5299 293.231 87.1299 294.121 87.3499L294.141 87.3399Z" fill="#263238"/>
<path d="M260.106 36.8827L254.592 31.2258L229.229 55.9504L234.744 61.6073L260.106 36.8827Z" fill="#205678"/>
<path d="M235.104 30.975L229.447 36.4895L254.172 61.8523L259.829 56.3378L235.104 30.975Z" fill="#205678"/>
<path d="M674.3 451.7C674.3 451.84 523.34 451.96 337.17 451.96C151 451.96 0.00976562 451.84 0.00976562 451.7C0.00976562 451.56 150.94 451.44 337.17 451.44C523.4 451.44 674.3 451.56 674.3 451.7Z" fill="#263238"/>
<path d="M47.7708 392.32V381.12C33.7908 381.12 36.1208 372.48 36.1208 343.71C36.1208 323.96 36.7408 313.47 28.8408 313.47C21.5508 313.47 19.8008 318.59 19.8008 341.07C19.8008 382.7 25.3608 392.32 47.7708 392.32Z" fill="#00D38E"/>
<path d="M62.3516 427V415.8C76.3316 415.8 74.0016 407.16 74.0016 378.39C74.0016 358.64 73.3816 348.15 81.2816 348.15C88.5716 348.15 90.3216 353.27 90.3216 375.75C90.3216 417.38 84.7616 427 62.3516 427Z" fill="#00D38E"/>
<g opacity="0.3">
<path d="M67.2505 415.28L69.4305 426.59L65.6206 426.93L65.0605 415.67L67.2505 415.28Z" fill="black"/>
</g>
<path d="M55.4414 277.98C44.3714 277.98 45.1914 292.47 45.1914 310.2V451.27H65.6914V310.2C65.6914 292.46 66.5114 277.98 55.4414 277.98Z" fill="#00D38E"/>
<path d="M55.4414 277.98C44.3714 277.98 45.1914 292.47 45.1914 310.2V451.27H65.6914V310.2C65.6914 292.46 66.5114 277.98 55.4414 277.98Z" fill="#00D38E"/>
<path d="M49.4812 451.71C49.4812 451.71 49.4612 451.56 49.4612 451.26C49.4612 450.94 49.4612 450.5 49.4512 449.94C49.4512 448.75 49.4512 447.04 49.4512 444.85C49.4812 440.41 49.5212 434.02 49.5712 426.14C49.7212 410.32 49.9212 388.5 50.1512 364.41C50.4412 340.31 50.7012 318.49 50.8812 302.67C50.9312 298.72 50.9812 295.14 51.2112 292.01C51.4412 288.87 51.8412 286.19 52.3512 284.03C52.8512 281.87 53.4212 280.24 53.8612 279.17C54.0712 278.63 54.2712 278.23 54.3912 277.96C54.5212 277.69 54.5912 277.56 54.5912 277.56C54.5912 277.56 54.5512 277.71 54.4412 277.99C54.3412 278.27 54.1512 278.67 53.9612 279.22C53.5512 280.31 53.0212 281.94 52.5512 284.09C52.0712 286.24 51.7012 288.92 51.5012 292.04C51.3012 295.17 51.2712 298.74 51.2512 302.69C51.1012 318.51 50.9012 340.33 50.6712 364.43C50.3812 388.53 50.1212 410.34 49.9412 426.16C49.8212 434.04 49.7212 440.43 49.6612 444.87C49.6212 447.06 49.5812 448.77 49.5612 449.96C49.5412 450.52 49.5312 450.96 49.5212 451.28C49.5112 451.58 49.4912 451.73 49.4912 451.73L49.4812 451.71Z" fill="#263238"/>
<path d="M58.7413 451.51C58.7413 451.51 58.7213 451.36 58.7213 451.06C58.7213 450.74 58.7213 450.3 58.7113 449.74C58.7113 448.56 58.7113 446.85 58.7113 444.67C58.7313 440.24 58.7613 433.89 58.7913 426.04C58.9113 410.29 59.0813 388.56 59.2613 364.57C59.5013 340.57 59.7313 318.84 59.8913 303.09C59.9413 299.16 59.9713 295.6 59.8413 292.48C59.7213 289.36 59.4413 286.69 59.1013 284.52C58.7613 282.35 58.3613 280.69 58.0713 279.57C57.9213 279.03 57.8013 278.61 57.7213 278.3C57.6413 278.01 57.6113 277.86 57.6113 277.86C57.6113 277.86 58.5513 280.13 59.3013 284.48C59.6713 286.65 59.9813 289.34 60.1313 292.46C60.2913 295.59 60.2913 299.15 60.2613 303.08C60.1413 318.83 59.9713 340.56 59.7913 364.56C59.5513 388.55 59.3213 410.28 59.1613 426.03C59.0513 433.88 58.9713 440.24 58.9113 444.66C58.8713 446.84 58.8413 448.54 58.8213 449.73C58.8013 450.29 58.7913 450.73 58.7813 451.05C58.7713 451.35 58.7513 451.5 58.7513 451.5L58.7413 451.51Z" fill="#263238"/>
<path d="M65.9115 426.82C65.7715 426.82 65.5615 424.27 65.4515 421.11C65.3415 417.95 65.3715 415.39 65.5115 415.38C65.6515 415.37 65.8615 417.93 65.9715 421.09C66.0815 424.25 66.0515 426.81 65.9115 426.82Z" fill="#263238"/>
<path d="M81.831 348.28C81.831 348.28 81.871 348.56 81.881 349.09C81.891 349.67 81.911 350.44 81.941 351.41C81.971 353.48 82.001 356.37 82.051 359.93C82.091 367.17 82.141 377.09 82.201 388.05C82.231 393.53 82.191 398.82 81.221 403.52C80.321 408.23 78.351 412.24 76.011 415C73.691 417.8 71.121 419.41 69.241 420.14C67.351 420.89 66.221 420.97 66.221 420.97C66.201 420.9 67.321 420.76 69.161 419.96C70.991 419.18 73.481 417.55 75.731 414.77C78.001 412.02 79.891 408.08 80.761 403.43C81.691 398.78 81.721 393.54 81.691 388.05C81.691 377.09 81.691 367.18 81.691 359.93C81.711 356.37 81.731 353.47 81.751 351.41C81.771 350.44 81.781 349.67 81.791 349.09C81.811 348.56 81.821 348.28 81.841 348.28H81.831Z" fill="#263238"/>
<path d="M45.1799 380.69C45.3199 380.69 45.4399 383.57 45.4399 387.13C45.4399 390.69 45.3199 393.57 45.1799 393.57C45.0399 393.57 44.9199 390.69 44.9199 387.13C44.9199 383.57 45.0399 380.69 45.1799 380.69Z" fill="#263238"/>
<path d="M28.3015 313.48C28.3015 313.48 28.3315 313.76 28.3215 314.3C28.3215 314.89 28.3015 315.67 28.2815 316.66C28.2215 318.76 28.1315 321.7 28.0315 325.32C27.8115 332.63 27.4015 342.74 27.5415 353.89C27.6715 359.46 27.6215 364.81 28.7815 369.5C29.8715 374.17 31.7715 378.2 34.1815 380.91C36.5715 383.66 39.2515 385.1 41.1715 385.72C43.1115 386.34 44.2715 386.32 44.2615 386.39C44.2615 386.39 43.1015 386.49 41.1115 385.92C39.1415 385.35 36.3815 383.93 33.9115 381.16C31.4115 378.42 29.4515 374.34 28.3215 369.62C27.1215 364.87 27.1515 359.48 27.0215 353.91C26.8815 342.73 27.3515 332.63 27.6615 325.32C27.8315 321.7 27.9715 318.76 28.0715 316.66C28.1315 315.68 28.1715 314.89 28.2015 314.31C28.2415 313.77 28.2615 313.49 28.2815 313.49L28.3015 313.48Z" fill="#263238"/>
<g opacity="0.3">
<path d="M42.4004 392.09L42.8204 380.58L45.2004 380.99L45.1804 392.27C45.1804 392.27 42.8204 392.13 42.4004 392.09Z" fill="black"/>
</g>
<path d="M22.0306 351.55C22.0506 351.69 20.9606 351.97 19.5906 352.18C18.2206 352.39 17.1006 352.44 17.0706 352.29C17.0506 352.15 18.1406 351.87 19.5106 351.66C20.8806 351.45 22.0006 351.4 22.0206 351.55H22.0306Z" fill="#263238"/>
<path d="M21.7806 340.4C21.7506 340.54 20.6206 340.43 19.2506 340.16C17.8806 339.89 16.8006 339.55 16.8206 339.41C16.8506 339.27 17.9806 339.38 19.3506 339.65C20.7206 339.92 21.8006 340.26 21.7806 340.4Z" fill="#263238"/>
<path d="M17.3208 322.57C17.3708 322.44 18.5608 322.8 19.8208 323.65C21.0908 324.49 21.8808 325.45 21.7808 325.54C21.6808 325.65 20.7508 324.89 19.5308 324.08C18.3208 323.27 17.2608 322.71 17.3208 322.57Z" fill="#263238"/>
<path d="M24.5009 311.18C24.6309 311.13 25.1909 312.19 25.7309 313.56C26.2809 314.93 26.6109 316.08 26.4809 316.13C26.3509 316.18 25.7909 315.12 25.2509 313.75C24.7009 312.38 24.3709 311.23 24.5009 311.18Z" fill="#263238"/>
<path d="M34.6904 311.94C34.8204 312.01 34.2004 313.39 33.3104 315.04C32.4204 316.68 31.6004 317.96 31.4704 317.89C31.3404 317.82 31.9604 316.44 32.8504 314.79C33.7404 313.15 34.5604 311.87 34.6904 311.94Z" fill="#263238"/>
<path d="M38.1311 325.3C38.1711 325.44 37.2011 325.83 35.9711 326.17C34.7411 326.51 33.7111 326.68 33.6711 326.54C33.6311 326.4 34.6011 326.01 35.8311 325.67C37.0611 325.33 38.0911 325.16 38.1311 325.3Z" fill="#263238"/>
<path d="M32.4309 339.66C32.3209 339.76 31.6809 339.23 31.0009 338.47C30.3209 337.72 29.8509 337.03 29.9509 336.93C30.0609 336.83 30.7009 337.36 31.3809 338.12C32.0609 338.87 32.5309 339.56 32.4309 339.66Z" fill="#263238"/>
<path d="M37.1113 354.05C37.0113 354.15 36.1013 353.46 35.0813 352.5C34.0613 351.54 33.3113 350.68 33.4113 350.57C33.5113 350.47 34.4213 351.16 35.4413 352.12C36.4613 353.08 37.2113 353.94 37.1113 354.05Z" fill="#263238"/>
<path d="M23.2711 360.22C23.3711 360.32 22.5611 361.24 21.4711 362.27C20.3811 363.3 19.4111 364.04 19.3111 363.94C19.2111 363.84 20.0211 362.92 21.1111 361.89C22.2011 360.86 23.1711 360.12 23.2711 360.22Z" fill="#263238"/>
<path d="M25.0003 372.85C24.8603 372.8 25.0303 371.94 25.3703 370.91C25.7103 369.88 26.1003 369.09 26.2403 369.14C26.3803 369.19 26.2103 370.05 25.8703 371.08C25.5303 372.11 25.1403 372.9 25.0003 372.85Z" fill="#263238"/>
<path d="M26.2706 387.47C26.1406 387.41 26.6406 386.03 27.3906 384.39C28.1406 382.75 28.8506 381.46 28.9806 381.52C29.1106 381.58 28.6106 382.96 27.8606 384.6C27.1106 386.24 26.4006 387.53 26.2706 387.47Z" fill="#263238"/>
<path d="M34.7111 394.15C34.5711 394.12 34.6811 392.83 34.9611 391.26C35.2411 389.69 35.5811 388.43 35.7211 388.46C35.8611 388.49 35.7511 389.78 35.4711 391.35C35.1911 392.92 34.8511 394.18 34.7111 394.15Z" fill="#263238"/>
<path d="M39.1301 372.04C39.1001 372.18 38.0201 372.06 36.7301 371.77C35.4301 371.48 34.4101 371.14 34.4401 371C34.4701 370.86 35.5501 370.98 36.8401 371.27C38.1401 371.56 39.1601 371.9 39.1301 372.04Z" fill="#263238"/>
<path d="M38.1307 363.44C38.1007 363.58 37.1907 363.53 36.1007 363.32C35.0107 363.11 34.1407 362.83 34.1707 362.69C34.2007 362.55 35.1007 362.6 36.2007 362.81C37.2907 363.02 38.1607 363.3 38.1307 363.44Z" fill="#263238"/>
<g opacity="0.3">
<path d="M28.2799 314.09C28.6299 314.09 28.8399 318.54 28.5599 325.69C28.4299 329.26 28.1799 333.51 27.8999 338.21C27.6299 342.91 27.2999 348.08 27.1899 353.47C27.0499 358.86 27.4199 363.91 28.4599 368.41C28.9799 370.66 29.5499 372.79 30.3099 374.64C31.0699 376.51 31.9699 378.15 32.9699 379.53C34.9599 382.3 37.3199 383.87 39.0499 384.7C40.7899 385.54 41.8799 385.81 41.8399 386.02C41.8199 386.16 40.6699 386.24 38.6799 385.65C36.7199 385.07 33.9099 383.58 31.5199 380.67C30.3199 379.23 29.2399 377.48 28.3299 375.5C27.4199 373.5 26.7399 371.31 26.1299 368.98C24.8999 364.3 24.4399 358.93 24.5899 353.44C24.7099 347.95 25.1099 342.76 25.5099 338.05C25.9199 333.34 26.3599 329.12 26.7299 325.57C27.4899 318.48 27.9199 314.1 28.2899 314.1L28.2799 314.09Z" fill="black"/>
</g>
<path d="M76.1313 399.58C76.1313 399.72 75.1213 399.84 73.8713 399.84C72.6213 399.84 71.6113 399.72 71.6113 399.58C71.6113 399.44 72.6213 399.32 73.8713 399.32C75.1213 399.32 76.1313 399.44 76.1313 399.58Z" fill="#263238"/>
<path d="M76.0007 388.7C75.9707 388.84 74.9907 388.75 73.8207 388.49C72.6507 388.23 71.7207 387.91 71.7507 387.77C71.7807 387.63 72.7607 387.72 73.9307 387.98C75.1007 388.24 76.0307 388.56 76.0007 388.7Z" fill="#263238"/>
<path d="M76.5199 376.52C76.5099 376.66 75.3399 376.68 73.9099 376.57C72.4799 376.45 71.3299 376.24 71.3399 376.1C71.3499 375.96 72.5199 375.94 73.9499 376.05C75.3799 376.17 76.5299 376.38 76.5199 376.52Z" fill="#263238"/>
<path d="M74.8004 365.74C74.7404 365.87 73.8304 365.59 72.7704 365.12C71.7104 364.64 70.8904 364.15 70.9504 364.02C71.0104 363.89 71.9204 364.17 72.9804 364.65C74.0404 365.13 74.8604 365.62 74.8004 365.75V365.74Z" fill="#263238"/>
<path d="M75.8608 356.58C75.7908 356.7 74.7807 356.19 73.7407 355.3C72.6907 354.41 72.0408 353.49 72.1508 353.4C72.2608 353.3 73.0708 354.04 74.0808 354.91C75.0908 355.78 75.9408 356.46 75.8608 356.59V356.58Z" fill="#263238"/>
<path d="M79.0413 349.82C78.9113 349.88 78.3913 349.07 77.8813 348.01C77.3713 346.95 77.0513 346.04 77.1813 345.97C77.3113 345.91 77.8313 346.72 78.3413 347.78C78.8513 348.84 79.1713 349.75 79.0413 349.82Z" fill="#263238"/>
<path d="M88.0811 347.44C88.1911 347.53 87.6911 348.32 87.1011 349.29C86.5111 350.26 86.0411 351.06 85.9011 351C85.7711 350.95 86.0411 350.02 86.6511 349.02C87.2611 348.02 87.9611 347.35 88.0711 347.45L88.0811 347.44Z" fill="#263238"/>
<path d="M92.3202 359.37C92.3502 359.51 91.2702 359.85 89.9002 359.96C88.5202 360.07 87.4102 359.91 87.4102 359.77C87.4102 359.62 88.5102 359.55 89.8502 359.44C91.1902 359.33 92.2902 359.22 92.3202 359.37Z" fill="#263238"/>
<path d="M92.1906 368C92.2606 368.13 91.3306 368.76 90.1206 369.41C88.9106 370.06 87.8706 370.49 87.8006 370.37C87.7306 370.24 88.6606 369.61 89.8706 368.96C91.0806 368.31 92.1206 367.88 92.1906 368Z" fill="#263238"/>
<path d="M92.441 382.1C92.381 382.23 91.521 381.95 90.531 381.48C89.541 381.01 88.791 380.52 88.851 380.39C88.911 380.26 89.771 380.54 90.761 381.01C91.751 381.48 92.501 381.97 92.441 382.1Z" fill="#263238"/>
<path d="M91.6498 389.87C91.7098 390 91.0198 390.46 90.0998 390.9C89.1798 391.34 88.3898 391.59 88.3298 391.46C88.2698 391.33 88.9598 390.87 89.8798 390.43C90.7998 389.99 91.5898 389.74 91.6498 389.87Z" fill="#263238"/>
<path d="M89.5497 406.33C89.4397 406.43 88.7597 405.85 88.0297 405.05C87.2997 404.24 86.7897 403.51 86.8997 403.41C87.0097 403.31 87.6897 403.89 88.4197 404.7C89.1497 405.51 89.6597 406.24 89.5497 406.34V406.33Z" fill="#263238"/>
<path d="M84.2208 420.68C84.0708 420.69 83.8608 419.52 83.5008 418.11C83.1408 416.7 82.7608 415.57 82.9008 415.51C83.0308 415.45 83.6408 416.52 84.0108 417.98C84.3908 419.44 84.3708 420.67 84.2308 420.68H84.2208Z" fill="#263238"/>
<path d="M74.5711 428.11C74.4311 428.1 74.3911 426.96 74.4911 425.57C74.5911 424.18 74.7911 423.06 74.9311 423.07C75.0711 423.08 75.1111 424.22 75.0111 425.61C74.9111 427 74.7111 428.12 74.5711 428.11Z" fill="#263238"/>
<path d="M74 411.4C73.92 411.52 73 411.05 71.93 410.36C70.87 409.66 70.07 409 70.15 408.88C70.23 408.76 71.15 409.23 72.22 409.92C73.28 410.62 74.08 411.28 74 411.4Z" fill="#263238"/>
<path d="M86.3407 385.52C86.2507 385.63 85.5507 385.18 84.7807 384.53C84.0107 383.87 83.4607 383.25 83.5507 383.14C83.6407 383.03 84.3407 383.48 85.1107 384.14C85.8807 384.8 86.4307 385.42 86.3407 385.53V385.52Z" fill="#263238"/>
<path d="M79.4702 367.89C79.5702 367.99 78.9402 368.78 78.0502 369.66C77.1702 370.53 76.3702 371.16 76.2702 371.06C76.1702 370.96 76.8002 370.17 77.6902 369.29C78.5702 368.42 79.3702 367.79 79.4702 367.89Z" fill="#263238"/>
<path d="M87.0011 354.04C87.0711 354.16 86.4611 354.65 85.6411 355.12C84.8211 355.59 84.0911 355.87 84.0211 355.75C83.9511 355.63 84.5611 355.14 85.3811 354.67C86.2011 354.2 86.9311 353.92 87.0011 354.04Z" fill="#263238"/>
<path d="M79.1408 418.24C79.0108 418.3 78.6108 417.67 78.2608 416.84C77.9108 416.01 77.7208 415.3 77.8608 415.24C77.9908 415.18 78.3908 415.81 78.7408 416.64C79.0908 417.47 79.2808 418.18 79.1408 418.24Z" fill="#263238"/>
<path d="M47.6013 324.93C47.6013 325.07 46.3413 325.12 44.8013 325.04C43.2613 324.96 42.0213 324.78 42.0313 324.63C42.0313 324.49 43.2913 324.44 44.8313 324.52C46.3713 324.6 47.6113 324.78 47.6013 324.93Z" fill="#263238"/>
<path d="M46.7202 308.84C46.6702 308.97 45.5002 308.62 44.1302 308.05C42.7502 307.48 41.6802 306.91 41.7302 306.78C41.7802 306.65 42.9502 307 44.3202 307.57C45.7002 308.14 46.7702 308.7 46.7202 308.84Z" fill="#263238"/>
<path d="M48.1914 288.89C48.1714 289.02 46.8314 288.91 45.3914 288.14C43.9414 287.38 43.1014 286.34 43.2014 286.25C43.3114 286.14 44.2714 286.97 45.6414 287.68C47.0014 288.41 48.2214 288.74 48.1914 288.89Z" fill="#263238"/>
<path d="M51.8797 279.56C51.7497 279.63 51.0797 278.62 50.3697 277.32C49.6597 276.01 49.1897 274.9 49.3097 274.83C49.4397 274.76 50.1097 275.77 50.8197 277.07C51.5297 278.38 51.9997 279.49 51.8797 279.56Z" fill="#263238"/>
<path d="M64.6015 276.83C64.7115 276.92 64.0015 277.97 63.0015 279.17C62.0115 280.37 61.1115 281.27 61.0015 281.17C60.8915 281.08 61.6015 280.03 62.6015 278.83C63.5915 277.63 64.4915 276.73 64.6015 276.83Z" fill="#263238"/>
<path d="M67.8303 290.61C67.9103 290.73 67.0603 291.48 65.9203 292.28C64.7803 293.09 63.7903 293.65 63.7103 293.53C63.6303 293.41 64.4803 292.66 65.6203 291.86C66.7603 291.05 67.7503 290.49 67.8303 290.61Z" fill="#263238"/>
<path d="M69.3211 309.72C69.3611 309.86 68.4011 310.23 67.1911 310.56C65.9711 310.88 64.9611 311.03 64.9211 310.9C64.8811 310.76 65.8411 310.39 67.0511 310.06C68.2711 309.74 69.2811 309.59 69.3211 309.72Z" fill="#263238"/>
<path d="M68.4307 325.91C68.4307 326.05 67.2307 326.11 65.7707 326.03C64.3107 325.95 63.1307 325.78 63.1407 325.63C63.1507 325.48 64.3407 325.43 65.8007 325.51C67.2607 325.59 68.4407 325.76 68.4307 325.91Z" fill="#263238"/>
<path d="M68.7304 342.3C68.8004 342.43 67.6704 343.18 66.2204 343.99C64.7604 344.8 63.5204 345.36 63.4504 345.23C63.3804 345.1 64.5103 344.35 65.9603 343.54C67.4203 342.73 68.6604 342.17 68.7304 342.3Z" fill="#263238"/>
<path d="M46.1213 350.27C46.0913 350.41 44.8213 350.26 43.2813 349.93C41.7413 349.6 40.5213 349.22 40.5513 349.08C40.5813 348.94 41.8513 349.09 43.3913 349.42C44.9313 349.75 46.1513 350.13 46.1213 350.27Z" fill="#263238"/>
<path d="M46.6699 364.54C46.7599 364.65 45.7899 365.6 44.4999 366.67C43.2099 367.73 42.0899 368.51 41.9999 368.4C41.9099 368.29 42.8799 367.34 44.1699 366.27C45.4599 365.21 46.5799 364.43 46.6699 364.54Z" fill="#263238"/>
<path d="M47.0002 407.17C46.9102 407.28 45.6502 406.39 44.1902 405.17C42.7302 403.95 41.6202 402.88 41.7102 402.77C41.8002 402.66 43.0602 403.55 44.5202 404.77C45.9802 405.98 47.0902 407.06 47.0002 407.17Z" fill="#263238"/>
<path d="M46.4306 419.19C46.5206 419.3 45.7406 420.11 44.6906 421C43.6406 421.89 42.7106 422.53 42.6106 422.42C42.5206 422.31 43.3006 421.5 44.3506 420.61C45.4006 419.72 46.3306 419.08 46.4306 419.19Z" fill="#263238"/>
<path d="M67.5301 392.44C67.6201 392.56 66.6301 393.43 65.3301 394.4C64.0301 395.37 62.9101 396.06 62.8201 395.95C62.7301 395.83 63.7201 394.96 65.0201 393.99C66.3201 393.02 67.4401 392.33 67.5301 392.44Z" fill="#263238"/>
<path d="M67.8508 371.94C67.9408 372.04 66.9608 372.96 65.4308 373.55C63.9108 374.15 62.5708 374.13 62.5608 374C62.5408 373.85 63.8008 373.63 65.2408 373.07C66.6808 372.52 67.7508 371.83 67.8408 371.95L67.8508 371.94Z" fill="#263238"/>
<path d="M68.1502 356.96C68.1002 357.09 67.0702 356.81 65.8502 356.32C64.6302 355.83 63.6902 355.33 63.7402 355.2C63.7902 355.07 64.8202 355.35 66.0402 355.84C67.2602 356.33 68.2002 356.83 68.1502 356.96Z" fill="#263238"/>
<path d="M69.2911 432.92C69.3511 433.05 68.1511 433.74 66.6111 434.47C65.0711 435.2 63.7711 435.68 63.7111 435.55C63.6511 435.42 64.8511 434.73 66.3911 434C67.9311 433.27 69.2311 432.79 69.2911 432.92Z" fill="#263238"/>
<path d="M46.4414 337.88C46.3414 337.99 45.0914 337.02 43.6314 335.72C42.1714 334.42 41.0714 333.28 41.1614 333.17C41.2614 333.06 42.5114 334.03 43.9714 335.33C45.4314 336.63 46.5314 337.77 46.4414 337.88Z" fill="#263238"/>
<path d="M69.9005 330.27C69.9805 330.39 68.9205 331.21 67.5505 332.1C66.1705 332.99 64.9905 333.62 64.9105 333.5C64.8305 333.38 65.8905 332.56 67.2605 331.67C68.6405 330.78 69.8205 330.15 69.9005 330.27Z" fill="#263238"/>
<path d="M45.8408 298.28C45.8208 298.42 44.8808 298.41 43.7508 298.24C42.6208 298.08 41.7108 297.83 41.7308 297.69C41.7508 297.55 42.6908 297.56 43.8208 297.73C44.9508 297.89 45.8608 298.14 45.8408 298.28Z" fill="#263238"/>
<path d="M68.1413 299.45C68.1913 299.59 67.3113 300.02 66.1713 300.43C65.0413 300.84 64.0813 301.05 64.0313 300.92C63.9813 300.78 64.8613 300.35 66.0013 299.94C67.1313 299.53 68.0913 299.32 68.1413 299.45Z" fill="#263238"/>
<path d="M56.43 334.39C56.54 334.48 55.84 335.54 54.87 336.75C53.9 337.96 53.0101 338.87 52.9001 338.78C52.7901 338.69 53.49 337.63 54.46 336.42C55.43 335.21 56.32 334.3 56.43 334.39Z" fill="#263238"/>
<path d="M56.4014 319.11C56.3214 319.22 55.3614 318.65 54.6014 317.54C53.8314 316.43 53.6314 315.33 53.7614 315.3C53.9014 315.25 54.3114 316.21 55.0314 317.24C55.7414 318.28 56.5014 318.99 56.4014 319.11Z" fill="#263238"/>
<path d="M56.1107 297.4C56.2107 297.52 55.3907 298.3 54.6007 299.42C53.8007 300.53 53.3207 301.56 53.1807 301.51C53.0507 301.47 53.3307 300.3 54.1807 299.12C55.0207 297.93 56.0407 297.29 56.1207 297.4H56.1107Z" fill="#263238"/>
<path d="M54.3508 356.39C54.2108 356.34 54.4308 355.38 54.8408 354.25C55.2508 353.12 55.6808 352.23 55.8208 352.28C55.9608 352.33 55.7408 353.29 55.3308 354.42C54.9208 355.55 54.4908 356.44 54.3508 356.39Z" fill="#263238"/>
<path d="M51.0507 387.82C50.9207 387.88 50.0807 386.43 49.1807 384.57C48.2807 382.71 47.6507 381.15 47.7807 381.09C47.9107 381.03 48.7407 382.48 49.6507 384.34C50.5507 386.2 51.1807 387.76 51.0507 387.82Z" fill="#263238"/>
<path d="M56.9307 392.74C57.0607 392.81 56.3007 394.5 55.2407 396.52C54.1807 398.54 53.2207 400.13 53.0907 400.06C52.9607 399.99 53.7207 398.3 54.7807 396.28C55.8407 394.26 56.8007 392.67 56.9307 392.74Z" fill="#263238"/>
<path d="M56.6499 426.26C56.5199 426.32 55.6899 424.94 54.7899 423.16C53.8899 421.38 53.2698 419.89 53.3898 419.82C53.5198 419.76 54.3499 421.14 55.2499 422.92C56.1499 424.7 56.7699 426.19 56.6499 426.26Z" fill="#263238"/>
<path d="M54.6415 436.5C54.7615 436.58 54.2015 437.63 53.3915 438.85C52.5815 440.07 51.8315 440.99 51.7115 440.91C51.5915 440.83 52.1515 439.78 52.9615 438.56C53.7715 437.34 54.5215 436.42 54.6415 436.5Z" fill="#263238"/>
<g opacity="0.3">
<path d="M59.3098 281.07C60.0298 281.07 60.6098 319.06 60.6098 365.92C60.6098 412.78 60.0298 450.78 59.3098 450.78C58.5898 450.78 58.0098 412.79 58.0098 365.92C58.0098 319.05 58.5898 281.07 59.3098 281.07Z" fill="black"/>
</g>
<g opacity="0.3">
<path d="M82.8613 349.57C83.2113 349.57 83.6413 353.9 83.8413 360.93C84.0713 367.96 84.0213 377.63 84.2113 388.33C84.2713 393.73 83.9713 398.95 82.9013 403.61C82.3613 405.94 81.6213 408.12 80.6913 410.06C79.7613 411.96 78.8613 413.65 77.8513 415.19C76.8613 416.72 75.6313 418 74.3813 418.81C73.1313 419.64 71.9213 420.05 70.9513 420.32C68.9913 420.83 67.8913 420.84 67.8513 420.68C67.8013 420.49 68.8513 420.14 70.6013 419.36C71.4713 418.96 72.5113 418.45 73.5113 417.63C74.5213 416.82 75.4513 415.68 76.2813 414.21C77.1113 412.76 77.9213 411 78.7213 409.16C79.4913 407.35 80.1013 405.3 80.5513 403.1C81.4313 398.68 81.6613 393.65 81.6013 388.35C81.4113 377.63 81.7513 367.92 81.9913 360.92C82.2513 353.91 82.4813 349.58 82.8513 349.57H82.8613Z" fill="black"/>
</g>
<path d="M619.431 370.98C616.331 369.65 613.761 367.1 612.421 364C611.861 362.71 611.851 360.72 613.221 360.43C614.061 360.25 614.831 360.91 615.441 361.51C617.481 363.53 619.521 365.55 621.551 367.57C620.351 364.38 620.501 360.71 621.971 357.63C622.491 356.53 623.581 355.35 624.721 355.78C625.621 356.11 625.911 357.22 626.071 358.17C626.561 361.09 627.051 364.01 627.541 366.93C628.341 363.53 630.011 360.35 632.341 357.75C633.191 356.8 634.551 355.88 635.631 356.55C636.581 357.15 636.531 358.52 636.331 359.63C635.831 362.37 635.061 365.06 634.041 367.65C636.641 365.34 640.071 363.99 643.541 363.88C644.561 363.85 645.721 363.99 646.351 364.79C647.301 365.99 646.471 367.76 645.461 368.9C642.471 372.29 635.441 373.16 630.921 372.87" fill="#00BA7D"/>
<path d="M646.48 378.19C635.53 369.57 616.29 368.35 603.62 374.15C589.32 380.7 579.95 395.93 578.55 410.52C577.22 424.39 583.91 438.46 589.59 451.18L644.88 451.43C651.52 440.47 658.42 428.21 658.87 415.41C659.32 402.61 656.55 386.11 646.48 378.19Z" fill="#00D38E"/>
<path d="M621.681 370.58C621.681 370.58 621.601 370.61 621.441 370.65C621.251 370.69 621.011 370.75 620.721 370.82C620.391 370.89 620.001 370.98 619.541 371.08C619.071 371.17 618.541 371.29 617.961 371.5C615.581 372.13 612.231 373.5 608.591 375.99C604.941 378.46 601.221 382.27 597.921 387.07C596.311 389.5 594.811 392.17 593.451 395.03C592.141 397.92 590.961 400.99 590.011 404.22C588.131 410.68 588.101 417.23 589.081 422.96C590.031 428.72 591.731 433.73 593.251 437.87C594.781 442.02 596.151 445.33 597.051 447.63C597.491 448.75 597.831 449.64 598.081 450.29C598.181 450.57 598.271 450.8 598.341 450.99C598.391 451.15 598.421 451.23 598.411 451.23C598.411 451.23 598.361 451.16 598.291 451.01C598.211 450.83 598.111 450.61 597.991 450.33C597.721 449.69 597.341 448.82 596.871 447.71C595.911 445.43 594.491 442.14 592.911 438C591.341 433.86 589.591 428.84 588.611 423.04C587.601 417.26 587.611 410.62 589.521 404.07C590.481 400.82 591.661 397.72 592.991 394.81C594.361 391.92 595.891 389.23 597.531 386.79C600.881 381.96 604.671 378.13 608.391 375.68C612.091 373.21 615.501 371.88 617.911 371.3C618.501 371.11 619.041 371 619.521 370.93C619.981 370.85 620.381 370.78 620.711 370.72C621.011 370.67 621.251 370.63 621.441 370.6C621.611 370.58 621.691 370.57 621.691 370.58H621.681Z" fill="#263238"/>
<path d="M637.791 451C637.791 451 637.861 450.71 638.051 450.17C638.251 449.59 638.531 448.81 638.881 447.84C639.601 445.82 640.671 442.89 641.911 439.26C643.151 435.62 644.541 431.26 645.751 426.34C646.961 421.42 647.941 415.91 648.211 410.06C648.441 404.22 647.801 398.64 646.521 393.74C645.231 388.85 643.371 384.63 641.331 381.4C639.301 378.16 637.241 375.81 635.681 374.34C634.941 373.56 634.261 373.07 633.851 372.68C633.431 372.3 633.211 372.1 633.221 372.09C633.231 372.08 633.471 372.25 633.911 372.6C634.341 372.97 635.041 373.43 635.811 374.2C637.421 375.63 639.541 377.96 641.631 381.21C643.741 384.45 645.651 388.69 646.981 393.63C648.291 398.57 648.951 404.2 648.721 410.09C648.451 415.98 647.451 421.52 646.211 426.46C644.971 431.4 643.531 435.76 642.251 439.39C640.971 443.02 639.851 445.92 639.071 447.93C638.691 448.9 638.381 449.66 638.151 450.23C637.931 450.75 637.811 451.03 637.801 451.02L637.791 451Z" fill="#263238"/>
<path d="M627.11 370.91C627.11 370.91 627.05 371.19 626.89 371.72C626.71 372.29 626.47 373.05 626.17 374.01C625.85 375 625.46 376.22 625.05 377.64C624.63 379.06 624.12 380.66 623.64 382.46C622.61 386.04 621.52 390.34 620.42 395.13C619.37 399.94 618.33 405.25 617.49 410.87C616.67 416.49 616.13 421.88 615.79 426.79C615.67 429.25 615.51 431.58 615.48 433.77C615.46 434.86 615.43 435.92 615.41 436.94C615.41 437.95 615.42 438.93 615.43 439.86C615.42 441.72 615.5 443.4 615.55 444.88C615.59 446.36 615.66 447.63 615.74 448.67C615.8 449.67 615.85 450.47 615.88 451.06C615.91 451.61 615.91 451.9 615.89 451.9C615.87 451.9 615.83 451.62 615.77 451.07C615.71 450.48 615.63 449.68 615.53 448.68C615.42 447.64 615.32 446.37 615.25 444.89C615.17 443.41 615.06 441.73 615.05 439.86C615.03 438.93 615.02 437.95 615 436.93C615.01 435.91 615.03 434.85 615.04 433.76C615.04 431.57 615.19 429.22 615.3 426.76C615.62 421.84 616.15 416.43 616.96 410.8C617.8 405.17 618.85 399.85 619.94 395.03C621.07 390.23 622.19 385.93 623.27 382.36C623.78 380.57 624.31 378.96 624.76 377.55C625.2 376.14 625.61 374.93 625.97 373.95C626.31 373 626.58 372.25 626.78 371.69C626.97 371.18 627.08 370.91 627.1 370.91H627.11Z" fill="#263238"/>
<path d="M580.311 414.94C580.371 415.07 578.681 415.97 576.531 416.95C574.381 417.93 572.601 418.61 572.541 418.48C572.481 418.35 574.171 417.45 576.321 416.47C578.471 415.49 580.251 414.81 580.311 414.94Z" fill="#263238"/>
<path d="M582.071 399.05C582.001 399.17 580.141 398.23 577.921 396.95C575.701 395.67 573.961 394.52 574.031 394.4C574.101 394.28 575.961 395.22 578.181 396.5C580.401 397.78 582.141 398.93 582.071 399.05Z" fill="#263238"/>
<path d="M592.151 385.93C592.021 385.99 591.201 384.54 590.321 382.68C589.441 380.82 588.831 379.27 588.961 379.21C589.091 379.15 589.911 380.6 590.791 382.46C591.671 384.31 592.281 385.87 592.151 385.93Z" fill="#263238"/>
<path d="M606.021 373.54C605.901 373.63 605.011 372.61 604.011 371.27C603.021 369.93 602.301 368.78 602.421 368.69C602.541 368.6 603.431 369.62 604.431 370.96C605.421 372.3 606.131 373.45 606.021 373.54Z" fill="#263238"/>
<path d="M586.58 434.34C586.65 434.47 584.91 435.54 582.71 436.73C580.5 437.92 578.66 438.79 578.59 438.66C578.52 438.53 580.25 437.46 582.46 436.27C584.67 435.08 586.51 434.21 586.58 434.34Z" fill="#263238"/>
<path d="M603.09 424.68C603.02 424.81 601.44 424.05 599.56 423C597.68 421.94 596.21 420.99 596.28 420.86C596.35 420.73 597.93 421.49 599.81 422.54C601.69 423.59 603.16 424.55 603.09 424.68Z" fill="#263238"/>
<path d="M607.691 402.6C607.761 402.72 606.281 403.64 604.291 404.42C602.301 405.2 600.591 405.53 600.561 405.39C600.521 405.25 602.151 404.7 604.101 403.93C606.061 403.17 607.621 402.47 607.691 402.6Z" fill="#263238"/>
<path d="M612.941 385.96C612.821 386.03 612.061 384.87 611.511 383.26C610.951 381.66 610.831 380.27 610.971 380.25C611.121 380.22 611.461 381.53 612.011 383.09C612.551 384.65 613.081 385.89 612.951 385.96H612.941Z" fill="#263238"/>
<path d="M601.221 446.35C601.091 446.29 601.751 444.63 602.701 442.64C603.651 440.65 604.521 439.09 604.651 439.15C604.781 439.21 604.121 440.87 603.171 442.86C602.221 444.85 601.351 446.41 601.221 446.35Z" fill="#263238"/>
<path d="M629.091 440.42C629.011 440.53 627.421 439.36 625.861 437.53C624.291 435.7 623.391 433.96 623.501 433.89C623.631 433.81 624.711 435.4 626.251 437.19C627.781 438.99 629.181 440.3 629.081 440.42H629.091Z" fill="#263238"/>
<path d="M638.741 416.11C638.811 416.23 637.091 417.36 634.891 418.62C632.691 419.88 630.851 420.8 630.781 420.68C630.711 420.56 632.431 419.43 634.641 418.17C636.841 416.91 638.681 415.99 638.751 416.11H638.741Z" fill="#263238"/>
<path d="M632.251 401.16C632.151 401.06 633.491 399.63 635.241 397.98C636.991 396.33 638.491 395.08 638.581 395.18C638.681 395.28 637.341 396.71 635.591 398.36C633.841 400.01 632.341 401.26 632.251 401.16Z" fill="#263238"/>
<path d="M632.54 385.29C632.45 385.4 631.08 384.44 629.49 383.15C627.9 381.86 626.68 380.72 626.77 380.6C626.86 380.49 628.23 381.45 629.82 382.74C631.41 384.03 632.63 385.17 632.54 385.28V385.29Z" fill="#263238"/>
<path d="M650.97 374.8C651.05 374.92 649.69 375.94 647.94 377.08C646.19 378.22 644.71 379.05 644.63 378.93C644.55 378.81 645.91 377.79 647.66 376.65C649.41 375.51 650.89 374.68 650.97 374.8Z" fill="#263238"/>
<path d="M658.061 389.34C658.071 389.48 656.661 389.7 654.901 389.83C653.141 389.95 651.711 389.94 651.701 389.8C651.691 389.66 653.101 389.44 654.861 389.31C656.611 389.19 658.051 389.2 658.061 389.34Z" fill="#263238"/>
<path d="M662.701 406.53C662.691 406.67 660.881 406.62 658.671 406.4C656.461 406.19 654.681 405.9 654.691 405.75C654.701 405.61 656.511 405.66 658.721 405.88C660.931 406.09 662.711 406.38 662.701 406.53Z" fill="#263238"/>
<path d="M660.401 428.7C660.301 428.8 658.641 427.29 656.701 425.33C654.761 423.36 653.261 421.69 653.371 421.59C653.471 421.49 655.131 423 657.071 424.96C659.011 426.92 660.511 428.6 660.401 428.7Z" fill="#263238"/>
<path d="M654.361 445.78C654.271 445.88 652.461 444.38 650.621 442.16C648.771 439.95 647.611 437.9 647.731 437.83C647.861 437.75 649.191 439.64 651.021 441.82C652.841 444.01 654.461 445.66 654.361 445.77V445.78Z" fill="#263238"/>
<g opacity="0.3">
<path d="M633.21 372.08C633.3 371.94 634.39 372.47 636.22 373.71C638 374.99 640.48 377.08 642.89 380.25C645.3 383.41 647.58 387.67 648.99 392.74C650.47 397.79 651.1 403.57 651.05 409.56C650.98 415.59 650.07 421.29 648.8 426.32C647.52 431.35 645.92 435.75 644.39 439.34C641.31 446.52 638.71 450.6 638.43 450.45C638.07 450.27 640.08 445.91 642.67 438.67C645.22 431.46 648.32 421.17 648.45 409.54C648.5 403.73 647.96 398.2 646.68 393.37C645.46 388.53 643.49 384.44 641.39 381.32C639.29 378.18 637.12 375.98 635.58 374.5C634 373.06 633.1 372.25 633.21 372.09V372.08Z" fill="black"/>
</g>
<g opacity="0.3">
<path d="M626.711 370.09C627.071 370.17 626.351 374.73 624.991 382.04C623.641 389.35 621.641 399.42 619.921 410.59C619.081 416.18 618.421 421.52 617.921 426.39C617.711 428.83 617.471 431.14 617.351 433.31C617.181 435.48 617.081 437.5 617.001 439.35C616.671 446.75 616.751 451.35 616.341 451.37C616.031 451.39 615.301 446.81 615.151 439.32C615.121 437.45 615.111 435.4 615.191 433.2C615.221 431 615.381 428.65 615.531 426.18C615.901 421.25 616.491 415.84 617.341 410.19C619.081 398.92 621.371 388.86 623.191 381.64C625.021 374.42 626.361 370 626.711 370.08V370.09Z" fill="black"/>
</g>
<g opacity="0.3">
<path d="M620.221 369.51C620.271 369.7 619.001 370.2 616.771 371.2C614.551 372.22 611.381 373.78 607.871 376.31C604.361 378.82 600.521 382.31 597.221 386.93C593.931 391.54 591.191 397.28 589.811 403.67C589.101 406.86 588.821 410.05 588.771 413.14C588.761 416.23 589.031 419.22 589.441 422.05C590.281 427.71 591.761 432.71 593.081 436.88C594.431 441.04 595.681 444.38 596.501 446.7C597.321 449.02 597.721 450.34 597.551 450.41C597.391 450.48 596.681 449.31 595.571 447.1C594.461 444.89 592.941 441.64 591.351 437.5C589.781 433.35 588.081 428.3 587.071 422.44C586.571 419.52 586.241 416.4 586.221 413.14C586.241 409.89 586.521 406.5 587.271 403.12C588.741 396.35 591.711 390.31 595.291 385.52C598.891 380.72 603.061 377.2 606.851 374.79C610.641 372.36 614.041 371.01 616.421 370.26C618.811 369.52 620.191 369.36 620.231 369.51H620.221Z" fill="black"/>
</g>
</g>
<defs>
<clipPath id="clip0_797_1436">
<rect width="675.51" height="451.96" fill="white"/>
</clipPath>
</defs>
</svg>
