<svg width="1470" height="1040" viewBox="0 0 1470 1040" fill="none" xmlns="http://www.w3.org/2000/svg">
<g clip-path="url(#clip0_1307_5)">
<path d="M245.298 662.772C200.817 706.29 193.338 773.63 202.735 832.617C202.963 833.95 205.044 833.592 205.044 832.325C205.044 818.902 204.654 805.577 204.686 792.317C204.914 791.7 205.141 791.147 205.369 790.53C216.977 782.08 227.642 772.557 234.275 759.492C241.689 744.9 244.615 728.422 250.306 713.147C250.826 711.685 249.265 712.107 248.257 712.855C221.204 732.81 212.587 754.26 204.816 782.957C205.174 768.072 206.312 753.187 209.531 738.302C215.384 711.067 226.959 684.092 246.501 663.91C247.217 663.13 246.111 661.96 245.331 662.74L245.298 662.772Z" fill="#A6A6A6"/>
<path d="M253.687 667.875C261.328 668.135 266.14 680.355 272.091 683.93C275.245 685.815 278.334 685.717 280.545 682.597C286.463 674.342 278.334 664.17 270.725 658.482C276.188 660.725 280.707 664.657 286.593 665.762C290.17 666.412 292.933 665.112 293.746 661.472C296.348 650.227 282.236 645.222 272.546 644.995C277.228 641.745 290.69 632.872 283.536 628.517C276.285 624.13 260.515 636.805 255.378 640.997C247.802 647.14 238.795 656.305 238.437 665.892C237.982 677.105 247.802 670.215 253.687 667.842V667.875Z" fill="#DBDBDB"/>
<path d="M251.444 669.76C261.231 665.307 280.025 671.71 281.618 668.005C284.87 660.465 269.847 655.297 261.718 654.29C269.197 652.275 283.504 649.057 283.049 641.842C282.496 633.067 261.101 640.607 250.273 648.927C236.616 659.392 236.714 669.467 238.958 671.515C242.046 674.277 249.785 670.475 251.411 669.76H251.444Z" fill="#EBEBEB"/>
<path d="M144.012 658.483C190.119 700.278 200.134 767.293 193.013 826.605C192.818 827.938 190.737 827.678 190.704 826.41C190.184 812.988 190.087 799.695 189.534 786.435C189.274 785.85 189.046 785.265 188.786 784.68C176.853 776.685 165.83 767.553 158.742 754.78C150.775 740.48 147.231 724.132 140.956 709.085C140.37 707.655 141.931 708.013 143.004 708.728C170.805 727.643 180.234 748.768 189.079 777.108C188.136 762.255 186.445 747.402 182.673 732.647C175.812 705.672 163.196 679.153 142.906 659.718C142.159 658.97 143.232 657.768 144.045 658.483H144.012Z" fill="#A6A6A6"/>
<path d="M135.851 663.877C128.209 664.43 123.885 676.812 118.064 680.615C114.975 682.63 111.919 682.63 109.578 679.607C103.367 671.58 111.074 661.115 118.487 655.135C113.122 657.572 108.765 661.7 102.912 663.032C99.368 663.812 96.5716 662.61 95.5961 659.035C92.5722 647.887 106.489 642.362 116.146 641.777C111.334 638.69 97.5471 630.337 104.538 625.722C111.594 621.075 127.852 633.132 133.152 637.13C140.955 642.98 150.32 651.787 151.003 661.375C151.881 672.555 141.833 666.022 135.851 663.91V663.877Z" fill="#DBDBDB"/>
<path d="M138.126 665.665C128.177 661.602 109.643 668.687 107.887 665.08C104.375 657.67 119.17 651.95 127.234 650.617C119.69 648.895 105.286 646.197 105.448 638.982C105.643 630.175 127.331 636.902 138.484 644.8C152.531 654.745 152.823 664.82 150.645 666.932C147.653 669.825 139.785 666.315 138.126 665.632V665.665Z" fill="#EBEBEB"/>
<path d="M191.16 768.885C194.574 790.92 198.768 813.703 205.466 834.99C206.117 836.94 208.978 836.42 208.686 834.34C205.662 813.962 200.134 793.975 197.11 773.597C194.021 752.992 192.395 732.095 193.566 711.23C195.517 676.91 204.849 640.38 227.252 613.535C227.74 612.885 226.699 612.008 226.179 612.593C181.307 664.885 188.461 729.008 188.493 734.728C182.153 713.083 175.585 688.253 151.556 666.218C150.515 665.275 149.702 665.73 149.897 667.322C154.189 707.46 165.375 728.423 188.656 749.905C189.306 756.275 190.152 762.613 191.16 768.853V768.885Z" fill="#A6A6A6"/>
<path d="M227.642 619.58C235.706 616.005 246.859 626.275 254.825 626.957C259.052 627.347 262.174 625.657 262.922 621.335C264.905 609.797 251.379 603.33 240.583 601.25C247.379 600.827 254.045 602.647 260.711 600.827C264.743 599.722 266.954 596.96 265.978 592.767C263.019 579.8 245.851 581.717 235.706 586.332C238.925 580.58 248.42 564.622 238.828 563.712C229.105 562.802 219.123 583.895 215.872 590.817C211.124 600.99 206.377 615.03 210.864 625.17C216.034 637 222.732 624.942 227.675 619.547L227.642 619.58Z" fill="#DBDBDB"/>
<path d="M226.309 622.635C234.21 613.112 256.939 610.285 256.744 605.637C256.321 596.18 238.112 598.39 229.203 601.412C235.934 595.562 249.168 585 245.071 577.785C240.096 568.945 221.692 587.535 214.636 601.607C205.727 619.32 210.929 629.752 214.278 630.727C218.896 632.06 225.009 624.195 226.309 622.635Z" fill="#EBEBEB"/>
<path d="M161.636 780.975L141.833 932.1H262.239C259.768 918.71 237.332 780.812 237.332 780.812L161.603 780.975H161.636Z" fill="#DBDBDB"/>
<path d="M1335.87 339.17H1421.97V302.802H1335.87V339.17Z" fill="#EBEBEB"/>
<path d="M1383.9 293.312H1470V256.945H1383.9V293.312Z" fill="#EBEBEB"/>
<path d="M1287.81 293.312H1373.92V256.945H1287.81V293.312Z" fill="#EBEBEB"/>
<path d="M48.0255 808.242H134.127V771.875H48.0255V808.242Z" fill="#EBEBEB"/>
<path d="M0.00012207 762.385H86.1016V726.018H0.00012207V762.385Z" fill="#EBEBEB"/>
<path d="M1383.9 808.177H1470V771.81H1383.9V808.177Z" fill="#EBEBEB"/>
<path d="M373.767 0H287.666V36.3675H373.767V0Z" fill="#EBEBEB"/>
<path d="M325.742 45.8575H239.64V82.225H325.742V45.8575Z" fill="#EBEBEB"/>
<path d="M110.521 931.97C510.593 929.988 959.374 929.955 1359.45 931.97C959.374 933.985 510.593 933.953 110.521 931.97Z" fill="#263238"/>
<path d="M485.947 470.015C485.947 470.015 485.947 469.982 485.914 469.982C485.069 469.04 484.191 468.13 483.248 467.317C483.248 467.317 483.237 467.307 483.215 467.285C482.37 466.342 481.492 465.432 480.549 464.62C480.549 464.62 480.538 464.609 480.517 464.587C479.671 463.645 478.793 462.735 477.85 461.923C477.85 461.923 477.839 461.912 477.818 461.89C476.972 460.947 476.094 460.038 475.151 459.225C475.151 459.225 475.141 459.214 475.119 459.192C474.274 458.25 473.396 457.34 472.453 456.527C472.453 456.527 472.442 456.517 472.42 456.495C471.575 455.553 470.697 454.642 469.754 453.83C469.754 453.83 469.743 453.819 469.721 453.798C468.876 452.855 467.998 451.945 467.055 451.132C467.055 451.132 467.044 451.122 467.023 451.1C466.177 450.158 465.299 449.247 464.356 448.435C464.356 448.435 464.345 448.424 464.324 448.402C463.478 447.46 462.6 446.55 461.657 445.737C461.657 445.737 461.647 445.727 461.625 445.705C458.861 442.715 455.675 440.115 452.098 438.067V169.65C452.098 168.252 451.415 167.505 451.415 166.107C451.415 163.962 451.415 163.247 450.7 161.85C450.7 161.135 450.017 159.705 450.017 158.99C449.302 156.845 449.302 156.13 448.554 154.732C447.838 154.017 447.156 152.587 447.156 151.872C445.692 149.727 445.009 149.012 444.294 148.33C443.579 147.615 442.896 146.185 442.148 145.47L439.287 142.61C439.287 142.187 438.734 141.732 438.116 141.44C437.759 141.082 437.271 140.595 436.718 140.042L436.588 139.912C436.588 139.49 436.035 139.035 435.417 138.742C435.06 138.385 434.572 137.897 434.019 137.345L433.889 137.215C433.889 136.792 433.336 136.337 432.719 136.045C432.361 135.687 431.873 135.2 431.32 134.647L431.19 134.517C431.19 134.095 430.638 133.64 430.02 133.347L428.622 131.95L428.492 131.82C428.492 131.397 427.939 130.942 427.321 130.65C426.963 130.292 426.476 129.805 425.923 129.252L425.793 129.122C425.793 128.7 425.24 128.245 424.622 127.952C424.264 127.595 423.777 127.107 423.224 126.555L423.094 126.425C423.094 126.002 422.541 125.547 421.923 125.255L420.525 123.857L420.395 123.727C420.395 123.305 419.842 122.85 419.225 122.557C418.867 122.2 418.379 121.712 417.826 121.16L417.696 121.03C417.696 120.607 417.144 120.152 416.526 119.86C416.168 119.502 415.68 119.015 415.128 118.462L414.998 118.332C414.998 117.91 414.445 117.455 413.827 117.162L412.266 115.602C412.266 114.92 410.868 114.205 410.12 114.205C410.12 113.49 409.437 113.49 409.437 113.49C407.974 112.807 407.259 112.092 405.861 111.345C405.145 110.63 403.715 109.947 402.316 108.485C401.601 108.485 400.17 107.802 399.455 107.802C398.057 107.087 395.878 107.087 395.195 106.34C393.797 106.34 393.049 106.34 391.619 105.657H379.523C378.808 106.34 377.377 106.34 376.662 106.34C374.516 107.055 373.117 107.055 372.402 107.802C371.004 107.802 370.256 108.485 369.541 109.947C367.395 109.947 366.712 110.63 365.281 111.345C364.598 112.06 363.135 112.807 362.42 113.49C361.737 114.205 361.022 114.952 358.876 115.635C358.193 117.097 357.477 117.78 356.729 118.495C356.014 119.21 356.014 119.892 355.331 119.892L91.1091 447.525C78.3305 463.645 79.501 486.135 94.6533 499.948C95.4987 500.922 96.3767 501.832 97.3847 502.677C98.2301 503.652 99.108 504.562 100.116 505.407C100.961 506.382 101.839 507.293 102.847 508.138C103.693 509.113 104.571 510.022 105.579 510.867C106.424 511.842 107.302 512.752 108.31 513.597C109.155 514.572 110.033 515.482 111.041 516.327C111.887 517.302 112.765 518.213 113.773 519.057C114.618 520.033 115.496 520.943 116.504 521.788C117.349 522.763 118.227 523.672 119.235 524.517C120.861 526.37 122.747 528.092 124.828 529.652C131.949 536.055 140.5 538.2 149.052 538.2H346.487V565.207C346.487 577.005 351.332 587.372 359.233 594.457L359.331 594.555C360.176 595.465 361.022 596.342 361.932 597.155C361.965 597.188 361.997 597.187 361.997 597.22C362.842 598.162 363.72 599.04 364.631 599.853L364.728 599.95C365.574 600.86 366.419 601.737 367.33 602.55C367.362 602.582 367.395 602.582 367.395 602.615C368.24 603.557 369.118 604.435 370.028 605.247L370.126 605.345C370.971 606.255 371.817 607.132 372.727 607.945C372.76 607.977 372.792 607.978 372.792 608.01C373.638 608.952 374.516 609.83 375.426 610.642L375.524 610.74C376.369 611.65 377.214 612.527 378.125 613.34C378.157 613.372 378.19 613.372 378.19 613.405C379.035 614.348 379.913 615.225 380.824 616.038L380.921 616.135C381.767 617.045 382.612 617.922 383.522 618.735C383.555 618.768 383.587 618.767 383.587 618.8C390.676 626.6 400.983 631.41 412.689 631.41C434.8 631.41 451.87 614.283 451.87 592.182V538.005H458.991C481.102 538.005 498.92 520.91 498.92 498.842C498.92 487.5 493.88 477.165 485.882 469.95L485.947 470.015ZM346.357 317.395V432.575H253.525L346.357 317.395Z" fill="#205678"/>
<path opacity="0.1" d="M485.947 470.015C485.947 470.015 485.947 469.982 485.914 469.982C485.069 469.04 484.191 468.13 483.248 467.317C483.248 467.317 483.237 467.307 483.215 467.285C482.37 466.342 481.492 465.432 480.549 464.62C480.549 464.62 480.538 464.609 480.517 464.587C479.671 463.645 478.793 462.735 477.85 461.923C477.85 461.923 477.839 461.912 477.818 461.89C476.972 460.947 476.094 460.038 475.151 459.225C475.151 459.225 475.141 459.214 475.119 459.192C474.274 458.25 473.396 457.34 472.453 456.527C472.453 456.527 472.442 456.517 472.42 456.495C471.575 455.553 470.697 454.642 469.754 453.83C469.754 453.83 469.743 453.819 469.721 453.798C468.876 452.855 467.998 451.945 467.055 451.132C467.055 451.132 467.044 451.122 467.023 451.1C466.177 450.158 465.299 449.247 464.356 448.435C464.356 448.435 464.345 448.424 464.324 448.402C463.478 447.46 462.6 446.55 461.657 445.737C461.657 445.737 461.647 445.727 461.625 445.705C458.861 442.715 455.675 440.115 452.098 438.067V169.65C452.098 168.252 451.415 167.505 451.415 166.107C451.415 163.962 451.415 163.247 450.7 161.85C450.7 161.135 450.017 159.705 450.017 158.99C449.302 156.845 449.302 156.13 448.554 154.732C447.838 154.017 447.156 152.587 447.156 151.872C445.692 149.727 445.009 149.012 444.294 148.33C443.579 147.615 442.896 146.185 442.148 145.47L439.287 142.61C439.287 142.187 438.734 141.732 438.116 141.44C437.759 141.082 437.271 140.595 436.718 140.042L436.588 139.912C436.588 139.49 436.035 139.035 435.417 138.742C435.06 138.385 434.572 137.897 434.019 137.345L433.889 137.215C433.889 136.792 433.336 136.337 432.719 136.045C432.361 135.687 431.873 135.2 431.32 134.647L431.19 134.517C431.19 134.095 430.638 133.64 430.02 133.347L428.622 131.95L428.492 131.82C428.492 131.397 427.939 130.942 427.321 130.65C426.963 130.292 426.476 129.805 425.923 129.252L425.793 129.122C425.793 128.7 425.24 128.245 424.622 127.952C424.264 127.595 423.777 127.107 423.224 126.555L423.094 126.425C423.094 126.002 422.541 125.547 421.923 125.255L420.525 123.857L420.395 123.727C420.395 123.305 419.842 122.85 419.225 122.557C418.867 122.2 418.379 121.712 417.826 121.16L417.696 121.03C417.696 120.607 417.144 120.152 416.526 119.86C416.168 119.502 415.68 119.015 415.128 118.462L414.998 118.332C414.998 117.91 414.445 117.455 413.827 117.162L412.266 115.602C412.266 114.92 410.868 114.205 410.12 114.205C410.12 113.49 409.437 113.49 409.437 113.49C407.974 112.807 407.259 112.092 405.861 111.345C405.145 110.63 403.715 109.947 402.316 108.485C401.601 108.485 400.17 107.802 399.455 107.802C398.057 107.087 395.878 107.087 395.195 106.34C393.797 106.34 393.049 106.34 391.619 105.657H379.523C378.808 106.34 377.377 106.34 376.662 106.34C374.516 107.055 373.117 107.055 372.402 107.802C371.004 107.802 370.256 108.485 369.541 109.947C367.395 109.947 366.712 110.63 365.281 111.345C364.598 112.06 363.135 112.807 362.42 113.49C361.737 114.205 361.022 114.952 358.876 115.635C358.193 117.097 357.477 117.78 356.729 118.495C356.014 119.21 356.014 119.892 355.331 119.892L91.1091 447.525C78.3305 463.645 79.501 486.135 94.6533 499.948C95.4987 500.922 96.3767 501.832 97.3847 502.677C98.2301 503.652 99.108 504.562 100.116 505.407C100.961 506.382 101.839 507.293 102.847 508.138C103.693 509.113 104.571 510.022 105.579 510.867C106.424 511.842 107.302 512.752 108.31 513.597C109.155 514.572 110.033 515.482 111.041 516.327C111.887 517.302 112.765 518.213 113.773 519.057C114.618 520.033 115.496 520.943 116.504 521.788C117.349 522.763 118.227 523.672 119.235 524.517C120.861 526.37 122.747 528.092 124.828 529.652C131.949 536.055 140.5 538.2 149.052 538.2H346.487V565.207C346.487 577.005 351.332 587.372 359.233 594.457L359.331 594.555C360.176 595.465 361.022 596.342 361.932 597.155C361.965 597.188 361.997 597.187 361.997 597.22C362.842 598.162 363.72 599.04 364.631 599.853L364.728 599.95C365.574 600.86 366.419 601.737 367.33 602.55C367.362 602.582 367.395 602.582 367.395 602.615C368.24 603.557 369.118 604.435 370.028 605.247L370.126 605.345C370.971 606.255 371.817 607.132 372.727 607.945C372.76 607.977 372.792 607.978 372.792 608.01C373.638 608.952 374.516 609.83 375.426 610.642L375.524 610.74C376.369 611.65 377.214 612.527 378.125 613.34C378.157 613.372 378.19 613.372 378.19 613.405C379.035 614.348 379.913 615.225 380.824 616.038L380.921 616.135C381.767 617.045 382.612 617.922 383.522 618.735C383.555 618.768 383.587 618.767 383.587 618.8C390.676 626.6 400.983 631.41 412.689 631.41C434.8 631.41 451.87 614.283 451.87 592.182V538.005H458.991C481.102 538.005 498.92 520.91 498.92 498.842C498.92 487.5 493.88 477.165 485.882 469.95L485.947 470.015ZM346.357 317.395V432.575H253.525L346.357 317.395Z" fill="black"/>
<path d="M471.835 471.737C471.835 493.837 454.016 510.932 431.905 510.932H424.785V565.11C424.785 587.21 407.681 604.305 385.571 604.305C363.46 604.305 346.357 587.21 346.357 565.11V510.932H121.771C113.22 510.932 104.668 508.787 97.5145 502.385C79.696 488.832 77.5499 464.62 91.109 447.525L354.908 119.697C355.624 119.697 355.624 118.982 356.339 118.267C357.054 117.552 357.77 116.837 358.485 115.407C360.631 114.692 361.347 113.977 362.029 113.262C362.745 112.547 364.175 111.832 364.891 111.117C366.321 110.402 367.037 109.687 369.15 109.687C369.866 108.257 370.581 107.542 372.012 107.542C372.727 106.827 374.158 106.827 376.304 106.112C377.019 106.112 378.45 106.112 379.165 105.397H391.293C392.724 106.112 393.439 106.112 394.87 106.112C395.586 106.827 397.732 106.827 399.13 107.542C399.845 107.542 401.276 108.257 401.991 108.257C403.422 109.687 404.852 110.402 405.535 111.117C406.966 111.832 407.681 112.547 409.112 113.262C409.112 113.262 409.827 113.262 409.827 113.977C410.543 113.977 411.973 114.692 411.973 115.407C413.404 116.837 414.119 117.552 414.835 118.267C415.55 118.982 416.265 120.412 416.981 121.127C417.696 121.842 418.411 122.557 419.842 124.702C419.842 125.417 420.558 126.847 421.273 127.562C421.988 128.992 421.988 129.707 422.704 131.852C422.704 132.567 423.419 133.997 423.419 134.712C424.134 136.142 424.134 136.857 424.134 139.002C424.134 140.432 424.85 141.147 424.85 142.577V432.607H431.971C454.081 432.607 471.9 450.417 471.9 471.802L471.835 471.737ZM346.357 256.522L204.491 432.542H346.357V256.522Z" fill="#205678"/>
<path d="M888.88 211.705C880.751 199.355 871.42 187.915 860.982 177.775C860.592 177.352 860.169 176.93 859.746 176.572C859.649 176.475 859.519 176.312 859.389 176.215C859.064 175.857 858.738 175.5 858.381 175.175C857.47 174.2 856.495 173.29 855.552 172.347C855.487 172.282 855.357 172.152 855.292 172.12C854.967 171.795 854.641 171.47 854.316 171.145C854.219 171.047 854.089 170.885 853.959 170.787C853.633 170.43 853.308 170.072 852.951 169.747C852.04 168.772 851.065 167.862 850.122 166.92C850.057 166.855 849.927 166.725 849.862 166.692C849.536 166.367 849.211 166.042 848.886 165.717C848.789 165.62 848.659 165.457 848.528 165.36C848.203 165.002 847.878 164.645 847.52 164.32C846.61 163.345 845.635 162.435 844.692 161.492C844.627 161.427 844.497 161.297 844.432 161.265C844.106 160.94 843.781 160.615 843.456 160.29C843.358 160.192 843.228 160.03 843.098 159.932C842.773 159.575 842.448 159.217 842.09 158.892C841.18 157.917 840.204 157.007 839.261 156.065C839.196 156 839.066 155.87 839.001 155.837C838.676 155.48 838.384 155.155 838.026 154.862C837.928 154.765 837.798 154.602 837.668 154.505C809.054 124.995 771.694 105.495 729.814 105.495C673.497 105.495 627.162 139.002 597.183 184.567C565.805 230.197 549.45 289.347 548.702 354.9C549.417 419.737 565.805 479.602 597.183 525.232C605.246 537.29 614.513 548.632 624.788 558.675C625.243 559.13 625.731 559.585 626.186 560.04C626.251 560.072 626.317 560.137 626.382 560.235C627.227 561.112 628.072 561.925 628.918 562.77C629.34 563.225 629.796 563.68 630.218 564.102C630.674 564.557 631.161 565.012 631.617 565.467C631.682 565.5 631.747 565.565 631.812 565.662C632.657 566.54 633.502 567.352 634.348 568.197C634.771 568.652 635.226 569.107 635.649 569.53C636.104 569.985 636.591 570.44 637.047 570.895C637.112 570.927 637.177 570.992 637.242 571.09C638.087 571.967 638.933 572.78 639.778 573.625C640.201 574.08 640.656 574.535 641.079 574.957C641.534 575.412 642.022 575.867 642.477 576.322C642.542 576.355 642.607 576.42 642.672 576.517C643.517 577.395 644.363 578.207 645.208 579.052C645.631 579.507 646.086 579.962 646.509 580.385C646.964 580.84 647.452 581.295 647.907 581.75C647.972 581.782 648.037 581.847 648.102 581.945C648.947 582.822 649.793 583.635 650.638 584.48C678.829 612.625 715.149 631.475 756.964 631.475C811.851 631.475 858.901 597.252 888.848 552.37C919.51 506.74 936.613 446.907 936.613 382.037C936.613 317.167 919.478 257.335 888.848 211.705H888.88ZM796.113 481C775.433 511.647 751.924 525.167 729.814 525.167C717.653 525.167 704.809 521.072 692.226 512.232C691.218 510.932 690.242 509.567 689.267 508.137C669.302 478.205 655.028 432.607 655.028 381.972C655.028 331.337 669.302 285.772 689.267 255.125C710.662 225.192 734.919 210.957 756.997 211.64C768.735 211.282 780.863 215.117 792.797 223.34C793.935 224.867 795.04 226.395 796.113 227.987C816.078 258.635 830.352 303.517 830.352 354.835C830.352 406.152 816.078 451.035 796.113 481Z" fill="#205678"/>
<path opacity="0.1" d="M888.88 211.705C880.751 199.355 871.42 187.915 860.982 177.775C860.592 177.352 860.169 176.93 859.746 176.572C859.649 176.475 859.519 176.312 859.389 176.215C859.064 175.857 858.738 175.5 858.381 175.175C857.47 174.2 856.495 173.29 855.552 172.347C855.487 172.282 855.357 172.152 855.292 172.12C854.967 171.795 854.641 171.47 854.316 171.145C854.219 171.047 854.089 170.885 853.959 170.787C853.633 170.43 853.308 170.072 852.951 169.747C852.04 168.772 851.065 167.862 850.122 166.92C850.057 166.855 849.927 166.725 849.862 166.692C849.536 166.367 849.211 166.042 848.886 165.717C848.789 165.62 848.659 165.457 848.528 165.36C848.203 165.002 847.878 164.645 847.52 164.32C846.61 163.345 845.635 162.435 844.692 161.492C844.627 161.427 844.497 161.297 844.432 161.265C844.106 160.94 843.781 160.615 843.456 160.29C843.358 160.192 843.228 160.03 843.098 159.932C842.773 159.575 842.448 159.217 842.09 158.892C841.18 157.917 840.204 157.007 839.261 156.065C839.196 156 839.066 155.87 839.001 155.837C838.676 155.48 838.384 155.155 838.026 154.862C837.928 154.765 837.798 154.602 837.668 154.505C809.054 124.995 771.694 105.495 729.814 105.495C673.497 105.495 627.162 139.002 597.183 184.567C565.805 230.197 549.45 289.347 548.702 354.9C549.417 419.737 565.805 479.602 597.183 525.232C605.246 537.29 614.513 548.632 624.788 558.675C625.243 559.13 625.731 559.585 626.186 560.04C626.251 560.072 626.317 560.137 626.382 560.235C627.227 561.112 628.072 561.925 628.918 562.77C629.34 563.225 629.796 563.68 630.218 564.102C630.674 564.557 631.161 565.012 631.617 565.467C631.682 565.5 631.747 565.565 631.812 565.662C632.657 566.54 633.502 567.352 634.348 568.197C634.771 568.652 635.226 569.107 635.649 569.53C636.104 569.985 636.591 570.44 637.047 570.895C637.112 570.927 637.177 570.992 637.242 571.09C638.087 571.967 638.933 572.78 639.778 573.625C640.201 574.08 640.656 574.535 641.079 574.957C641.534 575.412 642.022 575.867 642.477 576.322C642.542 576.355 642.607 576.42 642.672 576.517C643.517 577.395 644.363 578.207 645.208 579.052C645.631 579.507 646.086 579.962 646.509 580.385C646.964 580.84 647.452 581.295 647.907 581.75C647.972 581.782 648.037 581.847 648.102 581.945C648.947 582.822 649.793 583.635 650.638 584.48C678.829 612.625 715.149 631.475 756.964 631.475C811.851 631.475 858.901 597.252 888.848 552.37C919.51 506.74 936.613 446.907 936.613 382.037C936.613 317.167 919.478 257.335 888.848 211.705H888.88ZM796.113 481C775.433 511.647 751.924 525.167 729.814 525.167C717.653 525.167 704.809 521.072 692.226 512.232C691.218 510.932 690.242 509.567 689.267 508.137C669.302 478.205 655.028 432.607 655.028 381.972C655.028 331.337 669.302 285.772 689.267 255.125C710.662 225.192 734.919 210.957 756.997 211.64C768.735 211.282 780.863 215.117 792.797 223.34C793.935 224.867 795.04 226.395 796.113 227.987C816.078 258.635 830.352 303.517 830.352 354.835C830.352 406.152 816.078 451.035 796.113 481Z" fill="black"/>
<path d="M548.734 354.867C549.45 289.315 565.838 230.165 597.215 184.535C627.162 138.937 673.497 105.43 729.814 105.43C786.131 105.43 831.751 138.937 861.73 184.535C892.392 230.132 909.496 289.282 909.496 354.867C909.496 420.452 892.392 479.57 861.73 525.167C831.783 570.082 784.733 604.272 729.814 604.272C674.895 604.272 627.13 570.082 597.215 525.167C565.838 479.57 549.45 419.705 548.734 354.867ZM830.352 354.867C830.352 303.55 816.111 258.667 796.146 228.02C775.466 198.087 751.957 183.852 729.847 184.567C707.736 183.852 683.512 198.12 662.116 228.02C642.152 258.667 627.878 303.55 627.878 354.867C627.878 406.185 642.152 451.067 662.116 481C683.512 511.647 707.736 525.167 729.847 525.167C751.957 525.167 775.466 511.615 796.146 481C816.111 451.067 830.352 405.47 830.352 354.867Z" fill="#205678"/>
<path d="M1374.63 470.015C1374.63 470.015 1374.63 469.982 1374.6 469.982C1373.72 469.04 1372.81 468.13 1371.93 467.317C1371.93 467.317 1371.92 467.307 1371.9 467.285C1371.02 466.342 1370.11 465.432 1369.23 464.62C1369.23 464.62 1369.22 464.609 1369.2 464.587C1368.32 463.645 1367.41 462.735 1366.54 461.923C1366.54 461.923 1366.52 461.912 1366.5 461.89C1365.63 460.947 1364.71 460.038 1363.84 459.225C1363.84 459.225 1363.83 459.214 1363.8 459.192C1362.93 458.25 1362.02 457.34 1361.14 456.527C1361.14 456.527 1361.13 456.517 1361.11 456.495C1360.23 455.553 1359.32 454.642 1358.44 453.83C1358.44 453.83 1358.43 453.819 1358.41 453.798C1357.53 452.855 1356.62 451.945 1355.74 451.132C1355.74 451.132 1355.73 451.122 1355.71 451.1C1354.83 450.158 1353.92 449.247 1353.04 448.435C1353.04 448.435 1353.03 448.424 1353.01 448.402C1352.13 447.46 1351.22 446.55 1350.34 445.737C1350.34 445.737 1350.33 445.727 1350.31 445.705C1347.55 442.715 1344.33 440.082 1340.75 438.067V169.65C1340.75 168.252 1340.07 167.505 1340.07 166.107C1340.07 163.962 1340.07 163.247 1339.35 161.85C1339.35 161.135 1338.67 159.705 1338.67 158.99C1337.95 156.845 1337.95 156.13 1337.21 154.732C1336.52 154.017 1335.81 152.587 1335.81 151.872C1334.41 149.727 1333.66 149.012 1332.95 148.33C1332.23 147.615 1331.55 146.185 1330.8 145.47L1327.94 142.61C1327.94 142.187 1327.39 141.732 1326.77 141.44C1326.41 141.082 1325.92 140.595 1325.37 140.042L1325.24 139.912C1325.24 139.49 1324.69 139.035 1324.07 138.742C1323.71 138.385 1323.22 137.897 1322.67 137.345L1322.54 137.215C1322.54 136.792 1321.99 136.337 1321.37 136.045L1319.97 134.647L1319.84 134.517C1319.84 134.095 1319.29 133.64 1318.67 133.347L1317.27 131.95L1317.14 131.82C1317.14 131.397 1316.59 130.942 1315.97 130.65C1315.62 130.292 1315.13 129.805 1314.58 129.252L1314.45 129.122C1314.45 128.7 1313.89 128.245 1313.28 127.952C1312.92 127.595 1312.43 127.107 1311.88 126.555L1311.75 126.425C1311.75 126.002 1311.19 125.547 1310.58 125.255C1310.22 124.897 1309.73 124.41 1309.18 123.857L1309.05 123.727C1309.05 123.305 1308.5 122.85 1307.88 122.557C1307.52 122.2 1307.03 121.712 1306.48 121.16L1306.35 121.03C1306.35 120.607 1305.8 120.152 1305.18 119.86C1304.82 119.502 1304.33 119.015 1303.78 118.462L1303.65 118.332C1303.65 117.91 1303.1 117.455 1302.48 117.162L1300.92 115.602C1300.92 114.92 1299.52 114.205 1298.77 114.205C1298.77 113.49 1298.06 113.49 1298.06 113.49C1296.66 112.807 1295.91 112.092 1294.51 111.345C1293.8 110.63 1292.37 109.947 1290.97 108.485C1290.25 108.485 1288.82 107.802 1288.11 107.802C1286.71 107.087 1284.56 107.087 1283.85 106.34C1282.39 106.34 1281.7 106.34 1280.27 105.657H1268.18C1267.46 106.34 1266.03 106.34 1265.31 106.34C1263.17 107.055 1261.77 107.055 1261.05 107.802C1259.66 107.802 1258.91 108.485 1258.19 109.947C1256.08 109.947 1255.36 110.63 1253.93 111.345C1253.25 112.06 1251.79 112.807 1251.11 113.49C1250.39 114.205 1249.64 114.952 1247.53 115.635C1246.81 117.097 1246.13 117.78 1245.38 118.495C1244.67 119.21 1244.67 119.892 1243.98 119.892L980.185 447.72C967.406 463.84 968.577 486.33 983.729 500.142C984.574 501.117 985.452 502.027 986.46 502.872C987.306 503.847 988.184 504.758 989.192 505.603C990.037 506.578 990.915 507.487 991.923 508.332C992.768 509.307 993.646 510.217 994.654 511.062C995.5 512.037 996.378 512.947 997.386 513.792C998.231 514.767 999.109 515.677 1000.12 516.522C1000.96 517.497 1001.84 518.408 1002.85 519.253C1003.69 520.228 1004.57 521.137 1005.58 521.982C1006.42 522.957 1007.3 523.867 1008.31 524.712C1009.94 526.565 1011.82 528.287 1013.9 529.847C1021.02 536.25 1029.58 538.395 1038.13 538.395H1235.56V565.402C1235.56 577.167 1240.41 587.568 1248.31 594.652C1248.34 594.685 1248.37 594.685 1248.37 594.717C1249.22 595.66 1250.1 596.538 1251.01 597.35L1251.11 597.448C1251.95 598.357 1252.8 599.235 1253.71 600.048C1253.74 600.08 1253.77 600.08 1253.77 600.112C1254.62 601.055 1255.49 601.932 1256.41 602.745L1256.5 602.842C1257.35 603.753 1258.19 604.63 1259.1 605.442C1259.14 605.475 1259.17 605.475 1259.17 605.507C1260.01 606.45 1260.89 607.327 1261.8 608.14L1261.9 608.237C1262.75 609.147 1263.59 610.025 1264.5 610.837C1264.53 610.87 1264.57 610.87 1264.57 610.902C1265.41 611.845 1266.29 612.722 1267.2 613.535L1267.3 613.632C1268.14 614.542 1268.99 615.42 1269.9 616.232C1269.93 616.265 1269.96 616.265 1269.96 616.298C1270.81 617.24 1271.69 618.117 1272.6 618.93L1272.7 619.027C1279.78 626.828 1290.06 631.605 1301.73 631.605C1323.84 631.605 1340.91 614.478 1340.91 592.378V538.2H1348.03C1370.18 538.2 1388 521.105 1388 499.038C1388 487.695 1382.96 477.36 1374.96 470.145L1374.63 470.015ZM1235.01 317.395V432.575H1142.18L1235.01 317.395Z" fill="#205678"/>
<path opacity="0.1" d="M1374.63 470.015C1374.63 470.015 1374.63 469.982 1374.6 469.982C1373.72 469.04 1372.81 468.13 1371.93 467.317C1371.93 467.317 1371.92 467.307 1371.9 467.285C1371.02 466.342 1370.11 465.432 1369.23 464.62C1369.23 464.62 1369.22 464.609 1369.2 464.587C1368.32 463.645 1367.41 462.735 1366.54 461.923C1366.54 461.923 1366.52 461.912 1366.5 461.89C1365.63 460.947 1364.71 460.038 1363.84 459.225C1363.84 459.225 1363.83 459.214 1363.8 459.192C1362.93 458.25 1362.02 457.34 1361.14 456.527C1361.14 456.527 1361.13 456.517 1361.11 456.495C1360.23 455.553 1359.32 454.642 1358.44 453.83C1358.44 453.83 1358.43 453.819 1358.41 453.798C1357.53 452.855 1356.62 451.945 1355.74 451.132C1355.74 451.132 1355.73 451.122 1355.71 451.1C1354.83 450.158 1353.92 449.247 1353.04 448.435C1353.04 448.435 1353.03 448.424 1353.01 448.402C1352.13 447.46 1351.22 446.55 1350.34 445.737C1350.34 445.737 1350.33 445.727 1350.31 445.705C1347.55 442.715 1344.33 440.082 1340.75 438.067V169.65C1340.75 168.252 1340.07 167.505 1340.07 166.107C1340.07 163.962 1340.07 163.247 1339.35 161.85C1339.35 161.135 1338.67 159.705 1338.67 158.99C1337.95 156.845 1337.95 156.13 1337.21 154.732C1336.52 154.017 1335.81 152.587 1335.81 151.872C1334.41 149.727 1333.66 149.012 1332.95 148.33C1332.23 147.615 1331.55 146.185 1330.8 145.47L1327.94 142.61C1327.94 142.187 1327.39 141.732 1326.77 141.44C1326.41 141.082 1325.92 140.595 1325.37 140.042L1325.24 139.912C1325.24 139.49 1324.69 139.035 1324.07 138.742C1323.71 138.385 1323.22 137.897 1322.67 137.345L1322.54 137.215C1322.54 136.792 1321.99 136.337 1321.37 136.045L1319.97 134.647L1319.84 134.517C1319.84 134.095 1319.29 133.64 1318.67 133.347L1317.27 131.95L1317.14 131.82C1317.14 131.397 1316.59 130.942 1315.97 130.65C1315.62 130.292 1315.13 129.805 1314.58 129.252L1314.45 129.122C1314.45 128.7 1313.89 128.245 1313.28 127.952C1312.92 127.595 1312.43 127.107 1311.88 126.555L1311.75 126.425C1311.75 126.002 1311.19 125.547 1310.58 125.255C1310.22 124.897 1309.73 124.41 1309.18 123.857L1309.05 123.727C1309.05 123.305 1308.5 122.85 1307.88 122.557C1307.52 122.2 1307.03 121.712 1306.48 121.16L1306.35 121.03C1306.35 120.607 1305.8 120.152 1305.18 119.86C1304.82 119.502 1304.33 119.015 1303.78 118.462L1303.65 118.332C1303.65 117.91 1303.1 117.455 1302.48 117.162L1300.92 115.602C1300.92 114.92 1299.52 114.205 1298.77 114.205C1298.77 113.49 1298.06 113.49 1298.06 113.49C1296.66 112.807 1295.91 112.092 1294.51 111.345C1293.8 110.63 1292.37 109.947 1290.97 108.485C1290.25 108.485 1288.82 107.802 1288.11 107.802C1286.71 107.087 1284.56 107.087 1283.85 106.34C1282.39 106.34 1281.7 106.34 1280.27 105.657H1268.18C1267.46 106.34 1266.03 106.34 1265.31 106.34C1263.17 107.055 1261.77 107.055 1261.05 107.802C1259.66 107.802 1258.91 108.485 1258.19 109.947C1256.08 109.947 1255.36 110.63 1253.93 111.345C1253.25 112.06 1251.79 112.807 1251.11 113.49C1250.39 114.205 1249.64 114.952 1247.53 115.635C1246.81 117.097 1246.13 117.78 1245.38 118.495C1244.67 119.21 1244.67 119.892 1243.98 119.892L980.185 447.72C967.406 463.84 968.577 486.33 983.729 500.142C984.574 501.117 985.452 502.027 986.46 502.872C987.306 503.847 988.184 504.758 989.192 505.603C990.037 506.578 990.915 507.487 991.923 508.332C992.768 509.307 993.646 510.217 994.654 511.062C995.5 512.037 996.378 512.947 997.386 513.792C998.231 514.767 999.109 515.677 1000.12 516.522C1000.96 517.497 1001.84 518.408 1002.85 519.253C1003.69 520.228 1004.57 521.137 1005.58 521.982C1006.42 522.957 1007.3 523.867 1008.31 524.712C1009.94 526.565 1011.82 528.287 1013.9 529.847C1021.02 536.25 1029.58 538.395 1038.13 538.395H1235.56V565.402C1235.56 577.167 1240.41 587.568 1248.31 594.652C1248.34 594.685 1248.37 594.685 1248.37 594.717C1249.22 595.66 1250.1 596.538 1251.01 597.35L1251.11 597.448C1251.95 598.357 1252.8 599.235 1253.71 600.048C1253.74 600.08 1253.77 600.08 1253.77 600.112C1254.62 601.055 1255.49 601.932 1256.41 602.745L1256.5 602.842C1257.35 603.753 1258.19 604.63 1259.1 605.442C1259.14 605.475 1259.17 605.475 1259.17 605.507C1260.01 606.45 1260.89 607.327 1261.8 608.14L1261.9 608.237C1262.75 609.147 1263.59 610.025 1264.5 610.837C1264.53 610.87 1264.57 610.87 1264.57 610.902C1265.41 611.845 1266.29 612.722 1267.2 613.535L1267.3 613.632C1268.14 614.542 1268.99 615.42 1269.9 616.232C1269.93 616.265 1269.96 616.265 1269.96 616.298C1270.81 617.24 1271.69 618.117 1272.6 618.93L1272.7 619.027C1279.78 626.828 1290.06 631.605 1301.73 631.605C1323.84 631.605 1340.91 614.478 1340.91 592.378V538.2H1348.03C1370.18 538.2 1388 521.105 1388 499.038C1388 487.695 1382.96 477.36 1374.96 470.145L1374.63 470.015ZM1235.01 317.395V432.575H1142.18L1235.01 317.395Z" fill="black"/>
<path d="M1360.49 471.737C1360.49 493.837 1342.67 510.932 1320.56 510.932H1313.44V565.11C1313.44 587.21 1296.33 604.305 1274.22 604.305C1252.11 604.305 1235.01 587.21 1235.01 565.11V510.932H1010.42C1001.87 510.932 993.321 508.787 986.167 502.385C968.349 488.832 966.203 464.62 979.762 447.525L1243.56 119.73C1244.28 119.73 1244.28 119.015 1244.99 118.3C1245.71 117.585 1246.42 116.87 1247.14 115.44C1249.28 114.725 1250 114.01 1250.71 113.295C1251.43 112.58 1252.86 111.865 1253.58 111.15C1255.01 110.435 1255.72 109.72 1257.84 109.72C1258.55 108.29 1259.27 107.575 1260.7 107.575C1261.41 106.86 1262.84 106.86 1264.99 106.145C1265.7 106.145 1267.14 106.145 1267.85 105.43H1279.98C1281.41 106.145 1282.12 106.145 1283.56 106.145C1284.27 106.86 1286.42 106.86 1287.85 107.575C1288.56 107.575 1289.99 108.29 1290.71 108.29C1292.14 109.72 1293.54 110.435 1294.25 111.15C1295.68 111.865 1296.4 112.58 1297.83 113.295C1297.83 113.295 1298.55 113.295 1298.55 114.01C1299.26 114.01 1300.69 114.725 1300.69 115.44C1302.12 116.87 1302.84 117.585 1303.55 118.3C1304.27 119.015 1304.98 120.445 1305.7 121.16C1306.41 121.875 1307.13 122.59 1308.56 124.735C1308.56 125.45 1309.28 126.88 1309.99 127.595C1310.71 129.025 1310.71 129.74 1311.42 131.885C1311.42 132.6 1312.1 134.03 1312.1 134.745C1312.82 136.175 1312.82 136.89 1312.82 139.035C1312.82 140.465 1313.53 141.18 1313.53 142.61V432.64H1320.66C1342.77 432.64 1360.59 450.45 1360.59 471.835L1360.49 471.737ZM1235.01 256.522L1093.11 432.542H1235.01V256.522Z" fill="#205678"/>
<path d="M803.697 549.93L756.474 560.897L790.441 707.025L837.664 696.058L803.697 549.93Z" fill="#00D38E"/>
<path d="M688.617 162.078C578.388 187.655 509.78 297.765 535.37 407.94C560.96 518.115 671.123 586.69 781.319 561.113C891.579 535.503 960.155 425.425 934.565 315.283C908.943 205.075 798.845 136.5 688.584 162.078H688.617ZM771.596 519.09C684.585 539.273 597.638 485.128 577.413 398.19C557.188 311.188 611.359 224.283 698.371 204.068C785.416 183.853 872.33 238.03 892.555 325C912.747 411.97 858.608 498.875 771.596 519.09Z" fill="#00D38E"/>
<path d="M819.851 654.73L788.179 662.086C777.212 664.633 770.387 675.584 772.935 686.546L813.444 860.817C815.992 871.779 826.949 878.601 837.916 876.054L869.588 868.699C880.556 866.152 887.381 855.2 884.833 844.238L844.323 669.968C841.775 659.005 830.819 652.184 819.851 654.73Z" fill="#0D3A55"/>
<g opacity="0.3">
<path d="M892.555 325.033C912.747 412.003 858.608 498.907 771.597 519.122C684.585 539.305 597.638 485.16 577.413 398.223C557.188 311.22 611.359 224.315 698.371 204.1C785.416 183.885 872.33 238.063 892.555 325.033Z" fill="white"/>
<path d="M896.554 370.597C892.718 440.537 843.326 502.45 771.597 519.09C756.77 522.535 741.942 523.835 727.44 523.152L896.554 370.597Z" fill="#EBEBEB"/>
<path d="M822.126 225.355L590.484 434.298C584.794 423.085 580.405 410.962 577.413 398.19C573.966 383.5 572.698 368.778 573.381 354.413L744.381 200.135C772.409 201.76 799.105 210.665 822.093 225.355H822.126Z" fill="#EBEBEB"/>
<path d="M888.133 309.498L667.514 508.528C657.89 504.108 648.72 498.712 640.104 492.505L875.029 280.573C880.297 289.608 884.686 299.26 888.133 309.498Z" fill="#EBEBEB"/>
<path d="M839.912 238.55L601.8 453.375C600.694 451.75 599.589 450.125 598.548 448.5L835.392 234.845C836.921 236.015 838.449 237.25 839.912 238.55Z" fill="#EBEBEB"/>
<path d="M690.535 206.115L584.859 301.438C586.648 296.953 588.664 292.533 590.875 288.21L676.846 210.665C681.301 208.943 685.853 207.415 690.568 206.083L690.535 206.115Z" fill="#EBEBEB"/>
</g>
<path d="M620.139 389.578C620.106 389.35 620.041 389.123 620.009 388.895C619.456 385.775 620.431 391.983 620.139 389.903C619.814 387.4 619.489 384.898 619.293 382.363C618.546 373.555 618.578 364.65 619.293 355.843C619.391 354.608 619.554 353.373 619.651 352.105C619.651 351.683 619.293 355.03 619.651 352.365C619.749 351.618 619.846 350.838 619.944 350.09C620.334 347.165 620.822 344.273 621.407 341.38C622.643 335.01 624.301 328.705 626.382 322.563C626.87 321.1 627.422 319.638 627.943 318.175C628.658 316.193 627.032 320.385 628.105 317.785C628.463 316.908 628.82 316.063 629.178 315.185C630.576 311.903 632.105 308.685 633.73 305.565C635.519 302.153 637.437 298.838 639.518 295.588C640.461 294.093 641.469 292.63 642.445 291.2C644.168 288.698 641.632 292.208 642.965 290.453C643.615 289.608 644.233 288.763 644.883 287.918C650.769 280.41 657.434 273.65 664.653 267.443C664.783 267.313 666.116 266.24 665.01 267.118C663.872 268.028 665.628 266.63 665.823 266.5C666.929 265.623 668.034 264.778 669.172 263.933C671.351 262.308 673.562 260.748 675.806 259.253C680.585 256.068 685.528 253.143 690.568 250.445C696.388 247.358 697.786 238.973 694.47 233.643C690.795 227.728 683.479 226.655 677.659 229.743C645.566 246.903 619.261 273.91 605.897 308.003C596.955 330.818 593.053 355.615 594.679 380.12C595.037 385.58 595.655 391.138 596.728 396.5C597.996 402.773 606.059 406.738 611.88 404.723C618.578 402.383 621.472 396.273 620.106 389.578H620.139Z" fill="white"/>
<path d="M631.064 424.158C632.95 430.495 629.341 437.158 623 439.075C616.66 440.993 609.994 437.353 608.076 431.015C606.19 424.678 609.799 418.015 616.139 416.098C622.48 414.213 629.146 417.82 631.064 424.158Z" fill="white"/>
<path d="M1263.82 115.862C1258.13 170.365 1209.26 209.95 1154.73 204.262C1132.68 201.955 1113.11 192.595 1097.92 178.652L1048.24 185.932L1073.08 143C1067.07 128.342 1064.5 112.027 1066.29 95.2249C1071.98 40.7224 1120.85 1.1374 1175.38 6.8249C1229.9 12.5124 1269.51 61.3599 1263.82 115.862Z" fill="white"/>
<path d="M1263.82 115.862C1261.74 133.965 1255.1 151.742 1243.79 166.172C1241.19 169.942 1237.84 173.095 1234.78 176.54C1231.34 179.53 1228.12 182.845 1224.31 185.412C1217.06 191.002 1208.9 195.39 1200.35 198.737C1191.86 202.312 1182.72 204.002 1173.62 205.107C1169.04 205.367 1164.42 205.757 1159.83 205.367C1155.22 205.27 1150.63 204.782 1146.08 203.937C1127.9 200.655 1110.7 192.14 1096.95 179.692L1098.12 180.05L1048.5 187.655L1044.89 188.207L1046.71 185.022L1071.42 142.025L1071.29 143.715C1059.26 115.375 1061.96 81.6724 1077.41 55.25C1085.11 42.0224 1095.84 30.6475 1108.49 22.165C1121.14 13.65 1135.84 8.31995 1150.86 6.27245C1165.91 4.28995 1181.39 5.65495 1195.76 10.4325C1210.1 15.275 1223.27 23.4 1234.07 33.8975C1255.98 54.7299 1267.01 85.9625 1263.79 115.862H1263.82ZM1263.82 115.862C1266.84 85.9625 1255.59 54.8924 1233.68 34.3524C1222.78 24.0824 1209.61 16.2825 1195.37 11.765C1181.13 7.31245 1165.88 6.23995 1151.22 8.44995C1136.55 10.6925 1122.34 16.1525 1110.21 24.635C1098.12 33.15 1087.88 44.2649 1080.5 57.0374C1072.98 69.7775 1069.08 84.3699 1067.88 99.0275C1066.94 113.717 1069.34 128.602 1074.87 142.252L1075.23 143.13L1074.74 143.942L1049.74 186.777L1047.95 184.145L1097.66 177.19L1098.35 177.092L1098.83 177.547C1111.97 189.865 1128.62 198.477 1146.37 202.02C1150.83 202.93 1155.31 203.482 1159.83 203.645C1164.35 204.132 1168.87 203.775 1173.42 203.645C1182.43 202.735 1191.47 201.207 1199.96 197.795C1208.44 194.61 1216.67 190.45 1223.92 184.892C1227.73 182.357 1230.95 179.107 1234.39 176.15C1237.45 172.77 1240.8 169.65 1243.43 165.912C1254.81 151.612 1261.57 133.932 1263.75 115.83L1263.82 115.862Z" fill="#263238"/>
<path d="M1116.52 151.807C1116.52 145.892 1120.65 141.602 1126.24 141.602C1132.16 141.602 1135.97 145.892 1135.97 151.807C1135.97 157.722 1132.19 162.012 1126.24 162.012C1120.29 162.012 1116.52 157.56 1116.52 151.807ZM1120.62 128.277L1118.31 49.2699H1134.11L1131.8 128.277H1120.62Z" fill="#205678"/>
<path d="M1154.4 151.807C1154.4 145.892 1158.53 141.602 1164.13 141.602C1170.04 141.602 1173.85 145.892 1173.85 151.807C1173.85 157.722 1170.08 162.012 1164.13 162.012C1158.18 162.012 1154.4 157.56 1154.4 151.807ZM1158.5 128.277L1156.19 49.2699H1171.99L1169.69 128.277H1158.5Z" fill="#205678"/>
<path d="M1192.25 151.807C1192.25 145.892 1196.38 141.602 1201.97 141.602C1207.89 141.602 1211.7 145.892 1211.7 151.807C1211.7 157.722 1207.92 162.012 1201.97 162.012C1196.02 162.012 1192.25 157.56 1192.25 151.807ZM1196.38 128.277L1194.07 49.2699H1209.87L1207.57 128.277H1196.38Z" fill="#205678"/>
</g>
<defs>
<clipPath id="clip0_1307_5">
<rect width="1470" height="1040" fill="white"/>
</clipPath>
</defs>
</svg>
