<svg width="780" height="500" viewBox="0 0 780 500" fill="none" xmlns="http://www.w3.org/2000/svg">
<path d="M129.726 350.505C106.202 373.519 102.247 409.131 107.217 440.327C107.337 441.031 108.438 440.842 108.438 440.172C108.438 433.074 108.231 426.027 108.249 419.014C108.369 418.688 108.489 418.395 108.61 418.069C114.749 413.6 120.389 408.564 123.897 401.655C127.817 393.938 129.365 385.224 132.374 377.145C132.649 376.372 131.824 376.595 131.291 376.991C116.984 387.544 112.427 398.888 108.317 414.064C108.506 406.192 109.108 398.32 110.811 390.449C113.906 376.045 120.028 361.78 130.362 351.106C130.741 350.694 130.156 350.075 129.743 350.488L129.726 350.505Z" fill="#A6A6A6"/>
<path d="M134.163 353.204C138.204 353.341 140.749 359.804 143.896 361.694C145.564 362.691 147.197 362.64 148.366 360.99C151.496 356.624 147.197 351.244 143.173 348.236C146.062 349.422 148.452 351.502 151.565 352.086C153.456 352.43 154.918 351.743 155.348 349.818C156.724 343.871 149.261 341.224 144.136 341.104C146.612 339.385 153.732 334.693 149.948 332.39C146.114 330.069 137.774 336.772 135.057 338.99C131.05 342.238 126.287 347.085 126.098 352.155C125.857 358.085 131.05 354.441 134.163 353.186V353.204Z" fill="#DBDBDB"/>
<path d="M132.976 354.201C138.152 351.846 148.091 355.232 148.933 353.273C150.653 349.285 142.709 346.552 138.41 346.019C142.365 344.954 149.931 343.252 149.69 339.437C149.398 334.796 138.083 338.784 132.357 343.184C125.135 348.718 125.186 354.046 126.373 355.129C128.006 356.59 132.099 354.579 132.959 354.201H132.976Z" fill="#EBEBEB"/>
<path d="M76.1603 348.237C100.544 370.34 105.84 405.781 102.074 437.148C101.971 437.852 100.871 437.715 100.853 437.045C100.578 429.946 100.527 422.917 100.234 415.904C100.097 415.595 99.9765 415.285 99.8389 414.976C93.5281 410.748 87.6987 405.918 83.95 399.163C79.7371 391.601 77.8627 382.956 74.5439 374.998C74.2344 374.241 75.0598 374.431 75.6273 374.809C90.3297 384.812 95.3164 395.984 99.9937 410.971C99.495 403.117 98.6008 395.262 96.6061 387.459C92.9778 373.193 86.3059 359.168 75.5757 348.89C75.1802 348.495 75.7476 347.859 76.1775 348.237H76.1603Z" fill="#A6A6A6"/>
<path d="M71.8442 351.09C67.8032 351.382 65.5162 357.931 62.4381 359.942C60.8045 361.007 59.1881 361.007 57.95 359.409C54.6656 355.164 58.741 349.629 62.6617 346.467C59.8244 347.756 57.5201 349.939 54.4249 350.643C52.5505 351.056 51.0717 350.42 50.5558 348.529C48.9566 342.634 56.3164 339.712 61.4236 339.403C58.8786 337.77 51.5876 333.353 55.2847 330.912C59.0162 328.454 67.614 334.831 70.417 336.945C74.5439 340.039 79.4963 344.696 79.8574 349.767C80.3217 355.679 75.0082 352.224 71.8442 351.107V351.09Z" fill="#DBDBDB"/>
<path d="M73.0476 352.035C67.7857 349.887 57.9841 353.634 57.0555 351.726C55.1984 347.807 63.0225 344.782 67.287 344.077C63.2976 343.167 55.6799 341.74 55.7659 337.924C55.869 333.267 67.3386 336.824 73.2368 341.001C80.6653 346.26 80.8201 351.588 79.668 352.706C78.086 354.235 73.9246 352.379 73.0476 352.018V352.035Z" fill="#EBEBEB"/>
<path d="M101.094 406.622C102.9 418.276 105.118 430.324 108.66 441.582C109.004 442.613 110.517 442.338 110.363 441.238C108.763 430.462 105.84 419.891 104.241 409.115C102.607 398.218 101.748 387.166 102.367 376.132C103.398 357.982 108.334 338.663 120.181 324.466C120.439 324.122 119.889 323.658 119.614 323.968C95.8838 351.622 99.6669 385.533 99.6841 388.558C96.3309 377.112 92.8574 363.98 80.1497 352.327C79.5994 351.829 79.1695 352.069 79.2727 352.912C81.5425 374.138 87.4579 385.224 99.7701 396.585C100.114 399.954 100.561 403.305 101.094 406.605V406.622Z" fill="#A6A6A6"/>
<path d="M120.388 327.663C124.652 325.772 130.55 331.204 134.763 331.565C136.999 331.771 138.649 330.877 139.045 328.591C140.094 322.49 132.94 319.069 127.231 317.969C130.825 317.746 134.351 318.708 137.876 317.746C140.008 317.161 141.177 315.7 140.661 313.483C139.097 306.625 130.017 307.64 124.652 310.08C126.354 307.038 131.376 298.599 126.303 298.118C121.161 297.636 115.882 308.791 114.163 312.452C111.652 317.832 109.141 325.257 111.515 330.619C114.249 336.875 117.791 330.499 120.405 327.646L120.388 327.663Z" fill="#DBDBDB"/>
<path d="M119.682 329.278C123.861 324.243 135.881 322.747 135.778 320.289C135.554 315.288 125.925 316.457 121.213 318.055C124.772 314.961 131.771 309.375 129.604 305.56C126.973 300.885 117.241 310.716 113.509 318.158C108.798 327.525 111.549 333.043 113.32 333.558C115.762 334.263 118.995 330.103 119.682 329.278Z" fill="#EBEBEB"/>
<path d="M85.4805 413.016L75.0083 492.938H138.684C137.377 485.857 125.512 412.93 125.512 412.93L85.4633 413.016H85.4805Z" fill="#DBDBDB"/>
<path d="M706.471 179.369H752.006V160.136H706.471V179.369Z" fill="#EBEBEB"/>
<path d="M731.87 155.118H777.404V135.885H731.87V155.118Z" fill="#EBEBEB"/>
<path d="M681.056 155.118H726.59V135.885H681.056V155.118Z" fill="#EBEBEB"/>
<path d="M25.3987 427.436H70.9331V408.203H25.3987V427.436Z" fill="#EBEBEB"/>
<path d="M0.00025177 403.184H45.5347V383.951H0.00025177V403.184Z" fill="#EBEBEB"/>
<path d="M731.87 427.402H777.404V408.17H731.87V427.402Z" fill="#EBEBEB"/>
<path d="M197.666 0H152.131V19.2328H197.666V0Z" fill="#EBEBEB"/>
<path d="M172.268 24.2515H126.733V43.4843H172.268V24.2515Z" fill="#EBEBEB"/>
<path d="M58.4487 492.869C270.026 491.821 507.362 491.803 718.939 492.869C507.362 493.935 270.026 493.917 58.4487 492.869Z" fill="#263238"/>
<path d="M256.992 248.566C256.992 248.566 256.992 248.548 256.975 248.548C256.528 248.05 256.064 247.569 255.565 247.139C255.565 247.139 255.559 247.133 255.548 247.122C255.101 246.623 254.636 246.142 254.138 245.712C254.138 245.712 254.132 245.707 254.121 245.695C253.673 245.197 253.209 244.716 252.711 244.286C252.711 244.286 252.705 244.28 252.693 244.269C252.246 243.77 251.782 243.289 251.283 242.859C251.283 242.859 251.278 242.854 251.266 242.842C250.819 242.344 250.355 241.862 249.856 241.433C249.856 241.433 249.85 241.427 249.839 241.416C249.392 240.917 248.927 240.436 248.429 240.006C248.429 240.006 248.423 240 248.412 239.989C247.964 239.491 247.5 239.009 247.002 238.58C247.002 238.58 246.996 238.574 246.984 238.562C246.537 238.064 246.073 237.583 245.574 237.153C245.574 237.153 245.569 237.147 245.557 237.136C245.11 236.637 244.646 236.156 244.147 235.726C244.147 235.726 244.141 235.721 244.13 235.709C242.668 234.128 240.983 232.753 239.091 231.67V89.7187C239.091 88.9796 238.73 88.5843 238.73 87.8452C238.73 86.7108 238.73 86.3327 238.352 85.5937C238.352 85.2155 237.991 84.4593 237.991 84.0812C237.613 82.9468 237.613 82.5687 237.217 81.8296C236.839 81.4515 236.478 80.6952 236.478 80.3171C235.704 79.1827 235.343 78.8046 234.964 78.4437C234.586 78.0655 234.225 77.3093 233.83 76.9312L232.316 75.4187C232.316 75.1952 232.024 74.9546 231.697 74.7999C231.508 74.6108 231.25 74.353 230.958 74.0608L230.889 73.9921C230.889 73.7687 230.597 73.528 230.27 73.3733C230.081 73.1843 229.823 72.9265 229.531 72.6343L229.462 72.5655C229.462 72.3421 229.17 72.1015 228.843 71.9468C228.654 71.7577 228.396 71.4999 228.103 71.2077L228.035 71.139C228.035 70.9155 227.742 70.6749 227.416 70.5202L226.676 69.7812L226.607 69.7124C226.607 69.489 226.315 69.2483 225.988 69.0937C225.799 68.9046 225.541 68.6468 225.249 68.3546L225.18 68.2858C225.18 68.0624 224.888 67.8218 224.561 67.6671C224.372 67.478 224.114 67.2202 223.822 66.928L223.753 66.8593C223.753 66.6358 223.46 66.3952 223.134 66.2405L222.394 65.5015L222.326 65.4327C222.326 65.2093 222.033 64.9687 221.707 64.814C221.517 64.6249 221.259 64.3671 220.967 64.0749L220.898 64.0062C220.898 63.7827 220.606 63.5421 220.279 63.3874C220.09 63.1983 219.832 62.9405 219.54 62.6483L219.471 62.5796C219.471 62.3562 219.179 62.1155 218.852 61.9608L218.027 61.1358C218.027 60.7749 217.287 60.3968 216.892 60.3968C216.892 60.0187 216.531 60.0187 216.531 60.0187C215.757 59.6577 215.378 59.2796 214.639 58.8843C214.261 58.5062 213.504 58.1452 212.765 57.3718C212.386 57.3718 211.63 57.0108 211.251 57.0108C210.512 56.6327 209.36 56.6327 208.999 56.2374C208.259 56.2374 207.864 56.2374 207.107 55.8765H200.71C200.332 56.2374 199.576 56.2374 199.197 56.2374C198.062 56.6155 197.323 56.6155 196.945 57.0108C196.205 57.0108 195.81 57.3718 195.431 58.1452C194.296 58.1452 193.935 58.5062 193.179 58.8843C192.818 59.2624 192.044 59.6577 191.666 60.0187C191.304 60.3968 190.926 60.7921 189.791 61.153C189.43 61.9265 189.052 62.2874 188.656 62.6655C188.278 63.0437 188.278 63.4046 187.917 63.4046L48.184 236.672C41.426 245.197 42.0451 257.091 50.0583 264.395C50.5054 264.911 50.9697 265.392 51.5027 265.839C51.9498 266.355 52.4141 266.836 52.9472 267.283C53.3943 267.798 53.8586 268.28 54.3916 268.726C54.8387 269.242 55.303 269.723 55.8361 270.17C56.2832 270.686 56.7475 271.167 57.2805 271.614C57.7276 272.13 58.1919 272.611 58.725 273.058C59.1721 273.573 59.6363 274.055 60.1694 274.501C60.6165 275.017 61.0808 275.498 61.6139 275.945C62.061 276.461 62.5252 276.942 63.0583 277.389C63.9181 278.369 64.9154 279.28 66.016 280.105C69.7819 283.491 74.3043 284.625 78.8268 284.625H183.24V298.908C183.24 305.147 185.802 310.63 189.98 314.376L190.032 314.428C190.479 314.909 190.926 315.373 191.408 315.803C191.425 315.82 191.442 315.82 191.442 315.837C191.889 316.336 192.353 316.8 192.835 317.23L192.886 317.281C193.334 317.762 193.781 318.226 194.262 318.656C194.279 318.673 194.296 318.673 194.296 318.691C194.744 319.189 195.208 319.653 195.689 320.083L195.741 320.134C196.188 320.616 196.635 321.08 197.117 321.509C197.134 321.526 197.151 321.526 197.151 321.544C197.598 322.042 198.062 322.506 198.544 322.936L198.595 322.987C199.042 323.469 199.49 323.933 199.971 324.362C199.988 324.38 200.005 324.38 200.005 324.397C200.453 324.895 200.917 325.359 201.398 325.789L201.45 325.841C201.897 326.322 202.344 326.786 202.826 327.216C202.843 327.233 202.86 327.233 202.86 327.25C206.609 331.375 212.06 333.919 218.25 333.919C229.943 333.919 238.971 324.861 238.971 313.173V284.522H242.737C254.43 284.522 263.853 275.481 263.853 263.811C263.853 257.812 261.188 252.347 256.958 248.531L256.992 248.566ZM183.171 167.853V228.766H134.077L183.171 167.853Z" fill="#205678"/>
<path opacity="0.1" d="M256.992 248.566C256.992 248.566 256.992 248.548 256.975 248.548C256.528 248.05 256.064 247.569 255.565 247.139C255.565 247.139 255.559 247.133 255.548 247.122C255.101 246.623 254.636 246.142 254.138 245.712C254.138 245.712 254.132 245.707 254.121 245.695C253.673 245.197 253.209 244.716 252.711 244.286C252.711 244.286 252.705 244.28 252.693 244.269C252.246 243.77 251.782 243.289 251.283 242.859C251.283 242.859 251.278 242.854 251.266 242.842C250.819 242.344 250.355 241.862 249.856 241.433C249.856 241.433 249.85 241.427 249.839 241.416C249.392 240.917 248.927 240.436 248.429 240.006C248.429 240.006 248.423 240 248.412 239.989C247.964 239.491 247.5 239.009 247.002 238.58C247.002 238.58 246.996 238.574 246.984 238.562C246.537 238.064 246.073 237.583 245.574 237.153C245.574 237.153 245.569 237.147 245.557 237.136C245.11 236.637 244.646 236.156 244.147 235.726C244.147 235.726 244.141 235.721 244.13 235.709C242.668 234.128 240.983 232.753 239.091 231.67V89.7187C239.091 88.9796 238.73 88.5843 238.73 87.8452C238.73 86.7108 238.73 86.3327 238.352 85.5937C238.352 85.2155 237.991 84.4593 237.991 84.0812C237.613 82.9468 237.613 82.5687 237.217 81.8296C236.839 81.4515 236.478 80.6952 236.478 80.3171C235.704 79.1827 235.343 78.8046 234.964 78.4437C234.586 78.0655 234.225 77.3093 233.83 76.9312L232.316 75.4187C232.316 75.1952 232.024 74.9546 231.697 74.7999C231.508 74.6108 231.25 74.353 230.958 74.0608L230.889 73.9921C230.889 73.7687 230.597 73.528 230.27 73.3733C230.081 73.1843 229.823 72.9265 229.531 72.6343L229.462 72.5655C229.462 72.3421 229.17 72.1015 228.843 71.9468C228.654 71.7577 228.396 71.4999 228.103 71.2077L228.035 71.139C228.035 70.9155 227.742 70.6749 227.416 70.5202L226.676 69.7812L226.607 69.7124C226.607 69.489 226.315 69.2483 225.988 69.0937C225.799 68.9046 225.541 68.6468 225.249 68.3546L225.18 68.2858C225.18 68.0624 224.888 67.8218 224.561 67.6671C224.372 67.478 224.114 67.2202 223.822 66.928L223.753 66.8593C223.753 66.6358 223.46 66.3952 223.134 66.2405L222.394 65.5015L222.326 65.4327C222.326 65.2093 222.033 64.9687 221.707 64.814C221.517 64.6249 221.259 64.3671 220.967 64.0749L220.898 64.0062C220.898 63.7827 220.606 63.5421 220.279 63.3874C220.09 63.1983 219.832 62.9405 219.54 62.6483L219.471 62.5796C219.471 62.3562 219.179 62.1155 218.852 61.9608L218.027 61.1358C218.027 60.7749 217.287 60.3968 216.892 60.3968C216.892 60.0187 216.531 60.0187 216.531 60.0187C215.757 59.6577 215.378 59.2796 214.639 58.8843C214.261 58.5062 213.504 58.1452 212.765 57.3718C212.386 57.3718 211.63 57.0108 211.251 57.0108C210.512 56.6327 209.36 56.6327 208.999 56.2374C208.259 56.2374 207.864 56.2374 207.107 55.8765H200.71C200.332 56.2374 199.576 56.2374 199.197 56.2374C198.062 56.6155 197.323 56.6155 196.945 57.0108C196.205 57.0108 195.81 57.3718 195.431 58.1452C194.296 58.1452 193.935 58.5062 193.179 58.8843C192.818 59.2624 192.044 59.6577 191.666 60.0187C191.304 60.3968 190.926 60.7921 189.791 61.153C189.43 61.9265 189.052 62.2874 188.656 62.6655C188.278 63.0437 188.278 63.4046 187.917 63.4046L48.184 236.672C41.426 245.197 42.0451 257.091 50.0583 264.395C50.5054 264.911 50.9697 265.392 51.5027 265.839C51.9498 266.355 52.4141 266.836 52.9472 267.283C53.3943 267.798 53.8586 268.28 54.3916 268.726C54.8387 269.242 55.303 269.723 55.8361 270.17C56.2832 270.686 56.7475 271.167 57.2805 271.614C57.7276 272.13 58.1919 272.611 58.725 273.058C59.1721 273.573 59.6363 274.055 60.1694 274.501C60.6165 275.017 61.0808 275.498 61.6139 275.945C62.061 276.461 62.5252 276.942 63.0583 277.389C63.9181 278.369 64.9154 279.28 66.016 280.105C69.7819 283.491 74.3043 284.625 78.8268 284.625H183.24V298.908C183.24 305.147 185.802 310.63 189.98 314.376L190.032 314.428C190.479 314.909 190.926 315.373 191.408 315.803C191.425 315.82 191.442 315.82 191.442 315.837C191.889 316.336 192.353 316.8 192.835 317.23L192.886 317.281C193.334 317.762 193.781 318.226 194.262 318.656C194.279 318.673 194.296 318.673 194.296 318.691C194.744 319.189 195.208 319.653 195.689 320.083L195.741 320.134C196.188 320.616 196.635 321.08 197.117 321.509C197.134 321.526 197.151 321.526 197.151 321.544C197.598 322.042 198.062 322.506 198.544 322.936L198.595 322.987C199.042 323.469 199.49 323.933 199.971 324.362C199.988 324.38 200.005 324.38 200.005 324.397C200.453 324.895 200.917 325.359 201.398 325.789L201.45 325.841C201.897 326.322 202.344 326.786 202.826 327.216C202.843 327.233 202.86 327.233 202.86 327.25C206.609 331.375 212.06 333.919 218.25 333.919C229.943 333.919 238.971 324.861 238.971 313.173V284.522H242.737C254.43 284.522 263.853 275.481 263.853 263.811C263.853 257.812 261.188 252.347 256.958 248.531L256.992 248.566ZM183.171 167.853V228.766H134.077L183.171 167.853Z" fill="black"/>
<path d="M249.528 249.476C249.528 261.164 240.105 270.204 228.412 270.204H224.646V298.856C224.646 310.543 215.601 319.584 203.908 319.584C192.215 319.584 183.17 310.543 183.17 298.856V270.204H64.3987C59.8762 270.204 55.3537 269.07 51.5706 265.684C42.1473 258.517 41.0124 245.712 48.1831 236.672L187.692 63.3013C188.071 63.3013 188.071 62.9231 188.449 62.545C188.827 62.1669 189.206 61.7888 189.584 61.0325C190.719 60.6544 191.097 60.2763 191.458 59.8981C191.837 59.52 192.593 59.1419 192.971 58.7638C193.728 58.3856 194.106 58.0075 195.224 58.0075C195.602 57.2513 195.981 56.8731 196.737 56.8731C197.116 56.495 197.872 56.495 199.007 56.1169C199.386 56.1169 200.142 56.1169 200.52 55.7388H206.934C207.691 56.1169 208.069 56.1169 208.826 56.1169C209.204 56.495 210.339 56.495 211.079 56.8731C211.457 56.8731 212.214 57.2513 212.592 57.2513C213.348 58.0075 214.105 58.3856 214.466 58.7638C215.223 59.1419 215.601 59.52 216.358 59.8981C216.358 59.8981 216.736 59.8981 216.736 60.2763C217.114 60.2763 217.871 60.6544 217.871 61.0325C218.628 61.7888 219.006 62.1669 219.384 62.545C219.763 62.9231 220.141 63.6794 220.519 64.0575C220.897 64.4356 221.276 64.8138 222.032 65.9481C222.032 66.3263 222.411 67.0825 222.789 67.4606C223.167 68.2169 223.167 68.595 223.546 69.7294C223.546 70.1075 223.924 70.8638 223.924 71.2419C224.302 71.9981 224.302 72.3763 224.302 73.5106C224.302 74.2669 224.681 74.645 224.681 75.4013V228.783H228.446C240.14 228.783 249.563 238.201 249.563 249.511L249.528 249.476ZM183.17 135.661L108.145 228.748H183.17V135.661Z" fill="#205678"/>
<path d="M470.081 111.96C465.782 105.429 460.847 99.3785 455.327 94.016C455.121 93.7926 454.898 93.5691 454.674 93.3801C454.622 93.3285 454.554 93.2426 454.485 93.191C454.313 93.002 454.141 92.8129 453.952 92.641C453.47 92.1254 452.954 91.6441 452.456 91.1457C452.421 91.1113 452.353 91.0426 452.318 91.0254C452.146 90.8535 451.974 90.6816 451.802 90.5098C451.751 90.4582 451.682 90.3723 451.613 90.3207C451.441 90.1316 451.269 89.9426 451.08 89.7707C450.599 89.2551 450.083 88.7738 449.584 88.2754C449.55 88.241 449.481 88.1723 449.446 88.1551C449.275 87.9832 449.103 87.8113 448.931 87.6395C448.879 87.5879 448.81 87.502 448.741 87.4504C448.569 87.2613 448.398 87.0723 448.208 86.9004C447.727 86.3848 447.211 85.9035 446.712 85.4051C446.678 85.3707 446.609 85.302 446.575 85.2848C446.403 85.1129 446.231 84.941 446.059 84.7691C446.007 84.7176 445.939 84.6316 445.87 84.5801C445.698 84.391 445.526 84.202 445.337 84.0301C444.855 83.5145 444.339 83.0332 443.841 82.5348C443.806 82.5004 443.737 82.4316 443.703 82.4145C443.531 82.2254 443.376 82.0535 443.187 81.8988C443.136 81.8473 443.067 81.7613 442.998 81.7098C427.866 66.1035 408.108 55.791 385.96 55.791C356.177 55.791 331.673 73.5113 315.818 97.6082C299.224 121.739 290.575 153.021 290.179 187.688C290.558 221.977 299.224 253.636 315.818 277.768C320.083 284.144 324.983 290.143 330.417 295.454C330.658 295.694 330.916 295.935 331.157 296.175C331.191 296.193 331.226 296.227 331.26 296.279C331.707 296.743 332.154 297.172 332.601 297.619C332.825 297.86 333.065 298.1 333.289 298.324C333.53 298.564 333.788 298.805 334.028 299.046C334.063 299.063 334.097 299.097 334.132 299.149C334.579 299.613 335.026 300.043 335.473 300.489C335.696 300.73 335.937 300.971 336.161 301.194C336.401 301.435 336.659 301.675 336.9 301.916C336.935 301.933 336.969 301.968 337.003 302.019C337.45 302.483 337.897 302.913 338.345 303.36C338.568 303.6 338.809 303.841 339.032 304.064C339.273 304.305 339.531 304.546 339.772 304.786C339.806 304.803 339.841 304.838 339.875 304.889C340.322 305.353 340.769 305.783 341.216 306.23C341.44 306.471 341.681 306.711 341.904 306.935C342.145 307.175 342.403 307.416 342.644 307.657C342.678 307.674 342.712 307.708 342.747 307.76C343.194 308.224 343.641 308.654 344.088 309.1C358.997 323.985 378.204 333.953 400.318 333.953C429.345 333.953 454.227 315.855 470.064 292.119C486.28 267.988 495.325 236.346 495.325 202.039C495.325 167.733 486.263 136.091 470.064 111.96H470.081ZM421.022 254.375C410.085 270.583 397.653 277.733 385.96 277.733C379.528 277.733 372.736 275.568 366.081 270.893C365.548 270.205 365.032 269.483 364.517 268.727C353.958 252.897 346.409 228.783 346.409 202.005C346.409 175.227 353.958 151.13 364.517 134.922C375.831 119.093 388.659 111.564 400.335 111.925C406.543 111.736 412.957 113.764 419.268 118.113C419.87 118.921 420.454 119.729 421.022 120.571C431.58 136.779 439.129 160.514 439.129 187.654C439.129 214.793 431.58 238.529 421.022 254.375Z" fill="#205678"/>
<path opacity="0.1" d="M470.081 111.96C465.782 105.429 460.847 99.3785 455.327 94.016C455.121 93.7926 454.898 93.5691 454.674 93.3801C454.622 93.3285 454.554 93.2426 454.485 93.191C454.313 93.002 454.141 92.8129 453.952 92.641C453.47 92.1254 452.954 91.6441 452.456 91.1457C452.421 91.1113 452.353 91.0426 452.318 91.0254C452.146 90.8535 451.974 90.6816 451.802 90.5098C451.751 90.4582 451.682 90.3723 451.613 90.3207C451.441 90.1316 451.269 89.9426 451.08 89.7707C450.599 89.2551 450.083 88.7738 449.584 88.2754C449.55 88.241 449.481 88.1723 449.446 88.1551C449.275 87.9832 449.103 87.8113 448.931 87.6395C448.879 87.5879 448.81 87.502 448.741 87.4504C448.569 87.2613 448.398 87.0723 448.208 86.9004C447.727 86.3848 447.211 85.9035 446.712 85.4051C446.678 85.3707 446.609 85.302 446.575 85.2848C446.403 85.1129 446.231 84.941 446.059 84.7691C446.007 84.7176 445.939 84.6316 445.87 84.5801C445.698 84.391 445.526 84.202 445.337 84.0301C444.855 83.5145 444.339 83.0332 443.841 82.5348C443.806 82.5004 443.737 82.4316 443.703 82.4145C443.531 82.2254 443.376 82.0535 443.187 81.8988C443.136 81.8473 443.067 81.7613 442.998 81.7098C427.866 66.1035 408.108 55.791 385.96 55.791C356.177 55.791 331.673 73.5113 315.818 97.6082C299.224 121.739 290.575 153.021 290.179 187.688C290.558 221.977 299.224 253.636 315.818 277.768C320.083 284.144 324.983 290.143 330.417 295.454C330.658 295.694 330.916 295.935 331.157 296.175C331.191 296.193 331.226 296.227 331.26 296.279C331.707 296.743 332.154 297.172 332.601 297.619C332.825 297.86 333.065 298.1 333.289 298.324C333.53 298.564 333.788 298.805 334.028 299.046C334.063 299.063 334.097 299.097 334.132 299.149C334.579 299.613 335.026 300.043 335.473 300.489C335.696 300.73 335.937 300.971 336.161 301.194C336.401 301.435 336.659 301.675 336.9 301.916C336.935 301.933 336.969 301.968 337.003 302.019C337.45 302.483 337.897 302.913 338.345 303.36C338.568 303.6 338.809 303.841 339.032 304.064C339.273 304.305 339.531 304.546 339.772 304.786C339.806 304.803 339.841 304.838 339.875 304.889C340.322 305.353 340.769 305.783 341.216 306.23C341.44 306.471 341.681 306.711 341.904 306.935C342.145 307.175 342.403 307.416 342.644 307.657C342.678 307.674 342.712 307.708 342.747 307.76C343.194 308.224 343.641 308.654 344.088 309.1C358.997 323.985 378.204 333.953 400.318 333.953C429.345 333.953 454.227 315.855 470.064 292.119C486.28 267.988 495.325 236.346 495.325 202.039C495.325 167.733 486.263 136.091 470.064 111.96H470.081ZM421.022 254.375C410.085 270.583 397.653 277.733 385.96 277.733C379.528 277.733 372.736 275.568 366.081 270.893C365.548 270.205 365.032 269.483 364.517 268.727C353.958 252.897 346.409 228.783 346.409 202.005C346.409 175.227 353.958 151.13 364.517 134.922C375.831 119.093 388.659 111.564 400.335 111.925C406.543 111.736 412.957 113.764 419.268 118.113C419.87 118.921 420.454 119.729 421.022 120.571C431.58 136.779 439.129 160.514 439.129 187.654C439.129 214.793 431.58 238.529 421.022 254.375Z" fill="black"/>
<path d="M290.197 187.67C290.575 153.003 299.242 121.722 315.836 97.5907C331.673 73.4767 356.177 55.7563 385.96 55.7563C415.743 55.7563 439.869 73.4767 455.723 97.5907C471.939 121.705 480.984 152.986 480.984 187.67C480.984 222.355 471.939 253.619 455.723 277.733C439.886 301.486 415.004 319.567 385.96 319.567C356.916 319.567 331.656 301.486 315.836 277.733C299.242 253.619 290.575 221.959 290.197 187.67ZM439.129 187.67C439.129 160.531 431.598 136.795 421.039 120.588C410.103 104.758 397.67 97.2298 385.977 97.6079C374.284 97.2298 361.473 104.775 350.158 120.588C339.6 136.795 332.051 160.531 332.051 187.67C332.051 214.809 339.6 238.545 350.158 254.375C361.473 270.583 374.284 277.733 385.977 277.733C397.67 277.733 410.103 270.566 421.039 254.375C431.598 238.545 439.129 214.431 439.129 187.67Z" fill="#205678"/>
<path d="M726.969 248.566C726.969 248.566 726.969 248.549 726.952 248.549C726.488 248.05 726.007 247.569 725.542 247.139C725.542 247.139 725.537 247.134 725.525 247.122C725.061 246.624 724.579 246.143 724.115 245.713C724.115 245.713 724.109 245.707 724.098 245.696C723.633 245.197 723.152 244.716 722.688 244.286C722.688 244.286 722.682 244.281 722.671 244.269C722.206 243.771 721.725 243.289 721.26 242.86C721.26 242.86 721.255 242.854 721.243 242.843C720.779 242.344 720.297 241.863 719.833 241.433C719.833 241.433 719.828 241.427 719.816 241.416C719.352 240.918 718.87 240.436 718.406 240.007C718.406 240.007 718.4 240.001 718.389 239.989C717.924 239.491 717.443 239.01 716.979 238.58C716.979 238.58 716.973 238.574 716.962 238.563C716.497 238.064 716.016 237.583 715.551 237.154C715.551 237.154 715.546 237.148 715.534 237.136C715.07 236.638 714.589 236.157 714.124 235.727C714.124 235.727 714.119 235.721 714.107 235.71C712.645 234.129 710.943 232.736 709.051 231.671V89.7191C709.051 88.9801 708.69 88.5848 708.69 87.8457C708.69 86.7113 708.69 86.3332 708.312 85.5941C708.312 85.216 707.951 84.4598 707.951 84.0816C707.573 82.9473 707.573 82.5691 707.177 81.8301C706.816 81.452 706.438 80.6957 706.438 80.3176C705.698 79.1832 705.303 78.8051 704.925 78.4441C704.546 78.066 704.185 77.3098 703.79 76.9316L702.276 75.4191C702.276 75.1957 701.984 74.9551 701.657 74.8004C701.468 74.6113 701.21 74.3535 700.918 74.0613L700.849 73.9926C700.849 73.7691 700.557 73.5285 700.23 73.3738C700.041 73.1848 699.783 72.927 699.491 72.6348L699.422 72.566C699.422 72.3426 699.13 72.102 698.803 71.9473L698.063 71.2082L697.995 71.1395C697.995 70.916 697.702 70.6754 697.376 70.5207L696.636 69.7816L696.567 69.7129C696.567 69.4895 696.275 69.2488 695.948 69.0941C695.759 68.9051 695.501 68.6473 695.209 68.3551L695.14 68.2863C695.14 68.0629 694.848 67.8223 694.521 67.6676C694.332 67.4785 694.074 67.2207 693.782 66.9285L693.713 66.8598C693.713 66.6363 693.421 66.3957 693.094 66.241C692.905 66.052 692.647 65.7941 692.354 65.502L692.286 65.4332C692.286 65.2098 691.993 64.9691 691.667 64.8145C691.477 64.6254 691.219 64.3676 690.927 64.0754L690.858 64.0066C690.858 63.7832 690.566 63.5426 690.239 63.3879C690.05 63.1988 689.792 62.941 689.5 62.6488L689.431 62.5801C689.431 62.3566 689.139 62.116 688.812 61.9613L687.987 61.1363C687.987 60.7754 687.247 60.3973 686.852 60.3973C686.852 60.0191 686.473 60.0191 686.473 60.0191C685.734 59.6582 685.339 59.2801 684.599 58.8848C684.221 58.5066 683.464 58.1457 682.725 57.3723C682.346 57.3723 681.59 57.0113 681.212 57.0113C680.472 56.6332 679.337 56.6332 678.959 56.2379C678.185 56.2379 677.824 56.2379 677.067 55.877H670.67C670.292 56.2379 669.536 56.2379 669.157 56.2379C668.022 56.616 667.283 56.616 666.905 57.0113C666.165 57.0113 665.77 57.3723 665.391 58.1457C664.274 58.1457 663.895 58.5066 663.139 58.8848C662.778 59.2629 662.004 59.6582 661.643 60.0191C661.264 60.3973 660.869 60.7926 659.751 61.1535C659.373 61.927 659.012 62.2879 658.616 62.666C658.238 63.0441 658.238 63.4051 657.877 63.4051L518.368 236.775C511.61 245.3 512.229 257.194 520.242 264.499C520.689 265.014 521.153 265.496 521.686 265.943C522.133 266.458 522.598 266.939 523.131 267.386C523.578 267.902 524.042 268.383 524.575 268.83C525.022 269.346 525.487 269.827 526.02 270.274C526.467 270.789 526.931 271.271 527.464 271.718C527.911 272.233 528.375 272.714 528.909 273.161C529.356 273.677 529.82 274.158 530.353 274.605C530.8 275.121 531.264 275.602 531.797 276.049C532.245 276.564 532.709 277.046 533.242 277.493C534.102 278.472 535.099 279.383 536.2 280.208C539.965 283.594 544.488 284.729 549.01 284.729H653.423V299.011C653.423 305.233 655.985 310.733 660.164 314.48C660.181 314.497 660.198 314.497 660.198 314.514C660.645 315.013 661.11 315.477 661.591 315.907L661.643 315.958C662.09 316.439 662.537 316.904 663.018 317.333C663.036 317.35 663.053 317.35 663.053 317.368C663.5 317.866 663.964 318.33 664.446 318.76L664.497 318.811C664.944 319.293 665.391 319.757 665.873 320.186C665.89 320.204 665.907 320.204 665.907 320.221C666.354 320.719 666.819 321.183 667.3 321.613L667.352 321.664C667.799 322.146 668.246 322.61 668.727 323.039C668.745 323.057 668.762 323.057 668.762 323.074C669.209 323.572 669.673 324.036 670.155 324.466L670.206 324.518C670.653 324.999 671.1 325.463 671.582 325.893C671.599 325.91 671.616 325.91 671.616 325.927C672.063 326.425 672.528 326.889 673.009 327.319L673.061 327.371C676.809 331.496 682.243 334.022 688.417 334.022C700.11 334.022 709.137 324.964 709.137 313.277V284.625H712.903C724.614 284.625 734.037 275.585 734.037 263.914C734.037 257.916 731.372 252.45 727.141 248.635L726.969 248.566ZM653.131 167.854V228.766H604.037L653.131 167.854Z" fill="#205678"/>
<path opacity="0.1" d="M726.969 248.566C726.969 248.566 726.969 248.549 726.952 248.549C726.488 248.05 726.007 247.569 725.542 247.139C725.542 247.139 725.537 247.134 725.525 247.122C725.061 246.624 724.579 246.143 724.115 245.713C724.115 245.713 724.109 245.707 724.098 245.696C723.633 245.197 723.152 244.716 722.688 244.286C722.688 244.286 722.682 244.281 722.671 244.269C722.206 243.771 721.725 243.289 721.26 242.86C721.26 242.86 721.255 242.854 721.243 242.843C720.779 242.344 720.297 241.863 719.833 241.433C719.833 241.433 719.828 241.427 719.816 241.416C719.352 240.918 718.87 240.436 718.406 240.007C718.406 240.007 718.4 240.001 718.389 239.989C717.924 239.491 717.443 239.01 716.979 238.58C716.979 238.58 716.973 238.574 716.962 238.563C716.497 238.064 716.016 237.583 715.551 237.154C715.551 237.154 715.546 237.148 715.534 237.136C715.07 236.638 714.589 236.157 714.124 235.727C714.124 235.727 714.119 235.721 714.107 235.71C712.645 234.129 710.943 232.736 709.051 231.671V89.7191C709.051 88.9801 708.69 88.5848 708.69 87.8457C708.69 86.7113 708.69 86.3332 708.312 85.5941C708.312 85.216 707.951 84.4598 707.951 84.0816C707.573 82.9473 707.573 82.5691 707.177 81.8301C706.816 81.452 706.438 80.6957 706.438 80.3176C705.698 79.1832 705.303 78.8051 704.925 78.4441C704.546 78.066 704.185 77.3098 703.79 76.9316L702.276 75.4191C702.276 75.1957 701.984 74.9551 701.657 74.8004C701.468 74.6113 701.21 74.3535 700.918 74.0613L700.849 73.9926C700.849 73.7691 700.557 73.5285 700.23 73.3738C700.041 73.1848 699.783 72.927 699.491 72.6348L699.422 72.566C699.422 72.3426 699.13 72.102 698.803 71.9473L698.063 71.2082L697.995 71.1395C697.995 70.916 697.702 70.6754 697.376 70.5207L696.636 69.7816L696.567 69.7129C696.567 69.4895 696.275 69.2488 695.948 69.0941C695.759 68.9051 695.501 68.6473 695.209 68.3551L695.14 68.2863C695.14 68.0629 694.848 67.8223 694.521 67.6676C694.332 67.4785 694.074 67.2207 693.782 66.9285L693.713 66.8598C693.713 66.6363 693.421 66.3957 693.094 66.241C692.905 66.052 692.647 65.7941 692.354 65.502L692.286 65.4332C692.286 65.2098 691.993 64.9691 691.667 64.8145C691.477 64.6254 691.219 64.3676 690.927 64.0754L690.858 64.0066C690.858 63.7832 690.566 63.5426 690.239 63.3879C690.05 63.1988 689.792 62.941 689.5 62.6488L689.431 62.5801C689.431 62.3566 689.139 62.116 688.812 61.9613L687.987 61.1363C687.987 60.7754 687.247 60.3973 686.852 60.3973C686.852 60.0191 686.473 60.0191 686.473 60.0191C685.734 59.6582 685.339 59.2801 684.599 58.8848C684.221 58.5066 683.464 58.1457 682.725 57.3723C682.346 57.3723 681.59 57.0113 681.212 57.0113C680.472 56.6332 679.337 56.6332 678.959 56.2379C678.185 56.2379 677.824 56.2379 677.067 55.877H670.67C670.292 56.2379 669.536 56.2379 669.157 56.2379C668.022 56.616 667.283 56.616 666.905 57.0113C666.165 57.0113 665.77 57.3723 665.391 58.1457C664.274 58.1457 663.895 58.5066 663.139 58.8848C662.778 59.2629 662.004 59.6582 661.643 60.0191C661.264 60.3973 660.869 60.7926 659.751 61.1535C659.373 61.927 659.012 62.2879 658.616 62.666C658.238 63.0441 658.238 63.4051 657.877 63.4051L518.368 236.775C511.61 245.3 512.229 257.194 520.242 264.499C520.689 265.014 521.153 265.496 521.686 265.943C522.133 266.458 522.598 266.939 523.131 267.386C523.578 267.902 524.042 268.383 524.575 268.83C525.022 269.346 525.487 269.827 526.02 270.274C526.467 270.789 526.931 271.271 527.464 271.718C527.911 272.233 528.375 272.714 528.909 273.161C529.356 273.677 529.82 274.158 530.353 274.605C530.8 275.121 531.264 275.602 531.797 276.049C532.245 276.564 532.709 277.046 533.242 277.493C534.102 278.472 535.099 279.383 536.2 280.208C539.965 283.594 544.488 284.729 549.01 284.729H653.423V299.011C653.423 305.233 655.985 310.733 660.164 314.48C660.181 314.497 660.198 314.497 660.198 314.514C660.645 315.013 661.11 315.477 661.591 315.907L661.643 315.958C662.09 316.439 662.537 316.904 663.018 317.333C663.036 317.35 663.053 317.35 663.053 317.368C663.5 317.866 663.964 318.33 664.446 318.76L664.497 318.811C664.944 319.293 665.391 319.757 665.873 320.186C665.89 320.204 665.907 320.204 665.907 320.221C666.354 320.719 666.819 321.183 667.3 321.613L667.352 321.664C667.799 322.146 668.246 322.61 668.727 323.039C668.745 323.057 668.762 323.057 668.762 323.074C669.209 323.572 669.673 324.036 670.155 324.466L670.206 324.518C670.653 324.999 671.1 325.463 671.582 325.893C671.599 325.91 671.616 325.91 671.616 325.927C672.063 326.425 672.528 326.889 673.009 327.319L673.061 327.371C676.809 331.496 682.243 334.022 688.417 334.022C700.11 334.022 709.137 324.964 709.137 313.277V284.625H712.903C724.614 284.625 734.037 275.585 734.037 263.914C734.037 257.916 731.372 252.45 727.141 248.635L726.969 248.566ZM653.131 167.854V228.766H604.037L653.131 167.854Z" fill="black"/>
<path d="M719.489 249.477C719.489 261.164 710.066 270.205 698.373 270.205H694.607V298.856C694.607 310.544 685.562 319.584 673.869 319.584C662.176 319.584 653.131 310.544 653.131 298.856V270.205H534.36C529.837 270.205 525.315 269.07 521.532 265.684C512.108 258.517 510.973 245.713 518.144 236.672L657.653 63.3189C658.032 63.3189 658.032 62.9407 658.41 62.5626C658.788 62.1845 659.167 61.8064 659.545 61.0501C660.68 60.672 661.058 60.2939 661.436 59.9157C661.815 59.5376 662.571 59.1595 662.95 58.7814C663.706 58.4032 664.085 58.0251 665.202 58.0251C665.581 57.2688 665.959 56.8907 666.715 56.8907C667.094 56.5126 667.85 56.5126 668.985 56.1345C669.364 56.1345 670.12 56.1345 670.499 55.7563H676.913C677.669 56.1345 678.047 56.1345 678.804 56.1345C679.182 56.5126 680.317 56.5126 681.074 56.8907C681.452 56.8907 682.209 57.2688 682.587 57.2688C683.344 58.0251 684.083 58.4032 684.462 58.7814C685.218 59.1595 685.596 59.5376 686.353 59.9157C686.353 59.9157 686.731 59.9157 686.731 60.2939C687.11 60.2939 687.866 60.672 687.866 61.0501C688.623 61.8064 689.001 62.1845 689.38 62.5626C689.758 62.9407 690.136 63.697 690.514 64.0751C690.893 64.4532 691.271 64.8314 692.028 65.9657C692.028 66.3439 692.406 67.1001 692.784 67.4782C693.163 68.2345 693.163 68.6126 693.541 69.747C693.541 70.1251 693.902 70.8813 693.902 71.2595C694.28 72.0157 694.28 72.3938 694.28 73.5282C694.28 74.2845 694.659 74.6626 694.659 75.4189V228.8H698.424C710.118 228.8 719.541 238.219 719.541 249.528L719.489 249.477ZM653.131 135.661L578.088 228.749H653.131V135.661Z" fill="#205678"/>
<path d="M425.033 290.829L400.059 296.629L418.023 373.908L442.996 368.108L425.033 290.829Z" fill="#00D38E"/>
<path d="M364.173 85.7146C305.879 99.2412 269.596 157.472 283.129 215.738C296.662 274.004 354.921 310.269 413.198 296.743C471.509 283.199 507.775 224.985 494.242 166.737C480.691 108.454 422.467 72.1881 364.156 85.7146H364.173ZM408.056 274.519C362.041 285.193 316.059 256.558 305.363 210.582C294.668 164.571 323.316 118.612 369.332 107.921C415.365 97.2303 461.329 125.882 472.025 171.876C482.703 217.869 454.072 263.829 408.056 274.519Z" fill="#00D38E"/>
<path d="M433.576 346.252L416.827 350.142C411.027 351.489 407.417 357.281 408.765 363.078L430.188 455.24C431.536 461.038 437.33 464.645 443.13 463.298L459.88 459.409C465.68 458.062 469.289 452.27 467.942 446.473L446.518 354.311C445.171 348.513 439.376 344.906 433.576 346.252Z" fill="#0D3A55"/>
<g opacity="0.3">
<path d="M472.024 171.893C482.703 217.886 454.072 263.846 408.056 274.536C362.04 285.21 316.059 256.576 305.363 210.599C294.667 164.588 323.315 118.629 369.331 107.938C415.364 97.2474 461.329 125.899 472.024 171.893Z" fill="white"/>
<path d="M474.14 195.989C472.111 232.977 445.99 265.719 408.056 274.519C400.215 276.341 392.374 277.028 384.705 276.667L474.14 195.989Z" fill="#EBEBEB"/>
<path d="M434.779 119.178L312.276 229.677C309.267 223.747 306.945 217.336 305.363 210.581C303.54 202.813 302.87 195.027 303.231 187.43L393.663 105.841C408.486 106.7 422.604 111.41 434.761 119.178H434.779Z" fill="#EBEBEB"/>
<path d="M469.687 163.677L353.014 268.933C347.924 266.596 343.074 263.742 338.518 260.46L462.757 148.38C465.543 153.158 467.864 158.263 469.687 163.677Z" fill="#EBEBEB"/>
<path d="M444.185 126.157L318.26 239.766C317.675 238.907 317.091 238.047 316.541 237.188L441.795 124.197C442.603 124.816 443.411 125.469 444.185 126.157Z" fill="#EBEBEB"/>
<path d="M365.187 109.004L309.301 159.414C310.247 157.043 311.313 154.705 312.482 152.419L357.948 111.41C360.303 110.499 362.711 109.691 365.204 108.986L365.187 109.004Z" fill="#EBEBEB"/>
</g>
<path d="M327.959 206.027C327.942 205.906 327.907 205.786 327.89 205.666C327.598 204.016 328.114 207.299 327.959 206.199C327.787 204.875 327.615 203.552 327.512 202.211C327.116 197.553 327.134 192.844 327.512 188.186C327.563 187.533 327.649 186.88 327.701 186.21C327.701 185.986 327.512 187.756 327.701 186.347C327.753 185.952 327.804 185.539 327.856 185.144C328.062 183.597 328.32 182.067 328.63 180.538C329.283 177.169 330.16 173.835 331.261 170.586C331.519 169.813 331.811 169.039 332.086 168.266C332.464 167.217 331.604 169.435 332.172 168.06C332.361 167.596 332.55 167.149 332.739 166.685C333.479 164.949 334.287 163.247 335.147 161.597C336.093 159.792 337.107 158.039 338.208 156.321C338.706 155.53 339.239 154.756 339.755 154C340.667 152.677 339.325 154.533 340.03 153.605C340.374 153.158 340.701 152.711 341.045 152.264C344.157 148.294 347.683 144.719 351.5 141.436C351.569 141.367 352.274 140.8 351.689 141.264C351.087 141.746 352.016 141.006 352.119 140.938C352.704 140.474 353.288 140.027 353.89 139.58C355.042 138.721 356.212 137.896 357.398 137.105C359.926 135.421 362.54 133.874 365.205 132.447C368.283 130.814 369.023 126.38 367.269 123.561C365.325 120.433 361.456 119.866 358.378 121.499C341.406 130.574 327.495 144.856 320.427 162.886C315.698 174.952 313.635 188.066 314.495 201.025C314.684 203.913 315.011 206.852 315.578 209.688C316.249 213.005 320.513 215.102 323.591 214.036C327.134 212.799 328.664 209.567 327.942 206.027H327.959Z" fill="white"/>
<path d="M333.737 224.314C334.735 227.666 332.826 231.189 329.473 232.203C326.12 233.217 322.595 231.292 321.58 227.941C320.583 224.589 322.491 221.066 325.845 220.052C329.198 219.055 332.723 220.963 333.737 224.314Z" fill="white"/>
<path d="M668.366 61.2738C665.357 90.0973 639.511 111.032 610.674 108.024C599.015 106.804 588.663 101.854 580.633 94.4801L554.358 98.3301L567.495 75.6254C564.314 67.8738 562.956 59.2457 563.902 50.3598C566.911 21.5363 592.756 0.601962 621.593 3.60977C650.431 6.61759 671.375 32.4504 668.366 61.2738Z" fill="white"/>
<path d="M668.366 61.2736C667.266 70.847 663.758 80.2486 657.773 87.8798C656.398 89.8736 654.627 91.5408 653.01 93.3627C651.187 94.9439 649.485 96.697 647.473 98.0548C643.639 101.011 639.322 103.331 634.8 105.102C630.312 106.992 625.48 107.886 620.665 108.47C618.24 108.608 615.799 108.814 613.374 108.608C610.932 108.556 608.508 108.299 606.1 107.852C596.488 106.116 587.391 101.613 580.117 95.0298L580.736 95.2189L554.496 99.2408L552.587 99.533L553.55 97.8486L566.619 75.1095L566.55 76.0033C560.187 61.0158 561.615 43.1923 569.783 29.2189C573.858 22.2236 579.533 16.208 586.222 11.722C592.911 7.2189 600.683 4.40015 608.628 3.31734C616.59 2.2689 624.775 2.99078 632.375 5.51734C639.959 8.07828 646.923 12.3752 652.632 17.9267C664.222 28.9439 670.051 45.4611 668.349 61.2736H668.366ZM668.366 61.2736C669.965 45.4611 664.016 29.0298 652.426 18.1673C646.665 12.7361 639.701 8.61109 632.169 6.22203C624.637 3.86734 616.572 3.30015 608.817 4.4689C601.062 5.65484 593.547 8.54234 587.133 13.0283C580.736 17.5314 575.32 23.4095 571.416 30.1642C567.444 36.9017 565.381 44.6189 564.744 52.3705C564.246 60.1392 565.518 68.0111 568.441 75.2298L568.631 75.6939L568.373 76.1236L555.149 98.7767L554.203 97.3845L580.496 93.7064L580.857 93.6548L581.115 93.8955C588.062 100.41 596.866 104.964 606.255 106.838C608.611 107.319 610.984 107.611 613.374 107.697C615.764 107.955 618.154 107.766 620.562 107.697C625.325 107.216 630.105 106.408 634.594 104.603C639.082 102.919 643.432 100.719 647.267 97.7798C649.279 96.4392 650.981 94.7205 652.804 93.1564C654.42 91.3689 656.191 89.7189 657.584 87.7423C663.603 80.1798 667.18 70.8298 668.332 61.2564L668.366 61.2736Z" fill="#263238"/>
<path d="M590.469 80.2832C590.469 77.1551 592.653 74.8863 595.611 74.8863C598.74 74.8863 600.752 77.1551 600.752 80.2832C600.752 83.4113 598.758 85.6801 595.611 85.6801C592.464 85.6801 590.469 83.3254 590.469 80.2832ZM592.636 67.8395L591.415 26.0566H599.772L598.551 67.8395H592.636Z" fill="#205678"/>
<path d="M610.502 80.2832C610.502 77.1551 612.686 74.8863 615.644 74.8863C618.774 74.8863 620.786 77.1551 620.786 80.2832C620.786 83.4113 618.791 85.6801 615.644 85.6801C612.497 85.6801 610.502 83.3254 610.502 80.2832ZM612.669 67.8395L611.448 26.0566H619.805L618.584 67.8395H612.669Z" fill="#205678"/>
<path d="M630.518 80.2832C630.518 77.1551 632.702 74.8863 635.66 74.8863C638.789 74.8863 640.801 77.1551 640.801 80.2832C640.801 83.4113 638.806 85.6801 635.66 85.6801C632.513 85.6801 630.518 83.3254 630.518 80.2832ZM632.702 67.8395L631.481 26.0566H639.838L638.617 67.8395H632.702Z" fill="#205678"/>
</svg>
