<svg width="50" height="50" viewBox="0 0 50 50" fill="none" xmlns="http://www.w3.org/2000/svg">
<rect width="50" height="50" rx="3.33333" fill="#215679"/>
<g clip-path="url(#clip0_1334_2039)">
<path d="M32.594 25.6748H30.7097C30.4472 25.6748 30.2409 25.8811 30.2409 26.1436V28.0279C30.2409 28.2904 30.4472 28.4967 30.7097 28.4967H32.594C32.8565 28.4967 33.0628 28.2904 33.0628 28.0279V26.1436C33.0628 25.8811 32.8565 25.6748 32.594 25.6748ZM32.1253 27.5592H31.1878V26.6217H32.1253V27.5592Z" fill="white"/>
<path d="M35.8847 25.6748H34.0003C33.7378 25.6748 33.5316 25.8811 33.5316 26.1436V28.0279C33.5316 28.2904 33.7378 28.4967 34.0003 28.4967H35.8847C36.1472 28.4967 36.3534 28.2904 36.3534 28.0279V26.1436C36.3534 25.8811 36.1472 25.6748 35.8847 25.6748ZM35.4159 27.5592H34.4784V26.6217H35.4159V27.5592Z" fill="white"/>
<path d="M32.594 28.9746H30.7097C30.4472 28.9746 30.2409 29.1809 30.2409 29.4434V31.3277C30.2409 31.5902 30.4472 31.7965 30.7097 31.7965H32.594C32.8565 31.7965 33.0628 31.5902 33.0628 31.3277V29.4434C33.0628 29.1809 32.8565 28.9746 32.594 28.9746ZM32.1253 30.8496H31.1878V29.9121H32.1253V30.8496Z" fill="white"/>
<path d="M35.8847 28.9746H34.0003C33.7378 28.9746 33.5316 29.1809 33.5316 29.4434V31.3277C33.5316 31.5902 33.7378 31.7965 34.0003 31.7965H35.8847C36.1472 31.7965 36.3534 31.5902 36.3534 31.3277V29.4434C36.3534 29.1809 36.1472 28.9746 35.8847 28.9746ZM35.4159 30.8496H34.4784V29.9121H35.4159V30.8496Z" fill="white"/>
<path d="M38.2003 24.062L36.3159 20.2933C36.2315 20.1339 36.0722 20.0401 35.894 20.0401H29.3034V18.6245H29.7815C29.969 18.6245 30.1565 18.5026 30.2222 18.3151C30.2784 18.137 30.2315 17.9214 30.0815 17.7995L24.794 13.3839L24.5878 13.2151L24.119 12.812L23.6409 13.2151L18.1565 17.7901C18.0065 17.912 17.9503 18.1276 18.0159 18.3058C18.0909 18.4933 18.2597 18.6151 18.4565 18.6151H18.9347V20.0308H12.3534C12.1753 20.0308 12.0065 20.1339 11.9315 20.2839L10.0472 24.062C10.019 24.1183 10.0003 24.1933 10.0003 24.2683V35.0964C10.0003 35.3495 10.2159 35.5651 10.4784 35.5651H37.7784C38.0409 35.5651 38.2472 35.3495 38.2472 35.0964V24.2683C38.2565 24.1933 38.2378 24.1276 38.2097 24.062H38.2003ZM18.9534 34.6183H10.9378V24.737H18.944V34.6183H18.9534ZM18.9534 23.7995H11.2378L12.6534 20.9776H18.9534V23.7995ZM29.294 20.9776H35.594L37.0097 23.7995H29.294V20.9776ZM23.6503 34.6183H21.7659V30.8589H23.6503V34.6183ZM26.4722 34.6183H24.5878V30.8589H26.4722V34.6183ZM26.9503 29.912H21.2972V28.9745H26.9503V29.912ZM28.3565 34.6183H27.419V30.8589C27.6815 30.8589 27.8972 30.6433 27.8972 30.3808V28.4964C27.8972 28.2433 27.6815 28.0276 27.419 28.0276H20.8378C20.5753 28.0276 20.3597 28.2433 20.3597 28.4964V30.3808C20.3597 30.6433 20.5753 30.8589 20.8378 30.8589V34.6183H19.9003V18.6151H28.3659V34.6183H28.3565ZM19.7784 17.6776L24.119 14.0589L28.469 17.6776H19.7784ZM37.3003 34.6183H29.3034V24.737H37.3003V34.6183Z" fill="white"/>
<path d="M17.5378 25.6748H15.6534C15.3909 25.6748 15.1847 25.8811 15.1847 26.1436V28.0279C15.1847 28.2904 15.3909 28.4967 15.6534 28.4967H17.5378C17.8003 28.4967 18.0065 28.2904 18.0065 28.0279V26.1436C18.0065 25.8811 17.8003 25.6748 17.5378 25.6748ZM17.0597 27.5592H16.1222V26.6217H17.0597V27.5592Z" fill="white"/>
<path d="M14.2378 25.6748H12.3534C12.0909 25.6748 11.8847 25.8811 11.8847 26.1436V28.0279C11.8847 28.2904 12.0909 28.4967 12.3534 28.4967H14.2378C14.5003 28.4967 14.7065 28.2904 14.7065 28.0279V26.1436C14.7065 25.8811 14.5003 25.6748 14.2378 25.6748ZM13.769 27.5592H12.8315V26.6217H13.769V27.5592Z" fill="white"/>
<path d="M17.5378 28.9746H15.6534C15.3909 28.9746 15.1847 29.1809 15.1847 29.4434V31.3277C15.1847 31.5902 15.3909 31.7965 15.6534 31.7965H17.5378C17.8003 31.7965 18.0065 31.5902 18.0065 31.3277V29.4434C18.0065 29.1809 17.8003 28.9746 17.5378 28.9746ZM17.0597 30.8496H16.1222V29.9121H17.0597V30.8496Z" fill="white"/>
<path d="M14.2378 28.9746H12.3534C12.0909 28.9746 11.8847 29.1809 11.8847 29.4434V31.3277C11.8847 31.5902 12.0909 31.7965 12.3534 31.7965H14.2378C14.5003 31.7965 14.7065 31.5902 14.7065 31.3277V29.4434C14.7065 29.1809 14.5003 28.9746 14.2378 28.9746ZM13.769 30.8496H12.8315V29.9121H13.769V30.8496Z" fill="white"/>
<path d="M24.119 24.2683C25.4222 24.2683 26.4722 23.2183 26.4722 21.9151C26.4722 20.612 25.4222 19.562 24.119 19.562C22.8159 19.562 21.7659 20.612 21.7659 21.9151C21.7659 23.2183 22.8159 24.2683 24.119 24.2683ZM24.119 20.4995C24.8972 20.4995 25.5347 21.1276 25.5347 21.9151C25.5347 22.7026 24.9065 23.3308 24.119 23.3308C23.3315 23.3308 22.7034 22.7026 22.7034 21.9151C22.7034 21.1276 23.3315 20.4995 24.119 20.4995Z" fill="white"/>
<path d="M24.2431 22.187C24.1435 22.187 24.0628 22.1063 24.0628 22.0067V21.4298C24.0628 21.3302 24.1435 21.2495 24.2431 21.2495C24.3427 21.2495 24.4234 21.3302 24.4234 21.4298V21.8264H24.82C24.9196 21.8264 25.0003 21.9072 25.0003 22.0067C25.0003 22.1063 24.9196 22.187 24.82 22.187H24.2431Z" fill="white"/>
<path d="M30.8753 32.4995C30.8753 30.0521 32.8654 28.062 35.3128 28.062C37.7602 28.062 39.7503 30.0521 39.7503 32.4995C39.7503 34.9469 37.7602 36.937 35.3128 36.937C32.8654 36.937 30.8753 34.9469 30.8753 32.4995Z" fill="#4BAE4F" stroke="white" stroke-width="0.5"/>
<path fill-rule="evenodd" clip-rule="evenodd" d="M37.5797 30.9195C37.6932 31.0331 37.6932 31.2198 37.5797 31.3333L34.8331 34.0799C34.7763 34.1367 34.7012 34.166 34.6262 34.166C34.5511 34.166 34.476 34.1367 34.4193 34.0799L33.046 32.7066C32.9324 32.5931 32.9324 32.4063 33.046 32.2928C33.1595 32.1793 33.3463 32.1793 33.4598 32.2928L34.6262 33.4592L37.1658 30.9195C37.2794 30.8042 37.4661 30.8042 37.5797 30.9195Z" fill="white"/>
</g>
<defs>
<clipPath id="clip0_1334_2039">
<rect width="30" height="30" fill="white" transform="translate(10.0003 9.99951)"/>
</clipPath>
</defs>
</svg>
