<svg width="50" height="50" viewBox="0 0 50 50" fill="none" xmlns="http://www.w3.org/2000/svg">
<rect width="50" height="50" rx="3.33333" fill="#56CC99"/>
<g clip-path="url(#clip0_1270_11238)">
<path d="M12.2643 24.5963C11.9955 24.5963 11.7812 24.3778 11.7812 24.1132V10.4826C11.7812 10.2137 11.9997 9.99951 12.2643 9.99951H37.7404C38.0092 9.99951 38.2276 10.2179 38.2276 10.4826V24.109C38.2276 24.3778 38.0092 24.5921 37.7404 24.5921H12.2643V24.5963ZM12.7474 23.6259H37.2531V22.2272H12.7474V23.6259ZM35.3713 18.8878C35.6401 18.8878 35.8585 19.1062 35.8585 19.3708V21.2569H37.2573V10.9698H12.7474V21.2569H31.3304V19.3708C31.3304 19.102 31.5488 18.8878 31.8177 18.8878H35.3713ZM32.3007 21.2569H34.884V19.8581H32.3007V21.2569Z" fill="white"/>
<path d="M23.5219 39.9996C23.253 39.9996 23.0388 39.7812 23.0388 39.5165V31.7078H19.8632V33.6988H21.157C21.4258 33.6988 21.64 33.9173 21.64 34.1861V36.5552C21.64 36.824 21.4216 37.0382 21.157 37.0382H20.4555V39.5165C20.4555 39.7854 20.2371 39.9996 19.9724 39.9996C19.7078 39.9996 19.4894 39.7812 19.4894 39.5165V37.0382H14.5328V39.5165C14.5328 39.7854 14.3144 39.9996 14.0497 39.9996C13.7851 39.9996 13.5667 39.7812 13.5667 39.5165V37.0382H12.8652C12.5963 37.0382 12.3821 36.8198 12.3821 36.5552V34.1861C12.3821 33.9173 12.6006 33.6988 12.8652 33.6988H14.1589V31.7078H10.9708V39.5165C10.9708 39.7854 10.7523 39.9996 10.4877 39.9996C10.2231 39.9996 10.0046 39.7812 10.0046 39.5165V28.8515C10.0046 28.5826 10.2231 28.3684 10.4877 28.3684H12.966V26.4824C12.966 26.2135 13.1844 25.9951 13.4491 25.9951H20.5605C20.8293 25.9951 21.0436 26.2135 21.0436 26.4824V28.3684H23.5219C23.7907 28.3684 24.0049 28.5868 24.0049 28.8515V39.5165C24.0049 39.7854 23.7865 39.9996 23.5219 39.9996ZM13.3398 36.0679H20.6655V34.6692H13.3398V36.0679ZM15.1167 33.6988H18.8845V31.7078H15.1167V33.6988ZM21.0436 30.7375H23.0346V29.3387H21.0436V30.7375ZM13.9321 30.7375H20.0732V26.9696H13.9321V30.7375ZM10.9708 30.7375H12.9618V29.3387H10.9708V30.7375Z" fill="white"/>
<path d="M39.5172 39.9996C39.2484 39.9996 39.03 39.7812 39.03 39.5165V31.7078H35.8544V33.6988H37.1481C37.417 33.6988 37.6354 33.9173 37.6354 34.1861V36.5552C37.6354 36.824 37.417 37.0382 37.1481 37.0382H36.4467V39.5165C36.4467 39.7854 36.2282 39.9996 35.9594 39.9996C35.6906 39.9996 35.4763 39.7812 35.4763 39.5165V37.0382H30.5239V39.5165C30.5239 39.7854 30.3055 39.9996 30.0367 39.9996C29.7679 39.9996 29.5536 39.7812 29.5536 39.5165V37.0382H28.8521C28.5833 37.0382 28.3691 36.8198 28.3691 36.5552V34.1861C28.3691 33.9173 28.5875 33.6988 28.8521 33.6988H30.1459V31.7078H26.9703V39.5165C26.9703 39.7854 26.7519 39.9996 26.4873 39.9996C26.2226 39.9996 26 39.7812 26 39.5165V28.8515C26 28.5826 26.2184 28.3684 26.4873 28.3684H28.9656V26.4824C28.9656 26.2135 29.184 25.9951 29.4528 25.9951H36.5643C36.8331 25.9951 37.0473 26.2135 37.0473 26.4824V28.3684H39.5256C39.7945 28.3684 40.0087 28.5868 40.0087 28.8515V39.5165C40.0087 39.7854 39.7903 39.9996 39.5256 39.9996H39.5172ZM29.3394 36.0679H36.6651V34.6692H29.3394V36.0679ZM31.1162 33.6988H34.8841V31.7078H31.1162V33.6988ZM37.0389 30.7375H39.03V29.3387H37.0389V30.7375ZM29.9317 30.7375H36.0728V26.9696H29.9317V30.7375ZM26.9661 30.7375H28.9572V29.3387H26.9661V30.7375Z" fill="white"/>
</g>
<defs>
<clipPath id="clip0_1270_11238">
<rect width="30" height="30" fill="white" transform="translate(10.0002 9.99951)"/>
</clipPath>
</defs>
</svg>
