<svg width="50" height="50" viewBox="0 0 50 50" fill="none" xmlns="http://www.w3.org/2000/svg">
<rect width="50" height="50" rx="3.33333" fill="#215679"/>
<g clip-path="url(#clip0_1270_11233)">
<g clip-path="url(#clip1_1270_11233)">
<path d="M30.5541 18.1981C28.2948 18.1981 26.4548 16.3581 26.4548 14.0988C26.4548 11.8395 28.2948 9.99951 30.5541 9.99951C32.8134 9.99951 34.6534 11.8395 34.6534 14.0988C34.6534 16.3581 32.8134 18.1981 30.5541 18.1981ZM30.5541 10.9666C28.8297 10.9666 27.4262 12.3701 27.4262 14.0945C27.4262 15.8189 28.8297 17.2224 30.5541 17.2224C32.2785 17.2224 33.6863 15.8189 33.6863 14.0945C33.6863 12.3701 32.2828 10.9666 30.5541 10.9666Z" fill="white"/>
<path d="M14.2894 39.9993C14.0241 39.9993 13.8059 39.7811 13.8059 39.5158V31.1161L13.7203 31.0048C12.5949 29.5029 11.9958 27.7186 11.9958 25.8401C11.9958 22.0874 15.051 19.0322 18.8037 19.0322H23.3223C23.8872 19.0322 24.4306 19.2419 24.8499 19.6184L25.1281 19.8709L25.4062 19.6184C25.8255 19.2419 26.369 19.0322 26.9338 19.0322H31.4524C35.2051 19.0322 38.2603 22.0874 38.2603 25.8401C38.2603 27.7186 37.6655 29.5029 36.5359 31.0048L36.4503 31.1161V39.5158C36.4503 39.7811 36.2321 39.9993 35.9668 39.9993H14.2894ZM29.2316 39.0322H35.4918V32.2244L34.82 32.7293C33.3181 33.8589 31.5294 34.458 29.651 34.458H29.2316V39.0322ZM23.3266 29.0365C22.9715 29.0365 22.642 29.1734 22.3895 29.4259L21.9702 29.8452L22.5051 30.102C23.2967 30.4828 23.8101 31.2915 23.8101 32.1687C23.8101 33.1358 23.194 34.0044 22.2825 34.3296L22.0044 34.428V39.0322H28.2646V34.428L27.9864 34.3296C27.0707 34.0044 26.4588 33.1358 26.4588 32.1687C26.4588 31.2915 26.9723 30.4828 27.7639 30.102L28.2988 29.8452L27.8795 29.4259C27.6313 29.1777 27.2975 29.0365 26.9424 29.0365H23.3266ZM14.7772 39.0322H21.0374V34.458H20.618C18.7395 34.458 16.9509 33.8589 15.449 32.7293L14.7772 32.2244V39.028V39.0322ZM28.7481 30.8465C28.0164 30.8465 27.4259 31.4413 27.4259 32.1687C27.4259 32.8962 28.0207 33.4909 28.7481 33.4909H29.651C33.8658 33.4909 37.2975 30.0592 37.2975 25.8444C37.2975 22.6223 34.6788 20.0036 31.4567 20.0036H26.9381C26.6257 20.0036 26.3219 20.1148 26.0866 20.3159L25.5346 20.7823L26.2149 21.0305C27.4772 21.4884 28.3288 22.695 28.3288 24.0344C28.3288 25.7973 26.8953 27.2308 25.1324 27.2308C23.3694 27.2308 21.9359 25.7973 21.9359 24.0344C21.9359 22.695 22.7832 21.4841 24.0498 21.0305L24.7301 20.7823L24.1781 20.3159C23.9385 20.1148 23.6347 20.0036 23.3266 20.0036H18.808C15.5859 20.0036 12.9672 22.6223 12.9672 25.8444C12.9672 30.0592 16.3989 33.4909 20.6137 33.4909H21.5166C22.244 33.4909 22.8388 32.8962 22.8388 32.1687C22.8388 31.4413 22.244 30.8465 21.5166 30.8465H20.6137C17.8538 30.8465 15.6116 28.6043 15.6116 25.8444C15.6116 25.5791 15.8298 25.3609 16.0951 25.3609C16.3604 25.3609 16.5786 25.5791 16.5786 25.8444C16.5786 28.0695 18.3887 29.8795 20.6137 29.8795H21.0673L21.1657 29.6013C21.4909 28.6856 22.3596 28.0737 23.3266 28.0737H26.9424C27.9094 28.0737 28.7781 28.6856 29.1033 29.6013L29.2017 29.8795H29.6552C31.8803 29.8795 33.6903 28.0695 33.6903 25.8444C33.6903 25.5791 33.9086 25.3609 34.1739 25.3609C34.4392 25.3609 34.6574 25.5791 34.6574 25.8444C34.6574 28.6043 32.4152 30.8465 29.6552 30.8465H28.7524H28.7481ZM25.1324 21.8093C23.9043 21.8093 22.9073 22.8063 22.9073 24.0344C22.9073 25.2624 23.9043 26.2594 25.1324 26.2594C26.3604 26.2594 27.3574 25.2624 27.3574 24.0344C27.3574 22.8063 26.3604 21.8093 25.1324 21.8093Z" fill="white"/>
<path d="M19.7108 18.1981C17.4515 18.1981 15.6116 16.3581 15.6116 14.0988C15.6116 11.8395 17.4515 9.99951 19.7108 9.99951C21.9702 9.99951 23.8101 11.8395 23.8101 14.0988C23.8101 16.3581 21.9702 18.1981 19.7108 18.1981ZM19.7108 10.9666C17.9864 10.9666 16.5829 12.3701 16.5829 14.0945C16.5829 15.8189 17.9864 17.2224 19.7108 17.2224C21.4353 17.2224 22.8388 15.8189 22.8388 14.0945C22.8388 12.3701 21.4353 10.9666 19.7108 10.9666Z" fill="white"/>
</g>
</g>
<defs>
<clipPath id="clip0_1270_11233">
<rect width="30" height="30" fill="white" transform="translate(10.0002 9.99951)"/>
</clipPath>
<clipPath id="clip1_1270_11233">
<rect width="26.2687" height="30" fill="white" transform="translate(12.0002 9.99951)"/>
</clipPath>
</defs>
</svg>
