<svg width="50" height="50" viewBox="0 0 50 50" fill="none" xmlns="http://www.w3.org/2000/svg">
<rect width="50" height="50" rx="3.33333" fill="#215679"/>
<path d="M40.0003 32.2651V17.7339C40.0003 17.5664 39.8976 17.4117 39.731 17.3279L25.2696 10.0623C25.1029 9.97858 24.8977 9.97858 24.731 10.0623L10.2696 17.3279C10.103 17.4117 10.0003 17.5664 10.0003 17.7339V32.2651C10.0003 32.4326 10.103 32.5873 10.2696 32.6711L24.731 39.9367C24.8143 39.9786 24.9073 39.9995 25.0003 39.9995C25.0933 39.9995 25.1863 39.9786 25.2696 39.9367L39.731 32.6711C39.8976 32.5873 40.0003 32.4326 40.0003 32.2651ZM25.0003 11.0095L38.3843 17.7339L34.3183 19.7768L20.9342 13.0524L25.0003 11.0095ZM25.0003 24.4583L11.6163 17.7339L15.6823 15.691L29.0664 22.4154L25.0003 24.4583ZM30.1437 21.8742L16.7596 15.1498L19.8569 13.5936L33.241 20.318L30.1437 21.8742ZM30.6823 22.686L33.7796 21.1299V28.3937L32.676 27.4493C32.5533 27.3443 32.3804 27.2965 32.2105 27.3211C32.0407 27.3455 31.8945 27.4391 31.8171 27.5729L30.6823 29.5357V22.686ZM11.0776 18.5458L24.4616 25.2702V38.7188L11.0776 31.9945V18.5458ZM25.539 38.7189V25.2702L29.605 23.2273V31.5101C29.605 31.7272 29.7764 31.916 30.0192 31.9661C30.0608 31.9747 30.1025 31.9789 30.1438 31.9789C30.3437 31.9789 30.5319 31.8816 30.6249 31.7208L32.4475 28.5685L33.9406 29.8463C34.0954 29.9787 34.3264 30.0174 34.5266 29.9444C34.7267 29.8713 34.857 29.701 34.857 29.5121V20.5886L38.9231 18.5458V31.9945L25.539 38.7189ZM32.5871 33.1985C32.7358 33.4227 32.6476 33.7094 32.3899 33.8389L27.4666 36.3124C27.3818 36.3551 27.2892 36.3753 27.1978 36.3753C27.0116 36.3753 26.8306 36.2912 26.7308 36.1409C26.582 35.9167 26.6703 35.63 26.9279 35.5006L31.8512 33.027C32.1089 32.8975 32.4384 32.9744 32.5871 33.1985ZM18.1557 33.4708C18.0559 33.6211 17.8749 33.7052 17.6887 33.7052C17.5973 33.7052 17.5047 33.6849 17.4198 33.6423L12.4966 31.1688C12.239 31.0394 12.1507 30.7527 12.2995 30.5285C12.4482 30.3042 12.7777 30.2274 13.0353 30.3569L17.9586 32.8305C18.2162 32.9599 18.3045 33.2466 18.1557 33.4708ZM12.2995 28.1478C12.4482 27.9236 12.7777 27.8468 13.0353 27.9762L17.9586 30.4498C18.2162 30.5793 18.3045 30.866 18.1557 31.0902C18.0559 31.2405 17.8749 31.3246 17.6887 31.3246C17.5973 31.3246 17.5047 31.3043 17.4198 31.2617L12.4966 28.7881C12.239 28.6587 12.1507 28.372 12.2995 28.1478Z" fill="white"/>
</svg>
