<svg width="50" height="50" viewBox="0 0 50 50" fill="none" xmlns="http://www.w3.org/2000/svg">
<rect width="50" height="50" rx="3.33333" fill="#215679"/>
<g clip-path="url(#clip0_1270_11243)">
<path d="M10.476 39.9995C10.2145 39.9995 10.0002 39.7852 10.0002 39.5238C10.0002 37.5609 11.0802 35.7652 12.816 34.8352L13.3217 34.5652L12.9188 34.1581C12.2888 33.5195 11.9374 32.6752 11.9374 31.7795C11.9374 30.2195 12.996 28.8695 14.5174 28.4967L14.8431 28.4152V24.9995C14.8431 24.7381 15.0574 24.5238 15.3188 24.5238H24.5245V21.6009H20.1574C19.896 21.6009 19.6817 21.3867 19.6817 21.1252C19.6817 19.1624 20.7617 17.3667 22.4974 16.4367L23.0031 16.1667L22.6002 15.7595C21.9702 15.1209 21.6188 14.2767 21.6188 13.3809C21.6188 11.5167 23.136 9.99951 25.0002 9.99951C26.8645 9.99951 28.3817 11.5167 28.3817 13.3809C28.3817 14.2767 28.0345 15.1209 27.4002 15.7595L26.9974 16.1667L27.5031 16.4367C29.2388 17.3667 30.3188 19.1624 30.3188 21.1252C30.3188 21.3867 30.1045 21.6009 29.8431 21.6009H25.476V24.5238H34.6817C34.9431 24.5238 35.1574 24.7381 35.1574 24.9995V28.4152L35.4831 28.4967C37.0002 28.8695 38.0631 30.2195 38.0631 31.7795C38.0631 32.6752 37.716 33.5195 37.0817 34.1581L36.6788 34.5652L37.1845 34.8352C38.9202 35.7652 40.0002 37.5609 40.0002 39.5238C40.0002 39.7852 39.786 39.9995 39.5245 39.9995H10.476ZM34.6817 35.1567C32.646 35.1567 30.8974 36.5409 30.4302 38.5209L30.306 39.0481H39.0531L38.9288 38.5209C38.4617 36.5409 36.7131 35.1567 34.6774 35.1567H34.6817ZM25.0002 35.1567C22.9645 35.1567 21.216 36.5409 20.7488 38.5209L20.6245 39.0481H29.3717L29.2474 38.5209C28.7802 36.5409 27.0317 35.1567 24.996 35.1567H25.0002ZM15.3188 35.1567C13.2831 35.1567 11.5345 36.5409 11.0674 38.5209L10.9431 39.0481H19.6902L19.566 38.5209C19.0988 36.5409 17.3502 35.1567 15.3145 35.1567H15.3188ZM25.476 28.4152L25.8017 28.4967C27.3188 28.8695 28.3817 30.2195 28.3817 31.7795C28.3817 32.6752 28.0345 33.5195 27.4002 34.1581L26.9974 34.5652L27.5031 34.8352C28.3045 35.2638 28.9902 35.8981 29.4831 36.6652L29.8431 37.2267L30.2031 36.6652C30.696 35.8981 31.3774 35.2638 32.1831 34.8352L32.6888 34.5652L32.286 34.1581C31.656 33.5195 31.3045 32.6752 31.3045 31.7795C31.3045 30.2195 32.3631 28.8695 33.8845 28.4967L34.2103 28.4152V25.4752H25.476V28.4152ZM15.7945 28.4152L16.1202 28.4967C17.6374 28.8695 18.7002 30.2195 18.7002 31.7795C18.7002 32.6752 18.3531 33.5195 17.7188 34.1581L17.316 34.5652L17.8217 34.8352C18.6231 35.2638 19.3088 35.8981 19.8017 36.6652L20.1617 37.2267L20.5217 36.6652C21.0145 35.8981 21.696 35.2638 22.5017 34.8352L23.0074 34.5652L22.6045 34.1581C21.9745 33.5195 21.6231 32.6752 21.6231 31.7795C21.6231 30.2195 22.6817 28.8695 24.2031 28.4967L24.5288 28.4152V25.4752H15.7945V28.4152ZM34.6817 29.3495C33.3403 29.3495 32.2517 30.4381 32.2517 31.7795C32.2517 33.1209 33.3403 34.2095 34.6817 34.2095C36.0231 34.2095 37.1117 33.1209 37.1117 31.7795C37.1117 30.4381 36.0231 29.3495 34.6817 29.3495ZM25.0002 29.3495C23.6588 29.3495 22.5702 30.4381 22.5702 31.7795C22.5702 33.1209 23.6588 34.2095 25.0002 34.2095C26.3417 34.2095 27.4302 33.1209 27.4302 31.7795C27.4302 30.4381 26.3417 29.3495 25.0002 29.3495ZM15.3188 29.3495C13.9774 29.3495 12.8888 30.4381 12.8888 31.7795C12.8888 33.1209 13.9774 34.2095 15.3188 34.2095C16.6602 34.2095 17.7488 33.1209 17.7488 31.7795C17.7488 30.4381 16.6602 29.3495 15.3188 29.3495ZM25.0002 16.7624C22.9645 16.7624 21.216 18.1467 20.7488 20.1267L20.6245 20.6538H29.3717L29.2474 20.1267C28.7802 18.1467 27.0317 16.7624 24.996 16.7624H25.0002ZM25.0002 10.9509C23.6588 10.9509 22.5702 12.0395 22.5702 13.3809C22.5702 14.7224 23.6588 15.8109 25.0002 15.8109C26.3417 15.8109 27.4302 14.7224 27.4302 13.3809C27.4302 12.0395 26.3417 10.9509 25.0002 10.9509Z" fill="white"/>
</g>
<defs>
<clipPath id="clip0_1270_11243">
<rect width="30" height="30" fill="white" transform="translate(10.0002 9.99951)"/>
</clipPath>
</defs>
</svg>
