<svg width="50" height="50" viewBox="0 0 50 50" fill="none" xmlns="http://www.w3.org/2000/svg">
<rect width="50" height="50" rx="3.33333" fill="#56CC99"/>
<g clip-path="url(#clip0_1270_11220)">
<path d="M32.7027 29.0358C30.7634 29.0358 29.1858 30.6134 29.1858 32.5527C29.1858 34.4918 30.7634 36.0694 32.7027 36.0694C34.6418 36.0694 36.2195 34.4918 36.2195 32.5527C36.2194 30.6134 34.6418 29.0358 32.7027 29.0358ZM32.7027 35.1318C31.2804 35.1318 30.1233 33.9748 30.1233 32.5526C30.1233 31.1304 31.2804 29.9733 32.7027 29.9733C34.1248 29.9733 35.282 31.1304 35.282 32.5526C35.2819 33.9748 34.1248 35.1318 32.7027 35.1318ZM39.3282 31.2413L38.4829 30.9159C38.3556 30.4654 38.1761 30.0323 37.947 29.6232L38.3149 28.7949C38.3936 28.6176 38.3551 28.4103 38.218 28.2732L36.9821 27.0373C36.8449 26.9002 36.6377 26.8616 36.4604 26.9403L35.6318 27.3083C35.2227 27.0794 34.7897 26.8999 34.3394 26.7726L34.0139 25.9271C33.9443 25.7461 33.7704 25.6267 33.5765 25.6267H31.8287C31.6348 25.6267 31.4609 25.7461 31.3913 25.9271L31.0657 26.7726C30.6276 26.8965 30.206 27.0702 29.8068 27.2904C28.3903 26.0395 26.7044 25.1695 24.8949 24.7374C26.8824 23.7518 28.2522 21.7012 28.2522 19.3364C28.2522 19.0667 28.2336 18.7965 28.1977 18.5291C28.2645 18.4477 28.3041 18.3439 28.3041 18.2321V14.1126L29.4637 13.8045V17.0264L28.7554 17.4354C28.6103 17.5191 28.521 17.6738 28.521 17.8413V20.7166C28.521 20.8943 28.6214 21.0566 28.7804 21.136C28.9393 21.2153 29.1296 21.198 29.2715 21.0913L29.9325 20.5942L30.5935 21.0913C30.6763 21.1535 30.7754 21.1854 30.8752 21.1854C30.9466 21.1854 31.0183 21.1691 31.0845 21.136C31.2435 21.0567 31.3439 20.8943 31.3439 20.7166V17.8413C31.3439 17.6738 31.2546 17.5191 31.1096 17.4354L30.4012 17.0264V13.5555L30.5489 13.5163C30.7544 13.4617 30.8973 13.2758 30.8973 13.0632C30.8973 12.8506 30.7544 12.6647 30.5489 12.6102L22.348 10.4317C22.2691 10.4108 22.1861 10.4108 22.1073 10.4317L13.9062 12.6102C13.7008 12.6647 13.5579 12.8506 13.5579 13.0632C13.5579 13.2758 13.7008 13.4617 13.9062 13.5163L16.1511 14.1126V18.232C16.1511 18.3438 16.1906 18.4476 16.2574 18.5291C16.2215 18.7965 16.2029 19.0668 16.2029 19.3364C16.2029 21.7012 17.5728 23.7518 19.5604 24.7374C17.7072 25.18 15.9825 26.0811 14.5457 27.3805C12.4526 29.2734 11.1352 31.8546 10.8362 34.6487C10.822 34.7809 10.8646 34.9129 10.9536 35.0119C11.0425 35.1108 11.1693 35.1673 11.3022 35.1673L27.2941 35.1672C27.3457 35.2736 27.4003 35.3786 27.4582 35.482L27.0903 36.3103C27.0116 36.4875 27.0501 36.6949 27.1873 36.832L28.4232 38.0679C28.5603 38.205 28.7676 38.2435 28.9449 38.1648L29.7735 37.7968C30.1825 38.0258 30.6155 38.2053 31.0658 38.3326L31.3913 39.1781C31.4609 39.3591 31.6348 39.4784 31.8288 39.4784H33.5765C33.7705 39.4784 33.9443 39.359 34.014 39.1781L34.3394 38.3329C34.7899 38.2056 35.223 38.026 35.6321 37.7969L36.4604 38.1648C36.6375 38.2435 36.8449 38.205 36.9821 38.0679L38.218 36.832C38.3551 36.6949 38.3936 36.4875 38.3149 36.3103L37.9469 35.4816C38.1758 35.0725 38.3554 34.6396 38.4827 34.1893L39.3283 33.8638C39.5092 33.7942 39.6286 33.6203 39.6286 33.4264V31.6786C39.6286 31.4848 39.5091 31.3109 39.3282 31.2413ZM30.4065 18.1119V19.7776L30.2142 19.6331C30.1308 19.5703 30.0317 19.539 29.9325 19.539C29.8333 19.539 29.7342 19.5703 29.6508 19.6331L29.4586 19.7776V18.1119L29.9325 17.8383L30.4065 18.1119ZM24.9712 25.7243C25.2764 25.8066 25.5775 25.9026 25.8736 26.012L24.2425 28.9186L22.9009 27.3279L24.9712 25.7243ZM22.2276 26.6635L20.6901 25.4727C21.1917 25.3996 21.7042 25.3612 22.2252 25.361L22.2276 25.3611H22.23C22.7468 25.3612 23.2592 25.3996 23.7638 25.4737L22.2276 26.6635ZM15.8524 13.0632L22.2276 11.3697L28.6029 13.0632L22.2276 14.7567L15.8524 13.0632ZM17.0886 14.3616L22.1073 15.6947C22.1467 15.7052 22.1871 15.7104 22.2276 15.7104C22.2681 15.7104 22.3085 15.7052 22.348 15.6947L27.3666 14.3616V17.8416C26.5788 17.9875 25.9156 18.1157 25.3681 18.2215C22.2276 18.8285 22.2276 18.8285 19.0872 18.2215C18.5396 18.1156 17.8764 17.9874 17.0887 17.8416L17.0886 14.3616ZM17.1404 19.3364C17.1404 19.1608 17.1502 18.9849 17.1683 18.81C17.8439 18.936 18.4225 19.0479 18.9092 19.142C20.5529 19.4597 21.3903 19.6186 22.2276 19.6186C23.0649 19.6186 23.9023 19.4597 25.546 19.142C26.0327 19.0479 26.6114 18.936 27.287 18.81C27.305 18.9848 27.3147 19.1607 27.3147 19.3364C27.3147 22.1407 25.0339 24.4223 22.2299 24.4235H22.2275H22.2252C19.4213 24.4223 17.1404 22.1407 17.1404 19.3364ZM19.4809 25.7219L21.5542 27.3278L20.2126 28.9186L18.5793 26.008C18.874 25.8996 19.1748 25.8041 19.4809 25.7219ZM11.8367 34.2298C12.388 30.7136 14.6469 27.8245 17.7092 26.3731L19.726 29.9672C19.8013 30.1013 19.9374 30.1899 20.0905 30.2045C20.1054 30.2059 20.1201 30.2066 20.1349 30.2066C20.2722 30.2066 20.4037 30.1462 20.4931 30.04L22.2276 27.9835L23.9621 30.04C24.0515 30.1462 24.183 30.2066 24.3203 30.2066C24.335 30.2066 24.3498 30.2059 24.3646 30.2045C24.5177 30.1899 24.6539 30.1013 24.7292 29.9672L26.7431 26.3782C27.2572 26.6228 27.7523 26.9098 28.2233 27.2371L27.1873 28.2732C27.0502 28.4103 27.0117 28.6176 27.0904 28.7949L27.4584 29.6234C27.2294 30.0325 27.0498 30.4656 26.9225 30.9158L26.0771 31.2413C25.8962 31.3109 25.7768 31.4848 25.7768 31.6787V33.4265C25.7768 33.6204 25.8962 33.7943 26.0771 33.8639L26.9224 34.1892C26.9262 34.2028 26.9305 34.2162 26.9345 34.2297L11.8367 34.2298ZM38.6911 33.1046L37.9213 33.4009C37.7771 33.4564 37.6695 33.5795 37.6337 33.7298C37.5096 34.2515 37.3036 34.7482 37.0216 35.2063C36.9406 35.3379 36.9297 35.501 36.9924 35.6423L37.3275 36.3967L36.5468 37.1774L35.7927 36.8425C35.6516 36.7798 35.4884 36.7907 35.3567 36.8717C34.8988 37.1537 34.4018 37.3598 33.8799 37.484C33.7295 37.5198 33.6064 37.6274 33.5509 37.7716L33.2547 38.541H32.1506L31.8543 37.7713C31.7989 37.6271 31.6757 37.5195 31.5255 37.4837C31.0038 37.3595 30.507 37.1536 30.049 36.8716C29.9173 36.7905 29.7542 36.7796 29.613 36.8423L28.8586 37.1774L28.0779 36.3967L28.4128 35.6426C28.4755 35.5013 28.4646 35.3382 28.3835 35.2065C28.1016 34.7486 27.8956 34.2518 27.7714 33.7297C27.7356 33.5793 27.628 33.4562 27.4838 33.4008L26.7143 33.1046V32.0005L27.4839 31.7043C27.6281 31.6487 27.7357 31.5257 27.7715 31.3753C27.8956 30.8537 28.1016 30.3569 28.3837 29.8988C28.4647 29.7672 28.4756 29.604 28.4129 29.4628L28.0779 28.7084L28.8586 27.9277L29.613 28.2628C29.7542 28.3254 29.9173 28.3146 30.049 28.2335C30.5069 27.9515 31.0037 27.7456 31.5254 27.6214C31.6757 27.5856 31.7988 27.478 31.8543 27.3338L32.1506 26.5641H33.2547L33.551 27.3338C33.6065 27.478 33.7295 27.5856 33.8799 27.6214C34.4015 27.7456 34.8983 27.9515 35.3563 28.2335C35.488 28.3146 35.6512 28.3254 35.7923 28.2628L36.5468 27.9277L37.3274 28.7084L36.9924 29.4625C36.9297 29.6038 36.9406 29.7669 37.0217 29.8986C37.3038 30.3566 37.5098 30.8535 37.6339 31.3754C37.6697 31.5258 37.7773 31.6489 37.9215 31.7043L38.691 32.0005L38.6911 33.1046Z" fill="white"/>
</g>
<defs>
<clipPath id="clip0_1270_11220">
<rect width="30" height="30" fill="white" transform="translate(10.0002 9.99951)"/>
</clipPath>
</defs>
</svg>
