<svg width="50" height="50" viewBox="0 0 50 50" fill="none" xmlns="http://www.w3.org/2000/svg">
<rect width="50" height="50" rx="3.33333" fill="#215679"/>
<g clip-path="url(#clip0_1270_11151)">
<path d="M38.0478 35.9104C38.1707 35.7613 38.2716 35.5946 38.3549 35.4103C38.763 34.4846 38.6489 33.2342 38.0961 32.62C37.6968 32.1725 37.2143 31.9663 36.5825 31.9663C35.9507 31.9663 35.4681 32.1725 35.0689 32.62C34.5161 33.2342 34.402 34.4846 34.81 35.4059C34.8934 35.5902 34.9943 35.7613 35.1171 35.9061C34.0203 36.2483 33.2306 37.31 33.1648 38.5428C33.1034 37.31 32.3137 36.2483 31.2169 35.9104C31.3397 35.7613 31.4406 35.5946 31.524 35.4103C31.932 34.4846 31.8179 33.2342 31.2651 32.62C30.8659 32.1725 30.3833 31.9663 29.7515 31.9663C29.1198 31.9663 28.6372 32.1725 28.2379 32.62C27.6851 33.2342 27.5711 34.4846 27.9791 35.4103C28.0625 35.5946 28.1634 35.7613 28.2862 35.9104C27.1894 36.2483 26.3997 37.3056 26.3383 38.5384C26.2725 37.3056 25.4827 36.2483 24.3903 35.9104C24.5088 35.7613 24.6097 35.5946 24.693 35.4103C25.1054 34.489 24.987 33.2342 24.4342 32.62C24.035 32.1725 23.5567 31.9663 22.925 31.9663C22.2932 31.9663 21.8062 32.1725 21.407 32.62C20.8542 33.2342 20.7401 34.489 21.1525 35.4103C21.2315 35.5946 21.3368 35.7613 21.4553 35.9104C20.3102 36.2614 19.5029 37.3977 19.5029 38.7007V38.9903C19.5029 39.5475 19.9373 39.9994 20.4681 39.9994H25.3775C25.8776 39.9994 26.29 39.5957 26.3383 39.0868C26.3821 39.5957 26.7945 39.9994 27.2991 39.9994H32.2084C32.7085 39.9994 33.1209 39.5957 33.1648 39.0824C33.2131 39.5957 33.6255 39.9994 34.1256 39.9994H39.035C39.5702 39.9994 40.0002 39.5475 40.0002 38.9903V38.7007C40.0002 37.4021 39.1929 36.2614 38.0478 35.9104ZM23.7761 34.9979C23.5962 35.4059 23.3154 35.6033 22.9206 35.6033C22.5257 35.6033 22.2493 35.4059 22.0695 34.9979C21.7975 34.3925 21.894 33.5852 22.1572 33.2913C22.3634 33.0587 22.5784 32.971 22.925 32.971C23.2716 32.971 23.4866 33.0631 23.6884 33.2913C23.9516 33.5852 24.0481 34.3925 23.7761 34.9979ZM22.1967 36.8011H23.6445C24.579 36.8011 25.338 37.6522 25.338 38.7007V38.9947H20.5076V38.7007C20.5076 37.6522 21.2666 36.8011 22.1967 36.8011ZM30.6071 34.9979C30.4228 35.4059 30.1464 35.6033 29.7515 35.6033C29.3567 35.6033 29.0803 35.4059 28.896 34.9979C28.6284 34.3925 28.7249 33.5808 28.9882 33.2913C29.19 33.0587 29.405 32.971 29.7515 32.971C30.0981 32.971 30.3175 33.0631 30.5193 33.2913C30.7825 33.5808 30.8747 34.3925 30.6071 34.9979ZM29.0276 36.8011H30.4754C31.4099 36.8011 32.1689 37.6522 32.1689 38.7007V38.9947H27.3342V38.7007C27.3342 37.6522 28.0932 36.8011 29.0276 36.8011ZM37.438 34.9979C37.2537 35.4059 36.9773 35.6033 36.5825 35.6033C36.1876 35.6033 35.9112 35.4059 35.727 34.9979C35.4594 34.3925 35.5559 33.5808 35.8147 33.2913C36.0209 33.0587 36.2359 32.971 36.5825 32.971C36.9291 32.971 37.1441 33.0631 37.3459 33.2913C37.6091 33.5808 37.7056 34.3925 37.438 34.9979ZM35.8586 36.8011H37.3064C38.2409 36.8011 38.9955 37.6522 38.9955 38.7007V38.9947H34.1651V38.7007C34.1651 37.6522 34.9241 36.8011 35.8586 36.8011Z" fill="white"/>
<path d="M17.5946 16.3787H16.0722C17.1515 15.9971 17.9236 14.9704 17.9236 13.7639C17.9236 12.2328 16.6776 10.9868 15.1465 10.9868C13.6153 10.9868 12.3694 12.2328 12.3694 13.7639C12.3694 14.9704 13.1415 15.9971 14.2164 16.3787H12.694C11.2111 16.3787 10.0002 17.5896 10.0002 19.0769V22.8017C10.0002 23.0781 10.224 23.3062 10.5048 23.3062H12.4352V29.3431C12.4352 29.6195 12.6633 29.8432 12.9397 29.8432H17.6033C17.8797 29.8432 18.1079 29.6195 18.1079 29.3431V23.3062H19.7882C20.0646 23.3062 20.2927 23.0781 20.2927 22.8017V19.0769C20.2927 17.5896 19.0818 16.3787 17.5946 16.3787ZM13.374 13.7639C13.374 12.7856 14.1681 11.9915 15.1465 11.9915C16.1248 11.9915 16.9189 12.7856 16.9189 13.7639C16.9189 14.7423 16.1248 15.5364 15.1465 15.5364C14.1681 15.5364 13.374 14.7423 13.374 13.7639ZM14.7692 28.8385H13.4398V23.3062H14.7692V28.8385ZM17.1032 28.8385H15.7739V23.3062H17.1032V28.8385ZM19.288 22.3015H18.1079V19.1822C18.1079 18.9058 17.8797 18.6821 17.6033 18.6821C17.3269 18.6821 17.1032 18.9058 17.1032 19.1822V22.3015H13.4398V19.1822C13.4398 18.9058 13.2161 18.6821 12.9397 18.6821C12.6633 18.6821 12.4352 18.9058 12.4352 19.1822V22.3015H11.0049V19.0769C11.0049 18.1424 11.7639 17.3834 12.694 17.3834H17.5946C18.5291 17.3834 19.288 18.1424 19.288 19.0769V22.3015Z" fill="white"/>
<path d="M34.0907 16.6465H32.7394C32.463 16.6465 32.2393 16.8702 32.2393 17.1466V21.0864C32.2393 21.3628 32.463 21.5865 32.7394 21.5865H34.0907C34.3671 21.5865 34.5908 21.3628 34.5908 21.0864V17.1466C34.5908 16.8702 34.3671 16.6465 34.0907 16.6465ZM33.7221 20.7135H33.1079V17.5195H33.7221V20.7135Z" fill="white"/>
<path d="M38.8726 22.7489V12.9434C39.5351 12.7766 40.0002 12.1844 40.0002 11.4956C40.0002 10.6708 39.3289 9.99951 38.5041 9.99951H21.8896C21.0648 9.99951 20.3936 10.6708 20.3936 11.4956C20.3936 12.1844 20.863 12.7766 21.5211 12.9434V22.7532C20.863 22.9156 20.3936 23.5122 20.3936 24.201C20.3936 25.0258 21.0648 25.6971 21.8896 25.6971H29.6945V27.6801L27.6413 29.7334C27.4483 29.9308 27.4483 30.2467 27.6413 30.4441C27.7378 30.5362 27.8607 30.5889 27.9967 30.5889C28.1327 30.5889 28.2555 30.5362 28.352 30.4441L30.1991 28.5971L32.0461 30.4441C32.1382 30.5362 32.2655 30.5889 32.4015 30.5889C32.5375 30.5889 32.6603 30.5362 32.7524 30.4441C32.9499 30.2467 32.9499 29.9308 32.7524 29.7334L30.6992 27.6801V25.6971H38.5041C39.3289 25.6971 40.0002 25.0258 40.0002 24.201C40.0002 23.5122 39.5351 22.9156 38.8726 22.7489ZM21.3982 11.4956C21.3982 11.2236 21.6176 11.0042 21.8896 11.0042H38.5041C38.7761 11.0042 38.9955 11.2236 38.9955 11.4956C38.9955 11.7676 38.7761 11.9869 38.5041 11.9869H21.8896C21.6176 11.9869 21.3982 11.7632 21.3982 11.4956ZM37.8724 12.9872V22.705H22.5258V12.9872H37.8724ZM38.5041 24.6924H21.8896C21.6176 24.6924 21.3982 24.4687 21.3982 24.201C21.3982 23.9334 21.6176 23.7097 21.8896 23.7097H38.5041C38.7761 23.7097 38.9955 23.929 38.9955 24.201C38.9955 24.473 38.7761 24.6924 38.5041 24.6924Z" fill="white"/>
<path d="M28.3783 17.2648H26.1671V15.0667C26.1759 14.8693 26.0223 14.6982 25.8249 14.6851H25.7986C24.1709 14.6851 22.8503 16.0056 22.8503 17.6333C22.8503 19.261 24.1709 20.5815 25.7986 20.5815C27.4262 20.5815 28.7468 19.261 28.7468 17.6333C28.7468 17.4271 28.5801 17.2648 28.3783 17.2648ZM25.7986 19.7085C24.6535 19.7085 23.7234 18.7784 23.7234 17.6333C23.7234 16.6681 24.3771 15.8477 25.2984 15.6195V17.6333C25.2984 17.9097 25.5222 18.1334 25.7986 18.1334H27.8123C27.5886 19.0548 26.7638 19.7085 25.7986 19.7085Z" fill="white"/>
<path d="M26.7418 13.7417C26.5356 13.7417 26.3733 13.9084 26.3733 14.1102V16.6899C26.3733 16.8917 26.54 17.0585 26.7418 17.0585H29.3215C29.418 17.0585 29.5146 17.019 29.5804 16.9532C29.6506 16.883 29.6901 16.7864 29.6901 16.6899C29.6901 15.0623 28.3695 13.7417 26.7418 13.7417ZM27.242 16.1898V14.6718C27.9878 14.8604 28.5713 15.444 28.7556 16.1898H27.242Z" fill="white"/>
<path d="M36.859 15.2378H35.5077C35.2313 15.2378 35.0076 15.4615 35.0076 15.7379V21.086C35.0076 21.3624 35.2313 21.5861 35.5077 21.5861H36.859C37.1354 21.5861 37.3635 21.3624 37.3635 21.086V15.7379C37.3635 15.4615 37.1354 15.2378 36.859 15.2378ZM36.4905 20.7131H35.8806V16.1109H36.4905V20.7131Z" fill="white"/>
<path d="M31.3224 18.0503H29.9711C29.6947 18.0503 29.4666 18.274 29.4666 18.5504V21.0863C29.4666 21.3627 29.6947 21.5864 29.9711 21.5864H31.3224C31.5988 21.5864 31.8225 21.3627 31.8225 21.0863V18.5504C31.8225 18.274 31.5988 18.0503 31.3224 18.0503ZM30.9538 20.7134H30.3396V18.9234H30.9538V20.7134Z" fill="white"/>
</g>
<defs>
<clipPath id="clip0_1270_11151">
<rect width="30" height="30" fill="white" transform="translate(10.0002 9.99951)"/>
</clipPath>
</defs>
</svg>
