<svg width="50" height="50" viewBox="0 0 50 50" fill="none" xmlns="http://www.w3.org/2000/svg">
<rect width="50" height="50" rx="3.33333" fill="#56CC99"/>
<g clip-path="url(#clip0_1334_2027)">
<path d="M33.5315 26.6123H31.6472C31.3847 26.6123 31.1784 26.8186 31.1784 27.0811V28.9654C31.1784 29.2279 31.3847 29.4342 31.6472 29.4342H33.5315C33.794 29.4342 34.0003 29.2279 34.0003 28.9654V27.0811C34.0003 26.8186 33.794 26.6123 33.5315 26.6123ZM33.0628 28.4967H32.1253V27.5592H33.0628V28.4967Z" fill="white"/>
<path d="M36.8222 26.6123H34.9378C34.6753 26.6123 34.469 26.8186 34.469 27.0811V28.9654C34.469 29.2279 34.6753 29.4342 34.9378 29.4342H36.8222C37.0847 29.4342 37.2909 29.2279 37.2909 28.9654V27.0811C37.2909 26.8186 37.0847 26.6123 36.8222 26.6123ZM36.3534 28.4967H35.4159V27.5592H36.3534V28.4967Z" fill="white"/>
<path d="M33.5315 29.9121H31.6472C31.3847 29.9121 31.1784 30.1184 31.1784 30.3809V32.2652C31.1784 32.5277 31.3847 32.734 31.6472 32.734H33.5315C33.794 32.734 34.0003 32.5277 34.0003 32.2652V30.3809C34.0003 30.1184 33.794 29.9121 33.5315 29.9121ZM33.0628 31.7871H32.1253V30.8496H33.0628V31.7871Z" fill="white"/>
<path d="M36.8222 29.9121H34.9378C34.6753 29.9121 34.469 30.1184 34.469 30.3809V32.2652C34.469 32.5277 34.6753 32.734 34.9378 32.734H36.8222C37.0847 32.734 37.2909 32.5277 37.2909 32.2652V30.3809C37.2909 30.1184 37.0847 29.9121 36.8222 29.9121ZM36.3534 31.7871H35.4159V30.8496H36.3534V31.7871Z" fill="white"/>
<path d="M39.1378 24.9995L37.2534 21.2308C37.169 21.0714 37.0097 20.9776 36.8315 20.9776H30.2409V19.562H30.719C30.9065 19.562 31.094 19.4401 31.1597 19.2526C31.2159 19.0745 31.169 18.8589 31.019 18.737L25.7315 14.3214L25.5253 14.1526L25.0565 13.7495L24.5784 14.1526L19.094 18.7276C18.944 18.8495 18.8878 19.0651 18.9534 19.2433C19.0284 19.4308 19.1972 19.5526 19.394 19.5526H19.8722V20.9683H13.2909C13.1128 20.9683 12.944 21.0714 12.869 21.2214L10.9847 24.9995C10.9565 25.0558 10.9378 25.1308 10.9378 25.2058V36.0339C10.9378 36.287 11.1534 36.5026 11.4159 36.5026H38.7159C38.9784 36.5026 39.1847 36.287 39.1847 36.0339V25.2058C39.194 25.1308 39.1753 25.0651 39.1472 24.9995H39.1378ZM19.8909 35.5558H11.8753V25.6745H19.8815V35.5558H19.8909ZM19.8909 24.737H12.1753L13.5909 21.9151H19.8909V24.737ZM30.2315 21.9151H36.5315L37.9472 24.737H30.2315V21.9151ZM24.5878 35.5558H22.7034V31.7964H24.5878V35.5558ZM27.4097 35.5558H25.5253V31.7964H27.4097V35.5558ZM27.8878 30.8495H22.2347V29.912H27.8878V30.8495ZM29.294 35.5558H28.3565V31.7964C28.619 31.7964 28.8347 31.5808 28.8347 31.3183V29.4339C28.8347 29.1808 28.619 28.9651 28.3565 28.9651H21.7753C21.5128 28.9651 21.2972 29.1808 21.2972 29.4339V31.3183C21.2972 31.5808 21.5128 31.7964 21.7753 31.7964V35.5558H20.8378V19.5526H29.3034V35.5558H29.294ZM20.7159 18.6151L25.0565 14.9964L29.4065 18.6151H20.7159ZM38.2378 35.5558H30.2409V25.6745H38.2378V35.5558Z" fill="white"/>
<path d="M18.4753 26.6123H16.5909C16.3284 26.6123 16.1222 26.8186 16.1222 27.0811V28.9654C16.1222 29.2279 16.3284 29.4342 16.5909 29.4342H18.4753C18.7378 29.4342 18.944 29.2279 18.944 28.9654V27.0811C18.944 26.8186 18.7378 26.6123 18.4753 26.6123ZM17.9972 28.4967H17.0597V27.5592H17.9972V28.4967Z" fill="white"/>
<path d="M15.1753 26.6123H13.2909C13.0284 26.6123 12.8222 26.8186 12.8222 27.0811V28.9654C12.8222 29.2279 13.0284 29.4342 13.2909 29.4342H15.1753C15.4378 29.4342 15.644 29.2279 15.644 28.9654V27.0811C15.644 26.8186 15.4378 26.6123 15.1753 26.6123ZM14.7065 28.4967H13.769V27.5592H14.7065V28.4967Z" fill="white"/>
<path d="M18.4753 29.9121H16.5909C16.3284 29.9121 16.1222 30.1184 16.1222 30.3809V32.2652C16.1222 32.5277 16.3284 32.734 16.5909 32.734H18.4753C18.7378 32.734 18.944 32.5277 18.944 32.2652V30.3809C18.944 30.1184 18.7378 29.9121 18.4753 29.9121ZM17.9972 31.7871H17.0597V30.8496H17.9972V31.7871Z" fill="white"/>
<path d="M15.1753 29.9121H13.2909C13.0284 29.9121 12.8222 30.1184 12.8222 30.3809V32.2652C12.8222 32.5277 13.0284 32.734 13.2909 32.734H15.1753C15.4378 32.734 15.644 32.5277 15.644 32.2652V30.3809C15.644 30.1184 15.4378 29.9121 15.1753 29.9121ZM14.7065 31.7871H13.769V30.8496H14.7065V31.7871Z" fill="white"/>
<path d="M25.0565 25.2058C26.3597 25.2058 27.4097 24.1558 27.4097 22.8526C27.4097 21.5495 26.3597 20.4995 25.0565 20.4995C23.7534 20.4995 22.7034 21.5495 22.7034 22.8526C22.7034 24.1558 23.7534 25.2058 25.0565 25.2058ZM25.0565 21.437C25.8347 21.437 26.4722 22.0651 26.4722 22.8526C26.4722 23.6401 25.844 24.2683 25.0565 24.2683C24.269 24.2683 23.6409 23.6401 23.6409 22.8526C23.6409 22.0651 24.269 21.437 25.0565 21.437Z" fill="white"/>
<path d="M25.1806 23.1245C25.081 23.1245 25.0003 23.0438 25.0003 22.9442V22.3673C25.0003 22.2677 25.081 22.187 25.1806 22.187C25.2801 22.187 25.3609 22.2677 25.3609 22.3673V22.7639H25.7575C25.8571 22.7639 25.9378 22.8447 25.9378 22.9442C25.9378 23.0438 25.8571 23.1245 25.7575 23.1245H25.1806Z" fill="white"/>
</g>
<defs>
<clipPath id="clip0_1334_2027">
<rect width="30" height="30" fill="white" transform="translate(10.0003 9.99951)"/>
</clipPath>
</defs>
</svg>
