<?xml version="1.0" encoding="UTF-8"?>
<svg id="Layer_2" data-name="Layer 2" xmlns="http://www.w3.org/2000/svg" viewBox="0 0 499.89 476.97">
  <defs>
    <style>
      .cls-1 {
        fill: #56cc99;
      }

      .cls-1, .cls-2 {
        fill-rule: evenodd;
      }

      .cls-1, .cls-2, .cls-3 {
        stroke-width: 0px;
      }

      .cls-2 {
        fill: #215679;
      }

      .cls-3 {
        fill: #fff;
      }
    </style>
  </defs>
  <g id="Layer_1-2" data-name="Layer 1">
    <g id="web_logo" data-name="web logo">
      <g id="logo">
        <path class="cls-1" d="m152.88,447.47c28.73-14.9,61.33-13.79,89.1,2.44.85.5,1.81.5,2.65,0,.85-.48,1.33-1.33,1.33-2.29v-67.08c0-.71-.23-1.31-.71-1.81-34.54-36.44-88.29-46.98-133.95-26.46-1.31.6-1.92,2.13-1.35,3.48l39.27,90.41c.31.69.83,1.19,1.56,1.46.69.25,1.42.19,2.1-.15h0Zm194.12,0h0c-28.73-14.9-61.35-13.79-89.1,2.44-.85.5-1.81.5-2.65,0-.85-.48-1.33-1.33-1.33-2.29v-67.08c0-.71.23-1.31.73-1.81,34.52-36.44,88.27-46.98,133.93-26.46,1.31.6,1.92,2.13,1.35,3.48l-39.27,90.41c-.31.69-.83,1.19-1.54,1.46-.73.25-1.44.19-2.12-.15h0Z"/>
        <path class="cls-2" d="m265.18,471.6c22.52-19.54,53.35-15.44,78.43-3.44.83.4,1.75.35,2.54-.15.81-.48,1.25-1.29,1.25-2.23v-7.52c0-.98-.48-1.83-1.37-2.33-29.16-16.39-62.93-14.31-90.41,4.85-2.48,1.75-8.85,1.75-11.35,0-27.48-19.15-61.23-21.23-90.41-4.85-.87.5-1.37,1.35-1.37,2.33v7.52c0,.94.44,1.75,1.25,2.23.79.5,1.71.56,2.56.15,25.06-12,55.89-16.1,78.41,3.44.02.02.06.04.08.06,8.77,7.08,21.54,7.08,30.31,0,.02-.02.06-.04.08-.06h0Z"/>
        <path class="cls-2" d="m355.57,454.76l31.46-72.46c.5-1.15,1.73-1.79,2.98-1.54,1.23.27,2.1,1.33,2.1,2.6v23.77c0,.46-.1.87-.31,1.27l-31.48,57.79c-.6,1.08-1.79,1.62-2.98,1.31-1.17-.31-1.98-1.35-1.98-2.58v-9.1c0-.38.06-.71.21-1.06h0Z"/>
        <path class="cls-2" d="m144.33,454.76l-31.46-72.46c-.5-1.15-1.73-1.79-2.96-1.54-1.25.27-2.12,1.33-2.12,2.6v23.77c0,.46.1.87.33,1.27l31.46,57.79c.6,1.08,1.79,1.62,2.98,1.31,1.17-.31,2-1.35,2-2.58v-9.1c0-.38-.08-.71-.23-1.06h0Z"/>
        <path class="cls-2" d="m10.82,122.3c102.68,57.35,172.81,18.23,210.43-117.33.88-3.27,4.04-5.37,7.4-4.9,3.37.44,5.85,3.23,5.9,6.6,2.5,165.49-86.12,315.92-224.36,396.17-2.96,1.71-6.67.98-8.77-1.71-2.12-2.73-1.87-6.54.58-8.96,45.46-45.25,64.27-93.77,56.41-145.54-.21-1.48.52-2.89,1.88-3.56,1.35-.65,2.9-.37,3.94.73,9.15,9.69,18.17,19.5,27.08,29.46,1.12,1.21,2.88,1.48,4.31.62,1.4-.87,1.98-2.58,1.38-4.13-20.19-51.29-49.79-88.35-94.79-137.26-5.02-5.46,2.12-13.79,8.6-10.17h0Z"/>
        <path class="cls-2" d="m137.58,97.47c-11.9,16.71-35.1,20.6-51.79,8.69-16.69-11.9-20.58-35.08-8.67-51.79,11.9-16.69,35.08-20.58,51.77-8.67,16.71,11.89,20.6,35.08,8.69,51.77h0Z"/>
        <path class="cls-2" d="m489.07,122.3c-102.68,57.35-172.82,18.23-210.41-117.33-.9-3.27-4.06-5.37-7.42-4.9-3.37.44-5.85,3.23-5.9,6.6-2.5,165.49,86.12,315.92,224.36,396.17,2.98,1.71,6.67.98,8.77-1.71,2.12-2.73,1.87-6.54-.58-8.96-45.46-45.25-64.25-93.77-56.41-145.54.21-1.48-.52-2.89-1.88-3.56-1.33-.65-2.9-.37-3.92.73-9.15,9.69-18.19,19.5-27.1,29.46-1.1,1.21-2.88,1.48-4.31.62-1.4-.87-1.98-2.58-1.37-4.13,20.17-51.29,49.79-88.35,94.77-137.26,5.02-5.46-2.12-13.79-8.6-10.17h0Z"/>
        <path class="cls-2" d="m362.32,97.47c11.9,16.71,35.1,20.6,51.79,8.69,16.69-11.9,20.6-35.08,8.67-51.79-11.89-16.69-35.08-20.58-51.77-8.67-16.71,11.89-20.6,35.08-8.69,51.77h0Z"/>
        <path class="cls-1" d="m255,213.13l10.9,33.77c.73,2.23,2.71,3.69,5.06,3.67l35.52-.06c2.33,0,4.35,1.44,5.06,3.67.73,2.23-.04,4.58-1.94,5.94l-28.75,20.81c-1.9,1.38-2.67,3.73-1.94,5.96l11.04,33.75c.73,2.23-.04,4.58-1.92,5.94-1.9,1.38-4.37,1.38-6.27,0l-28.67-20.92c-1.9-1.38-4.37-1.38-6.27,0l-28.67,20.92c-1.88,1.38-4.37,1.38-6.27,0-1.88-1.37-2.65-3.71-1.9-5.94l11.02-33.75c.73-2.23-.04-4.58-1.94-5.96l-28.75-20.81c-1.9-1.37-2.67-3.71-1.94-5.94.73-2.23,2.71-3.67,5.06-3.67l35.52.06c2.35.02,4.33-1.44,5.06-3.67l10.9-33.77c.73-2.23,2.71-3.69,5.06-3.69s4.33,1.46,5.06,3.69h0Z"/>
        <path class="cls-3" d="m196.32,404.57c.06.11.08.28.08.51,0,.34-.25.85-.77,1.53-.17.23-.54.59-1.11,1.11-.57.51-1.33,1.02-2.3,1.53-.96.51-2.14.96-3.53,1.36-1.39.4-3.02.59-4.89.59-1.3,0-2.58-.3-3.83-.89-1.25-.59-2.35-1.47-3.32-2.64-.96-1.16-1.76-2.61-2.38-4.34-.62-1.73-.94-3.75-.94-6.08s.28-4.28.85-6.21c.57-1.93,1.29-3.63,2.17-5.1.88-1.47,1.86-2.64,2.93-3.49,1.08-.85,2.13-1.28,3.15-1.28.91,0,1.83.18,2.76.55.94.37,1.79.84,2.55,1.4.77.57,1.37,1.21,1.83,1.91.45.71.68,1.43.68,2.17,0,.85-.38,1.73-1.15,2.64-.77.91-1.69,1.74-2.76,2.51-1.08.77-2.16,1.39-3.23,1.87-1.08.48-1.93.72-2.55.72-.34,0-.64-.16-.89-.47-.25-.31-.38-.69-.38-1.15,0-.79.35-1.42,1.06-1.87.71-.45,1.49-.86,2.34-1.23.85-.37,1.63-.81,2.34-1.32.71-.51,1.06-1.22,1.06-2.13,0-.11-.14-.4-.42-.85-.28-.45-1.05-.68-2.3-.68-.57,0-1.22.33-1.96.98-.74.65-1.45,1.53-2.13,2.64-.68,1.11-1.25,2.41-1.7,3.91-.45,1.5-.68,3.13-.68,4.89,0,1.47.27,2.81.81,4,.54,1.19,1.23,2.2,2.08,3.02.85.82,1.84,1.46,2.98,1.91,1.13.45,2.3.68,3.49.68.85,0,1.77-.18,2.76-.55.99-.37,1.93-.76,2.81-1.19.88-.42,1.64-.82,2.3-1.19.65-.37,1.06-.55,1.23-.55s.35.09.55.26c.2.17.33.34.38.51Z"/>
        <path class="cls-3" d="m323.31,402.44c0,2.55-.45,4.55-1.36,6-.91,1.45-2.24,2.79-4,4.04-.45.28-1.08.62-1.87,1.02-.79.4-1.67.77-2.64,1.11-.96.34-1.98.62-3.06.85-1.08.23-2.07.34-2.98.34-2.55,0-4.48-.27-5.78-.81-1.3-.54-1.96-1.18-1.96-1.91,0-.79.23-1.45.68-1.96.45-.51.85-.79,1.19-.85l.94.68c.28.28.68.58,1.19.89.51.31,1.33.47,2.47.47,1.08,0,2.38-.18,3.91-.55,1.53-.37,2.99-.94,4.38-1.7,1.39-.77,2.58-1.71,3.57-2.85.99-1.13,1.49-2.44,1.49-3.91,0-1.3-.98-2.51-2.93-3.61s-5.03-1.86-9.23-2.25c-2.15-.17-4.28-.44-6.38-.81-2.1-.37-3.98-.88-5.65-1.53-1.67-.65-3.02-1.47-4.04-2.47-1.02-.99-1.53-2.22-1.53-3.7s.4-2.78,1.19-4.08c.79-1.3,1.77-2.51,2.93-3.61,1.16-1.1,2.37-2.08,3.61-2.93,1.25-.85,2.3-1.56,3.15-2.13.68-.4,1.63-.92,2.85-1.57,1.22-.65,2.52-1.28,3.91-1.87,1.39-.6,2.78-1.11,4.17-1.53,1.39-.43,2.56-.64,3.53-.64,1.13,0,1.9.31,2.3.93.4.62.6,1.5.6,2.64,0,.96-.11,1.99-.34,3.06-.23,1.08-.48,2.12-.77,3.15-.28,1.02-.55,1.91-.81,2.68-.25.76-.44,1.26-.55,1.49-.23.51-.48.85-.77,1.02-.28.17-.48.25-.6.25-.23,0-.34-.14-.34-.42,0-.17.04-.5.13-.98.08-.48.2-1.06.34-1.74.14-.68.26-1.42.34-2.21.08-.79.13-1.59.13-2.38,0-1.25-.06-2.15-.17-2.72-.11-.57-.57-.85-1.36-.85s-1.87.21-3.23.64c-1.36.42-2.75.95-4.17,1.57-1.53.68-3.02,1.56-4.46,2.64-1.45,1.08-2.74,2.18-3.87,3.32-1.13,1.13-2.06,2.23-2.76,3.27-.71,1.05-1.06,1.88-1.06,2.51,0,.68.47,1.32,1.4,1.91.94.59,2.13,1.12,3.57,1.57,1.45.45,3.05.85,4.8,1.19,1.76.34,3.49.6,5.19.77,1.42.17,2.98.4,4.68.68,1.7.28,3.29.74,4.76,1.36,1.47.62,2.72,1.46,3.74,2.51,1.02,1.05,1.53,2.4,1.53,4.04Z"/>
      </g>
    </g>
  </g>
</svg>