<?xml version="1.0" encoding="UTF-8"?>
<svg id="Layer_2" data-name="Layer 2" xmlns="http://www.w3.org/2000/svg" viewBox="0 0 1523.57 476.97">
  <defs>
    <style>
      .cls-1 {
        fill: #56cc99;
      }

      .cls-1, .cls-2 {
        fill-rule: evenodd;
      }

      .cls-1, .cls-2, .cls-3, .cls-4 {
        stroke-width: 0px;
      }

      .cls-2 {
        fill: #215679;
      }

      .cls-3 {
        fill: #fff;
      }

      .cls-4 {
        fill: #212121;
      }
    </style>
  </defs>
  <g id="Layer_1-2" data-name="Layer 1">
    <g id="web_logo" data-name="web logo">
      <g id="logo">
        <path class="cls-1" d="m152.88,447.47c28.73-14.9,61.33-13.79,89.1,2.44.85.5,1.81.5,2.65,0,.85-.48,1.33-1.33,1.33-2.29v-67.08c0-.71-.23-1.31-.71-1.81-34.54-36.44-88.29-46.98-133.95-26.46-1.31.6-1.92,2.13-1.35,3.48l39.27,90.41c.31.69.83,1.19,1.56,1.46.69.25,1.42.19,2.1-.15h0Zm194.12,0h0c-28.73-14.9-61.35-13.79-89.1,2.44-.85.5-1.81.5-2.65,0-.85-.48-1.33-1.33-1.33-2.29v-67.08c0-.71.23-1.31.73-1.81,34.52-36.44,88.27-46.98,133.93-26.46,1.31.6,1.92,2.13,1.35,3.48l-39.27,90.41c-.31.69-.83,1.19-1.54,1.46-.73.25-1.44.19-2.12-.15h0Z"/>
        <path class="cls-2" d="m265.18,471.6c22.52-19.54,53.35-15.44,78.43-3.44.83.4,1.75.35,2.54-.15.81-.48,1.25-1.29,1.25-2.23v-7.52c0-.98-.48-1.83-1.37-2.33-29.16-16.39-62.93-14.31-90.41,4.85-2.48,1.75-8.85,1.75-11.35,0-27.48-19.15-61.23-21.23-90.41-4.85-.87.5-1.37,1.35-1.37,2.33v7.52c0,.94.44,1.75,1.25,2.23.79.5,1.71.56,2.56.15,25.06-12,55.89-16.1,78.41,3.44.02.02.06.04.08.06,8.77,7.08,21.54,7.08,30.31,0,.02-.02.06-.04.08-.06h0Z"/>
        <path class="cls-2" d="m355.57,454.76l31.46-72.46c.5-1.15,1.73-1.79,2.98-1.54,1.23.27,2.1,1.33,2.1,2.6v23.77c0,.46-.1.87-.31,1.27l-31.48,57.79c-.6,1.08-1.79,1.62-2.98,1.31-1.17-.31-1.98-1.35-1.98-2.58v-9.1c0-.38.06-.71.21-1.06h0Z"/>
        <path class="cls-2" d="m144.33,454.76l-31.46-72.46c-.5-1.15-1.73-1.79-2.96-1.54-1.25.27-2.12,1.33-2.12,2.6v23.77c0,.46.1.87.33,1.27l31.46,57.79c.6,1.08,1.79,1.62,2.98,1.31,1.17-.31,2-1.35,2-2.58v-9.1c0-.38-.08-.71-.23-1.06h0Z"/>
        <path class="cls-2" d="m10.82,122.3c102.68,57.35,172.81,18.23,210.43-117.33.88-3.27,4.04-5.37,7.4-4.9,3.37.44,5.85,3.23,5.9,6.6,2.5,165.49-86.12,315.92-224.36,396.17-2.96,1.71-6.67.98-8.77-1.71-2.12-2.73-1.87-6.54.58-8.96,45.46-45.25,64.27-93.77,56.41-145.54-.21-1.48.52-2.89,1.88-3.56,1.35-.65,2.9-.37,3.94.73,9.15,9.69,18.17,19.5,27.08,29.46,1.12,1.21,2.88,1.48,4.31.62,1.4-.87,1.98-2.58,1.38-4.13-20.19-51.29-49.79-88.35-94.79-137.26-5.02-5.46,2.12-13.79,8.6-10.17h0Z"/>
        <path class="cls-2" d="m137.58,97.47c-11.9,16.71-35.1,20.6-51.79,8.69-16.69-11.9-20.58-35.08-8.67-51.79,11.9-16.69,35.08-20.58,51.77-8.67,16.71,11.89,20.6,35.08,8.69,51.77h0Z"/>
        <path class="cls-2" d="m489.07,122.3c-102.68,57.35-172.82,18.23-210.41-117.33-.9-3.27-4.06-5.37-7.42-4.9-3.37.44-5.85,3.23-5.9,6.6-2.5,165.49,86.12,315.92,224.36,396.17,2.98,1.71,6.67.98,8.77-1.71,2.12-2.73,1.87-6.54-.58-8.96-45.46-45.25-64.25-93.77-56.41-145.54.21-1.48-.52-2.89-1.88-3.56-1.33-.65-2.9-.37-3.92.73-9.15,9.69-18.19,19.5-27.1,29.46-1.1,1.21-2.88,1.48-4.31.62-1.4-.87-1.98-2.58-1.37-4.13,20.17-51.29,49.79-88.35,94.77-137.26,5.02-5.46-2.12-13.79-8.6-10.17h0Z"/>
        <path class="cls-2" d="m362.32,97.47c11.9,16.71,35.1,20.6,51.79,8.69,16.69-11.9,20.6-35.08,8.67-51.79-11.89-16.69-35.08-20.58-51.77-8.67-16.71,11.89-20.6,35.08-8.69,51.77h0Z"/>
        <path class="cls-1" d="m255,213.13l10.9,33.77c.73,2.23,2.71,3.69,5.06,3.67l35.52-.06c2.33,0,4.35,1.44,5.06,3.67.73,2.23-.04,4.58-1.94,5.94l-28.75,20.81c-1.9,1.38-2.67,3.73-1.94,5.96l11.04,33.75c.73,2.23-.04,4.58-1.92,5.94-1.9,1.38-4.37,1.38-6.27,0l-28.67-20.92c-1.9-1.38-4.37-1.38-6.27,0l-28.67,20.92c-1.88,1.38-4.37,1.38-6.27,0-1.88-1.37-2.65-3.71-1.9-5.94l11.02-33.75c.73-2.23-.04-4.58-1.94-5.96l-28.75-20.81c-1.9-1.37-2.67-3.71-1.94-5.94.73-2.23,2.71-3.67,5.06-3.67l35.52.06c2.35.02,4.33-1.44,5.06-3.67l10.9-33.77c.73-2.23,2.71-3.69,5.06-3.69s4.33,1.46,5.06,3.69h0Z"/>
        <path class="cls-3" d="m196.32,404.57c.06.11.08.28.08.51,0,.34-.25.85-.77,1.53-.17.23-.54.59-1.11,1.11-.57.51-1.33,1.02-2.3,1.53-.96.51-2.14.96-3.53,1.36-1.39.4-3.02.59-4.89.59-1.3,0-2.58-.3-3.83-.89-1.25-.59-2.35-1.47-3.32-2.64-.96-1.16-1.76-2.61-2.38-4.34-.62-1.73-.94-3.75-.94-6.08s.28-4.28.85-6.21c.57-1.93,1.29-3.63,2.17-5.1.88-1.47,1.86-2.64,2.93-3.49,1.08-.85,2.13-1.28,3.15-1.28.91,0,1.83.18,2.76.55.94.37,1.79.84,2.55,1.4.77.57,1.37,1.21,1.83,1.91.45.71.68,1.43.68,2.17,0,.85-.38,1.73-1.15,2.64-.77.91-1.69,1.74-2.76,2.51-1.08.77-2.16,1.39-3.23,1.87-1.08.48-1.93.72-2.55.72-.34,0-.64-.16-.89-.47-.25-.31-.38-.69-.38-1.15,0-.79.35-1.42,1.06-1.87.71-.45,1.49-.86,2.34-1.23.85-.37,1.63-.81,2.34-1.32.71-.51,1.06-1.22,1.06-2.13,0-.11-.14-.4-.42-.85-.28-.45-1.05-.68-2.3-.68-.57,0-1.22.33-1.96.98-.74.65-1.45,1.53-2.13,2.64-.68,1.11-1.25,2.41-1.7,3.91-.45,1.5-.68,3.13-.68,4.89,0,1.47.27,2.81.81,4,.54,1.19,1.23,2.2,2.08,3.02.85.82,1.84,1.46,2.98,1.91,1.13.45,2.3.68,3.49.68.85,0,1.77-.18,2.76-.55.99-.37,1.93-.76,2.81-1.19.88-.42,1.64-.82,2.3-1.19.65-.37,1.06-.55,1.23-.55s.35.09.55.26c.2.17.33.34.38.51Z"/>
        <path class="cls-3" d="m323.31,402.44c0,2.55-.45,4.55-1.36,6-.91,1.45-2.24,2.79-4,4.04-.45.28-1.08.62-1.87,1.02-.79.4-1.67.77-2.64,1.11-.96.34-1.98.62-3.06.85-1.08.23-2.07.34-2.98.34-2.55,0-4.48-.27-5.78-.81-1.3-.54-1.96-1.18-1.96-1.91,0-.79.23-1.45.68-1.96.45-.51.85-.79,1.19-.85l.94.68c.28.28.68.58,1.19.89.51.31,1.33.47,2.47.47,1.08,0,2.38-.18,3.91-.55,1.53-.37,2.99-.94,4.38-1.7,1.39-.77,2.58-1.71,3.57-2.85.99-1.13,1.49-2.44,1.49-3.91,0-1.3-.98-2.51-2.93-3.61s-5.03-1.86-9.23-2.25c-2.15-.17-4.28-.44-6.38-.81-2.1-.37-3.98-.88-5.65-1.53-1.67-.65-3.02-1.47-4.04-2.47-1.02-.99-1.53-2.22-1.53-3.7s.4-2.78,1.19-4.08c.79-1.3,1.77-2.51,2.93-3.61,1.16-1.1,2.37-2.08,3.61-2.93,1.25-.85,2.3-1.56,3.15-2.13.68-.4,1.63-.92,2.85-1.57,1.22-.65,2.52-1.28,3.91-1.87,1.39-.6,2.78-1.11,4.17-1.53,1.39-.43,2.56-.64,3.53-.64,1.13,0,1.9.31,2.3.93.4.62.6,1.5.6,2.64,0,.96-.11,1.99-.34,3.06-.23,1.08-.48,2.12-.77,3.15-.28,1.02-.55,1.91-.81,2.68-.25.76-.44,1.26-.55,1.49-.23.51-.48.85-.77,1.02-.28.17-.48.25-.6.25-.23,0-.34-.14-.34-.42,0-.17.04-.5.13-.98.08-.48.2-1.06.34-1.74.14-.68.26-1.42.34-2.21.08-.79.13-1.59.13-2.38,0-1.25-.06-2.15-.17-2.72-.11-.57-.57-.85-1.36-.85s-1.87.21-3.23.64c-1.36.42-2.75.95-4.17,1.57-1.53.68-3.02,1.56-4.46,2.64-1.45,1.08-2.74,2.18-3.87,3.32-1.13,1.13-2.06,2.23-2.76,3.27-.71,1.05-1.06,1.88-1.06,2.51,0,.68.47,1.32,1.4,1.91.94.59,2.13,1.12,3.57,1.57,1.45.45,3.05.85,4.8,1.19,1.76.34,3.49.6,5.19.77,1.42.17,2.98.4,4.68.68,1.7.28,3.29.74,4.76,1.36,1.47.62,2.72,1.46,3.74,2.51,1.02,1.05,1.53,2.4,1.53,4.04Z"/>
      </g>
      <g id="text">
        <g>
          <path class="cls-4" d="m786.66,209.82c0,3.78-1.65,5.67-4.96,5.67h-75.37v.47c0,3.28.39,6.48,1.18,9.6.79,3.12,2.13,5.85,4.02,8.19,1.89,2.34,4.37,4.22,7.44,5.62,3.07,1.41,6.97,2.11,11.69,2.11,3.78,0,7.8-.08,12.05-.24,4.25-.15,8.46-.31,12.64-.47,4.17-.16,8.07-.35,11.7-.59,3.62-.24,6.62-.51,8.98-.83h.71c2.99,0,4.49,1.27,4.49,3.79v18.09c0,1.91-.32,3.33-.95,4.28-.63.95-1.97,1.67-4.02,2.14-7.56,1.91-14.97,3.33-22.21,4.28-7.25.95-15.99,1.43-26.23,1.43-7.09,0-14.18-1.03-21.26-3.07-7.09-2.04-13.47-5.43-19.14-10.16-5.67-4.73-10.24-10.99-13.7-18.78-3.47-7.8-5.2-17.37-5.2-28.71v-16.54c0-9.45,1.34-18.03,4.02-25.75,2.68-7.71,6.57-14.25,11.69-19.61,5.12-5.35,11.38-9.49,18.78-12.4,7.4-2.91,15.83-4.37,25.28-4.37s18.07,1.58,25.4,4.72c7.32,3.15,13.43,7.48,18.31,13,4.88,5.51,8.54,12.05,10.99,19.61,2.44,7.56,3.66,15.83,3.66,24.81v13.7Zm-37.33-18.9c0-8.82-1.89-15.39-5.67-19.73-3.78-4.33-8.98-6.5-15.59-6.5s-11.89,2.21-15.83,6.62c-3.94,4.41-5.91,10.95-5.91,19.61v.94h43v-.94Z"/>
          <path class="cls-4" d="m926.29,221.64c0,6.3-1.1,12.52-3.31,18.67-2.21,6.14-5.87,11.66-10.99,16.54-5.12,4.88-11.78,8.86-19.96,11.93-8.19,3.07-18.27,4.61-30.24,4.61-9.45,0-17.76-.47-24.93-1.42-7.17-.95-13.74-2.2-19.73-3.78-1.26-.31-2.36-.86-3.31-1.65-.95-.79-1.42-1.81-1.42-3.07v-23.15c0-1.73.39-2.91,1.18-3.54.79-.63,1.81-.95,3.07-.95h.71c2.36.32,5.63.63,9.8.95,4.17.32,8.46.59,12.88.83,4.41.24,8.62.47,12.64.71s7.21.35,9.57.35c8.19,0,13.74-1.34,16.66-4.02,2.91-2.68,4.37-6.85,4.37-12.52,0-3.46-1.06-6.42-3.19-8.86-2.13-2.44-6.26-5.47-12.4-9.1l-32.6-19.37c-5.51-3.31-10.04-6.69-13.58-10.16-3.54-3.46-6.38-7.09-8.51-10.87-2.13-3.78-3.62-7.68-4.49-11.7-.87-4.02-1.3-8.15-1.3-12.4,0-6.46.98-12.48,2.95-18.07,1.97-5.59,5.32-10.47,10.04-14.65,4.73-4.17,10.95-7.44,18.67-9.8,7.72-2.36,17.33-3.54,28.82-3.54,4.25,0,8.86.16,13.82.47,4.96.32,9.72.71,14.29,1.18,4.57.47,8.82,1.03,12.76,1.65,3.93.63,7.01,1.26,9.21,1.89.95.32,1.77.79,2.48,1.42.71.63,1.06,1.58,1.06,2.83v23.86c0,1.1-.28,2.05-.83,2.84-.55.79-1.62,1.18-3.19,1.18h-.47c-1.73-.15-4.53-.35-8.39-.59-3.86-.24-8.23-.51-13.11-.83-4.88-.31-9.89-.59-15-.83-5.12-.24-9.65-.35-13.58-.35-6.77,0-11.54,1.03-14.29,3.07-2.76,2.05-4.13,5.2-4.13,9.45,0,1.73.24,3.23.71,4.49.47,1.26,1.3,2.48,2.48,3.66,1.18,1.18,2.79,2.44,4.84,3.78,2.04,1.34,4.64,2.88,7.8,4.61l30.24,16.3c12.29,6.62,20.67,13.86,25.16,21.74,4.49,7.88,6.73,16.62,6.73,26.23Z"/>
          <path class="cls-4" d="m1038.28,264.4c0,1.74-.39,2.95-1.18,3.66-.79.71-2.05,1.3-3.78,1.77-3.31.79-7.6,1.57-12.88,2.36-5.28.79-11.46,1.18-18.55,1.18-16.7,0-30.05-5.12-40.05-15.36-10-10.24-15-25.04-15-44.42v-19.85c0-19.37,5-34.18,15-44.42,10-10.24,23.35-15.36,40.05-15.36,7.09,0,13.27.39,18.55,1.18,5.28.79,9.57,1.58,12.88,2.36,1.73.47,2.99,1.06,3.78,1.77.79.71,1.18,1.93,1.18,3.66v21.03c0,1.26-.44,2.24-1.3,2.95-.87.71-1.93,1.06-3.19,1.06h-.47c-4.41-.47-8.62-.86-12.64-1.18-4.02-.31-9.41-.47-16.18-.47-2.68,0-5.2.44-7.56,1.3-2.36.87-4.41,2.36-6.14,4.49-1.73,2.13-3.11,4.96-4.13,8.5-1.03,3.54-1.54,7.92-1.54,13.11v19.85c0,5.2.51,9.57,1.54,13.11,1.02,3.54,2.4,6.38,4.13,8.51,1.73,2.13,3.78,3.62,6.14,4.49,2.36.87,4.88,1.3,7.56,1.3,6.77,0,12.17-.15,16.18-.47,4.02-.31,8.23-.71,12.64-1.18h.47c1.26,0,2.32.35,3.19,1.06.86.71,1.3,1.69,1.3,2.95v21.03Z"/>
          <path class="cls-4" d="m1178.62,266.29c0,1.26-.51,2.4-1.54,3.43s-2.17,1.54-3.43,1.54h-28.59c-1.26,0-2.36-.51-3.31-1.53-.95-1.02-1.42-2.16-1.42-3.42v-78.5c0-4.09-.24-7.54-.71-10.37s-1.34-5.11-2.6-6.83c-1.26-1.73-3.03-2.95-5.32-3.66-2.29-.71-5.24-1.06-8.86-1.06s-7.01.71-10.63,2.12c-3.62,1.41-7.48,3.22-11.58,5.42v92.88c0,1.26-.47,2.4-1.42,3.42-.95,1.02-2.05,1.53-3.31,1.53h-28.59c-1.26,0-2.4-.51-3.43-1.54-1.03-1.02-1.54-2.16-1.54-3.43V94.76c0-1.26.47-2.36,1.42-3.31s2.04-1.42,3.31-1.42h28.82c1.26,0,2.36.48,3.31,1.42.94.95,1.42,2.05,1.42,3.31v49.92c5.98-3.96,11.73-6.74,17.25-8.33,5.51-1.59,11.81-2.38,18.9-2.38,8.51,0,15.48,1.42,20.91,4.25,5.43,2.84,9.69,6.66,12.76,11.46,3.07,4.81,5.2,10.48,6.38,17.01,1.18,6.54,1.77,13.51,1.77,20.91v78.68Z"/>
          <path class="cls-4" d="m1321.8,211.95c0,9.45-1.3,17.96-3.91,25.52-2.61,7.56-6.39,13.98-11.36,19.26-4.97,5.28-11.13,9.37-18.47,12.29-7.34,2.91-15.82,4.37-25.45,4.37s-18.11-1.46-25.45-4.37c-7.34-2.91-13.53-7.01-18.58-12.29-5.05-5.28-8.88-11.7-11.48-19.26-2.61-7.56-3.91-16.07-3.91-25.52v-16.54c0-9.45,1.3-17.96,3.91-25.52,2.6-7.56,6.43-13.98,11.48-19.25,5.05-5.28,11.25-9.37,18.58-12.29,7.34-2.91,15.82-4.37,25.45-4.37s18.11,1.46,25.45,4.37c7.34,2.92,13.49,7.01,18.47,12.29,4.97,5.28,8.76,11.7,11.36,19.25,2.6,7.56,3.91,16.07,3.91,25.52v16.54Zm-38.27-16.54c0-19.21-6.97-28.82-20.91-28.82-6.89,0-12.14,2.4-15.74,7.21-3.6,4.81-5.41,12.01-5.41,21.62v16.54c0,9.61,1.8,16.86,5.41,21.74,3.6,4.88,8.85,7.32,15.74,7.32,13.94,0,20.91-9.69,20.91-29.06v-16.54Z"/>
          <path class="cls-4" d="m1460.96,211.95c0,9.45-1.3,17.96-3.91,25.52-2.61,7.56-6.39,13.98-11.36,19.26-4.97,5.28-11.13,9.37-18.47,12.29-7.34,2.91-15.82,4.37-25.45,4.37s-18.11-1.46-25.45-4.37c-7.34-2.91-13.53-7.01-18.58-12.29-5.05-5.28-8.88-11.7-11.48-19.26-2.61-7.56-3.91-16.07-3.91-25.52v-16.54c0-9.45,1.3-17.96,3.91-25.52,2.6-7.56,6.43-13.98,11.48-19.25,5.05-5.28,11.25-9.37,18.58-12.29,7.34-2.91,15.82-4.37,25.45-4.37s18.11,1.46,25.45,4.37c7.34,2.92,13.49,7.01,18.47,12.29,4.97,5.28,8.76,11.7,11.36,19.25,2.6,7.56,3.91,16.07,3.91,25.52v16.54Zm-38.27-16.54c0-19.21-6.97-28.82-20.91-28.82-6.89,0-12.14,2.4-15.74,7.21-3.6,4.81-5.41,12.01-5.41,21.62v16.54c0,9.61,1.8,16.86,5.41,21.74,3.6,4.88,8.85,7.32,15.74,7.32,13.94,0,20.91-9.69,20.91-29.06v-16.54Z"/>
          <path class="cls-4" d="m1523.57,266.29c0,1.26-.44,2.4-1.3,3.43-.87,1.03-1.93,1.54-3.19,1.54h-28.82c-1.26,0-2.4-.51-3.43-1.54-1.03-1.02-1.54-2.16-1.54-3.43V94.76c0-1.26.51-2.36,1.54-3.31,1.02-.94,2.16-1.42,3.43-1.42h28.82c1.26,0,2.32.47,3.19,1.42.86.95,1.3,2.05,1.3,3.31v171.53Z"/>
        </g>
        <g>
          <path class="cls-4" d="m843.38,366.1c0,1.81-.28,3.63-.83,5.44s-1.53,3.44-2.91,4.88c-1.39,1.44-3.29,2.6-5.71,3.48s-5.5,1.32-9.22,1.32c-2.67,0-5.02-.11-7.03-.34-2.02-.23-3.86-.47-5.52-.72-.66-.1-1.06-.25-1.21-.45-.15-.2-.23-.5-.23-.91v-3.02c0-.4.12-.71.38-.91.25-.2.55-.3.91-.3h.23c.86.1,1.83.18,2.91.23,1.08.05,2.19.09,3.33.11,1.13.03,2.24.05,3.33.08,1.08.03,2.05.04,2.91.04,2.27,0,4.15-.21,5.63-.64,1.49-.43,2.66-1.03,3.52-1.82.86-.78,1.46-1.73,1.81-2.83.35-1.11.53-2.32.53-3.63,0-.96-.15-1.83-.45-2.61-.3-.78-.81-1.55-1.51-2.31-.71-.76-1.64-1.55-2.8-2.38-1.16-.83-2.6-1.78-4.31-2.84l-7.33-4.46c-3.48-2.12-6.09-4.25-7.83-6.39-1.74-2.14-2.61-4.73-2.61-7.75,0-4.59,1.58-7.96,4.73-10.13,3.15-2.17,7.62-3.25,13.42-3.25,1.11,0,2.28.03,3.52.08,1.23.05,2.44.11,3.63.19,1.18.08,2.31.18,3.36.3,1.06.13,1.94.24,2.65.34.86.15,1.29.58,1.29,1.29v3.25c0,.81-.43,1.21-1.29,1.21h-.15c-1.66-.1-3.69-.2-6.09-.3-2.39-.1-4.7-.15-6.92-.15-3.93,0-6.77.5-8.51,1.51-1.74,1.01-2.61,2.9-2.61,5.67,0,1.77.65,3.3,1.96,4.61,1.31,1.31,3.39,2.82,6.26,4.54l6.94,4.16c2.16,1.31,4,2.57,5.5,3.78,1.51,1.21,2.74,2.42,3.69,3.63.96,1.21,1.63,2.47,2.04,3.78.4,1.31.6,2.72.6,4.23Z"/>
          <path class="cls-4" d="m899.03,379.48c0,.81-.43,1.21-1.29,1.21h-4.46c-.35,0-.63-.11-.83-.34-.2-.23-.35-.49-.45-.79l-4.92-17.39h-19.58l-4.84,17.39c-.1.3-.28.57-.53.79-.25.23-.53.34-.83.34h-4.46c-.86,0-1.29-.4-1.29-1.21,0-.25.03-.43.08-.53l13.99-49.23c.3-1.16.74-2.1,1.32-2.84.58-.73,1.22-1.31,1.93-1.74.71-.43,1.45-.73,2.23-.91.78-.18,1.52-.26,2.23-.26s1.44.08,2.19.23c.76.15,1.49.44,2.19.87.71.43,1.35,1.01,1.93,1.74.58.73,1.02,1.68,1.32,2.83l13.99,49.3c.05.1.08.28.08.53Zm-20.27-48.17c-.25-.91-.73-1.36-1.44-1.36-.76,0-1.26.45-1.51,1.36l-6.88,24.88h16.71l-6.88-24.88Z"/>
          <path class="cls-4" d="m954.45,379.48c0,.81-.43,1.21-1.29,1.21h-4.46c-.35,0-.63-.11-.83-.34-.2-.23-.35-.49-.45-.79l-4.92-17.39h-19.58l-4.84,17.39c-.1.3-.28.57-.53.79-.25.23-.53.34-.83.34h-4.46c-.86,0-1.29-.4-1.29-1.21,0-.25.02-.43.08-.53l13.99-49.23c.3-1.16.74-2.1,1.32-2.84.58-.73,1.22-1.31,1.93-1.74.71-.43,1.45-.73,2.23-.91.78-.18,1.52-.26,2.23-.26s1.44.08,2.19.23c.76.15,1.49.44,2.19.87.71.43,1.35,1.01,1.93,1.74.58.73,1.02,1.68,1.32,2.83l13.99,49.3c.05.1.08.28.08.53Zm-20.26-48.17c-.25-.91-.73-1.36-1.44-1.36-.76,0-1.26.45-1.51,1.36l-6.88,24.88h16.71l-6.88-24.88Z"/>
          <path class="cls-4" d="m1000.81,366.1c0,1.81-.28,3.63-.83,5.44s-1.53,3.44-2.91,4.88c-1.39,1.44-3.29,2.6-5.71,3.48s-5.5,1.32-9.22,1.32c-2.67,0-5.02-.11-7.03-.34-2.02-.23-3.86-.47-5.52-.72-.66-.1-1.06-.25-1.21-.45-.15-.2-.23-.5-.23-.91v-3.02c0-.4.12-.71.38-.91.25-.2.55-.3.91-.3h.23c.86.1,1.83.18,2.91.23,1.08.05,2.19.09,3.33.11,1.13.03,2.24.05,3.33.08,1.08.03,2.05.04,2.91.04,2.27,0,4.15-.21,5.63-.64,1.49-.43,2.66-1.03,3.52-1.82.86-.78,1.46-1.73,1.81-2.83.35-1.11.53-2.32.53-3.63,0-.96-.15-1.83-.45-2.61-.3-.78-.81-1.55-1.51-2.31-.71-.76-1.64-1.55-2.8-2.38-1.16-.83-2.6-1.78-4.31-2.84l-7.33-4.46c-3.48-2.12-6.09-4.25-7.83-6.39-1.74-2.14-2.61-4.73-2.61-7.75,0-4.59,1.58-7.96,4.73-10.13,3.15-2.17,7.62-3.25,13.42-3.25,1.11,0,2.28.03,3.52.08,1.23.05,2.44.11,3.63.19,1.18.08,2.31.18,3.36.3,1.06.13,1.94.24,2.65.34.86.15,1.29.58,1.29,1.29v3.25c0,.81-.43,1.21-1.29,1.21h-.15c-1.66-.1-3.69-.2-6.09-.3-2.39-.1-4.7-.15-6.92-.15-3.93,0-6.77.5-8.51,1.51-1.74,1.01-2.61,2.9-2.61,5.67,0,1.77.65,3.3,1.96,4.61,1.31,1.31,3.39,2.82,6.26,4.54l6.94,4.16c2.16,1.31,4,2.57,5.5,3.78,1.51,1.21,2.74,2.42,3.69,3.63.96,1.21,1.63,2.47,2.04,3.78.4,1.31.6,2.72.6,4.23Z"/>
          <path class="cls-4" d="m1084.44,325.79c0,.2-.03.35-.07.45l-13.91,49.23c-.35,1.21-.82,2.18-1.4,2.91-.58.73-1.21,1.31-1.89,1.74-.68.43-1.41.72-2.19.87s-1.53.23-2.23.23-1.44-.08-2.19-.23-1.49-.44-2.19-.87c-.71-.43-1.35-1.01-1.93-1.74-.58-.73-1.05-1.7-1.4-2.91l-13.99-49.23c-.05-.1-.08-.25-.08-.45,0-.4.12-.72.38-.95.25-.23.58-.34.98-.34h4.38c.3,0,.58.11.83.34.25.23.43.49.53.79l13.16,48.17c.3,1.06.8,1.59,1.51,1.59.65,0,1.13-.53,1.44-1.59l13.23-48.17c.1-.3.26-.57.49-.79.23-.23.49-.34.79-.34h4.46c.86,0,1.29.43,1.29,1.29Z"/>
          <path class="cls-4" d="m1130.11,379.78c0,.25-.06.48-.19.68-.13.2-.32.33-.57.38-.71.1-1.66.16-2.87.19s-2.51.06-3.89.11c-1.39.05-2.79.08-4.2.08h-3.78c-5.34,0-9.36-1.08-12.06-3.25-2.7-2.17-4.04-5.77-4.04-10.81v-29.11c0-5.04,1.35-8.64,4.04-10.81,2.7-2.17,6.72-3.25,12.06-3.25,1.11,0,2.36.01,3.74.04,1.39.03,2.76.05,4.12.08,1.36.03,2.65.08,3.86.15,1.21.08,2.22.14,3.02.19.25.05.44.18.57.38.12.2.19.43.19.68v3.78c0,.61-.28.91-.83.91h-14.59c-2.02,0-3.63.14-4.84.42-1.21.28-2.14.73-2.8,1.36-.66.63-1.1,1.45-1.32,2.46-.23,1.01-.34,2.22-.34,3.63v10.51h23.21c.4,0,.76.15,1.06.45.3.3.45.65.45,1.04v2.84c0,.4-.15.75-.45,1.05-.3.3-.66.45-1.06.45h-23.21v12.75c0,1.47.11,2.69.34,3.68s.67,1.8,1.32,2.43c.65.63,1.59,1.09,2.8,1.37,1.21.28,2.82.42,4.84.42h14.59c.55,0,.83.3.83.91v3.86Z"/>
          <path class="cls-4" d="m1186.14,379.71c0,.66-.33.98-.98.98h-4.84c-.45,0-.82-.04-1.1-.11-.28-.08-.57-.37-.87-.87l-13.54-22.53h-1.97c-1.26,0-2.46-.01-3.59-.04-1.13-.02-2.71-.09-4.73-.19v22.23c0,.4-.13.76-.38,1.06-.25.3-.58.45-.98.45h-4.08c-.4,0-.73-.15-.98-.45-.25-.3-.38-.65-.38-1.06v-52.93c0-.55.12-.95.38-1.17.25-.23.73-.39,1.44-.49.81-.1,1.75-.19,2.84-.26,1.08-.08,2.22-.14,3.4-.19,1.18-.05,2.38-.09,3.59-.11,1.21-.03,2.37-.04,3.48-.04,2.97,0,5.76.28,8.36.83,2.6.56,4.84,1.46,6.73,2.72,1.89,1.26,3.38,2.92,4.46,4.99,1.08,2.07,1.63,4.64,1.63,7.71v.53c0,2.12-.29,4.02-.87,5.71-.58,1.69-1.4,3.16-2.46,4.42-1.06,1.26-2.32,2.32-3.78,3.18-1.46.86-3.05,1.51-4.76,1.97l13.76,22.99c.15.25.23.48.23.68Zm-8.92-39.47c0-3.78-1.21-6.4-3.63-7.86-2.42-1.46-6-2.19-10.74-2.19h-2.04c-.76,0-1.53.01-2.31.04-.78.03-1.53.05-2.23.08-.71.03-1.29.06-1.74.11v20.72c1.66.05,3.25.09,4.76.11,1.51.03,2.7.04,3.55.04,2.32,0,4.37-.16,6.16-.49,1.79-.33,3.29-.89,4.5-1.7,1.21-.81,2.13-1.88,2.76-3.21.63-1.33.94-3.04.94-5.1v-.53Z"/>
          <path class="cls-4" d="m1234.46,366.1c0,1.81-.28,3.63-.83,5.44s-1.52,3.44-2.91,4.88-3.29,2.6-5.71,3.48c-2.42.88-5.5,1.32-9.22,1.32-2.67,0-5.02-.11-7.03-.34-2.02-.23-3.86-.47-5.52-.72-.66-.1-1.06-.25-1.21-.45-.15-.2-.23-.5-.23-.91v-3.02c0-.4.13-.71.38-.91.25-.2.55-.3.91-.3h.23c.86.1,1.83.18,2.91.23,1.08.05,2.19.09,3.33.11,1.13.03,2.24.05,3.33.08,1.08.03,2.05.04,2.91.04,2.27,0,4.15-.21,5.63-.64,1.49-.43,2.66-1.03,3.52-1.82.86-.78,1.46-1.73,1.81-2.83.35-1.11.53-2.32.53-3.63,0-.96-.15-1.83-.45-2.61-.3-.78-.81-1.55-1.51-2.31-.71-.76-1.64-1.55-2.8-2.38-1.16-.83-2.6-1.78-4.31-2.84l-7.33-4.46c-3.48-2.12-6.09-4.25-7.83-6.39-1.74-2.14-2.61-4.73-2.61-7.75,0-4.59,1.57-7.96,4.73-10.13,3.15-2.17,7.62-3.25,13.42-3.25,1.11,0,2.28.03,3.52.08,1.24.05,2.45.11,3.63.19,1.18.08,2.31.18,3.37.3,1.06.13,1.94.24,2.65.34.86.15,1.29.58,1.29,1.29v3.25c0,.81-.43,1.21-1.29,1.21h-.15c-1.66-.1-3.69-.2-6.09-.3-2.4-.1-4.7-.15-6.92-.15-3.93,0-6.77.5-8.51,1.51-1.74,1.01-2.61,2.9-2.61,5.67,0,1.77.65,3.3,1.96,4.61,1.31,1.31,3.39,2.82,6.26,4.54l6.94,4.16c2.16,1.31,4,2.57,5.5,3.78,1.51,1.21,2.74,2.42,3.69,3.63.96,1.21,1.63,2.47,2.04,3.78.4,1.31.6,2.72.6,4.23Z"/>
          <path class="cls-4" d="m1259.34,379.18c0,.4-.13.76-.38,1.06-.25.3-.58.45-.98.45h-4.16c-.4,0-.73-.15-.98-.45-.25-.3-.38-.65-.38-1.06v-53.23c0-.4.12-.74.38-1.02.25-.28.58-.42.98-.42h4.16c.4,0,.73.14.98.42.25.28.38.62.38,1.02v53.23Z"/>
          <path class="cls-4" d="m1319.07,357.48c0,4.18-.51,7.78-1.52,10.78-1.01,3-2.42,5.46-4.24,7.37-1.82,1.92-3.98,3.33-6.48,4.23s-5.24,1.36-8.22,1.36-5.72-.45-8.22-1.36-4.66-2.32-6.48-4.23c-1.82-1.92-3.25-4.37-4.28-7.37-1.04-3-1.55-6.59-1.55-10.78v-9.75c0-4.18.52-7.78,1.55-10.77,1.03-3,2.46-5.46,4.28-7.37,1.82-1.92,3.98-3.33,6.48-4.23s5.24-1.36,8.22-1.36,5.72.45,8.22,1.36,4.66,2.32,6.48,4.23c1.82,1.92,3.23,4.37,4.24,7.37,1.01,3,1.52,6.59,1.52,10.77v9.75Zm-7.03-9.75c0-3.18-.31-5.87-.94-8.09-.63-2.22-1.52-4.03-2.68-5.44-1.16-1.41-2.56-2.43-4.22-3.06-1.66-.63-3.52-.95-5.58-.95s-3.92.32-5.58.95c-1.66.63-3.08,1.65-4.26,3.06-1.18,1.41-2.08,3.23-2.71,5.44-.63,2.22-.94,4.92-.94,8.09v9.75c0,3.18.31,5.87.94,8.09.63,2.22,1.52,4.03,2.68,5.44,1.16,1.41,2.58,2.43,4.26,3.06,1.68.63,3.56.95,5.62.95s3.92-.31,5.58-.95c1.66-.63,3.07-1.65,4.22-3.06,1.16-1.41,2.05-3.23,2.68-5.44.63-2.22.94-4.92.94-8.09v-9.75Z"/>
          <path class="cls-4" d="m1376.54,378.5c0,.6-.21,1.12-.64,1.55-.42.43-.94.64-1.53.64h-4.64c-1.21,0-2.02-.4-2.42-1.21l-23.37-44.39c-.1-.15-.18-.23-.23-.23s-.08.08-.08.23v44.16c0,.4-.13.74-.38,1.02-.25.28-.58.42-.98.42h-3.93c-.4,0-.73-.05-.98-.15-.25-.1-.38-.35-.38-.76v-53.16c0-.6.21-1.11.64-1.51.43-.4.95-.61,1.55-.61h4.16c1.06,0,1.76.11,2.12.34.35.23.68.62.98,1.17l23.21,44.16.15.23s.08-.08.08-.23v-44.24c0-.4.12-.74.37-1.02.25-.28.57-.42.97-.42h3.96c.4,0,.72.14.97.42.25.28.38.62.38,1.02v52.55Z"/>
        </g>
      </g>
    </g>
  </g>
</svg>