<svg width="32" height="32" viewBox="0 0 32 32" fill="none" xmlns="http://www.w3.org/2000/svg">
<circle cx="16" cy="16" r="16" fill="#CEEDDF"/>
<path d="M16.5 25.4834C15.8257 25.4834 15.2793 24.937 15.2793 24.2627V8.7373C15.2793 8.06299 15.8257 7.5166 16.5 7.5166C17.1743 7.5166 17.7207 8.06299 17.7207 8.7373V24.2627C17.7207 24.937 17.1743 25.4834 16.5 25.4834Z" fill="black"/>
<path d="M24.2627 17.7207H8.7373C8.06299 17.7207 7.5166 17.1743 7.5166 16.5C7.5166 15.8257 8.06299 15.2793 8.7373 15.2793H24.2627C24.937 15.2793 25.4834 15.8257 25.4834 16.5C25.4834 17.1743 24.937 17.7207 24.2627 17.7207Z" fill="black"/>
</svg>
