<svg width="25" height="26" viewBox="0 0 25 26" fill="none" xmlns="http://www.w3.org/2000/svg">
<g opacity="0.5">
<path d="M17.7053 2.5681C17.9937 2.04814 17.8152 1.38802 17.277 1.13538C15.1379 0.131275 12.7532 -0.220633 10.4108 0.134848C7.71615 0.543779 5.23267 1.86528 3.35611 3.88873C1.47955 5.91218 0.317919 8.52112 0.0563606 11.2997C-0.205198 14.0784 0.448367 16.8668 1.91289 19.2205C3.37742 21.5742 5.56861 23.3579 8.13725 24.2871C10.7059 25.2164 13.5041 25.2377 16.086 24.3478C18.6679 23.4579 20.8848 21.708 22.3834 19.3769C23.6885 17.3467 24.3834 14.9774 24.395 12.5616C24.3979 11.9673 23.8736 11.5255 23.2814 11.575C22.6925 11.6241 22.2599 12.1409 22.247 12.7317C22.2047 14.6597 21.6346 16.5448 20.5916 18.1672C19.3566 20.0882 17.5297 21.5303 15.402 22.2637C13.2743 22.9971 10.9683 22.9794 8.8515 22.2137C6.7347 21.4479 4.92896 19.978 3.72206 18.0383C2.51516 16.0986 1.97656 13.8007 2.19211 11.5109C2.40766 9.22104 3.36494 7.07103 4.9114 5.40353C6.45786 3.73602 8.50448 2.64698 10.7251 2.30999C12.578 2.02879 14.463 2.28471 16.1703 3.0375C16.7308 3.28461 17.4083 3.10376 17.7053 2.5681Z" fill="#FF0000"/>
<rect width="2.02645" height="14.1304" rx="1.01323" transform="matrix(0.698396 -0.715712 0.698396 0.715712 6.83838 8.45801)" fill="#FF0000"/>
<rect width="2.02645" height="14.1304" rx="1.01323" transform="matrix(0.698396 0.715712 -0.698396 0.715712 16.707 7.00781)" fill="#FF0000"/>
</g>
</svg>
