<svg width="29" height="30" viewBox="0 0 29 30" fill="none" xmlns="http://www.w3.org/2000/svg">
<path fill-rule="evenodd" clip-rule="evenodd" d="M9.743 2.07422H19.743C24.3447 2.07422 28.0763 5.69807 28.0763 10.1668V19.8779C28.0763 24.3466 24.3447 27.9704 19.743 27.9704H9.743C5.14133 27.9704 1.40967 24.3466 1.40967 19.8779V10.1668C1.40967 5.69807 5.14133 2.07422 9.743 2.07422ZM19.743 25.5427C22.9597 25.5427 25.5763 23.0016 25.5763 19.8779V10.1668C25.5763 7.04306 22.9597 4.50199 19.743 4.50199H9.743C6.52633 4.50199 3.90967 7.04306 3.90967 10.1668V19.8779C3.90967 23.0016 6.52633 25.5427 9.743 25.5427H19.743Z" fill="#1E2833"/>
<path fill-rule="evenodd" clip-rule="evenodd" d="M8.07617 15.0219C8.07617 11.4466 11.0612 8.54785 14.7428 8.54785C18.4245 8.54785 21.4095 11.4466 21.4095 15.0219C21.4095 18.5972 18.4245 21.496 14.7428 21.496C11.0612 21.496 8.07617 18.5972 8.07617 15.0219ZM10.5762 15.0219C10.5762 17.2522 12.4462 19.0682 14.7428 19.0682C17.0395 19.0682 18.9095 17.2522 18.9095 15.0219C18.9095 12.79 17.0395 10.9756 14.7428 10.9756C12.4462 10.9756 10.5762 12.79 10.5762 15.0219Z" fill="#1E2833"/>
<ellipse cx="21.9098" cy="8.06286" rx="0.888333" ry="0.862668" fill="#1E2833"/>
</svg>
