<svg id="Layer_1" enable-background="new 0 0 128 128" height="128" viewBox="0 0 128 128" width="128" xmlns="http://www.w3.org/2000/svg"><g><path d="m16.452 47.708h20.914v62.915h-20.914z"/><path d="m27.048 17.377c-7.155 0-11.838 4.695-11.838 10.868 0 6.041 4.545 10.877 11.562 10.877h.141c7.293 0 11.832-4.836 11.832-10.877-.138-6.173-4.539-10.868-11.697-10.868z"/><path d="m88.706 46.229c-11.11 0-16.075 6.116-18.853 10.396v.204h-.135c.039-.064.096-.138.135-.204v-8.917h-20.916c.279 5.904 0 62.915 0 62.915h20.917v-35.137c0-1.884.141-3.754.693-5.1 1.515-3.761 4.954-7.65 10.734-7.65 7.569 0 10.597 5.772 10.597 14.227v33.661h20.914v-36.079c-.001-19.325-10.319-28.316-24.086-28.316z"/></g></svg>