<svg width="39" height="39" viewBox="0 0 39 39" fill="none" xmlns="http://www.w3.org/2000/svg">
<path d="M19.4707 24.3461C19.04 24.3461 18.6257 24.1755 18.3218 23.87L13.476 19.0242C12.8407 18.3889 12.8407 17.3619 13.476 16.7265C14.1114 16.0911 15.1384 16.0911 15.7738 16.7265L19.4707 20.4234L31.3218 8.57223C31.9572 7.93686 32.9842 7.93686 33.6195 8.57223C34.2549 9.20761 34.2549 10.2346 33.6195 10.87L20.6195 23.87C20.314 24.1755 19.9013 24.3461 19.4707 24.3461Z" fill="#05BB6C"/>
<path d="M19.5 32.5C12.3321 32.5 6.5 26.6679 6.5 19.5C6.5 12.3321 12.3321 6.5 19.5 6.5C21.4386 6.5 23.3057 6.91763 25.0477 7.73988C25.8586 8.12338 26.2064 9.09187 25.8229 9.90275C25.4394 10.7153 24.4709 11.0646 23.6584 10.6795C22.3551 10.062 20.956 9.75 19.5 9.75C14.1229 9.75 9.75 14.1229 9.75 19.5C9.75 24.8771 14.1229 29.25 19.5 29.25C24.8771 29.25 29.25 24.8771 29.25 19.5C29.25 18.6014 29.978 17.875 30.875 17.875C31.772 17.875 32.5 18.6014 32.5 19.5C32.5 26.6679 26.6679 32.5 19.5 32.5Z" fill="#05BB6C"/>
</svg>
