<svg width="72" height="72" viewBox="0 0 72 72" fill="none" xmlns="http://www.w3.org/2000/svg">
<path fill-rule="evenodd" clip-rule="evenodd" d="M71.56 52.3055L65.4666 47.4876C65.2466 47.3019 64.9496 47.2091 64.6526 47.2091H51.4977C50.6508 47.2091 49.9688 47.8384 49.9688 48.6018V70.6073C49.9688 71.3707 50.6508 72 51.4977 72H70.4711C71.3181 72 72 71.3707 72 70.6073V53.2134C72 52.8626 71.835 52.5325 71.56 52.3055ZM65.9175 50.9231L67.3034 52.0269H65.9175V50.9231ZM69.4922 69.6375H52.4876V49.5716H63.3987V53.2134C63.3987 53.8633 63.9597 54.3895 64.6526 54.3895H69.4922V69.6375Z" fill="#215679"/>
<path fill-rule="evenodd" clip-rule="evenodd" d="M67.6114 65.8822C67.6114 66.5322 67.0394 67.0583 66.3465 67.0583H55.1824C54.4895 67.0583 53.9175 66.5322 53.9175 65.8822C53.9175 65.2323 54.4895 64.7061 55.1824 64.7061H66.3465C67.0394 64.7061 67.6114 65.2323 67.6114 65.8822Z" fill="#215679"/>
<path fill-rule="evenodd" clip-rule="evenodd" d="M11.989 53.2134C11.989 53.8633 11.417 54.3895 10.7241 54.3895H5.21356C4.52062 54.3895 3.94867 53.8633 3.94867 53.2134C3.94867 52.5634 4.52062 52.0269 5.21356 52.0269H10.7241C11.417 52.0269 11.989 52.5634 11.989 53.2134Z" fill="#215679"/>
<path fill-rule="evenodd" clip-rule="evenodd" d="M46.7241 52.9039C46.6581 52.6769 46.5151 52.4602 46.3281 52.3055L40.2346 47.4876C40.0037 47.3019 39.7177 47.2091 39.4207 47.2091H26.2658C25.4189 47.2091 24.7369 47.8384 24.7369 48.6018V70.6073C24.7369 71.3707 25.4189 72 26.2658 72H45.2392C46.0862 72 46.7681 71.3707 46.7681 70.6073V52.9039H46.7241ZM40.6856 50.9231L42.0715 52.0269H40.6856V50.9231ZM44.2493 69.6375H27.2447V49.5716H38.1668V53.2134C38.1668 53.8633 38.7278 54.3895 39.4207 54.3895H44.2493V69.6375Z" fill="#215679"/>
<path fill-rule="evenodd" clip-rule="evenodd" d="M42.3795 59.5478C42.3795 60.1977 41.8075 60.7239 41.1146 60.7239H29.9505C29.2576 60.7239 28.6856 60.1977 28.6856 59.5478C28.6856 58.8978 29.2576 58.3614 29.9505 58.3614H41.1146C41.8075 58.3614 42.3795 58.8978 42.3795 59.5478Z" fill="#215679"/>
<path fill-rule="evenodd" clip-rule="evenodd" d="M42.3795 65.8822C42.3795 66.5322 41.8075 67.0583 41.1146 67.0583H29.9505C29.2576 67.0583 28.6856 66.5322 28.6856 65.8822C28.6856 65.2323 29.2576 64.7061 29.9505 64.7061H41.1146C41.8075 64.7061 42.3795 65.2323 42.3795 65.8822Z" fill="#215679"/>
<path fill-rule="evenodd" clip-rule="evenodd" d="M36.7259 53.2134C36.7259 53.8633 36.154 54.3895 35.461 54.3895H29.9505C29.2576 54.3895 28.6856 53.8633 28.6856 53.2134C28.6856 52.5634 29.2576 52.0269 29.9505 52.0269H35.461C36.154 52.0269 36.7259 52.5634 36.7259 53.2134Z" fill="#215679"/>
<path fill-rule="evenodd" clip-rule="evenodd" d="M21.5802 52.3055L15.4977 47.4876C15.2667 47.3019 14.9808 47.2091 14.6728 47.2091H1.52887C0.681943 47.2091 0 47.8384 0 48.6018V70.6073C0 71.3707 0.681943 72 1.52887 72H20.5023C21.3492 72 22.0312 71.3707 22.0312 70.6073V53.2134C22.0312 52.8626 21.8662 52.5325 21.5802 52.3055ZM15.9487 50.9334L17.3346 52.0269H15.9487V50.9334ZM19.5124 69.6375H2.50779V49.5716H13.4299V53.2134C13.4299 53.8633 13.9908 54.3895 14.6838 54.3895H19.5124V69.6375Z" fill="#215679"/>
<path fill-rule="evenodd" clip-rule="evenodd" d="M17.6315 65.8822C17.6315 66.5322 17.0706 67.0583 16.3776 67.0583H5.21356C4.52062 67.0583 3.94867 66.5322 3.94867 65.8822C3.94867 65.2323 4.52062 64.7061 5.21356 64.7061H16.3776C17.0706 64.7061 17.6315 65.2323 17.6315 65.8822Z" fill="#215679"/>
<path fill-rule="evenodd" clip-rule="evenodd" d="M17.6315 59.5478C17.6315 60.1977 17.0706 60.7239 16.3776 60.7239H5.21356C4.52062 60.7239 3.94867 60.1977 3.94867 59.5478C3.94867 58.8978 4.52062 58.3614 5.21356 58.3614H16.3776C17.0706 58.3614 17.6315 58.8978 17.6315 59.5478Z" fill="#215679"/>
<path fill-rule="evenodd" clip-rule="evenodd" d="M40.0037 42.3809C40.0037 42.7007 39.8717 42.9999 39.6297 43.2165L36.6379 46.0226C36.407 46.2496 36.088 46.3631 35.747 46.3631C35.406 46.3631 35.0981 46.2496 34.8671 46.0226L31.8753 43.2165C31.3804 42.7626 31.3804 42.0095 31.8753 41.5555C32.1063 41.3286 32.4253 41.2048 32.7663 41.2048C33.1072 41.2048 33.4152 41.3286 33.6462 41.5555L34.4931 42.3396V38.8216C34.4931 38.1717 35.0541 37.6352 35.747 37.6352C36.44 37.6352 37.0119 38.1717 37.0119 38.8216V42.3396L37.8478 41.5555C38.0898 41.3286 38.4088 41.2048 38.7388 41.2048C39.0687 41.2048 39.3987 41.3286 39.6297 41.5555C39.8717 41.7722 40.0037 42.0714 40.0037 42.3809Z" fill="#215679"/>
<path fill-rule="evenodd" clip-rule="evenodd" d="M15.2667 42.3809C15.2667 42.7007 15.1347 42.9999 14.8928 43.2165L11.901 46.0226C11.67 46.2393 11.3511 46.3631 11.0101 46.3631C10.6691 46.3631 10.3611 46.2393 10.1192 46.0226L7.1384 43.2165C6.89642 42.9999 6.76443 42.7007 6.76443 42.3809C6.76443 42.061 6.89642 41.7722 7.1384 41.5452C7.36938 41.3286 7.68836 41.2048 8.02933 41.2048C8.3703 41.2048 8.67828 41.3286 8.90926 41.5452L9.75619 42.3396V20.3754C9.75619 18.6835 11.2191 17.3114 13.0229 17.3114H13.4739C14.1668 17.3114 14.7278 17.8375 14.7278 18.4978C14.7278 19.1581 14.1668 19.6739 13.4739 19.6739H13.0229C12.6049 19.6739 12.275 19.9834 12.275 20.3754V42.3396L13.1109 41.5452C13.3529 41.3286 13.6719 41.2048 14.0018 41.2048C14.3318 41.2048 14.6618 41.3286 14.8928 41.5452C15.1237 41.7619 15.2667 42.0714 15.2667 42.3809Z" fill="#215679"/>
<path fill-rule="evenodd" clip-rule="evenodd" d="M65.2356 42.3809C65.2356 42.7007 65.1036 42.9999 64.8616 43.2165L61.8698 46.0226C61.6389 46.2393 61.3199 46.3631 60.9899 46.3631C60.6599 46.3631 60.33 46.2393 60.099 46.0226L57.1072 43.2165C56.8653 42.9999 56.7333 42.7007 56.7333 42.3809C56.7333 42.061 56.8653 41.7722 57.1072 41.5452C57.3492 41.3286 57.6572 41.2048 57.9982 41.2048C58.3391 41.2048 58.6471 41.3286 58.8891 41.5452L59.725 42.3396V20.3754C59.725 19.9834 59.3951 19.6739 58.9771 19.6739H58.0422C57.3492 19.6739 56.7883 19.1477 56.7883 18.4978C56.7883 17.8478 57.3492 17.3114 58.0422 17.3114H58.9771C60.7809 17.3114 62.2438 18.6835 62.2438 20.3754V42.3396L63.0907 41.5452C63.3217 41.3286 63.6407 41.2048 63.9817 41.2048C64.3226 41.2048 64.6306 41.3286 64.8616 41.5452C65.1036 41.7722 65.2356 42.0714 65.2356 42.3809Z" fill="#215679"/>
<path fill-rule="evenodd" clip-rule="evenodd" d="M53.5985 14.4536C52.9716 14.3917 52.4766 14.0203 52.2786 13.4632C52.0257 12.7308 51.6957 11.9983 51.3107 11.2967C51.0357 10.7706 51.1017 10.1825 51.4867 9.72861C52.2016 8.87233 52.1357 7.65496 51.3217 6.90185L48.231 4.00287C47.813 3.60052 47.2301 3.38387 46.6251 3.38387C46.1082 3.38387 45.6132 3.54893 45.2172 3.84812C44.9313 4.07508 44.5903 4.19888 44.2383 4.19888C43.9963 4.19888 43.7543 4.1473 43.5234 4.03382C42.7864 3.69337 42.0275 3.39418 41.2466 3.14658C40.6526 2.96088 40.2566 2.49663 40.1906 1.90858C40.0807 0.825333 39.1127 0 37.9468 0H33.5692C32.4253 0 31.4684 0.8047 31.3254 1.86732C31.2594 2.46568 30.8854 2.89898 30.2695 3.08468C29.4775 3.33228 28.6856 3.63147 27.9377 3.99255C27.6957 4.10603 27.4647 4.15762 27.2227 4.15762C26.8818 4.15762 26.5628 4.04413 26.2768 3.8378C25.8808 3.53862 25.3749 3.38387 24.8799 3.38387C24.275 3.38387 23.703 3.60052 23.2851 4.00287L20.1833 6.90185C19.3804 7.65496 19.3034 8.86201 20.0073 9.70798C20.4033 10.1722 20.4693 10.7293 20.1833 11.2658C19.7983 11.9776 19.4684 12.7204 19.2044 13.4632C19.0064 14.0307 18.5444 14.3814 17.9175 14.4536C16.7846 14.5774 15.9267 15.4853 15.9267 16.5582V20.654C15.9267 21.7269 16.7846 22.6348 17.9175 22.7586C18.5444 22.8308 19.0064 23.1815 19.2044 23.749C19.4794 24.5021 19.7983 25.2346 20.1833 25.9361C20.4693 26.4726 20.4033 27.0297 20.0073 27.5042C19.3034 28.3399 19.3804 29.5469 20.1833 30.3104L23.2851 33.2093C23.703 33.6117 24.275 33.8283 24.8799 33.8283C25.3749 33.8283 25.8808 33.6633 26.2768 33.3744C26.5628 33.1578 26.8818 33.0443 27.2227 33.0443C27.4647 33.0443 27.7067 33.1062 27.9377 33.2197C28.6856 33.5704 29.4775 33.8799 30.2695 34.1275C30.8854 34.3132 31.2594 34.7465 31.3254 35.3449C31.4684 36.4075 32.4253 37.2019 33.5692 37.2019H37.9468C39.0907 37.2019 40.0477 36.4075 40.1796 35.3449C40.2566 34.7465 40.6306 34.3132 41.2356 34.1275C42.0385 33.8799 42.8304 33.5704 43.5784 33.2197C43.8093 33.1062 44.0513 33.0443 44.2933 33.0443C44.6233 33.0443 44.9532 33.1578 45.2392 33.3744C45.6352 33.6633 46.1302 33.8283 46.6361 33.8283C47.2411 33.8283 47.813 33.6117 48.231 33.2093L51.3217 30.3104C52.1357 29.5469 52.2126 28.3502 51.5197 27.5249C51.1347 27.0606 51.0797 26.4932 51.3547 25.967C51.7287 25.2655 52.0587 24.5124 52.3336 23.749C52.5206 23.1815 52.9716 22.8308 53.5985 22.7482C54.7534 22.6141 55.5894 21.7269 55.5894 20.654V16.5582C55.5894 15.4647 54.7314 14.5568 53.5985 14.4536ZM53.0706 20.4373C51.5747 20.6952 50.4198 21.6444 49.9358 23.0165C49.7049 23.6664 49.4299 24.3061 49.1109 24.9147C48.418 26.2043 48.5389 27.659 49.3969 28.7835L46.6141 31.3833C45.9212 30.9294 45.1182 30.6921 44.2823 30.6921C43.6444 30.6921 43.0284 30.8365 42.4455 31.1047C41.8075 31.4039 41.1366 31.6722 40.4546 31.8888C39.0027 32.3324 37.9798 33.4569 37.7159 34.8394H33.8002C33.5362 33.4569 32.5023 32.3324 31.0614 31.8888C30.3795 31.6722 29.7085 31.4039 29.0706 31.1047C28.4986 30.8365 27.8607 30.6921 27.2337 30.6921C26.3978 30.6921 25.5949 30.9294 24.9019 31.3833L22.1302 28.7835C22.9881 27.628 23.1091 26.1527 22.4271 24.8735C22.1082 24.2751 21.8222 23.6458 21.6022 23.0062C21.1182 21.6547 19.9193 20.6849 18.4455 20.4476V16.7646C19.9193 16.517 21.1182 15.5575 21.6022 14.206C21.8222 13.5561 22.1082 12.9268 22.4271 12.3284C23.1091 11.0491 22.9881 9.57386 22.1302 8.4184L24.9019 5.8186C25.5949 6.27253 26.3868 6.50981 27.2227 6.50981C27.8607 6.50981 28.4876 6.3757 29.0706 6.09715C29.7085 5.79797 30.3905 5.52973 31.0614 5.3234C32.5023 4.86947 33.5362 3.75527 33.8002 2.36252H37.7159C37.9468 3.78622 38.9807 4.93137 40.4546 5.3853C41.1146 5.59163 41.7745 5.84955 42.4015 6.14873C42.9844 6.41697 43.6004 6.55108 44.2383 6.55108C45.0742 6.55108 45.9102 6.29316 46.6141 5.8186L49.3859 8.4184C48.495 9.57386 48.374 11.0698 49.0669 12.3594C49.3859 12.9474 49.6719 13.5664 49.8918 14.2164C50.3868 15.5678 51.5857 16.5273 53.0706 16.7646V20.4373Z" fill="#215679"/>
<path fill-rule="evenodd" clip-rule="evenodd" d="M61.9578 53.2134C61.9578 53.8633 61.3969 54.3895 60.7039 54.3895H55.1824C54.4895 54.3895 53.9175 53.8633 53.9175 53.2134C53.9175 52.5634 54.4895 52.0269 55.1824 52.0269H60.7039C61.3969 52.0269 61.9578 52.5634 61.9578 53.2134Z" fill="#215679"/>
<path fill-rule="evenodd" clip-rule="evenodd" d="M67.6114 59.5478C67.6114 60.1977 67.0394 60.7239 66.3465 60.7239H55.1824C54.4895 60.7239 53.9175 60.1977 53.9175 59.5478C53.9175 58.8978 54.4895 58.3614 55.1824 58.3614H66.3465C67.0394 58.3614 67.6114 58.8978 67.6114 59.5478Z" fill="#215679"/>
<path fill-rule="evenodd" clip-rule="evenodd" d="M44.9753 9.9659C42.5115 7.65497 39.2447 6.38602 35.758 6.38602C32.2713 6.38602 29.0046 7.65497 26.5408 9.9659C21.4592 14.7219 21.4592 22.48 26.5408 27.2463C29.0046 29.5469 32.2713 30.8159 35.758 30.8159C39.2447 30.8159 42.5115 29.5469 44.9753 27.2463C50.0568 22.48 50.0568 14.7219 44.9753 9.9659ZM34.7571 22.8617H36.7589C39.1677 22.8617 41.3016 24.4195 41.9285 26.586C40.1247 27.8137 38.0018 28.4637 35.758 28.4637C33.5142 28.4637 31.3914 27.8137 29.5875 26.586C30.2145 24.4195 32.3483 22.8617 34.7571 22.8617ZM32.7773 17.332C32.7773 15.7845 34.1192 14.5362 35.758 14.5362C37.3969 14.5362 38.7388 15.7845 38.7388 17.332C38.7388 18.8795 37.3969 20.1278 35.758 20.1278C34.1192 20.1278 32.7773 18.8692 32.7773 17.332ZM39.5967 21.015C40.6526 20.0453 41.2576 18.7247 41.2576 17.332C41.2576 14.4846 38.7938 12.1737 35.758 12.1737C32.7223 12.1737 30.2585 14.4846 30.2585 17.332C30.2585 18.7247 30.8634 20.0453 31.9193 21.015C30.0165 21.7063 28.4546 23.0887 27.5967 24.8322C24.209 20.9325 24.484 15.2274 28.3226 11.6269C30.3025 9.76988 32.9423 8.74853 35.758 8.74853C38.5738 8.74853 41.2136 9.76988 43.1934 11.6269C47.0321 15.2274 47.3071 20.9325 43.9083 24.8322C43.0614 23.0887 41.4996 21.7063 39.5967 21.015Z" fill="#215679"/>
</svg>
