<svg width="72" height="72" viewBox="0 0 72 72" fill="none" xmlns="http://www.w3.org/2000/svg">
<path d="M6.3 32.538C5.96 32.538 5.62 32.3885 5.39 32.1096C4.98 31.6115 5.06 30.8842 5.56 30.4757C6.79 29.4794 9.43 27.7858 13.4 25.4346C13.95 25.1058 14.67 25.2852 15 25.8431C15.33 26.391 15.15 27.1083 14.59 27.4371C10.77 29.6986 8.16 31.3724 7.03 32.279C6.81 32.4483 6.56 32.538 6.3 32.538Z" fill="#215679"/>
<path d="M63.23 70.3263C62.95 70.3263 62.67 70.2267 62.45 70.0274L40.37 50.2416C40.12 50.0125 39.98 49.6936 39.98 49.3549C39.98 49.0162 40.14 48.6974 40.4 48.4882L62.3 30.4658C62.68 30.1569 63.21 30.1171 63.63 30.3562C65.64 31.5318 66.35 34.0423 66.35 35.8356V64.8369C66.35 66.7796 65.49 68.6725 64 70.0174C63.78 70.2167 63.5 70.3163 63.22 70.3163L63.23 70.3263ZM42.94 49.4247L63.15 67.5367C63.73 66.7497 64.03 65.8232 64.03 64.8468V35.8456C64.03 34.8294 63.72 33.6339 63.05 32.8668L42.93 49.4247H42.94Z" fill="#215679"/>
<path d="M58.85 72H10.51C9.02 72 7.57 71.5816 6.33 70.7845C6.02 70.5853 5.83 70.2665 5.8 69.8979C5.77 69.5392 5.91 69.1805 6.18 68.9414L28.19 49.1556C28.62 48.7671 29.27 48.7571 29.71 49.1258L34.49 53.051C34.56 53.1108 34.62 53.1606 34.68 53.2104C34.74 53.1606 34.8 53.1108 34.87 53.051L40.41 48.4981C40.86 48.1295 41.5 48.1494 41.93 48.528L64.01 68.3138C64.25 68.533 64.4 68.8418 64.4 69.1706C64.4 69.4994 64.26 69.8182 64.02 70.0373C62.61 71.3026 60.78 72 58.85 72ZM9.06 69.4794C9.53 69.6089 10.01 69.6687 10.51 69.6687H58.85C59.74 69.6687 60.6 69.4595 61.37 69.061L41.12 50.919L36.36 54.8344C36.21 54.9539 36.09 55.0535 36 55.1432C35.02 55.99 34.36 55.99 33.38 55.1432C33.28 55.0535 33.16 54.9539 33.02 54.8344L29.02 51.5467L9.08 69.4794H9.06Z" fill="#215679"/>
<path d="M6.96 70.9639C6.74 70.9639 6.52 70.9041 6.33 70.7746C4.24 69.4396 3 67.218 3 64.8469V35.8456C3 33.7236 3.91 31.8107 5.57 30.4758C6 30.1271 6.62 30.1271 7.05 30.4758L29.72 49.1159C29.98 49.335 30.13 49.6538 30.14 49.9826C30.14 50.3213 30.01 50.6401 29.76 50.8693L7.75 70.6551C7.53 70.8543 7.25 70.954 6.97 70.954L6.96 70.9639ZM6.36 32.9365C5.68 33.7435 5.33 34.7398 5.33 35.8456V64.8469C5.33 66.152 5.9 67.3873 6.9 68.2939L27.19 50.0523L6.36 32.9365Z" fill="#215679"/>
<path d="M54.86 38.8643C54.22 38.8643 53.69 38.3462 53.69 37.6986V28.5828C53.69 27.9452 54.21 27.4172 54.86 27.4172C55.51 27.4172 56.03 27.9353 56.03 28.5828V37.6986C56.03 38.3362 55.51 38.8643 54.86 38.8643ZM14 38.8643C13.36 38.8643 12.83 38.3462 12.83 37.6986V11.5367C12.83 9.80324 14.25 8.38855 15.99 8.38855H37.53C38.17 8.38855 38.7 8.90661 38.7 9.55418C38.7 10.2018 38.18 10.7198 37.53 10.7198H16C15.55 10.7198 15.17 11.0984 15.17 11.5467V37.7086C15.17 38.3562 14.65 38.8742 14 38.8742V38.8643Z" fill="#215679"/>
<path d="M54.77 29.7484C54.19 29.7484 53.61 29.599 53.09 29.3101C52.27 28.8617 51.67 28.1245 51.41 27.2279L44.87 4.78204C44.61 3.89536 44.71 2.94891 45.16 2.13198C45.61 1.31504 46.35 0.717281 47.25 0.458252L48.09 0.219149C48.98 -0.0398796 49.93 0.0597468 50.75 0.508066C51.57 0.956384 52.17 1.69362 52.43 2.59026L58.97 25.0361C59.23 25.9327 59.12 26.8692 58.67 27.6861C58.22 28.5031 57.48 29.1008 56.58 29.3499L55.74 29.589C55.42 29.6787 55.09 29.7285 54.76 29.7285L54.77 29.7484ZM49.07 2.40097C48.96 2.40097 48.85 2.42089 48.75 2.45078L47.9 2.68988C47.6 2.77955 47.36 2.9788 47.2 3.24779C47.05 3.51678 47.01 3.83559 47.1 4.1245L53.64 26.5703C53.73 26.8692 53.92 27.1083 54.2 27.2578C54.48 27.4072 54.79 27.447 55.09 27.3574L55.93 27.1183C56.23 27.0286 56.48 26.8393 56.63 26.5604C56.78 26.2814 56.82 25.9726 56.73 25.6737L50.19 3.22787C50.1 2.92899 49.9 2.68988 49.63 2.53048C49.45 2.43086 49.26 2.38104 49.07 2.38104V2.40097Z" fill="#215679"/>
<path d="M63.05 32.528C62.85 32.528 62.65 32.4782 62.46 32.3686L56.45 28.8518C55.89 28.523 55.71 27.8157 56.04 27.2577C56.36 26.7098 57.08 26.5205 57.63 26.8393L63.64 30.3561C64.2 30.6849 64.38 31.3922 64.05 31.9502C63.83 32.3188 63.44 32.528 63.04 32.528H63.05Z" fill="#215679"/>
<path d="M30.85 28.7821C30.22 28.7821 29.71 28.2839 29.69 27.6563C29.67 27.0187 30.17 26.4807 30.82 26.4608L52.5 25.7435C53.14 25.7036 53.68 26.2217 53.7 26.8692C53.72 27.5068 53.22 28.0448 52.57 28.0648L30.89 28.7821C30.89 28.7821 30.87 28.7821 30.85 28.7821ZM27.37 16.8369C26.98 16.8369 26.59 16.6376 26.37 16.279C26.04 15.731 26.21 15.0137 26.76 14.6849L45.39 3.467C45.94 3.13823 46.66 3.30759 46.99 3.85554C47.32 4.40348 47.15 5.12079 46.6 5.44956L27.98 16.6675C27.79 16.7771 27.58 16.8369 27.38 16.8369H27.37Z" fill="#215679"/>
<path d="M37.12 42.929C36.45 42.929 35.79 42.7597 35.19 42.4309C34.24 41.9129 33.55 41.0561 33.25 40.0299L29.73 27.9452C29.63 27.5965 29.69 27.2279 29.91 26.939C30.12 26.6501 30.46 26.4708 30.81 26.4608L36.72 26.2715C37.25 26.2416 37.73 26.6003 37.88 27.1084L41 37.7883C41.62 39.9203 40.38 42.152 38.25 42.7696C37.88 42.8792 37.5 42.929 37.13 42.929H37.12ZM32.39 28.7323L35.49 39.3823C35.62 39.8107 35.91 40.1794 36.31 40.3985C36.71 40.6177 37.16 40.6675 37.59 40.538C38.49 40.279 39.01 39.3325 38.75 38.4359L35.89 28.6227L32.38 28.7422L32.39 28.7323Z" fill="#215679"/>
<path d="M26.33 29.6688C25.54 29.6688 24.75 29.4695 24.04 29.081C22.92 28.4733 22.11 27.4671 21.76 26.2516L20.36 21.4397C19.63 18.9291 21.09 16.2989 23.61 15.5617L27.06 14.5654C27.67 14.3861 28.32 14.7448 28.5 15.3525L31.9 27.0486C32.08 27.6663 31.72 28.3039 31.11 28.4832L27.66 29.4795C27.22 29.609 26.78 29.6688 26.33 29.6688ZM24.25 17.7834C22.96 18.1619 22.22 19.5069 22.59 20.7821L23.99 25.5941C24.17 26.2118 24.58 26.7199 25.15 27.0387C25.72 27.3475 26.38 27.4272 27 27.2479L29.33 26.5704L26.58 17.1059L24.25 17.7734V17.7834Z" fill="#215679"/>
<path d="M62.57 12.9913C62.06 12.9913 61.6 12.6625 61.45 12.1544C61.27 11.5367 61.63 10.8991 62.25 10.7198L66.83 9.39478C67.45 9.21545 68.1 9.57411 68.27 10.1818C68.45 10.7995 68.09 11.4371 67.47 11.6164L62.89 12.9415C62.78 12.9714 62.67 12.9913 62.57 12.9913Z" fill="#215679"/>
<path d="M60.67 6.48565C60.48 6.48565 60.29 6.43583 60.11 6.34617C59.55 6.03733 59.34 5.32998 59.65 4.77207L61.95 0.607689C62.26 0.0497807 62.97 -0.159435 63.53 0.149407C64.09 0.458249 64.3 1.1656 63.99 1.7235L61.69 5.88789C61.48 6.27643 61.08 6.48565 60.67 6.48565Z" fill="#215679"/>
<path d="M68.64 21.7982C68.45 21.7982 68.26 21.7484 68.08 21.6587L63.9 19.3673C63.34 19.0585 63.13 18.3511 63.44 17.7932C63.75 17.2353 64.46 17.0261 65.02 17.335L69.2 19.6264C69.76 19.9352 69.97 20.6426 69.66 21.2005C69.45 21.589 69.05 21.7982 68.64 21.7982Z" fill="#215679"/>
</svg>
