<svg width="72" height="72" viewBox="0 0 72 72" fill="none" xmlns="http://www.w3.org/2000/svg">
<g clip-path="url(#clip0_149_14240)">
<path d="M68.05 14.98C68.05 13.37 66.74 12.07 65.14 12.07H61.17C59.56 12.07 58.26 13.38 58.26 14.98V53.11C58.26 53.27 58.29 53.41 58.36 53.55V53.57L62.17 61.74C62.35 62.12 62.73 62.37 63.16 62.37C63.59 62.37 63.97 62.12 64.15 61.74L67.99 53.57V53.55C68.05 53.42 68.09 53.27 68.09 53.1V48.09L68.06 14.98H68.05ZM60.44 52.02V19.81H62.08V52.01H60.44V52.02ZM64.26 19.81H65.88L65.9 52.01H64.26V19.81ZM61.17 14.24H65.14C65.55 14.24 65.87 14.57 65.87 14.98V17.63H60.43V14.98C60.44 14.58 60.77 14.24 61.17 14.24ZM63.16 58.7L61.06 54.19H65.28L63.17 58.7H63.16Z" fill="#215679"/>
<path d="M52 9.44C51.11 8.88 50.06 8.58 48.97 8.58H43.42C42.49 7.06 40.91 6.05 39.11 6.05H37.83C37.56 2.66 34.96 0 31.8 0C28.64 0 26.04 2.67 25.78 6.05H24.49C22.69 6.05 21.1 7.06 20.18 8.58H14.36C11.28 8.58 8.77 11.31 8.77 14.68V26.1L4.26 30.45C4.06 30.66 3.93 30.93 3.93 31.24V69.11C3.93 70.71 5.26 72.01 6.9 72.01H37.94C39.57 72.01 40.91 70.7 40.91 69.11V65.86H49.26C50.48 65.86 51.62 65.44 52.59 64.67C53.87 63.64 54.61 62.01 54.61 60.23V14.32C54.59 12.27 53.59 10.41 51.99 9.44H52ZM24.49 8.23H26.89C27.2 8.23 27.5 8.1 27.7 7.87C27.9 7.65 28 7.33 27.97 7.03C27.96 6.89 27.95 6.75 27.95 6.6C27.95 4.16 29.68 2.18 31.81 2.18C33.94 2.18 35.67 4.16 35.67 6.6C35.67 6.75 35.66 6.88 35.65 7.02C35.62 7.34 35.72 7.64 35.92 7.88C36.12 8.11 36.43 8.24 36.73 8.24H39.11C40.76 8.24 42.1 9.79 42.1 11.71V13.48H21.5V11.71C21.5 9.8 22.84 8.24 24.49 8.24V8.23ZM10.63 27.34L11.18 26.8V29.43C11.18 29.82 10.83 30.15 10.39 30.15H7.71L10.62 27.34H10.63ZM38.71 69.1C38.71 69.49 38.36 69.82 37.92 69.82H6.89C6.46 69.82 6.1 69.51 6.1 69.1V32.32H10.4C12.03 32.32 13.37 31.01 13.37 29.42V25.31H37.93C38.36 25.31 38.72 25.64 38.72 26.03V69.1H38.71ZM52.41 60.22C52.41 61.34 51.97 62.35 51.19 62.97C50.62 63.43 49.94 63.68 49.23 63.68H40.88V26.03C40.88 24.43 39.55 23.13 37.91 23.13H12.27C12.12 23.13 11.99 23.16 11.85 23.21C11.78 23.24 11.73 23.29 11.66 23.33C11.6 23.36 11.55 23.39 11.5 23.43H11.49L10.94 23.97V14.66C10.94 12.5 12.47 10.75 14.35 10.75H19.39C19.34 11.05 19.3 11.37 19.3 11.68V14.54C19.3 15.15 19.78 15.63 20.39 15.63H43.19C43.8 15.63 44.28 15.15 44.28 14.54V11.7C44.28 11.37 44.24 11.07 44.19 10.77H48.96C49.65 10.77 50.28 10.95 50.84 11.3C51.81 11.89 52.4 13.04 52.4 14.33V60.23L52.41 60.22Z" fill="#215679"/>
<path d="M32.85 34.99H17.43C16.82 34.99 16.34 35.47 16.34 36.08C16.34 36.69 16.82 37.17 17.43 37.17H32.85C33.46 37.17 33.94 36.69 33.94 36.08C33.94 35.47 33.46 34.99 32.85 34.99Z" fill="#215679"/>
<path d="M32.85 42.65H11.96C11.35 42.65 10.87 43.13 10.87 43.74C10.87 44.35 11.35 44.83 11.96 44.83H32.85C33.46 44.83 33.94 44.35 33.94 43.74C33.94 43.13 33.46 42.65 32.85 42.65Z" fill="#215679"/>
<path d="M32.85 50.31H11.96C11.35 50.31 10.87 50.79 10.87 51.4C10.87 52.01 11.35 52.49 11.96 52.49H32.85C33.46 52.49 33.94 52.01 33.94 51.4C33.94 50.79 33.46 50.31 32.85 50.31Z" fill="#215679"/>
<path d="M32.85 57.97H11.96C11.35 57.97 10.87 58.45 10.87 59.06C10.87 59.67 11.35 60.15 11.96 60.15H32.85C33.46 60.15 33.94 59.67 33.94 59.06C33.94 58.45 33.46 57.97 32.85 57.97Z" fill="#215679"/>
</g>
<defs>
<clipPath id="clip0_149_14240">
<rect width="72" height="72.01" fill="white"/>
</clipPath>
</defs>
</svg>
