<svg width="73" height="72" viewBox="0 0 73 72" fill="none" xmlns="http://www.w3.org/2000/svg">
<path d="M66.0323 44.195V9.28899C66.0323 8.06078 65.5471 6.87385 64.6697 6.00688C63.8026 5.13991 62.6155 4.6445 61.3871 4.6445H59.0645V3.48853C59.0645 2.55963 58.6929 1.68234 58.0426 1.02179C57.3923 0.37156 56.5045 0 55.5755 0C54.6465 0 53.769 0.37156 53.1084 1.02179C52.4581 1.67202 52.0865 2.55963 52.0865 3.48853V4.6445H14.9355V3.48853C14.9355 2.55963 14.5639 1.68234 13.9136 1.02179C13.2632 0.37156 12.3755 0 11.4465 0C10.5174 0 9.64001 0.37156 8.97936 1.02179C8.32904 1.67202 7.95743 2.55963 7.95743 3.48853V4.6445H5.63485C4.40646 4.6445 3.21936 5.12959 2.35227 6.00688C1.48517 6.87385 0.989685 8.06078 0.989685 9.28899V53.4117C0.989685 54.6399 1.47485 55.8268 2.35227 56.6938C3.21936 57.5608 4.40646 58.0562 5.63485 58.0562H42.8581C43.0542 60.6158 43.9007 63.0929 45.3148 65.2397C46.729 67.3865 48.68 69.1307 50.9613 70.3073C53.2426 71.4943 55.7923 72.0723 58.3626 71.9897C60.9329 71.9071 63.4413 71.1743 65.6503 69.8532C67.8594 68.5321 69.6865 66.6743 70.9768 64.445C72.2568 62.2156 72.9587 59.6972 72.9897 57.1273C73.031 54.5573 72.4116 52.0183 71.1832 49.758C69.9652 47.4977 68.1897 45.578 66.0219 44.195H66.0323ZM54.4194 3.48853C54.4194 3.1789 54.5432 2.88991 54.76 2.66284C54.9768 2.4461 55.2761 2.32225 55.5858 2.32225C55.8955 2.32225 56.1845 2.4461 56.4116 2.66284C56.6284 2.87959 56.7523 3.1789 56.7523 3.48853V8.13303C56.7523 8.44266 56.6284 8.73165 56.4116 8.95872C56.1948 9.17546 55.8955 9.29931 55.5858 9.29931C55.2761 9.29931 54.9871 9.17546 54.76 8.95872C54.5432 8.74197 54.4194 8.44266 54.4194 8.13303V3.48853ZM10.2903 3.48853C10.2903 3.1789 10.4142 2.88991 10.631 2.66284C10.8477 2.4461 11.1471 2.32225 11.4568 2.32225C11.7665 2.32225 12.0555 2.4461 12.2826 2.66284C12.4994 2.87959 12.6232 3.1789 12.6232 3.48853V8.13303C12.6232 8.44266 12.4994 8.73165 12.2826 8.95872C12.0658 9.17546 11.7665 9.29931 11.4568 9.29931C11.1471 9.29931 10.8581 9.17546 10.631 8.95872C10.4142 8.74197 10.2903 8.44266 10.2903 8.13303V3.48853ZM5.64517 6.96674H7.96775V8.12271C7.96775 9.05161 8.33936 9.9289 8.98969 10.5894C9.64001 11.2397 10.5278 11.6112 11.4568 11.6112C12.3858 11.6112 13.2632 11.2397 13.9239 10.5894C14.5742 9.93922 14.9458 9.05161 14.9458 8.12271V6.96674H52.1071V8.12271C52.1071 9.05161 52.4787 9.9289 53.129 10.5894C53.7794 11.2397 54.6671 11.6112 55.5961 11.6112C56.5252 11.6112 57.4026 11.2397 58.0632 10.5894C58.7136 9.93922 59.0852 9.05161 59.0852 8.12271V6.96674H61.4077C62.0271 6.96674 62.6155 7.21445 63.049 7.64794C63.4826 8.08142 63.7303 8.66972 63.7303 9.28899V16.2557H3.32259V9.28899C3.32259 8.66972 3.57033 8.08142 4.00388 7.64794C4.43743 7.21445 5.02581 6.96674 5.64517 6.96674ZM3.32259 53.4117V18.578H63.7097V42.9564C61.8826 42.1927 59.9213 41.8005 57.9394 41.7901C55.9574 41.7901 53.9961 42.172 52.1587 42.9255C50.3213 43.6789 48.6594 44.7936 47.2555 46.1869C45.8516 47.5906 44.7368 49.2523 43.9729 51.0791H42.8168V46.4346H45.1394V44.1124H41.6503C41.3407 44.1124 41.0516 44.2362 40.8245 44.453C40.6077 44.6697 40.4839 44.969 40.4839 45.2787V52.2454C40.4839 52.555 40.6077 52.844 40.8245 53.0711C41.0413 53.2878 41.3407 53.4117 41.6503 53.4117H43.2297C43.0439 54.1755 42.9303 54.9495 42.8684 55.7339H5.64517C5.02581 55.7339 4.43743 55.4862 4.00388 55.0528C3.57033 54.6193 3.32259 54.031 3.32259 53.4117ZM50.9407 67.5826V67.3452C50.9407 65.4977 51.6736 63.7225 52.9845 62.422C54.2955 61.1112 56.0606 60.3784 57.9084 60.3784C59.7561 60.3784 61.5316 61.1112 62.8323 62.422C64.1432 63.7328 64.8761 65.4977 64.8761 67.3452V67.5826C62.8013 68.945 60.3858 69.6674 57.9084 69.6674C55.431 69.6674 53.0155 68.945 50.9407 67.5826ZM54.4194 54.5677C54.4194 53.8761 54.6258 53.2053 55.0077 52.6273C55.3897 52.0493 55.9368 51.6055 56.5665 51.3475C57.2065 51.0791 57.9084 51.0172 58.5794 51.1514C59.2503 51.2856 59.88 51.6158 60.3652 52.1009C60.8503 52.586 61.1806 53.2053 61.3148 53.8865C61.449 54.5573 61.3768 55.2592 61.1187 55.8991C60.8503 56.539 60.4065 57.0757 59.8387 57.4576C59.2607 57.8394 58.5897 58.0459 57.8981 58.0459C56.969 58.0459 56.0916 57.6743 55.431 57.0241C54.7806 56.3739 54.409 55.4862 54.409 54.5573L54.4194 54.5677ZM67.0542 65.7867C66.7961 64.2901 66.1768 62.8865 65.2581 61.6789C64.329 60.4817 63.1316 59.5218 61.7484 58.8922C62.6361 58.1078 63.2555 57.086 63.5445 55.9404C63.8336 54.7947 63.7613 53.5872 63.3381 52.4931C62.9252 51.3888 62.1819 50.4392 61.2116 49.7683C60.2413 49.0975 59.0852 48.7362 57.9084 48.7362C56.7316 48.7362 55.5755 49.0975 54.6052 49.7683C53.6348 50.4392 52.8916 51.3888 52.4787 52.4931C52.0658 53.5975 51.9935 54.805 52.2723 55.9404C52.5613 57.086 53.1806 58.1181 54.0684 58.8922C52.6852 59.5218 51.4877 60.4817 50.5587 61.6789C49.6297 62.8761 49.0103 64.2901 48.7626 65.7867C47.0077 63.9908 45.831 61.7099 45.3561 59.2431C44.8916 56.7764 45.16 54.2271 46.1406 51.9048C47.1213 49.5929 48.7523 47.6112 50.8477 46.2282C52.9432 44.8349 55.4 44.1021 57.9084 44.1021C60.4168 44.1021 62.8736 44.8452 64.969 46.2282C67.0645 47.6216 68.6955 49.5929 69.6761 51.9048C70.6568 54.2167 70.9252 56.7661 70.4607 59.2431C69.9961 61.7099 68.809 63.9908 67.0542 65.7867Z" fill="#215679"/>
<path d="M13.7794 20.9003H6.81162C6.50195 20.9003 6.21291 21.0241 5.98582 21.2409C5.76904 21.4576 5.64517 21.7569 5.64517 22.0666V29.0333C5.64517 29.3429 5.76904 29.6319 5.98582 29.859C6.20259 30.0757 6.50195 30.1996 6.81162 30.1996H13.7794C14.089 30.1996 14.3781 30.0757 14.6052 29.859C14.8219 29.6422 14.9458 29.3429 14.9458 29.0333V22.0666C14.9458 21.7569 14.8219 21.4679 14.6052 21.2409C14.3884 21.0241 14.089 20.9003 13.7794 20.9003ZM10.9716 23.2225L7.96775 26.226V23.2225H10.9716ZM9.60904 27.867L12.6129 24.8636V27.867H9.60904Z" fill="#215679"/>
<path d="M25.3819 20.9003H18.4142C18.1045 20.9003 17.8155 21.0241 17.5884 21.2409C17.3613 21.4576 17.2477 21.7569 17.2477 22.0666V29.0333C17.2477 29.3429 17.3716 29.6319 17.5884 29.859C17.8052 30.086 18.1045 30.1996 18.4142 30.1996H25.3819C25.6916 30.1996 25.9806 30.0757 26.2077 29.859C26.4348 29.6422 26.5484 29.3429 26.5484 29.0333V22.0666C26.5484 21.7569 26.4245 21.4679 26.2077 21.2409C25.991 21.0138 25.6916 20.9003 25.3819 20.9003ZM22.5845 23.2225L19.5806 26.226V23.2225H22.5845ZM21.2219 27.867L24.2258 24.8636V27.867H21.2219Z" fill="#215679"/>
<path d="M37.0052 20.9003H30.0374C29.7277 20.9003 29.4387 21.0241 29.2116 21.2409C28.9845 21.4576 28.871 21.7569 28.871 22.0666V29.0333C28.871 29.3429 28.9948 29.6319 29.2116 29.859C29.4284 30.086 29.7277 30.1996 30.0374 30.1996H37.0052C37.3148 30.1996 37.6039 30.0757 37.831 29.859C38.0477 29.6422 38.1716 29.3429 38.1716 29.0333V22.0666C38.1716 21.7569 38.0477 21.4679 37.831 21.2409C37.6142 21.0241 37.3148 20.9003 37.0052 20.9003ZM34.1974 23.2225L31.1936 26.226V23.2225H34.1974ZM32.8348 27.867L35.8387 24.8636V27.867H32.8348Z" fill="#215679"/>
<path d="M41.6503 30.1892H48.6181C48.9277 30.1892 49.2168 30.0654 49.4439 29.8486C49.6606 29.6319 49.7845 29.3326 49.7845 29.0229V22.0562C49.7845 21.7465 49.6606 21.4576 49.4439 21.2305C49.2271 21.0137 48.9277 20.8899 48.6181 20.8899H41.6503C41.3406 20.8899 41.0516 21.0137 40.8245 21.2305C40.6077 21.4472 40.4839 21.7465 40.4839 22.0562V29.0229C40.4839 29.3326 40.6077 29.6215 40.8245 29.8486C41.0413 30.0654 41.3406 30.1892 41.6503 30.1892ZM42.8065 23.2225H47.4516V27.867H42.8065V23.2225Z" fill="#215679"/>
<path d="M53.2529 30.1892H60.2206C60.5303 30.1892 60.8194 30.0654 61.0465 29.8486C61.2632 29.6319 61.3871 29.3326 61.3871 29.0229V22.0562C61.3871 21.7465 61.2632 21.4576 61.0465 21.2305C60.8297 21.0137 60.5303 20.8899 60.2206 20.8899H53.2529C52.9432 20.8899 52.6542 21.0137 52.4271 21.2305C52.2103 21.4472 52.0865 21.7465 52.0865 22.0562V29.0229C52.0865 29.3326 52.2103 29.6215 52.4271 29.8486C52.6439 30.0654 52.9432 30.1892 53.2529 30.1892ZM54.4194 23.2225H59.0645V27.867H54.4194V23.2225Z" fill="#215679"/>
<path d="M13.7794 32.5115H6.81162C6.50195 32.5115 6.21291 32.6353 5.98582 32.8521C5.76904 33.0688 5.64517 33.3681 5.64517 33.6778V40.6445C5.64517 40.9541 5.76904 41.2431 5.98582 41.4702C6.20259 41.6869 6.50195 41.8108 6.81162 41.8108H13.7794C14.089 41.8108 14.3781 41.6869 14.6052 41.4702C14.8219 41.2534 14.9458 40.9541 14.9458 40.6445V33.6778C14.9458 33.3681 14.8219 33.0791 14.6052 32.8521C14.3884 32.6353 14.089 32.5115 13.7794 32.5115ZM10.9716 34.8337L7.96775 37.8372V34.8337H10.9716ZM9.60904 39.4782L12.6129 36.4748V39.4782H9.60904Z" fill="#215679"/>
<path d="M25.3819 32.5115H18.4142C18.1045 32.5115 17.8155 32.6353 17.5884 32.8521C17.3716 33.0688 17.2477 33.3681 17.2477 33.6778V40.6445C17.2477 40.9541 17.3716 41.2431 17.5884 41.4702C17.8052 41.6869 18.1045 41.8108 18.4142 41.8108H25.3819C25.6916 41.8108 25.9806 41.6869 26.2077 41.4702C26.4245 41.2534 26.5484 40.9541 26.5484 40.6445V33.6778C26.5484 33.3681 26.4245 33.0791 26.2077 32.8521C25.991 32.6353 25.6916 32.5115 25.3819 32.5115ZM24.2258 39.4782H19.5806V34.8337H24.2258V39.4782Z" fill="#215679"/>
<path d="M37.0052 32.5115H30.0374C29.7277 32.5115 29.4387 32.6353 29.2116 32.8521C28.9948 33.0688 28.871 33.3681 28.871 33.6778V40.6445C28.871 40.9541 28.9948 41.2431 29.2116 41.4702C29.4284 41.6869 29.7277 41.8108 30.0374 41.8108H37.0052C37.3148 41.8108 37.6039 41.6869 37.831 41.4702C38.0477 41.2534 38.1716 40.9541 38.1716 40.6445V33.6778C38.1716 33.3681 38.0477 33.0791 37.831 32.8521C37.6142 32.6353 37.3148 32.5115 37.0052 32.5115ZM35.8387 39.4782H31.1936V34.8337H35.8387V39.4782Z" fill="#215679"/>
<path d="M41.6503 41.8004H48.6181C48.9277 41.8004 49.2168 41.6766 49.4439 41.4598C49.6606 41.2431 49.7845 40.9438 49.7845 40.6341V33.6674C49.7845 33.3577 49.6606 33.0688 49.4439 32.8417C49.2271 32.625 48.9277 32.5011 48.6181 32.5011H41.6503C41.3406 32.5011 41.0516 32.625 40.8245 32.8417C40.6077 33.0584 40.4839 33.3577 40.4839 33.6674V40.6341C40.4839 40.9438 40.6077 41.2327 40.8245 41.4598C41.0413 41.6766 41.3406 41.8004 41.6503 41.8004ZM44.4477 39.4782L47.4516 36.4747V39.4782H44.4477ZM45.8103 34.8337L42.8065 37.8371V34.8337H45.8103Z" fill="#215679"/>
<path d="M54.4194 34.8337H59.0645V40.6341H61.3871V33.6674C61.3871 33.3577 61.2632 33.0688 61.0465 32.8417C60.8297 32.625 60.5303 32.5011 60.2206 32.5011H53.2529C52.9432 32.5011 52.6542 32.625 52.4271 32.8417C52.2103 33.0584 52.0865 33.3577 52.0865 33.6674V40.6341H54.409V34.8337H54.4194Z" fill="#215679"/>
<path d="M13.7794 44.1227H6.81162C6.50195 44.1227 6.21291 44.2465 5.98582 44.4633C5.76904 44.68 5.64517 44.9793 5.64517 45.289V52.2557C5.64517 52.5653 5.76904 52.8543 5.98582 53.0814C6.20259 53.2981 6.50195 53.422 6.81162 53.422H13.7794C14.089 53.422 14.3781 53.2981 14.6052 53.0814C14.8219 52.8647 14.9458 52.5653 14.9458 52.2557V45.289C14.9458 44.9793 14.8219 44.6903 14.6052 44.4633C14.3884 44.2465 14.089 44.1227 13.7794 44.1227ZM12.6129 51.0894H7.96775V46.4449H12.6129V51.0894Z" fill="#215679"/>
<path d="M25.3819 44.1227H18.4142C18.1045 44.1227 17.8155 44.2465 17.5884 44.4633C17.3716 44.68 17.2477 44.9793 17.2477 45.289V52.2557C17.2477 52.5653 17.3716 52.8543 17.5884 53.0814C17.8052 53.2981 18.1045 53.422 18.4142 53.422H25.3819C25.6916 53.422 25.9806 53.2981 26.2077 53.0814C26.4245 52.8647 26.5484 52.5653 26.5484 52.2557V45.289C26.5484 44.9793 26.4245 44.6903 26.2077 44.4633C25.991 44.2465 25.6916 44.1227 25.3819 44.1227ZM22.5845 46.4449L19.5806 49.4484V46.4449H22.5845ZM21.2219 51.0894L24.2258 48.086V51.0894H21.2219Z" fill="#215679"/>
<path d="M37.0052 44.1227H30.0374C29.7277 44.1227 29.4387 44.2465 29.2116 44.4633C28.9948 44.68 28.871 44.9793 28.871 45.289V52.2557C28.871 52.5653 28.9948 52.8543 29.2116 53.0814C29.4284 53.2981 29.7277 53.422 30.0374 53.422H37.0052C37.3148 53.422 37.6039 53.2981 37.831 53.0814C38.0477 52.8647 38.1716 52.5653 38.1716 52.2557V45.289C38.1716 44.9793 38.0477 44.6903 37.831 44.4633C37.6142 44.2465 37.3148 44.1227 37.0052 44.1227ZM35.8387 51.0894H31.1936V46.4449H35.8387V51.0894Z" fill="#215679"/>
</svg>
