<svg width="72" height="72" viewBox="0 0 72 72" fill="none" xmlns="http://www.w3.org/2000/svg">
<g clip-path="url(#clip0_149_14238)">
<path d="M53.5978 72H6.4581C4.7486 72 3.10615 71.3298 1.88827 70.1431C0.681564 68.9565 0 67.3414 0 65.6493V6.35068C0 4.66962 0.681564 3.05448 1.88827 1.85686C3.10615 0.670227 4.7486 0 6.4581 0H53.5978C55.3073 0 56.9497 0.670227 58.1564 1.85686C59.3631 3.04349 60.0447 4.65863 60.0447 6.33969V16.8436C60.0447 17.1732 59.9106 17.4808 59.676 17.7226C59.4413 17.9533 59.1173 18.0852 58.7821 18.0852C58.4469 18.0852 58.1341 17.9533 57.8883 17.7226C57.6536 17.4918 57.5196 17.1732 57.5196 16.8436V6.35068C57.5196 5.31787 57.1061 4.34 56.3687 3.61483C55.6313 2.88967 54.6257 2.48314 53.5866 2.47215H6.4581C5.40782 2.47215 4.41341 2.87868 3.67598 3.61483C2.93855 4.34 2.52514 5.32886 2.51397 6.35068V65.6493C2.51397 66.6821 2.92737 67.66 3.67598 68.3852C4.41341 69.1103 5.41899 69.5169 6.4581 69.5278H53.5978C54.648 69.5278 55.6425 69.1213 56.3799 68.3852C57.1173 67.66 57.5307 66.6711 57.5307 65.6493V41.7629C57.5307 41.4332 57.6648 41.1256 57.8994 40.8839C58.1341 40.6531 58.4581 40.5213 58.7933 40.5213C59.1285 40.5213 59.4413 40.6531 59.6871 40.8839C59.9218 41.1146 60.0559 41.4332 60.0559 41.7629V65.6493C60.0559 67.3304 59.3743 68.9455 58.1676 70.1322C56.9609 71.3188 55.3184 71.989 53.6089 71.989L53.5978 72Z" fill="#215679"/>
<path d="M54.8603 53.6512C54.7151 53.6512 54.5698 53.6292 54.4358 53.5742L46.2905 50.6626C46.1341 50.6077 45.9888 50.5198 45.8659 50.4099C45.743 50.3 45.6425 50.1682 45.5754 50.0253C45.5084 49.8825 45.4637 49.7177 45.4637 49.5529C45.4637 49.3881 45.486 49.2233 45.5419 49.0804L60.1899 9.51503C60.2458 9.36121 60.3352 9.21837 60.4469 9.09751C60.5587 8.97665 60.6927 8.87776 60.838 8.81184C60.9832 8.74592 61.1508 8.70197 61.3184 8.70197C61.486 8.70197 61.6536 8.72394 61.7989 8.77888L69.9441 11.6905C70.257 11.8004 70.514 12.0311 70.648 12.3278C70.7933 12.6244 70.8045 12.9651 70.6927 13.2727L56.0447 52.8491C55.9553 53.0908 55.7989 53.2886 55.5866 53.4424C55.3743 53.5852 55.1285 53.6621 54.8603 53.6621V53.6512ZM48.324 48.7508L54.1006 50.8164L67.8883 13.5694L62.1117 11.5037L48.3352 48.7508H48.324Z" fill="#215679"/>
<path d="M69.5084 14.0748C69.3631 14.0748 69.2179 14.0528 69.0726 13.9979L60.9274 11.0862C60.7709 11.0313 60.6257 10.9434 60.5028 10.8335C60.3799 10.7236 60.2793 10.5918 60.2123 10.449C60.1452 10.3061 60.1006 10.1413 60.1006 9.9765C60.1006 9.81169 60.1229 9.64687 60.1788 9.50404L61.1508 6.86708C61.6536 5.51564 62.6816 4.4169 64 3.8126C65.3296 3.2083 66.838 3.14237 68.2123 3.62582L68.3464 3.66976C69.0279 3.91149 69.6536 4.28506 70.1899 4.7685C70.7263 5.25194 71.162 5.83427 71.4637 6.47154C71.7654 7.11979 71.9441 7.81199 71.9776 8.52617C72.0112 9.24034 71.8994 9.95452 71.6536 10.6138L70.6816 13.2507C70.5922 13.4924 70.4357 13.6902 70.2235 13.844C70.0112 13.9869 69.7654 14.0638 69.4972 14.0638L69.5084 14.0748ZM62.9721 9.18541L68.7486 11.251L69.2961 9.76774C69.4302 9.40515 69.4972 9.0206 69.4749 8.62505C69.4525 8.2405 69.3631 7.85594 69.1955 7.50434C69.0279 7.15275 68.7933 6.83412 68.5028 6.57042C68.2123 6.30673 67.8659 6.10895 67.4972 5.97711L67.3631 5.93316C66.6145 5.66946 65.7877 5.70242 65.0614 6.03204C64.3352 6.36166 63.7765 6.96597 63.5084 7.70212L62.9609 9.17442L62.9721 9.18541Z" fill="#215679"/>
<path d="M47.0391 62.3202C46.8939 62.3202 46.7486 62.2982 46.6034 62.2433C46.3687 62.1554 46.1564 62.0015 46.0112 61.8038C45.8659 61.606 45.7765 61.3643 45.7765 61.1116L45.4525 49.5199C45.4525 49.3221 45.486 49.1134 45.5866 48.9376C45.676 48.7618 45.8101 48.597 45.9777 48.4871C46.1453 48.3663 46.3352 48.2893 46.5363 48.2674C46.7374 48.2454 46.9497 48.2674 47.1397 48.3333L55.2849 51.2449C55.4749 51.3109 55.6536 51.4317 55.7877 51.5746C55.9218 51.7284 56.0223 51.9042 56.0782 52.1019C56.1341 52.2997 56.1341 52.4975 56.0782 52.6953C56.0335 52.893 55.933 53.0688 55.7989 53.2227L47.9777 61.8917C47.8547 62.0235 47.7095 62.1224 47.5531 62.1993C47.3855 62.2762 47.2179 62.3092 47.0391 62.3092V62.3202ZM48.0223 51.2779L48.2123 57.9252L52.6927 52.948L48.0223 51.2779Z" fill="#215679"/>
<path d="M55.1732 40.3345C54.9721 40.3345 54.7709 40.2906 54.5922 40.1917C54.4134 40.0928 54.257 39.9719 54.1452 39.8071C54.0335 39.6423 53.9553 39.4555 53.933 39.2577C53.9106 39.06 53.933 38.8622 54 38.6754L59.8771 22.8097C59.9218 22.6449 60.0112 22.5021 60.1117 22.3702C60.2123 22.2384 60.3575 22.1285 60.514 22.0626C60.6704 21.9857 60.838 21.9417 61.0056 21.9307C61.1732 21.9197 61.3519 21.9417 61.5084 22.0076C61.6648 22.0626 61.8212 22.1505 61.9441 22.2713C62.067 22.3922 62.1676 22.524 62.2346 22.6888C62.3017 22.8427 62.3352 23.0075 62.3352 23.1833C62.3352 23.3591 62.3017 23.5239 62.2235 23.6777L56.3575 39.5434C56.2681 39.7851 56.1117 39.9829 55.8994 40.1367C55.6871 40.2796 55.4413 40.3565 55.1844 40.3565L55.1732 40.3345Z" fill="#215679"/>
<path d="M47.6983 25.7873H7.64246C7.30726 25.7873 6.99442 25.6554 6.74861 25.4247C6.51397 25.194 6.37989 24.8753 6.37989 24.5457C6.37989 24.2161 6.51397 23.9084 6.74861 23.6667C6.98324 23.436 7.30726 23.3041 7.64246 23.3041H47.6983C48.0335 23.3041 48.3464 23.436 48.5922 23.6667C48.8268 23.8975 48.9609 24.2161 48.9609 24.5457C48.9609 24.8753 48.8268 25.183 48.5922 25.4247C48.3575 25.6554 48.0335 25.7873 47.6983 25.7873Z" fill="#215679"/>
<path d="M47.6983 32.5335H7.64246C7.30726 32.5335 6.99442 32.4016 6.74861 32.1709C6.51397 31.9402 6.37989 31.6215 6.37989 31.2919C6.37989 30.9623 6.51397 30.6547 6.74861 30.4129C6.98324 30.1822 7.30726 30.0504 7.64246 30.0504H47.6983C48.0335 30.0504 48.3464 30.1822 48.5922 30.4129C48.8268 30.6437 48.9609 30.9623 48.9609 31.2919C48.9609 31.6215 48.8268 31.9292 48.5922 32.1709C48.3575 32.4016 48.0335 32.5335 47.6983 32.5335Z" fill="#215679"/>
<path d="M46.1229 39.2797H7.64246C7.30726 39.2797 6.99442 39.1479 6.74861 38.9171C6.51397 38.6864 6.37989 38.3678 6.37989 38.0382C6.37989 37.7085 6.51397 37.4009 6.74861 37.1592C6.98324 36.9284 7.30726 36.7966 7.64246 36.7966H46.1229C46.4581 36.7966 46.771 36.9284 47.0168 37.1592C47.2514 37.3899 47.3855 37.7085 47.3855 38.0382C47.3855 38.3678 47.2514 38.6754 47.0168 38.9171C46.7821 39.1479 46.4581 39.2797 46.1229 39.2797Z" fill="#215679"/>
<path d="M42.9832 46.0259H7.64246C7.30726 46.0259 6.99442 45.8941 6.74861 45.6634C6.51397 45.4326 6.37989 45.114 6.37989 44.7844C6.37989 44.4548 6.51397 44.1471 6.74861 43.9054C6.98324 43.6747 7.30726 43.5428 7.64246 43.5428H42.9832C43.3184 43.5428 43.6313 43.6747 43.8771 43.9054C44.1117 44.1361 44.2458 44.4548 44.2458 44.7844C44.2458 45.114 44.1117 45.4216 43.8771 45.6634C43.6425 45.8941 43.3184 46.0259 42.9832 46.0259Z" fill="#215679"/>
<path d="M41.4078 52.7722H7.64246C7.30726 52.7722 6.99442 52.6403 6.74861 52.4096C6.51397 52.1789 6.37989 51.8602 6.37989 51.5306C6.37989 51.201 6.51397 50.8933 6.74861 50.6516C6.98324 50.4209 7.30726 50.289 7.64246 50.289H41.4078C41.743 50.289 42.0559 50.4209 42.3017 50.6516C42.5363 50.8823 42.6704 51.201 42.6704 51.5306C42.6704 51.8602 42.5363 52.1679 42.3017 52.4096C42.067 52.6403 41.743 52.7722 41.4078 52.7722Z" fill="#215679"/>
<path d="M42.9832 59.5184H7.64246C7.30726 59.5184 6.99442 59.3865 6.74861 59.1558C6.51397 58.9251 6.37989 58.6064 6.37989 58.2768C6.37989 57.9472 6.51397 57.6396 6.74861 57.3978C6.98324 57.1671 7.30726 57.0352 7.64246 57.0352H42.9832C43.3184 57.0352 43.6313 57.1671 43.8771 57.3978C44.1117 57.6286 44.2458 57.9472 44.2458 58.2768C44.2458 58.6064 44.1117 58.9141 43.8771 59.1558C43.6425 59.3865 43.3184 59.5184 42.9832 59.5184Z" fill="#215679"/>
<path d="M52.4134 66.2646H7.64246C7.30726 66.2646 6.99442 66.1328 6.74861 65.902C6.51397 65.6713 6.37989 65.3527 6.37989 65.023C6.37989 64.6934 6.51397 64.3858 6.74861 64.1441C6.98324 63.9133 7.30726 63.7815 7.64246 63.7815H52.4134C52.7486 63.7815 53.0615 63.9133 53.3073 64.1441C53.5419 64.3748 53.676 64.6934 53.676 65.023C53.676 65.3527 53.5419 65.6603 53.3073 65.902C53.0726 66.1328 52.7486 66.2646 52.4134 66.2646Z" fill="#215679"/>
<path d="M8.34637 19.041C8.01118 19.041 7.69833 18.9092 7.45252 18.6785C7.21788 18.4477 7.0838 18.1291 7.0838 17.7995V6.96596C7.0838 6.63634 7.21788 6.3287 7.45252 6.08698C7.68715 5.85624 8.01118 5.7244 8.34637 5.7244C8.68157 5.7244 8.99442 5.85624 9.24023 6.08698C9.47486 6.31771 9.60894 6.63634 9.60894 6.96596V17.8105C9.60894 18.1401 9.47486 18.4477 9.24023 18.6895C9.00559 18.9202 8.68157 19.052 8.34637 19.052V19.041Z" fill="#215679"/>
<path d="M15.3296 8.20753H8.34637C8.01118 8.20753 7.69833 8.07569 7.45252 7.84495C7.21788 7.61422 7.0838 7.29558 7.0838 6.96596C7.0838 6.63634 7.21788 6.3287 7.45252 6.08698C7.68715 5.85624 8.01118 5.7244 8.34637 5.7244H15.3296C15.6648 5.7244 15.9777 5.85624 16.2235 6.08698C16.4581 6.31771 16.5922 6.63634 16.5922 6.96596C16.5922 7.29558 16.4581 7.60323 16.2235 7.84495C15.9888 8.07569 15.6648 8.20753 15.3296 8.20753Z" fill="#215679"/>
<path d="M15.3296 19.041H8.34637C8.01118 19.041 7.69833 18.9092 7.45252 18.6785C7.21788 18.4477 7.0838 18.1291 7.0838 17.7995C7.0838 17.4699 7.21788 17.1622 7.45252 16.9205C7.68715 16.6898 8.01118 16.5579 8.34637 16.5579H15.3296C15.6648 16.5579 15.9777 16.6898 16.2235 16.9205C16.4581 17.1512 16.5922 17.4699 16.5922 17.7995C16.5922 18.1291 16.4581 18.4367 16.2235 18.6785C15.9888 18.9092 15.6648 19.041 15.3296 19.041Z" fill="#215679"/>
<path d="M13.5419 13.6023H8.33519C8 13.6023 7.68715 13.4705 7.44134 13.2397C7.2067 13.009 7.07262 12.6904 7.07262 12.3608C7.07262 12.0311 7.2067 11.7235 7.44134 11.4818C7.67598 11.24 8 11.1192 8.33519 11.1192H13.5419C13.8771 11.1192 14.1899 11.251 14.4358 11.4818C14.6704 11.7125 14.8045 12.0311 14.8045 12.3608C14.8045 12.6904 14.6704 12.998 14.4358 13.2397C14.2011 13.4705 13.8771 13.6023 13.5419 13.6023Z" fill="#215679"/>
<path d="M19.0279 19.0411C18.8045 19.0411 18.581 18.9751 18.3799 18.8653C18.1899 18.7554 18.0223 18.5796 17.9218 18.3928C17.8101 18.195 17.7654 17.9753 17.7765 17.7445C17.7877 17.5248 17.8659 17.3051 17.9888 17.1183L25.3855 6.27377C25.5754 5.99909 25.8547 5.8123 26.1899 5.74638C26.514 5.68045 26.8603 5.74638 27.1285 5.93316C27.4078 6.11995 27.5978 6.39463 27.6648 6.72425C27.7318 7.04288 27.6648 7.38349 27.4749 7.64719L20.067 18.4917C19.9553 18.6565 19.7989 18.7993 19.6201 18.8872C19.4413 18.9861 19.2402 19.0301 19.0279 19.0301V19.0411Z" fill="#215679"/>
<path d="M26.4134 19.0411C26.2011 19.0411 26 18.9971 25.8212 18.8982C25.6425 18.7993 25.486 18.6675 25.3631 18.4917L17.9777 7.64719C17.7877 7.3725 17.7207 7.04288 17.7877 6.72425C17.8547 6.40562 18.0447 6.11995 18.324 5.93316C18.6033 5.74638 18.9385 5.68045 19.2626 5.74638C19.5866 5.8123 19.8771 5.99909 20.067 6.27377L27.4637 17.1183C27.5866 17.3051 27.6648 17.5248 27.676 17.7445C27.6871 17.9643 27.6313 18.195 27.5307 18.3928C27.419 18.5906 27.2626 18.7554 27.0614 18.8653C26.8603 18.9751 26.6369 19.0411 26.4134 19.0411Z" fill="#215679"/>
<path d="M38.3128 19.041C38.0559 19.041 37.8101 18.9641 37.5978 18.8213C37.3855 18.6785 37.2291 18.4697 37.1397 18.239L34.2458 10.5368L31.3631 18.228C31.2402 18.5246 31.0056 18.7554 30.7039 18.8872C30.4022 19.0191 30.067 19.0301 29.7654 18.9092C29.4637 18.7993 29.2067 18.5796 29.0726 18.2939C28.9274 18.0082 28.905 17.6786 29.0056 17.371L33.0615 6.52647C33.1508 6.28475 33.3073 6.08698 33.5196 5.94414C33.7318 5.80131 33.9777 5.7244 34.2346 5.7244C34.4916 5.7244 34.7374 5.80131 34.9497 5.94414C35.162 6.08698 35.3184 6.29574 35.4078 6.52647L39.4972 17.371C39.5531 17.5248 39.5754 17.6896 39.5754 17.8434C39.5754 18.0082 39.5307 18.1621 39.4637 18.3159C39.3966 18.4587 39.2961 18.5906 39.1732 18.7114C39.0503 18.8213 38.905 18.9092 38.7598 18.9641C38.6145 19.0191 38.4693 19.041 38.3128 19.041Z" fill="#215679"/>
<path d="M37.0615 15.6899H31.4413C31.1061 15.6899 30.7933 15.5581 30.5475 15.3273C30.3017 15.0966 30.1788 14.778 30.1788 14.4483C30.1788 14.1187 30.3129 13.8111 30.5475 13.5694C30.7821 13.3386 31.1061 13.2068 31.4413 13.2068H37.0615C37.3966 13.2068 37.7095 13.3386 37.9553 13.5694C38.1899 13.8001 38.324 14.1187 38.324 14.4483C38.324 14.778 38.1899 15.0856 37.9553 15.3273C37.7207 15.5581 37.3966 15.6899 37.0615 15.6899Z" fill="#215679"/>
<path d="M47.0614 19.0411C46.8156 19.0411 46.5698 18.9641 46.3687 18.8323C46.1676 18.7004 46 18.5027 45.9106 18.2829L43.7095 13.0969V17.7995C43.7095 18.1291 43.5754 18.4368 43.3408 18.6785C43.1061 18.9092 42.7821 19.0411 42.4469 19.0411C42.1117 19.0411 41.7989 18.9092 41.5531 18.6785C41.3184 18.4477 41.1844 18.1291 41.1844 17.7995V6.96598C41.1844 6.68031 41.2849 6.40562 41.4749 6.18588C41.6536 5.96613 41.9106 5.81231 42.2011 5.75737C42.4804 5.70243 42.7821 5.74638 43.0279 5.87823C43.2849 6.01008 43.486 6.21884 43.5978 6.48253L47.0726 14.6132L50.5587 6.48253C50.6704 6.21884 50.8715 5.99909 51.1285 5.86724C51.3855 5.7354 51.676 5.69145 51.9665 5.74638C52.2458 5.80132 52.5028 5.95514 52.6927 6.17489C52.8715 6.39464 52.9721 6.66932 52.9721 6.95499V17.7995C52.9721 18.1291 52.838 18.4368 52.6034 18.6785C52.3687 18.9092 52.0447 19.0411 51.7095 19.0411C51.3743 19.0411 51.0615 18.9092 50.8156 18.6785C50.581 18.4477 50.4469 18.1291 50.4469 17.7995V13.0749L48.2123 18.2829C48.1117 18.5027 47.9553 18.7004 47.7542 18.8323C47.5531 18.9641 47.3073 19.0411 47.0614 19.0411Z" fill="#215679"/>
</g>
<defs>
<clipPath id="clip0_149_14238">
<rect width="72" height="72" fill="white"/>
</clipPath>
</defs>
</svg>
