<svg width="72" height="72" viewBox="0 0 72 72" fill="none" xmlns="http://www.w3.org/2000/svg">
<path d="M68.6761 34.9179C68.5406 34.2929 68.3568 33.6483 68.115 33.0135C65.8511 26.9682 60.0368 22.8958 53.6419 22.8958C53.4194 22.8958 53.1872 22.8958 52.955 22.9153V19.2237C55.006 18.4131 57.0764 17.5732 59.1661 16.7235C60.1819 16.3134 61.4105 15.4637 61.7975 14.3113C62.02 13.6472 61.933 12.944 61.5363 12.2799C60.9075 11.2056 59.7465 10.6392 58.7017 10.2193C52.2585 7.63123 45.8346 5.03343 39.4204 2.44539L38.3369 2.01568C37.4178 1.64457 36.373 1.37111 35.2217 1.19532C34.3316 1.06836 33.4029 1 32.4741 1C31.9033 1 31.3132 1.0293 30.7327 1.07813C29.7072 1.16602 28.7301 1.34182 27.8497 1.58597C27.3273 1.73246 26.7372 1.93755 26.0406 2.22077L5.8693 10.356C5.12436 10.649 4.11821 11.1959 3.48937 12.0846C3.025 12.7194 2.87988 13.53 3.10239 14.2527C3.53774 15.6786 5.08566 16.4501 5.73385 16.7235C7.79452 17.5634 9.85519 18.3935 11.9352 19.2237V33.8339C11.9352 34.2636 12.2448 34.7519 12.9026 35.3769C14.557 36.92 16.9272 38.131 19.9554 38.9611C22.4223 39.635 25.1022 40.0744 28.169 40.2795C29.6008 40.3772 31.052 40.426 32.4935 40.426C34.4381 40.426 36.4117 40.3284 38.3466 40.1526C38.4046 40.6018 38.4627 41.0022 38.5401 41.4026C34.0704 41.4026 29.5621 41.4124 25.0248 41.4124C20.4874 41.4124 15.6212 41.4026 10.871 41.4026C9.01351 41.4026 7.55266 42.4379 7.05926 44.1176C6.95284 44.479 6.89479 44.8306 6.89479 45.1626C6.89479 47.3502 6.89479 49.5379 6.88512 51.745C6.88512 52.3798 6.93349 52.8584 7.03023 53.1904C7.48494 54.8604 8.95546 55.9835 10.6775 55.9835H57.6375C58.3727 55.9835 58.7791 55.3878 58.7791 54.8214C58.7791 54.2549 58.3921 53.6885 57.6375 53.6885C57.6375 53.6885 57.1828 53.6982 56.9603 53.6982H56.641V53.6006C61.7395 52.5654 65.9382 49.1277 67.8924 44.352C69.1308 41.3245 69.392 38.1505 68.6761 34.9179ZM6.99154 14.7801C5.84995 14.3308 5.3759 13.9011 5.30818 13.6472C5.2985 13.6081 5.27915 13.53 5.38557 13.3933C5.65646 13.0515 6.11116 12.7585 6.7787 12.485C13.6766 9.69189 20.5939 6.90853 27.5111 4.12517C28.14 3.87125 28.9139 3.66616 29.7943 3.51967C30.6263 3.38295 31.5164 3.31458 32.4258 3.31458C32.9385 3.31458 33.4803 3.33411 34.0221 3.38295C35.3281 3.48061 36.5955 3.78336 37.7758 4.2619C42.9613 6.37139 48.1662 8.46135 53.4097 10.5708L58.0438 12.4264C58.5566 12.6413 59.137 12.9147 59.5337 13.364C59.6691 13.5202 59.6498 13.5984 59.6401 13.6374C59.5724 13.9402 58.9629 14.3797 58.1696 14.7019C52.4326 17.0165 46.715 19.3213 41.0167 21.6164L37.2727 23.1301C36.7986 23.3157 36.2472 23.472 35.6087 23.5891C34.5638 23.7845 33.5093 23.8821 32.4645 23.8821C31.3326 23.8821 30.191 23.7649 29.0687 23.5306C28.5463 23.4134 28.0432 23.2669 27.5788 23.0813C25.8471 22.3879 24.1154 21.6847 22.3836 20.9913L33.0159 14.6043C33.4609 14.3406 33.6641 13.8913 33.577 13.3542C33.5287 13.0808 33.3932 12.8464 33.1514 12.6706C32.9385 12.5241 32.716 12.4557 32.4741 12.4557C32.2613 12.4557 32.0485 12.5143 31.8356 12.6413C28.5463 14.6043 25.344 16.538 22.1998 18.4326L19.7328 19.9073C15.3987 18.1592 11.1612 16.4501 6.99154 14.7801ZM20.2166 29.0094C20.7583 29.2535 21.2324 29.9567 21.0582 30.5329C21.0002 30.7673 20.8551 31.0407 20.6326 31.3533C20.6326 31.3533 19.6361 32.7791 19.2201 33.3651C18.5332 32.4764 18.1849 31.4997 18.1365 30.3766C18.1172 29.8883 18.33 29.5563 18.5139 29.361C18.8041 29.0582 19.2201 28.8824 19.6361 28.8824C19.8393 28.8824 20.0327 28.9215 20.2166 29.0094ZM38.2788 37.8673C36.373 38.0431 34.4284 38.131 32.4935 38.131C31.2842 38.131 30.0555 38.1017 28.8269 38.0333C25.4021 37.838 22.461 37.3497 19.8393 36.5293C17.3529 35.7773 15.5148 34.7616 14.2377 33.3651V20.1612L18.4848 21.8605V26.7729C16.8595 27.3101 15.7953 28.8043 15.863 30.5036C15.9211 31.9685 16.3855 33.3163 17.2271 34.5175C17.7689 35.289 18.4655 35.6894 19.2394 35.6894C19.3652 35.6894 19.5007 35.6797 19.6264 35.6601C20.3036 35.5527 20.8454 35.1816 21.2421 34.5566C21.5903 33.9901 21.987 33.3944 22.4901 32.6815C23.3317 31.5486 23.5736 30.4059 23.2253 29.3121C22.819 28.0425 21.987 27.1831 20.7583 26.7632V22.7981C22.7029 23.5794 24.6572 24.3607 26.6211 25.1322C27.3563 25.435 28.1883 25.6596 29.1461 25.8354C30.22 26.0307 31.3422 26.1381 32.4645 26.1381C33.2771 26.1381 34.1091 26.0795 34.9411 25.9819C36.1988 25.8256 37.3985 25.5229 38.511 25.0736C42.555 23.4427 46.6279 21.7922 50.7106 20.1515V23.1985C46.9762 23.9798 43.8997 25.8842 41.5585 28.8531C39.5365 31.4216 38.3466 34.6933 38.2788 37.8673ZM11.9545 53.7276H10.7356C9.87453 53.7276 9.1683 53.0146 9.1683 52.1357V45.3189C9.1683 44.4399 9.87453 43.727 10.7356 43.727H11.9545V53.7276ZM14.2281 53.7178V43.7368H39.1689C39.3817 44.3032 39.6236 44.8599 39.9042 45.4165C36.4891 45.4263 33.074 45.4263 29.6492 45.4263C26.0309 45.4263 22.3933 45.4263 18.746 45.4165C18.2913 45.4165 18.0011 45.6119 17.8463 45.7779C17.6432 45.9927 17.5367 46.276 17.5367 46.5787C17.5367 47.1256 17.9431 47.7116 18.688 47.7116H41.3263C41.781 48.3171 42.2744 48.8835 42.8258 49.4207H22.4804C21.987 49.4207 21.7935 49.5086 21.6968 49.5672C21.4162 49.7234 21.213 50.0066 21.155 50.3387C21.0873 50.6707 21.1743 51.0028 21.3678 51.2665C21.5903 51.5497 21.9483 51.7157 22.345 51.7157H45.7088C45.7862 51.7157 45.9217 51.8036 46.0475 51.872L46.2022 51.9696C47.8276 52.8584 49.5593 53.4443 51.3491 53.7178H14.2281ZM53.671 51.6181C46.4248 51.6181 40.5233 45.6998 40.5233 38.424C40.5233 31.1482 46.4248 25.2201 53.671 25.2201C60.9171 25.2201 66.8089 31.1384 66.8089 38.424C66.8089 45.7095 60.9171 51.6181 53.671 51.6181Z" fill="#215679"/>
<path d="M55.6834 48.444C55.7028 48.9128 55.7124 49.6843 54.9772 49.9773C54.8127 50.0456 54.6289 50.0847 54.4451 50.0847C54.3967 50.0847 54.3483 50.0847 54.2903 50.0749H53.9807C53.8162 50.0749 53.6324 50.0749 53.4293 49.9773C52.8488 49.7136 52.7617 49.2057 52.752 48.7956C51.5718 48.776 50.3915 48.5905 49.2499 48.2487C47.9535 47.858 47.6246 46.8033 47.731 46.0317C47.8568 45.1821 48.563 44.3227 49.6659 44.3227C49.9464 44.3227 50.2367 44.3715 50.5269 44.4789C51.1848 44.7328 52.278 44.9868 53.2358 44.9868C54.4354 44.9868 55.1126 44.6254 55.2771 43.9027C55.3738 43.4437 55.3642 42.7503 54.1355 42.0862C53.4583 41.7151 52.636 41.2951 51.6685 40.8264C49.4821 39.7521 48.2437 38.3262 47.9825 36.5683C47.7503 34.9569 48.0696 33.5213 48.921 32.4275C49.7723 31.3239 51.0977 30.6207 52.7617 30.4059V29.9078C52.7617 29.2046 53.2648 28.6968 53.971 28.6968C54.1258 28.6968 54.1935 28.6968 54.2613 28.6968C54.329 28.6968 54.4644 28.6968 54.4741 28.6968C55.2094 28.6968 55.6931 29.2339 55.6931 29.9469V30.4254C56.2832 30.5231 56.8831 30.6696 57.5119 30.8551C57.9376 30.9821 58.2375 31.1481 58.4793 31.3727C59.0888 31.9489 59.2533 32.906 58.876 33.658C58.5374 34.3221 57.8989 34.7225 57.1539 34.7225C56.8927 34.7225 56.6412 34.6835 56.3897 34.5858C55.5867 34.2928 54.7837 34.1463 53.9904 34.1463H53.7969C53.0423 34.1756 52.2296 34.5467 52.249 35.5331C52.249 36.0703 52.5876 36.4804 53.3132 36.8808C53.971 37.2422 54.716 37.6231 55.5286 38.004C57.1926 38.8048 59.1469 39.9963 59.5435 42.1936C60.1047 45.2309 58.6245 47.6139 55.6834 48.444Z" fill="#215679"/>
<path d="M60.6757 61.2278C60.6757 59.7141 59.8437 58.4152 58.4505 57.7706C58.0152 57.5558 57.4928 57.4581 56.8543 57.4581H4.12829C3.60586 57.4581 3.18019 57.7804 3.05442 58.2882C2.91897 58.8156 3.14149 59.3332 3.61554 59.5871C3.80903 59.6946 4.03154 59.7434 4.34112 59.7434L5.7536 59.7239V69.7146C5.27955 69.7049 4.77648 69.7049 4.23471 69.7049C3.43172 69.7049 3.01572 70.2908 3.01572 70.8573C3.01572 71.4237 3.43172 71.9999 4.20568 71.9999H56.5447C57.0284 71.9999 57.4637 71.9706 57.7927 71.8925C59.4954 71.5116 60.6854 69.9783 60.6757 68.1814C60.666 65.8179 60.666 63.5034 60.6757 61.2278ZM58.4215 68.1521C58.4215 69.0115 57.725 69.7146 56.8833 69.7146H55.6353V59.7434H56.8833C57.725 59.7434 58.4215 60.4465 58.4215 61.306V68.1521ZM46.9379 66.0523C46.7347 65.6421 46.2897 65.3785 45.806 65.3785C39.5756 65.3785 33.3162 65.3785 27.0278 65.3785C20.7394 65.3785 8.03678 65.3785 8.02711 65.3785V63.6987H8.07548C17.8564 63.7084 27.6083 63.7084 37.3408 63.7084H49.4436C50.2176 63.7084 50.6239 63.1322 50.6239 62.5658C50.6239 61.9994 50.2079 61.4134 49.4339 61.4134C35.5607 61.4134 21.7552 61.4134 8.01743 61.3939V59.7239H53.3521V69.6853H8.02711V67.6833H45.9124C46.2897 67.6833 46.609 67.527 46.8218 67.2243C47.083 66.8629 47.1314 66.4234 46.9379 66.0523Z" fill="#215679"/>
</svg>
