<svg width="72" height="72" viewBox="0 0 72 72" fill="none" xmlns="http://www.w3.org/2000/svg">
<path d="M13.3699 49.1314C12.7636 49.1314 12.2615 48.6388 12.2615 48.0231V43.8456C12.2615 43.2393 12.7541 42.7372 13.3699 42.7372H50.939C51.5453 42.7372 52.0474 43.2298 52.0474 43.8456V48.0231C52.0474 48.6293 51.5548 49.1314 50.939 49.1314H13.3699ZM49.8307 46.9147V44.9444H14.4687V46.9147H49.8307Z" fill="#215679"/>
<path d="M25.0214 13.7694C24.9456 13.7694 24.8793 13.7694 24.8035 13.7504C24.472 13.6841 24.1405 13.6462 23.7994 13.6462C23.4584 13.6462 23.1269 13.6841 22.7953 13.7504C22.7195 13.7694 22.6437 13.7694 22.5774 13.7694C22.3596 13.7694 22.1512 13.703 21.9617 13.5894C21.7154 13.4283 21.5449 13.1726 21.4881 12.8884L20.7965 9.38344C20.7208 9.02348 20.8344 8.64456 21.0997 8.3888C21.8196 7.66886 22.7764 7.271 23.7994 7.271C24.8225 7.271 25.7792 7.66886 26.4992 8.3888C26.7644 8.65404 26.8781 9.02348 26.8023 9.38344L26.1108 12.8884C26.054 13.1726 25.8834 13.4283 25.6372 13.5894C25.4572 13.7125 25.2488 13.7694 25.0214 13.7694ZM24.1405 11.439L24.5004 9.62974C24.2825 9.52553 24.0457 9.4687 23.7994 9.4687C23.5531 9.4687 23.3163 9.52553 23.0984 9.62974L23.4584 11.439C23.5721 11.439 23.6858 11.439 23.7994 11.439C23.9131 11.439 24.0268 11.439 24.1405 11.439Z" fill="#215679"/>
<path d="M14.1656 21.8213C13.8719 21.8213 13.5877 21.7076 13.3888 21.4992C12.6689 20.7792 12.271 19.8225 12.271 18.7994C12.271 17.7764 12.6689 16.8196 13.3888 16.0997C13.5972 15.8913 13.8719 15.7776 14.1656 15.7776C14.2413 15.7776 14.3077 15.7776 14.3834 15.7965L17.8789 16.4881C18.4757 16.6017 18.8641 17.189 18.7504 17.7858C18.6841 18.1174 18.6462 18.4584 18.6462 18.79C18.6462 19.1215 18.6746 19.453 18.7504 19.8035C18.8641 20.4003 18.4757 20.9782 17.8789 21.1013L14.374 21.7928C14.2982 21.8023 14.2319 21.8118 14.1561 21.8118L14.1656 21.8213ZM14.6297 18.1079C14.5255 18.3258 14.4687 18.5626 14.4687 18.8089C14.4687 19.0552 14.5255 19.292 14.6297 19.5099L16.4485 19.1499C16.4485 19.0362 16.4485 18.9226 16.4485 18.8089C16.4485 18.6952 16.4485 18.5815 16.4485 18.4773L14.6297 18.1174V18.1079Z" fill="#215679"/>
<path d="M33.4427 21.8213C33.3764 21.8213 33.3006 21.8213 33.2343 21.8023L29.7294 21.1013C29.4452 21.0445 29.1894 20.874 29.0284 20.6277C28.8674 20.3814 28.8105 20.0783 28.8674 19.7941C28.9337 19.453 28.9716 19.131 28.9716 18.79C28.9716 18.4489 28.9337 18.1174 28.8674 17.7953C28.8105 17.5016 28.8674 17.208 29.0284 16.9617C29.1894 16.7154 29.4452 16.5449 29.7294 16.4881L33.2343 15.7965C33.3101 15.7776 33.3764 15.7776 33.4522 15.7776C33.7459 15.7776 34.0206 15.8913 34.229 16.0997C34.9489 16.8196 35.3468 17.7764 35.3468 18.7994C35.3468 19.8225 34.9489 20.7792 34.229 21.4992C34.0206 21.7076 33.7459 21.8213 33.4522 21.8213H33.4427ZM32.9786 19.5004C33.0828 19.2825 33.1396 19.0457 33.1396 18.7994C33.1396 18.5531 33.0828 18.3163 32.9786 18.0984L31.1692 18.4584C31.1692 18.5721 31.1692 18.6858 31.1692 18.79C31.1692 18.8942 31.1692 19.0173 31.1692 19.131L32.9786 19.4909V19.5004Z" fill="#215679"/>
<path d="M18.5988 16.4312C18.3809 16.4312 18.1725 16.3649 17.9831 16.2418L15.0181 14.2525C14.715 14.0441 14.5255 13.703 14.5255 13.3336C14.5255 11.2306 16.2401 9.51606 18.3431 9.51606C18.7125 9.51606 19.0535 9.69604 19.2619 10.0086L21.2417 12.9736C21.5828 13.4757 21.4407 14.1672 20.9386 14.5082C20.6544 14.6977 20.3892 14.9156 20.1524 15.1524C19.9155 15.3892 19.6977 15.6544 19.5082 15.9386C19.2998 16.2418 18.9588 16.4312 18.5894 16.4312H18.5988ZM18.362 13.8357C18.4378 13.7504 18.5136 13.6746 18.5894 13.5988C18.6746 13.5136 18.7504 13.4378 18.8356 13.362L17.8126 11.8274C17.3484 11.9885 16.9884 12.3579 16.8274 12.8126L18.362 13.8357Z" fill="#215679"/>
<path d="M29.2652 28.0733C28.8958 28.0733 28.5548 27.8933 28.3464 27.5807L26.3665 24.6157C26.0255 24.1137 26.1676 23.4222 26.6697 23.0811C26.9633 22.8822 27.2286 22.6643 27.4559 22.437C27.6833 22.2096 27.9011 21.9444 28.0906 21.6507C28.2516 21.4044 28.5074 21.2339 28.7916 21.1771C28.8674 21.1582 28.9337 21.1582 29.0094 21.1582C29.2273 21.1582 29.4452 21.2245 29.6252 21.3476L32.5902 23.3274C32.8933 23.5358 33.0828 23.8769 33.0828 24.2463C33.0828 25.2694 32.6849 26.2261 31.965 26.946C31.245 27.666 30.2883 28.0638 29.2652 28.0638V28.0733ZM29.7957 25.7809C30.023 25.7051 30.2314 25.5725 30.402 25.402C30.5725 25.2315 30.7051 25.0231 30.7809 24.7957L29.2463 23.7727C29.1705 23.8579 29.0947 23.9337 29.0094 24.0189C28.9242 24.1042 28.8484 24.18 28.7632 24.2558L29.7862 25.7904L29.7957 25.7809Z" fill="#215679"/>
<path d="M18.3336 28.0733C17.32 28.0733 16.3632 27.6755 15.6433 26.9555C14.9234 26.2356 14.5255 25.2788 14.5255 24.2558C14.5255 23.8863 14.7055 23.5453 15.0181 23.3369L17.9831 21.3571C18.1631 21.2339 18.3809 21.1676 18.5988 21.1676C18.6746 21.1676 18.7409 21.1676 18.8167 21.1866C19.1104 21.2434 19.3567 21.4139 19.5177 21.6602C19.7071 21.9444 19.925 22.2096 20.1524 22.4465C20.3892 22.6833 20.6544 22.9012 20.9386 23.0906C21.4407 23.4316 21.5828 24.1137 21.2417 24.6252L19.2619 27.5902C19.0535 27.8933 18.7125 28.0828 18.3431 28.0828L18.3336 28.0733ZM16.8274 24.7957C16.9032 25.0231 17.0358 25.2315 17.2063 25.402C17.3768 25.5725 17.5852 25.7051 17.8126 25.7809L18.8356 24.2463C18.7504 24.1705 18.6746 24.0947 18.5988 24.0189C18.5136 23.9337 18.4378 23.8579 18.362 23.7727L16.8274 24.7957Z" fill="#215679"/>
<path d="M29.0095 16.4312C28.64 16.4312 28.299 16.2512 28.0906 15.9386C27.8917 15.645 27.6833 15.3892 27.4464 15.1524C27.2096 14.9156 26.9444 14.6977 26.6697 14.5177C26.4234 14.3567 26.2529 14.1009 26.196 13.8167C26.1392 13.5231 26.196 13.2294 26.3571 12.9831L28.3369 10.0181C28.5453 9.71499 28.8863 9.52554 29.2557 9.52554C30.2788 9.52554 31.2356 9.92339 31.9555 10.6433C32.6754 11.3633 33.0733 12.32 33.0733 13.3431C33.0733 13.7125 32.8933 14.0535 32.5807 14.2619L29.6157 16.2418C29.4357 16.3649 29.2179 16.4312 29 16.4312H29.0095ZM29.0095 13.5894C29.0852 13.6652 29.1705 13.7504 29.2463 13.8357L30.7809 12.8126C30.7051 12.5853 30.5725 12.3769 30.402 12.2063C30.2314 12.0358 30.023 11.9032 29.7957 11.8274L28.7726 13.362C28.8579 13.4378 28.9337 13.5136 29.0189 13.5894H29.0095Z" fill="#215679"/>
<path d="M20.3229 14.6977C19.9535 14.6977 19.6124 14.5177 19.404 14.2051L17.4242 11.2401C17.2158 10.937 17.1779 10.5486 17.32 10.2076C17.7084 9.2603 18.4473 8.53089 19.3851 8.1425C19.8493 7.95305 20.3418 7.84885 20.8439 7.84885C21.346 7.84885 21.8385 7.94357 22.3027 8.1425C22.6437 8.2846 22.89 8.58773 22.9658 8.94769L23.6573 12.4526C23.7142 12.7463 23.6573 13.04 23.4868 13.2862C23.3258 13.5325 23.07 13.6936 22.7858 13.7599C22.4448 13.8262 22.1227 13.9209 21.8196 14.0535C21.5165 14.1767 21.2133 14.3472 20.9197 14.5367C20.7397 14.6598 20.5313 14.7166 20.3134 14.7166L20.3229 14.6977ZM20.6734 12.1306C20.7776 12.0832 20.8723 12.0358 20.9765 11.9979C21.0807 11.9506 21.1849 11.9127 21.2986 11.8748L20.9386 10.056C20.9386 10.056 20.8818 10.056 20.8534 10.056C20.645 10.056 20.4366 10.0939 20.2376 10.1792C20.0103 10.2739 19.8114 10.416 19.6503 10.596L20.6734 12.1306Z" fill="#215679"/>
<path d="M23.7994 30.3373C22.7764 30.3373 21.8196 29.9395 21.0997 29.2195C20.8344 28.9543 20.7208 28.5848 20.7965 28.2249L21.4881 24.7294C21.5923 24.2179 22.047 23.839 22.568 23.839C22.6343 23.839 22.7101 23.839 22.7858 23.8579C23.1174 23.9242 23.4584 23.9526 23.79 23.9526C24.1215 23.9526 24.4625 23.9147 24.7941 23.8579C24.8699 23.8484 24.9362 23.839 25.012 23.839C25.533 23.839 25.9876 24.2084 26.0919 24.7294L26.7928 28.2344C26.8686 28.5943 26.7549 28.9732 26.4897 29.229C25.7698 29.9489 24.813 30.3468 23.79 30.3468L23.7994 30.3373ZM23.1079 27.9691C23.3258 28.0733 23.5626 28.1302 23.8089 28.1302C24.0552 28.1302 24.292 28.0733 24.5099 27.9691L24.1499 26.1598C24.0362 26.1598 23.9226 26.1598 23.8089 26.1598C23.6952 26.1598 23.5816 26.1598 23.4679 26.1598L23.1079 27.9691Z" fill="#215679"/>
<path d="M26.7549 29.75C26.2529 29.75 25.7698 29.6553 25.2961 29.4563C24.9551 29.3143 24.7088 29.0111 24.633 28.6512L23.932 25.1557C23.8184 24.5589 24.1973 23.9811 24.7941 23.8579C25.1351 23.7916 25.4572 23.6874 25.7698 23.5642C26.0729 23.4411 26.3666 23.2801 26.6602 23.0906C26.8402 22.9675 27.0581 22.9012 27.2759 22.9012C27.6454 22.9012 27.9864 23.0811 28.1948 23.3937L30.1746 26.3587C30.383 26.6619 30.4209 27.0502 30.2788 27.3913C29.6915 28.8217 28.299 29.75 26.7455 29.75H26.7549ZM26.7549 27.5428C27.2096 27.5428 27.6549 27.3439 27.958 27.0029L26.9349 25.4683C26.8307 25.5157 26.736 25.563 26.6318 25.6009C26.5276 25.6483 26.4234 25.6862 26.3097 25.7241L26.6697 27.5334C26.6697 27.5334 26.7265 27.5334 26.7549 27.5334V27.5428Z" fill="#215679"/>
<path d="M15.6338 25.3641C15.4917 25.3641 15.3497 25.3357 15.2076 25.2788C14.2698 24.8904 13.5309 24.1516 13.1425 23.2138C12.7541 22.2665 12.7541 21.2339 13.1425 20.2961C13.2846 19.9551 13.5877 19.7088 13.9477 19.633L17.4431 18.9415C17.5189 18.932 17.5852 18.9226 17.661 18.9226C17.8789 18.9226 18.0968 18.9889 18.2768 19.112C18.5136 19.2731 18.6936 19.5288 18.7409 19.813C18.8072 20.1351 18.902 20.4666 19.0346 20.7792C19.1577 21.0824 19.3188 21.3855 19.5082 21.6602C19.6693 21.897 19.7356 22.2002 19.6787 22.4938C19.6219 22.778 19.4514 23.0338 19.2051 23.1948L16.2401 25.1746C16.0601 25.2978 15.8422 25.3641 15.6244 25.3641H15.6338ZM15.0655 21.6697C15.056 21.9065 15.0939 22.1433 15.1886 22.3707C15.2833 22.598 15.4254 22.797 15.6054 22.958L17.14 21.9349C17.0927 21.8307 17.0453 21.7265 17.0074 21.6223C16.9695 21.5181 16.9221 21.4139 16.8842 21.3097L15.0749 21.6697H15.0655Z" fill="#215679"/>
<path d="M29.9378 18.6858C29.7199 18.6858 29.5021 18.6194 29.3221 18.4963C29.0758 18.3353 28.9053 18.0795 28.8484 17.7858C28.7821 17.4448 28.6874 17.1322 28.5548 16.8196C28.4316 16.507 28.2706 16.2133 28.0717 15.9197C27.7306 15.4176 27.8727 14.7261 28.3748 14.3851L31.3398 12.4053C31.5198 12.2821 31.7377 12.2158 31.9555 12.2158C32.0976 12.2158 32.2397 12.2442 32.3818 12.3011C33.3291 12.6895 34.0585 13.4189 34.4469 14.3661C34.8353 15.304 34.8353 16.346 34.4469 17.2838C34.3048 17.6248 34.0017 17.8711 33.6417 17.9469L30.1367 18.6479C30.061 18.6573 29.9947 18.6668 29.9189 18.6668L29.9378 18.6858ZM30.6104 15.986C30.6578 16.0902 30.6956 16.1944 30.7335 16.2986L32.5523 15.9386C32.5618 15.7018 32.5239 15.4555 32.4292 15.2376C32.3344 15.0198 32.1923 14.8114 32.0124 14.6503L30.4778 15.6734C30.5251 15.7776 30.5725 15.8818 30.6104 15.986Z" fill="#215679"/>
<path d="M17.661 18.6858C17.5852 18.6858 17.5189 18.6858 17.4432 18.6668L13.9382 17.9658C13.5782 17.89 13.2751 17.6437 13.133 17.3027C12.7446 16.3554 12.7446 15.3229 13.133 14.3851C13.5214 13.4473 14.2603 12.7084 15.1981 12.32C15.3307 12.2632 15.4728 12.2348 15.6244 12.2348C15.8423 12.2348 16.0601 12.3011 16.2401 12.4242L19.2051 14.404C19.4514 14.5651 19.6219 14.8208 19.6787 15.105C19.7356 15.3892 19.6787 15.6923 19.5082 15.9386C19.3188 16.2133 19.1577 16.5165 19.0251 16.8291C18.902 17.1417 18.7978 17.4638 18.7315 17.7953C18.6746 18.0795 18.5041 18.3353 18.2578 18.5058C18.0778 18.6289 17.86 18.6952 17.6421 18.6952L17.661 18.6858ZM16.8748 16.2986C16.9127 16.1944 16.9506 16.0902 16.9979 15.986C17.0453 15.8818 17.0927 15.7776 17.14 15.6734L15.6054 14.6503C15.4254 14.8114 15.2834 15.0103 15.1886 15.2376C15.0939 15.465 15.056 15.7018 15.0655 15.9386L16.8843 16.2986H16.8748Z" fill="#215679"/>
<path d="M31.9745 25.3641C31.7566 25.3641 31.5387 25.2978 31.3588 25.1746L28.3938 23.1948C28.1475 23.0338 27.977 22.778 27.9201 22.4938C27.8633 22.2002 27.9201 21.9065 28.0906 21.6602C28.2801 21.376 28.4411 21.0824 28.5643 20.7792C28.6969 20.4761 28.7916 20.154 28.8579 19.813C28.9148 19.5288 29.0853 19.2731 29.3316 19.112C29.5116 18.9889 29.7294 18.9226 29.9473 18.9226C30.0231 18.9226 30.0894 18.9226 30.1652 18.9415L33.6701 19.633C34.0301 19.7088 34.3332 19.9551 34.4753 20.2961C34.8637 21.2339 34.8637 22.2759 34.4753 23.2138C34.0869 24.161 33.348 24.8904 32.4102 25.2788C32.2776 25.3357 32.1355 25.3641 31.9934 25.3641H31.9745ZM32.0124 22.958C32.1924 22.797 32.3345 22.598 32.4292 22.3707C32.5239 22.1433 32.5618 21.9065 32.5523 21.6602L30.7335 21.3002C30.6957 21.4044 30.6483 21.5181 30.6104 21.6223C30.5725 21.7265 30.5251 21.8213 30.4778 21.9255L32.0124 22.958Z" fill="#215679"/>
<path d="M20.8439 29.7595C20.3418 29.7595 19.8587 29.6647 19.3851 29.4658C18.4378 29.0774 17.7084 28.3386 17.32 27.4007C17.1779 27.0597 17.2158 26.6713 17.4242 26.3682L19.404 23.4032C19.6124 23.1001 19.9535 22.9106 20.3229 22.9106C20.5408 22.9106 20.7492 22.9769 20.9386 23.1001C21.2228 23.2895 21.5259 23.4506 21.8291 23.5737C22.1417 23.7063 22.4638 23.8011 22.8048 23.8674C23.4016 23.9905 23.79 24.5684 23.6668 25.1652L22.9753 28.6701C22.8995 29.0301 22.6532 29.3332 22.3122 29.4753C21.8385 29.6742 21.346 29.7689 20.8439 29.7689V29.7595ZM19.6503 27.0124C19.8114 27.1923 20.0103 27.3344 20.2376 27.4292C20.4366 27.5144 20.645 27.5523 20.8534 27.5523C20.8818 27.5523 20.9102 27.5523 20.9481 27.5523L21.3081 25.7335C21.2039 25.6956 21.0997 25.6577 20.9955 25.6104C20.8913 25.5725 20.7871 25.5251 20.6923 25.4778L19.6693 27.0124H19.6503Z" fill="#215679"/>
<path d="M27.2759 14.7072C27.0581 14.7072 26.8497 14.6409 26.6602 14.5177C26.376 14.3283 26.0729 14.1672 25.7698 14.0346C25.4572 13.9115 25.1446 13.8167 24.8035 13.7504C24.5099 13.6936 24.2636 13.5231 24.1026 13.2862C23.9415 13.04 23.8847 12.7368 23.932 12.4526L24.633 8.94769C24.7088 8.58773 24.9551 8.2846 25.2961 8.1425C25.7698 7.94357 26.2624 7.84885 26.7644 7.84885C27.2665 7.84885 27.7496 7.94357 28.2232 8.1425C29.1705 8.53089 29.8999 9.26977 30.2883 10.2076C30.4304 10.5486 30.3925 10.937 30.1841 11.2401L28.2043 14.2051C27.9959 14.5082 27.6549 14.6977 27.2854 14.6977L27.2759 14.7072ZM26.6223 11.9979C26.7265 12.0453 26.8307 12.0832 26.9349 12.14L27.958 10.6054C27.797 10.4255 27.598 10.2834 27.3707 10.1886C27.1717 10.1034 26.9633 10.0655 26.7549 10.0655C26.7265 10.0655 26.6981 10.0655 26.6602 10.0655L26.3002 11.8748C26.4044 11.9127 26.5086 11.9506 26.6128 11.9979H26.6223Z" fill="#215679"/>
<path d="M23.7994 26.1598C19.7356 26.1598 16.4296 22.8538 16.4296 18.7994C16.4296 14.7451 19.7356 11.4296 23.7994 11.4296C25.7698 11.4296 27.617 12.1969 29.0095 13.5894C30.402 14.9819 31.1693 16.8291 31.1693 18.7994C31.1693 22.8633 27.8633 26.1598 23.7994 26.1598ZM23.8089 13.6462C20.967 13.6462 18.6462 15.9576 18.6462 18.7994C18.6462 21.6413 20.9576 23.9526 23.7994 23.9526C26.6413 23.9526 28.9526 21.6413 28.9526 18.7994C28.9526 17.4259 28.4127 16.1281 27.437 15.1524C26.4613 14.1767 25.173 13.6462 23.7899 13.6462H23.8089Z" fill="#215679"/>
<path d="M28.119 40.7764C27.8254 40.7764 27.5506 40.6627 27.3422 40.4543C24.3488 37.4609 22.7006 33.4823 22.7006 29.2385C22.7006 28.6322 23.1931 28.1302 23.8089 28.1302C24.2352 28.1302 24.6425 27.9596 24.9456 27.6565C25.154 27.4481 25.4382 27.3344 25.7319 27.3344C25.874 27.3344 26.016 27.3629 26.1487 27.4197C26.3381 27.4955 26.5371 27.5428 26.7455 27.5428C27.1528 27.5428 27.5317 27.3913 27.8348 27.126C28.0432 26.9366 28.299 26.8419 28.5737 26.8419C28.6874 26.8419 28.8011 26.8608 28.9147 26.8987C29.2842 27.0218 29.5684 27.3344 29.6536 27.7133C30.2125 30.2805 31.4819 32.6203 33.3291 34.4675C33.6132 34.7611 33.7269 35.1779 33.6038 35.5663C33.4901 35.9547 33.168 36.2484 32.7607 36.3336L29.7957 36.9304L29.1989 39.8954C29.1231 40.2933 28.8295 40.6153 28.4411 40.7385C28.3369 40.7669 28.2327 40.7858 28.119 40.7858V40.7764ZM24.9361 30.1668C25.1067 32.7434 25.9782 35.159 27.4843 37.2241L27.778 35.7558C27.8632 35.32 28.2043 34.979 28.64 34.8937L30.4493 34.5338C29.2936 33.0465 28.4221 31.3793 27.8538 29.5795C27.4938 29.6932 27.1054 29.75 26.7265 29.75C26.4613 29.75 26.2055 29.7216 25.9497 29.6742C25.6371 29.8921 25.2866 30.0626 24.9267 30.1763L24.9361 30.1668Z" fill="#215679"/>
<path d="M19.4798 40.7764C19.3661 40.7764 19.2619 40.7574 19.1577 40.729C18.7694 40.6058 18.4757 40.2838 18.3904 39.8859L17.8031 36.9209L14.8381 36.3241C14.4403 36.2484 14.1182 35.9547 13.9951 35.5568C13.8719 35.1685 13.9856 34.7422 14.2698 34.458C16.1264 32.6013 17.3958 30.271 17.9452 27.7039C18.0305 27.3155 18.3147 27.0029 18.6841 26.8892C18.7883 26.8513 18.902 26.8324 19.0251 26.8324C19.2998 26.8324 19.5651 26.9366 19.764 27.1166C20.0577 27.3913 20.4461 27.5334 20.8534 27.5334C21.0618 27.5334 21.2607 27.4955 21.4502 27.4197C21.5828 27.3629 21.7249 27.3344 21.867 27.3344C22.1606 27.3344 22.4543 27.4481 22.6532 27.6565C22.9563 27.9596 23.3637 28.1301 23.79 28.1301C24.3962 28.1301 24.8983 28.6227 24.8983 29.2385C24.8983 33.4823 23.25 37.4609 20.2471 40.4543C20.0387 40.6627 19.764 40.7764 19.4704 40.7764H19.4798ZM18.9588 34.9032C19.3946 34.9885 19.7356 35.3295 19.8208 35.7652L20.1145 37.2241C21.6207 35.159 22.4922 32.7339 22.6627 30.1668C22.2933 30.0531 21.9522 29.8826 21.6396 29.6647C21.3839 29.7216 21.1281 29.7405 20.8629 29.7405C20.4745 29.7405 20.105 29.6837 19.7356 29.57C19.1672 31.3793 18.2957 33.0371 17.14 34.5243L18.9493 34.8843L18.9588 34.9032Z" fill="#215679"/>
<path d="M38.416 17.8237C37.8097 17.8237 37.3077 17.3311 37.3077 16.7154V8.36986C37.3077 7.7636 37.8003 7.26154 38.416 7.26154H50.9391C51.5453 7.26154 52.0474 7.75412 52.0474 8.36986V16.7154C52.0474 17.3217 51.5548 17.8237 50.9391 17.8237H38.416ZM49.8307 15.6071V9.4687H39.5148V15.6071H49.8307Z" fill="#215679"/>
<path d="M38.416 21.9918C37.8097 21.9918 37.3077 21.4992 37.3077 20.8834C37.3077 20.2677 37.8003 19.7751 38.416 19.7751H50.9391C51.5453 19.7751 52.0474 20.2677 52.0474 20.8834C52.0474 21.4992 51.5548 21.9918 50.9391 21.9918H38.416Z" fill="#215679"/>
<path d="M50.939 21.5939H38.416C38.0276 21.5939 37.7055 21.2813 37.7055 20.8834C37.7055 20.4856 38.0181 20.173 38.416 20.173H50.939C51.3274 20.173 51.6495 20.4856 51.6495 20.8834C51.6495 21.2813 51.3369 21.5939 50.939 21.5939Z" fill="#215679"/>
<path d="M38.416 26.1693C37.8097 26.1693 37.3077 25.6767 37.3077 25.061C37.3077 24.4452 37.8003 23.9526 38.416 23.9526H46.7615C47.3678 23.9526 47.8699 24.4452 47.8699 25.061C47.8699 25.6767 47.3773 26.1693 46.7615 26.1693H38.416Z" fill="#215679"/>
<path d="M15.4539 70C10.2438 70 6 65.7562 6 60.5461V2.10832C6 1.49259 6.49259 1 7.10832 1H57.2006C57.8068 1 58.3089 1.49259 58.3089 2.10832V60.5461C58.3089 61.1524 57.8163 61.6545 57.2006 61.6545H24.8414C24.292 66.3246 20.2661 69.9621 15.5202 70H15.4539ZM8.20717 60.5461C8.20717 64.5058 11.4279 67.7549 15.397 67.7928C19.4514 67.7928 22.7006 64.5437 22.7006 60.5461C22.7006 59.9399 23.1932 59.4378 23.8089 59.4378H23.9036H56.0923V3.20717H8.20717V60.5461Z" fill="#215679"/>
<path d="M15.4538 69.9905C14.8476 69.9905 14.3455 69.4979 14.3455 68.8822C14.3455 68.2665 14.8381 67.7739 15.4538 67.7739C19.4514 67.7739 22.7005 64.5247 22.7005 60.5272C22.7005 59.9209 23.1931 59.4189 23.8089 59.4189H65.5556C66.1618 59.4189 66.6639 59.9115 66.6639 60.5272C66.6639 65.7372 62.4201 69.9811 57.21 69.9811H15.4538V69.9905ZM57.2005 67.7834C60.7623 67.7834 63.822 65.1215 64.362 61.645H24.8414C24.5572 64.0321 23.3542 66.2393 21.5164 67.7834H57.1911H57.2005Z" fill="#215679"/>
<path d="M13.3699 53.2994C12.7636 53.2994 12.2615 52.8068 12.2615 52.1911C12.2615 51.5754 12.7541 51.0828 13.3699 51.0828H34.2385C34.8447 51.0828 35.3468 51.5754 35.3468 52.1911C35.3468 52.8068 34.8542 53.2994 34.2385 53.2994H13.3699Z" fill="#215679"/>
<path d="M13.3699 57.4769C12.7636 57.4769 12.2615 56.9844 12.2615 56.3686C12.2615 55.7529 12.7541 55.2603 13.3699 55.2603H50.939C51.5453 55.2603 52.0474 55.7529 52.0474 56.3686C52.0474 56.9844 51.5548 57.4769 50.939 57.4769H13.3699Z" fill="#215679"/>
</svg>
