<svg width="66" height="66" viewBox="0 0 66 66" fill="none" xmlns="http://www.w3.org/2000/svg">
<g clip-path="url(#clip0_956_1292)">
<path d="M14.69 65.21C10.77 65.21 7.08 63.67 4.31 60.9C1.54 58.12 0 54.44 0 50.51V6.72H2.49V50.52C2.49 53.77 3.77 56.83 6.06 59.13C8.36 61.43 11.42 62.7 14.67 62.7H58.49V65.21H14.69Z" fill="#215679"/>
<path d="M19.15 56.24C16.43 56.23 13.87 55.16 11.95 53.24C10.03 51.32 8.96001 48.76 8.95001 46.03V10.2C8.95001 7.47 10.02 4.91 11.95 2.99C13.88 1.07 16.44 0 19.17 0H55.01C56.36 0 57.67 0.26 58.91 0.77C60.16 1.28 61.27 2.03 62.22 2.98C63.17 3.93 63.91 5.04 64.43 6.29C64.94 7.53 65.21 8.85 65.21 10.19V46.03C65.21 48.75 64.14 51.31 62.22 53.24C60.3 55.17 57.73 56.23 55.01 56.23H19.15V56.24ZM24.06 28.58C23.22 28.58 22.42 28.89 21.81 29.47L11.46 39.82V46.05C11.46 48.11 12.27 50.04 13.72 51.5C15.17 52.95 17.11 53.76 19.16 53.76H54.98C57.04 53.76 58.97 52.95 60.43 51.5C61.88 50.04 62.69 48.11 62.69 46.06V39.97L53.07 33.88C52.55 33.56 51.97 33.39 51.36 33.39C51.23 33.39 51.1 33.39 50.97 33.41C50.25 33.5 49.56 33.83 49.05 34.36L46.44 36.97L44.69 35.22L47.22 32.69C48.14 31.75 49.36 31.15 50.66 31C50.87 30.98 51.08 30.96 51.3 30.96C52.4 30.96 53.46 31.27 54.38 31.87L62.67 37.02L62.69 10.21C62.69 8.15 61.88 6.22 60.43 4.76C58.98 3.31 57.05 2.5 54.99 2.5H19.17C17.11 2.5 15.18 3.31 13.72 4.76C12.27 6.21 11.46 8.15 11.46 10.2V36.25L20.03 27.81C21.08 26.75 22.47 26.15 23.95 26.12H24.09C25.52 26.12 26.89 26.65 27.94 27.61L46.27 45.94L44.52 47.69L26.32 29.49C25.68 28.89 24.88 28.58 24.05 28.58H24.06Z" fill="#215679"/>
<path d="M41 25.5C40.42 25.5 39.83 25.44 39.26 25.33C37.52 24.98 35.94 24.14 34.69 22.89C33.44 21.64 32.59 20.06 32.25 18.32C31.9 16.58 32.08 14.8 32.76 13.17C33.44 11.53 34.57 10.15 36.05 9.17C37.52 8.19 39.23 7.67 41.01 7.67C43.39 7.67 45.63 8.61 47.31 10.29C48.99 11.97 49.92 14.21 49.93 16.59C49.93 18.36 49.41 20.07 48.43 21.54C47.45 23.01 46.06 24.15 44.43 24.83C43.34 25.28 42.19 25.51 41.02 25.51L41 25.5ZM41 10.24C40.58 10.24 40.16 10.28 39.75 10.36C38.5 10.61 37.36 11.22 36.46 12.12C35.56 13.02 34.95 14.16 34.7 15.41C34.45 16.66 34.58 17.95 35.07 19.12C35.56 20.3 36.38 21.3 37.44 22C38.5 22.71 39.74 23.08 41.01 23.08C42.73 23.08 44.34 22.41 45.55 21.2C46.76 19.99 47.43 18.37 47.43 16.66C47.43 15.38 47.05 14.15 46.35 13.09C45.64 12.03 44.64 11.21 43.47 10.72C42.69 10.4 41.86 10.23 41.01 10.23L41 10.24Z" fill="#215679"/>
</g>
<defs>
<clipPath id="clip0_956_1292">
<rect width="65.21" height="65.21" fill="white"/>
</clipPath>
</defs>
</svg>
