<svg width="72" height="72" viewBox="0 0 72 72" fill="none" xmlns="http://www.w3.org/2000/svg">
<g clip-path="url(#clip0_312_1737)">
<path d="M51.1875 42.1875V42.984C50.4176 43.3106 49.692 43.7328 49.0275 44.2406L48.3187 43.8277C47.7487 43.5485 47.0916 43.5054 46.49 43.7078C45.8884 43.9102 45.391 44.3418 45.1057 44.9089L43.695 47.3479C43.3481 47.8804 43.2266 48.5287 43.3571 49.1507C43.4877 49.7727 43.8596 50.3174 44.3914 50.6655L45.0787 51.0626C44.9737 51.8926 44.9737 52.7324 45.0787 53.5624L44.3891 53.9617C43.8571 54.3113 43.4856 54.8579 43.3563 55.4812C43.227 56.1046 43.3504 56.7537 43.6995 57.2861L45.1125 59.7195C45.3995 60.288 45.9 60.7197 46.5045 60.92C47.109 61.1203 47.7682 61.0729 48.3379 60.7882L49.032 60.3844C49.6965 60.8922 50.4222 61.3144 51.192 61.641V62.4375C51.232 63.0705 51.5204 63.6621 51.9945 64.0835C52.4686 64.5049 53.0899 64.722 53.7232 64.6875H56.5357C57.1691 64.722 57.7904 64.5049 58.2645 64.0835C58.7386 63.6621 59.027 63.0705 59.067 62.4375V61.641C59.8368 61.3144 60.5625 60.8922 61.227 60.3844L61.9357 60.7972C62.5056 61.0774 63.1631 61.121 63.7649 60.9185C64.3668 60.716 64.8642 60.2838 65.1487 59.7161L66.555 57.2861V57.2771C66.9019 56.7446 67.0234 56.0963 66.8929 55.4743C66.7623 54.8523 66.3904 54.3076 65.8586 53.9595L65.1712 53.5624C65.2762 52.7324 65.2762 51.8926 65.1712 51.0626L65.8609 50.6632C66.3929 50.3137 66.7644 49.7671 66.8937 49.1438C67.023 48.5204 66.8996 47.8713 66.5505 47.3389L65.1375 44.9055C64.8508 44.3368 64.3503 43.9049 63.7457 43.7046C63.1411 43.5043 62.4817 43.5518 61.9121 43.8367L61.218 44.2406C60.5535 43.7328 59.8278 43.3106 59.058 42.984V42.1875C59.018 41.5545 58.7296 40.9629 58.2555 40.5415C57.7814 40.1201 57.1601 39.903 56.5267 39.9375H53.7142C53.0816 39.9042 52.4615 40.1219 51.9884 40.5431C51.5153 40.9644 51.2275 41.5553 51.1875 42.1875ZM56.8125 42.2055V43.7625C56.8124 43.9993 56.8871 44.2301 57.0259 44.422C57.1647 44.6139 57.3604 44.7571 57.5854 44.8312C58.6115 45.169 59.5555 45.7182 60.3562 46.4434C60.5334 46.603 60.7567 46.7022 60.9939 46.7266C61.231 46.7511 61.4699 46.6996 61.6759 46.5795L62.946 45.8134C63.0552 45.8533 63.1447 45.9339 63.1957 46.0384L64.5975 48.4594C64.6886 48.6191 64.6841 48.744 64.7212 48.726L63.3712 49.5068C63.1659 49.6257 63.0035 49.8064 62.9071 50.0233C62.8107 50.2401 62.7853 50.4818 62.8346 50.7139C63.0566 51.7696 63.0566 52.8599 62.8346 53.9156C62.7847 54.1479 62.8097 54.3901 62.9059 54.6073C63.0021 54.8246 63.1646 55.0058 63.3701 55.125L64.6639 55.8472C64.6847 55.9589 64.6613 56.0743 64.5986 56.169L63.198 58.59C63.1046 58.7509 62.9887 58.806 63.036 58.8409L61.6759 58.0534C61.4699 57.9333 61.231 57.8818 60.9939 57.9062C60.7567 57.9307 60.5334 58.0299 60.3562 58.1895C59.5555 58.9146 58.6115 59.4638 57.5854 59.8016C57.3604 59.8757 57.1647 60.019 57.0259 60.2109C56.8871 60.4028 56.8124 60.6336 56.8125 60.8704L56.8372 62.3475C56.7516 62.4182 56.642 62.4533 56.5312 62.4454H53.7187C53.6329 62.4398 53.5476 62.4281 53.4634 62.4105C53.4487 62.4105 53.4397 62.4105 53.4375 62.4274V60.8625C53.4376 60.6257 53.3629 60.3949 53.2241 60.203C53.0853 60.0111 52.8895 59.8679 52.6646 59.7938C51.6385 59.456 50.6945 58.9068 49.8937 58.1816C49.7166 58.022 49.4933 57.9228 49.2561 57.8984C49.0189 57.8739 48.7801 57.9254 48.5741 58.0455L47.304 58.8116C47.1948 58.7717 47.1053 58.6911 47.0542 58.5866L45.6525 56.1679C45.5625 56.0081 45.5726 55.8934 45.5287 55.9012L46.8787 55.1205C47.0841 55.0016 47.2465 54.8208 47.3429 54.604C47.4393 54.3872 47.4646 54.1455 47.4154 53.9134C47.1934 52.8577 47.1934 51.7673 47.4154 50.7116C47.4658 50.479 47.4411 50.2364 47.3449 50.0186C47.2486 49.8009 47.0858 49.6193 46.8799 49.5L45.5861 48.7778C45.5644 48.6683 45.5866 48.5548 45.648 48.4616L47.052 46.035C47.1454 45.8741 47.2612 45.819 47.214 45.7841L48.5741 46.5716C48.7801 46.6917 49.0189 46.7432 49.2561 46.7188C49.4933 46.6943 49.7166 46.5951 49.8937 46.4355C50.6945 45.7103 51.6385 45.1612 52.6646 44.8234C52.8895 44.7492 53.0853 44.606 53.2241 44.4141C53.3629 44.2222 53.4376 43.9914 53.4375 43.7546L53.4127 42.2775C53.4984 42.2068 53.608 42.1717 53.7187 42.1796H56.5312C56.7 42.1875 56.8046 42.2539 56.8125 42.2055Z" fill="#215679"/>
<path d="M49.5 52.3125C49.5 53.425 49.8299 54.5126 50.448 55.4376C51.0661 56.3626 51.9446 57.0836 52.9724 57.5093C54.0002 57.9351 55.1312 58.0465 56.2224 57.8294C57.3135 57.6124 58.3158 57.0766 59.1025 56.29C59.8891 55.5033 60.4249 54.501 60.6419 53.4099C60.859 52.3187 60.7476 51.1877 60.3218 50.1599C59.8961 49.1321 59.1751 48.2536 58.2501 47.6355C57.3251 47.0174 56.2375 46.6875 55.125 46.6875C53.6337 46.6893 52.204 47.2825 51.1495 48.337C50.095 49.3915 49.5018 50.8212 49.5 52.3125ZM55.125 48.9375C55.7925 48.9375 56.445 49.1354 57 49.5063C57.5551 49.8771 57.9876 50.4042 58.2431 51.0209C58.4985 51.6376 58.5654 52.3162 58.4352 52.9709C58.3049 53.6256 57.9835 54.227 57.5115 54.699C57.0395 55.171 56.4381 55.4924 55.7834 55.6227C55.1287 55.7529 54.4501 55.686 53.8334 55.4306C53.2167 55.1751 52.6896 54.7426 52.3188 54.1875C51.9479 53.6325 51.75 52.98 51.75 52.3125C51.75 51.4174 52.1056 50.559 52.7385 49.926C53.3715 49.2931 54.2299 48.9375 55.125 48.9375Z" fill="#215679"/>
<path d="M3.375 53.4375H4.5V54.5625C4.5 55.4576 4.85558 56.3161 5.48851 56.949C6.12145 57.5819 6.97989 57.9375 7.875 57.9375H39.2344C40.1671 60.5754 41.7415 62.9399 43.8157 64.8177C45.8899 66.6956 48.3987 68.0279 51.1161 68.6946C53.8335 69.3613 56.674 69.3414 59.3818 68.6368C62.0896 67.9321 64.5795 66.5649 66.6273 64.6582C68.675 62.7515 70.2161 60.3653 71.1119 57.7145C72.0076 55.0638 72.2298 52.2319 71.7584 49.4739C71.2869 46.716 70.1367 44.1186 68.4114 41.9159C66.686 39.7132 64.4398 37.9744 61.875 36.8561V15.1875C61.875 14.2924 61.5194 13.434 60.8865 12.801C60.2535 12.1681 59.3951 11.8125 58.5 11.8125H57.375V10.6875C57.375 9.7924 57.0194 8.93395 56.3865 8.30102C55.7535 7.66808 54.8951 7.3125 54 7.3125H52.3125V5.0625C52.3125 4.46576 52.0754 3.89347 51.6535 3.47151C51.2315 3.04955 50.6592 2.8125 50.0625 2.8125H47.8125C47.2158 2.8125 46.6435 3.04955 46.2215 3.47151C45.7996 3.89347 45.5625 4.46576 45.5625 5.0625V7.3125H42.1875V5.0625C42.1875 4.46576 41.9504 3.89347 41.5285 3.47151C41.1065 3.04955 40.5342 2.8125 39.9375 2.8125H37.6875C37.0908 2.8125 36.5185 3.04955 36.0965 3.47151C35.6746 3.89347 35.4375 4.46576 35.4375 5.0625V7.3125H32.0625V5.0625C32.0625 4.46576 31.8254 3.89347 31.4035 3.47151C30.9815 3.04955 30.4092 2.8125 29.8125 2.8125H27.5625C26.9658 2.8125 26.3935 3.04955 25.9715 3.47151C25.5496 3.89347 25.3125 4.46576 25.3125 5.0625V7.3125H21.9375V5.0625C21.9375 4.46576 21.7004 3.89347 21.2785 3.47151C20.8565 3.04955 20.2842 2.8125 19.6875 2.8125H17.4375C16.8408 2.8125 16.2685 3.04955 15.8465 3.47151C15.4246 3.89347 15.1875 4.46576 15.1875 5.0625V7.3125H11.8125V5.0625C11.8125 4.46576 11.5754 3.89347 11.1535 3.47151C10.7315 3.04955 10.1592 2.8125 9.5625 2.8125H7.3125C6.71576 2.8125 6.14347 3.04955 5.72151 3.47151C5.29955 3.89347 5.0625 4.46576 5.0625 5.0625V7.3125H3.375C2.47989 7.3125 1.62145 7.66808 0.988515 8.30102C0.355579 8.93395 0 9.7924 0 10.6875L0 50.0625C0 50.9576 0.355579 51.8161 0.988515 52.449C1.62145 53.0819 2.47989 53.4375 3.375 53.4375ZM69.75 52.3125C69.75 55.2051 68.8923 58.0326 67.2852 60.4377C65.6782 62.8428 63.3941 64.7173 60.7217 65.8242C58.0494 66.9312 55.1088 67.2208 52.2718 66.6565C49.4348 66.0922 46.8289 64.6993 44.7836 62.6539C42.7382 60.6086 41.3453 58.0027 40.781 55.1657C40.2167 52.3287 40.5063 49.3881 41.6133 46.7158C42.7202 44.0434 44.5947 41.7593 46.9998 40.1523C49.4049 38.5452 52.2324 37.6875 55.125 37.6875C59.0024 37.692 62.7198 39.2342 65.4615 41.976C68.2033 44.7178 69.7455 48.4351 69.75 52.3125ZM58.5 14.0625C58.7984 14.0625 59.0845 14.181 59.2955 14.392C59.5065 14.603 59.625 14.8891 59.625 15.1875V36.0653C57.4335 35.4326 55.1321 35.2758 52.875 35.6051V33.1875C52.875 32.5908 52.6379 32.0185 52.216 31.5965C51.794 31.1746 51.2217 30.9375 50.625 30.9375H47.25C46.6533 30.9375 46.081 31.1746 45.659 31.5965C45.2371 32.0185 45 32.5908 45 33.1875V34.3125C45 34.6109 45.1185 34.897 45.3295 35.108C45.5405 35.319 45.8266 35.4375 46.125 35.4375C46.4234 35.4375 46.7095 35.319 46.9205 35.108C47.1315 34.897 47.25 34.6109 47.25 34.3125V33.1875H50.625V36.0653C48.0145 36.7943 45.6173 38.1396 43.6351 39.9881C41.6529 41.8366 40.1437 44.1342 39.2344 46.6875H37.125V43.3125H38.5763C38.8746 43.3125 39.1608 43.194 39.3717 42.983C39.5827 42.772 39.7013 42.4859 39.7013 42.1875C39.7013 41.8891 39.5827 41.603 39.3717 41.392C39.1608 41.181 38.8746 41.0625 38.5763 41.0625H37.125C36.5283 41.0625 35.956 41.2996 35.534 41.7215C35.1121 42.1435 34.875 42.7158 34.875 43.3125V46.6875C34.875 47.2842 35.1121 47.8565 35.534 48.2785C35.956 48.7005 36.5283 48.9375 37.125 48.9375H38.5875C38.1345 51.1647 38.1345 53.4603 38.5875 55.6875H7.875C7.57663 55.6875 7.29048 55.569 7.0795 55.358C6.86853 55.147 6.75 54.8609 6.75 54.5625V53.4375H34.875C35.1734 53.4375 35.4595 53.319 35.6705 53.108C35.8815 52.897 36 52.6109 36 52.3125C36 52.0141 35.8815 51.728 35.6705 51.517C35.4595 51.306 35.1734 51.1875 34.875 51.1875H3.375C3.07663 51.1875 2.79048 51.069 2.5795 50.858C2.36853 50.647 2.25 50.3609 2.25 50.0625V18.5625H55.125V32.0963C55.125 32.3946 55.2435 32.6808 55.4545 32.8917C55.6655 33.1027 55.9516 33.2213 56.25 33.2213C56.5484 33.2213 56.8345 33.1027 57.0455 32.8917C57.2565 32.6808 57.375 32.3946 57.375 32.0963V14.0625H58.5ZM47.8125 5.0625H50.0625V11.8125H47.8125V5.0625ZM37.6875 5.0625H39.9375V11.8125H37.6875V5.0625ZM27.5625 5.0625H29.8125V11.8125H27.5625V5.0625ZM17.4375 5.0625H19.6875V11.8125H17.4375V5.0625ZM7.3125 5.0625H9.5625V11.8125H7.3125V5.0625ZM3.375 9.5625H5.0625V11.8125C5.0625 12.4092 5.29955 12.9815 5.72151 13.4035C6.14347 13.8254 6.71576 14.0625 7.3125 14.0625H9.5625C10.1592 14.0625 10.7315 13.8254 11.1535 13.4035C11.5754 12.9815 11.8125 12.4092 11.8125 11.8125V9.5625H15.1875V11.8125C15.1875 12.4092 15.4246 12.9815 15.8465 13.4035C16.2685 13.8254 16.8408 14.0625 17.4375 14.0625H19.6875C20.2842 14.0625 20.8565 13.8254 21.2785 13.4035C21.7004 12.9815 21.9375 12.4092 21.9375 11.8125V9.5625H25.3125V11.8125C25.3125 12.4092 25.5496 12.9815 25.9715 13.4035C26.3935 13.8254 26.9658 14.0625 27.5625 14.0625H29.8125C30.4092 14.0625 30.9815 13.8254 31.4035 13.4035C31.8254 12.9815 32.0625 12.4092 32.0625 11.8125V9.5625H35.4375V11.8125C35.4375 12.4092 35.6746 12.9815 36.0965 13.4035C36.5185 13.8254 37.0908 14.0625 37.6875 14.0625H39.9375C40.5342 14.0625 41.1065 13.8254 41.5285 13.4035C41.9504 12.9815 42.1875 12.4092 42.1875 11.8125V9.5625H45.5625V11.8125C45.5625 12.4092 45.7996 12.9815 46.2215 13.4035C46.6435 13.8254 47.2158 14.0625 47.8125 14.0625H50.0625C50.6592 14.0625 51.2315 13.8254 51.6535 13.4035C52.0754 12.9815 52.3125 12.4092 52.3125 11.8125V9.5625H54C54.2984 9.5625 54.5845 9.68103 54.7955 9.89201C55.0065 10.103 55.125 10.3891 55.125 10.6875V16.3125H2.25V10.6875C2.25 10.3891 2.36853 10.103 2.5795 9.89201C2.79048 9.68103 3.07663 9.5625 3.375 9.5625Z" fill="#215679"/>
<path d="M10.125 30.9375H6.75C6.15326 30.9375 5.58097 31.1746 5.15901 31.5965C4.73705 32.0185 4.5 32.5908 4.5 33.1875V36.5625C4.5 37.1592 4.73705 37.7315 5.15901 38.1535C5.58097 38.5754 6.15326 38.8125 6.75 38.8125H10.125C10.7217 38.8125 11.294 38.5754 11.716 38.1535C12.1379 37.7315 12.375 37.1592 12.375 36.5625V33.1875C12.375 32.5908 12.1379 32.0185 11.716 31.5965C11.294 31.1746 10.7217 30.9375 10.125 30.9375ZM6.75 36.5625V33.1875H10.125V36.5625H6.75Z" fill="#215679"/>
<path d="M10.125 41.0625H6.75C6.15326 41.0625 5.58097 41.2996 5.15901 41.7215C4.73705 42.1435 4.5 42.7158 4.5 43.3125V46.6875C4.5 47.2842 4.73705 47.8565 5.15901 48.2785C5.58097 48.7004 6.15326 48.9375 6.75 48.9375H10.125C10.7217 48.9375 11.294 48.7004 11.716 48.2785C12.1379 47.8565 12.375 47.2842 12.375 46.6875V43.3125C12.375 42.7158 12.1379 42.1435 11.716 41.7215C11.294 41.2996 10.7217 41.0625 10.125 41.0625ZM6.75 46.6875V43.3125H10.125V46.6875H6.75Z" fill="#215679"/>
<path d="M20.25 30.9375H16.875C16.2783 30.9375 15.706 31.1746 15.284 31.5965C14.8621 32.0185 14.625 32.5908 14.625 33.1875V36.5625C14.625 37.1592 14.8621 37.7315 15.284 38.1535C15.706 38.5754 16.2783 38.8125 16.875 38.8125H20.25C20.8467 38.8125 21.419 38.5754 21.841 38.1535C22.2629 37.7315 22.5 37.1592 22.5 36.5625V33.1875C22.5 32.5908 22.2629 32.0185 21.841 31.5965C21.419 31.1746 20.8467 30.9375 20.25 30.9375ZM16.875 36.5625V33.1875H20.25V36.5625H16.875Z" fill="#215679"/>
<path d="M20.25 41.0625H16.875C16.2783 41.0625 15.706 41.2996 15.284 41.7215C14.8621 42.1435 14.625 42.7158 14.625 43.3125V46.6875C14.625 47.2842 14.8621 47.8565 15.284 48.2785C15.706 48.7004 16.2783 48.9375 16.875 48.9375H20.25C20.8467 48.9375 21.419 48.7004 21.841 48.2785C22.2629 47.8565 22.5 47.2842 22.5 46.6875V43.3125C22.5 42.7158 22.2629 42.1435 21.841 41.7215C21.419 41.2996 20.8467 41.0625 20.25 41.0625ZM16.875 46.6875V43.3125H20.25V46.6875H16.875Z" fill="#215679"/>
<path d="M30.375 30.9375H27C26.4033 30.9375 25.831 31.1746 25.409 31.5965C24.9871 32.0185 24.75 32.5908 24.75 33.1875V36.5625C24.75 37.1592 24.9871 37.7315 25.409 38.1535C25.831 38.5754 26.4033 38.8125 27 38.8125H30.375C30.9717 38.8125 31.544 38.5754 31.966 38.1535C32.3879 37.7315 32.625 37.1592 32.625 36.5625V33.1875C32.625 32.5908 32.3879 32.0185 31.966 31.5965C31.544 31.1746 30.9717 30.9375 30.375 30.9375ZM27 36.5625V33.1875H30.375V36.5625H27Z" fill="#215679"/>
<path d="M30.375 41.0625H27C26.4033 41.0625 25.831 41.2996 25.409 41.7215C24.9871 42.1435 24.75 42.7158 24.75 43.3125V46.6875C24.75 47.2842 24.9871 47.8565 25.409 48.2785C25.831 48.7004 26.4033 48.9375 27 48.9375H30.375C30.9717 48.9375 31.544 48.7004 31.966 48.2785C32.3879 47.8565 32.625 47.2842 32.625 46.6875V43.3125C32.625 42.7158 32.3879 42.1435 31.966 41.7215C31.544 41.2996 30.9717 41.0625 30.375 41.0625ZM27 46.6875V43.3125H30.375V46.6875H27Z" fill="#215679"/>
<path d="M30.375 20.8125H27C26.4033 20.8125 25.831 21.0496 25.409 21.4715C24.9871 21.8935 24.75 22.4658 24.75 23.0625V26.4375C24.75 27.0342 24.9871 27.6065 25.409 28.0285C25.831 28.4504 26.4033 28.6875 27 28.6875H30.375C30.9717 28.6875 31.544 28.4504 31.966 28.0285C32.3879 27.6065 32.625 27.0342 32.625 26.4375V23.0625C32.625 22.4658 32.3879 21.8935 31.966 21.4715C31.544 21.0496 30.9717 20.8125 30.375 20.8125ZM27 26.4375V23.0625H30.375V26.4375H27Z" fill="#215679"/>
<path d="M40.5 30.9375H37.125C36.5283 30.9375 35.956 31.1746 35.534 31.5965C35.1121 32.0185 34.875 32.5908 34.875 33.1875V36.5625C34.875 37.1592 35.1121 37.7315 35.534 38.1535C35.956 38.5754 36.5283 38.8125 37.125 38.8125H40.5C41.0967 38.8125 41.669 38.5754 42.091 38.1535C42.5129 37.7315 42.75 37.1592 42.75 36.5625V33.1875C42.75 32.5908 42.5129 32.0185 42.091 31.5965C41.669 31.1746 41.0967 30.9375 40.5 30.9375ZM37.125 36.5625V33.1875H40.5V36.5625H37.125Z" fill="#215679"/>
<path d="M40.5 20.8125H37.125C36.5283 20.8125 35.956 21.0496 35.534 21.4715C35.1121 21.8935 34.875 22.4658 34.875 23.0625V26.4375C34.875 27.0342 35.1121 27.6065 35.534 28.0285C35.956 28.4504 36.5283 28.6875 37.125 28.6875H40.5C41.0967 28.6875 41.669 28.4504 42.091 28.0285C42.5129 27.6065 42.75 27.0342 42.75 26.4375V23.0625C42.75 22.4658 42.5129 21.8935 42.091 21.4715C41.669 21.0496 41.0967 20.8125 40.5 20.8125ZM37.125 26.4375V23.0625H40.5V26.4375H37.125Z" fill="#215679"/>
<path d="M50.625 20.8125H47.25C46.6533 20.8125 46.081 21.0496 45.659 21.4715C45.2371 21.8935 45 22.4658 45 23.0625V26.4375C45 27.0342 45.2371 27.6065 45.659 28.0285C46.081 28.4504 46.6533 28.6875 47.25 28.6875H50.625C51.2217 28.6875 51.794 28.4504 52.216 28.0285C52.6379 27.6065 52.875 27.0342 52.875 26.4375V23.0625C52.875 22.4658 52.6379 21.8935 52.216 21.4715C51.794 21.0496 51.2217 20.8125 50.625 20.8125ZM47.25 26.4375V23.0625H50.625V26.4375H47.25Z" fill="#215679"/>
</g>
<defs>
<clipPath id="clip0_312_1737">
<rect width="72" height="72" fill="white"/>
</clipPath>
</defs>
</svg>
