<svg width="72" height="72" viewBox="0 0 72 72" fill="none" xmlns="http://www.w3.org/2000/svg">
<path d="M68.625 48.375H66.375V45C66.375 43.8065 65.9009 42.6619 65.057 41.818C64.2131 40.9741 63.0685 40.5 61.875 40.5H55.125C53.9315 40.5 52.7869 40.9741 51.943 41.818C51.0991 42.6619 50.625 43.8065 50.625 45V48.375H48.375C47.4799 48.375 46.6215 48.7306 45.9885 49.3635C45.3556 49.9965 45 50.8549 45 51.75V65.25C45 66.1451 45.3556 67.0035 45.9885 67.6365C46.6215 68.2694 47.4799 68.625 48.375 68.625H68.625C69.5201 68.625 70.3785 68.2694 71.0115 67.6365C71.6444 67.0035 72 66.1451 72 65.25V51.75C72 50.8549 71.6444 49.9965 71.0115 49.3635C70.3785 48.7306 69.5201 48.375 68.625 48.375ZM52.875 45C52.875 44.4033 53.1121 43.831 53.534 43.409C53.956 42.9871 54.5283 42.75 55.125 42.75H61.875C62.4717 42.75 63.044 42.9871 63.466 43.409C63.8879 43.831 64.125 44.4033 64.125 45V48.375H63V45C63 44.7016 62.8815 44.4155 62.6705 44.2045C62.4595 43.9935 62.1734 43.875 61.875 43.875H55.125C54.8266 43.875 54.5405 43.9935 54.3295 44.2045C54.1185 44.4155 54 44.7016 54 45V48.375H52.875V45ZM60.75 48.375H56.25V46.125H60.75V48.375ZM48.375 50.625H68.625C68.9234 50.625 69.2095 50.7435 69.4205 50.9545C69.6315 51.1655 69.75 51.4516 69.75 51.75V54.2655L61.875 56.4097V55.125C61.875 54.8266 61.7565 54.5405 61.5455 54.3295C61.3345 54.1185 61.0484 54 60.75 54H56.25C55.9516 54 55.6655 54.1185 55.4545 54.3295C55.2435 54.5405 55.125 54.8266 55.125 55.125V56.4097L47.25 54.2655V51.75C47.25 51.4516 47.3685 51.1655 47.5795 50.9545C47.7905 50.7435 48.0766 50.625 48.375 50.625ZM59.625 56.25V59.625H57.375V56.25H59.625ZM68.625 66.375H48.375C48.0766 66.375 47.7905 66.2565 47.5795 66.0455C47.3685 65.8345 47.25 65.5484 47.25 65.25V56.5976L55.125 58.7408V60.75C55.125 61.0484 55.2435 61.3345 55.4545 61.5455C55.6655 61.7565 55.9516 61.875 56.25 61.875H60.75C61.0484 61.875 61.3345 61.7565 61.5455 61.5455C61.7565 61.3345 61.875 61.0484 61.875 60.75V58.7408L69.75 56.5976V65.25C69.75 65.5484 69.6315 65.8345 69.4205 66.0455C69.2095 66.2565 68.9234 66.375 68.625 66.375Z" fill="#215679"/>
<path d="M41.625 57.375H5.625C4.72989 57.375 3.87145 57.0194 3.23851 56.3865C2.60558 55.7535 2.25 54.8951 2.25 54V21.375H60.75V37.125C60.75 37.4234 60.8685 37.7095 61.0795 37.9205C61.2905 38.1315 61.5766 38.25 61.875 38.25C62.1734 38.25 62.4595 38.1315 62.6705 37.9205C62.8815 37.7095 63 37.4234 63 37.125V13.5C62.9982 12.0087 62.405 10.579 61.3505 9.5245C60.296 8.46999 58.8663 7.87679 57.375 7.875H56.25V4.5C56.25 4.20163 56.1315 3.91548 55.9205 3.7045C55.7095 3.49353 55.4234 3.375 55.125 3.375C54.8266 3.375 54.5405 3.49353 54.3295 3.7045C54.1185 3.91548 54 4.20163 54 4.5V7.875H48.375V4.5C48.375 4.20163 48.2565 3.91548 48.0455 3.7045C47.8345 3.49353 47.5484 3.375 47.25 3.375C46.9516 3.375 46.6655 3.49353 46.4545 3.7045C46.2435 3.91548 46.125 4.20163 46.125 4.5V7.875H40.5V4.5C40.5 4.20163 40.3815 3.91548 40.1705 3.7045C39.9595 3.49353 39.6734 3.375 39.375 3.375C39.0766 3.375 38.7905 3.49353 38.5795 3.7045C38.3685 3.91548 38.25 4.20163 38.25 4.5V7.875H32.625V4.5C32.625 4.20163 32.5065 3.91548 32.2955 3.7045C32.0845 3.49353 31.7984 3.375 31.5 3.375C31.2016 3.375 30.9155 3.49353 30.7045 3.7045C30.4935 3.91548 30.375 4.20163 30.375 4.5V7.875H24.75V4.5C24.75 4.20163 24.6315 3.91548 24.4205 3.7045C24.2095 3.49353 23.9234 3.375 23.625 3.375C23.3266 3.375 23.0405 3.49353 22.8295 3.7045C22.6185 3.91548 22.5 4.20163 22.5 4.5V7.875H16.875V4.5C16.875 4.20163 16.7565 3.91548 16.5455 3.7045C16.3345 3.49353 16.0484 3.375 15.75 3.375C15.4516 3.375 15.1655 3.49353 14.9545 3.7045C14.7435 3.91548 14.625 4.20163 14.625 4.5V7.875H9V4.5C9 4.20163 8.88147 3.91548 8.6705 3.7045C8.45952 3.49353 8.17337 3.375 7.875 3.375C7.57663 3.375 7.29048 3.49353 7.0795 3.7045C6.86853 3.91548 6.75 4.20163 6.75 4.5V7.875H5.625C4.13371 7.87679 2.704 8.46999 1.6495 9.5245C0.594992 10.579 0.00178634 12.0087 0 13.5L0 54C0.00178634 55.4913 0.594992 56.921 1.6495 57.9755C2.704 59.03 4.13371 59.6232 5.625 59.625H41.625C41.9234 59.625 42.2095 59.5065 42.4205 59.2955C42.6315 59.0845 42.75 58.7984 42.75 58.5C42.75 58.2016 42.6315 57.9155 42.4205 57.7045C42.2095 57.4935 41.9234 57.375 41.625 57.375ZM2.25 13.5C2.25 12.6049 2.60558 11.7464 3.23851 11.1135C3.87145 10.4806 4.72989 10.125 5.625 10.125H6.75V14.625C6.75 14.9234 6.86853 15.2095 7.0795 15.4205C7.29048 15.6315 7.57663 15.75 7.875 15.75C8.17337 15.75 8.45952 15.6315 8.6705 15.4205C8.88147 15.2095 9 14.9234 9 14.625V10.125H14.625V14.625C14.625 14.9234 14.7435 15.2095 14.9545 15.4205C15.1655 15.6315 15.4516 15.75 15.75 15.75C16.0484 15.75 16.3345 15.6315 16.5455 15.4205C16.7565 15.2095 16.875 14.9234 16.875 14.625V10.125H22.5V14.625C22.5 14.9234 22.6185 15.2095 22.8295 15.4205C23.0405 15.6315 23.3266 15.75 23.625 15.75C23.9234 15.75 24.2095 15.6315 24.4205 15.4205C24.6315 15.2095 24.75 14.9234 24.75 14.625V10.125H30.375V14.625C30.375 14.9234 30.4935 15.2095 30.7045 15.4205C30.9155 15.6315 31.2016 15.75 31.5 15.75C31.7984 15.75 32.0845 15.6315 32.2955 15.4205C32.5065 15.2095 32.625 14.9234 32.625 14.625V10.125H38.25V14.625C38.25 14.9234 38.3685 15.2095 38.5795 15.4205C38.7905 15.6315 39.0766 15.75 39.375 15.75C39.6734 15.75 39.9595 15.6315 40.1705 15.4205C40.3815 15.2095 40.5 14.9234 40.5 14.625V10.125H46.125V14.625C46.125 14.9234 46.2435 15.2095 46.4545 15.4205C46.6655 15.6315 46.9516 15.75 47.25 15.75C47.5484 15.75 47.8345 15.6315 48.0455 15.4205C48.2565 15.2095 48.375 14.9234 48.375 14.625V10.125H54V14.625C54 14.9234 54.1185 15.2095 54.3295 15.4205C54.5405 15.6315 54.8266 15.75 55.125 15.75C55.4234 15.75 55.7095 15.6315 55.9205 15.4205C56.1315 15.2095 56.25 14.9234 56.25 14.625V10.125H57.375C58.2701 10.125 59.1285 10.4806 59.7615 11.1135C60.3944 11.7464 60.75 12.6049 60.75 13.5V19.125H2.25V13.5Z" fill="#215679"/>
<path d="M13.5 36C13.5 35.7016 13.3815 35.4155 13.1705 35.2045C12.9595 34.9935 12.6734 34.875 12.375 34.875H5.625C5.32663 34.875 5.04048 34.9935 4.82951 35.2045C4.61853 35.4155 4.5 35.7016 4.5 36V42.75C4.5 43.0484 4.61853 43.3345 4.82951 43.5455C5.04048 43.7565 5.32663 43.875 5.625 43.875H12.375C12.6734 43.875 12.9595 43.7565 13.1705 43.5455C13.3815 43.3345 13.5 43.0484 13.5 42.75V36ZM11.25 41.625H6.75V37.125H11.25V41.625Z" fill="#215679"/>
<path d="M24.75 36C24.75 35.7016 24.6315 35.4155 24.4205 35.2045C24.2095 34.9935 23.9234 34.875 23.625 34.875H16.875C16.5766 34.875 16.2905 34.9935 16.0795 35.2045C15.8685 35.4155 15.75 35.7016 15.75 36V42.75C15.75 43.0484 15.8685 43.3345 16.0795 43.5455C16.2905 43.7565 16.5766 43.875 16.875 43.875H23.625C23.9234 43.875 24.2095 43.7565 24.4205 43.5455C24.6315 43.3345 24.75 43.0484 24.75 42.75V36ZM22.5 41.625H18V37.125H22.5V41.625Z" fill="#215679"/>
<path d="M36 36C36 35.7016 35.8815 35.4155 35.6705 35.2045C35.4595 34.9935 35.1734 34.875 34.875 34.875H28.125C27.8266 34.875 27.5405 34.9935 27.3295 35.2045C27.1185 35.4155 27 35.7016 27 36V42.75C27 43.0484 27.1185 43.3345 27.3295 43.5455C27.5405 43.7565 27.8266 43.875 28.125 43.875H34.875C35.1734 43.875 35.4595 43.7565 35.6705 43.5455C35.8815 43.3345 36 43.0484 36 42.75V36ZM33.75 41.625H29.25V37.125H33.75V41.625Z" fill="#215679"/>
<path d="M39.375 34.875C39.0766 34.875 38.7905 34.9935 38.5795 35.2045C38.3685 35.4155 38.25 35.7016 38.25 36V42.75C38.25 43.0484 38.3685 43.3345 38.5795 43.5455C38.7905 43.7565 39.0766 43.875 39.375 43.875H46.125C46.4234 43.875 46.7095 43.7565 46.9205 43.5455C47.1315 43.3345 47.25 43.0484 47.25 42.75V36C47.25 35.7016 47.1315 35.4155 46.9205 35.2045C46.7095 34.9935 46.4234 34.875 46.125 34.875H39.375ZM45 41.625H40.5V37.125H45V41.625Z" fill="#215679"/>
<path d="M12.375 46.125H5.625C5.32663 46.125 5.04048 46.2435 4.82951 46.4545C4.61853 46.6655 4.5 46.9516 4.5 47.25V54C4.5 54.2984 4.61853 54.5845 4.82951 54.7955C5.04048 55.0065 5.32663 55.125 5.625 55.125H12.375C12.6734 55.125 12.9595 55.0065 13.1705 54.7955C13.3815 54.5845 13.5 54.2984 13.5 54V47.25C13.5 46.9516 13.3815 46.6655 13.1705 46.4545C12.9595 46.2435 12.6734 46.125 12.375 46.125ZM11.25 52.875H6.75V48.375H11.25V52.875Z" fill="#215679"/>
<path d="M23.625 46.125H16.875C16.5766 46.125 16.2905 46.2435 16.0795 46.4545C15.8685 46.6655 15.75 46.9516 15.75 47.25V54C15.75 54.2984 15.8685 54.5845 16.0795 54.7955C16.2905 55.0065 16.5766 55.125 16.875 55.125H23.625C23.9234 55.125 24.2095 55.0065 24.4205 54.7955C24.6315 54.5845 24.75 54.2984 24.75 54V47.25C24.75 46.9516 24.6315 46.6655 24.4205 46.4545C24.2095 46.2435 23.9234 46.125 23.625 46.125ZM22.5 52.875H18V48.375H22.5V52.875Z" fill="#215679"/>
<path d="M34.875 46.125H28.125C27.8266 46.125 27.5405 46.2435 27.3295 46.4545C27.1185 46.6655 27 46.9516 27 47.25V54C27 54.2984 27.1185 54.5845 27.3295 54.7955C27.5405 55.0065 27.8266 55.125 28.125 55.125H34.875C35.1734 55.125 35.4595 55.0065 35.6705 54.7955C35.8815 54.5845 36 54.2984 36 54V47.25C36 46.9516 35.8815 46.6655 35.6705 46.4545C35.4595 46.2435 35.1734 46.125 34.875 46.125ZM33.75 52.875H29.25V48.375H33.75V52.875Z" fill="#215679"/>
<path d="M50.625 23.625C50.3266 23.625 50.0405 23.7435 49.8295 23.9545C49.6185 24.1655 49.5 24.4516 49.5 24.75V31.5C49.5 31.7984 49.6185 32.0845 49.8295 32.2955C50.0405 32.5065 50.3266 32.625 50.625 32.625H57.375C57.6734 32.625 57.9595 32.5065 58.1705 32.2955C58.3815 32.0845 58.5 31.7984 58.5 31.5V24.75C58.5 24.4516 58.3815 24.1655 58.1705 23.9545C57.9595 23.7435 57.6734 23.625 57.375 23.625H50.625ZM56.25 30.375H51.75V25.875H56.25V30.375Z" fill="#215679"/>
<path d="M13.1704 23.9546C12.9594 23.7437 12.6733 23.6252 12.375 23.6252C12.0767 23.6252 11.7906 23.7437 11.5796 23.9546L9 26.5343L6.42037 23.9546C6.2082 23.7497 5.92402 23.6363 5.62905 23.6389C5.33408 23.6414 5.05191 23.7597 4.84333 23.9683C4.63474 24.1769 4.51643 24.4591 4.51387 24.7541C4.5113 25.049 4.6247 25.3332 4.82962 25.5454L7.40925 28.125L4.82962 30.7046C4.72218 30.8084 4.63647 30.9325 4.57751 31.0698C4.51855 31.2071 4.48752 31.3547 4.48622 31.5041C4.48492 31.6534 4.51338 31.8016 4.56995 31.9398C4.62652 32.0781 4.71005 32.2037 4.81568 32.3093C4.92131 32.415 5.04692 32.4985 5.18518 32.5551C5.32343 32.6116 5.47157 32.6401 5.62095 32.6388C5.77033 32.6375 5.91795 32.6065 6.0552 32.5475C6.19246 32.4885 6.3166 32.4028 6.42037 32.2954L9 29.7158L11.5796 32.2954C11.7918 32.5003 12.076 32.6137 12.371 32.6111C12.6659 32.6086 12.9481 32.4903 13.1567 32.2817C13.3653 32.0731 13.4836 31.7909 13.4861 31.496C13.4887 31.201 13.3753 30.9168 13.1704 30.7046L10.5907 28.125L13.1704 25.5454C13.3813 25.3344 13.4998 25.0483 13.4998 24.75C13.4998 24.4517 13.3813 24.1656 13.1704 23.9546Z" fill="#215679"/>
<path d="M24.4204 23.9546C24.2094 23.7437 23.9233 23.6252 23.625 23.6252C23.3267 23.6252 23.0406 23.7437 22.8296 23.9546L20.25 26.5343L17.6704 23.9546C17.4582 23.7497 17.174 23.6363 16.879 23.6389C16.5841 23.6414 16.3019 23.7597 16.0933 23.9683C15.8847 24.1769 15.7664 24.4591 15.7639 24.7541C15.7613 25.049 15.8747 25.3332 16.0796 25.5454L18.6593 28.125L16.0796 30.7046C15.9722 30.8084 15.8865 30.9325 15.8275 31.0698C15.7686 31.2071 15.7375 31.3547 15.7362 31.5041C15.7349 31.6534 15.7634 31.8016 15.82 31.9398C15.8765 32.0781 15.9601 32.2037 16.0657 32.3093C16.1713 32.415 16.2969 32.4985 16.4352 32.5551C16.5734 32.6116 16.7216 32.6401 16.871 32.6388C17.0203 32.6375 17.168 32.6065 17.3052 32.5475C17.4425 32.4885 17.5666 32.4028 17.6704 32.2954L20.25 29.7158L22.8296 32.2954C23.0418 32.5003 23.326 32.6137 23.621 32.6111C23.9159 32.6086 24.1981 32.4903 24.4067 32.2817C24.6153 32.0731 24.7336 31.7909 24.7361 31.496C24.7387 31.201 24.6253 30.9168 24.4204 30.7046L21.8407 28.125L24.4204 25.5454C24.6313 25.3344 24.7498 25.0483 24.7498 24.75C24.7498 24.4517 24.6313 24.1656 24.4204 23.9546Z" fill="#215679"/>
<path d="M35.6704 23.9546C35.4594 23.7437 35.1733 23.6252 34.875 23.6252C34.5767 23.6252 34.2906 23.7437 34.0796 23.9546L31.5 26.5343L28.9204 23.9546C28.7082 23.7497 28.424 23.6363 28.129 23.6389C27.8341 23.6414 27.5519 23.7597 27.3433 23.9683C27.1347 24.1769 27.0164 24.4591 27.0139 24.7541C27.0113 25.049 27.1247 25.3332 27.3296 25.5454L29.9093 28.125L27.3296 30.7046C27.2222 30.8084 27.1365 30.9325 27.0775 31.0698C27.0186 31.2071 26.9875 31.3547 26.9862 31.5041C26.9849 31.6534 27.0134 31.8016 27.07 31.9398C27.1265 32.0781 27.2101 32.2037 27.3157 32.3093C27.4213 32.415 27.5469 32.4985 27.6852 32.5551C27.8234 32.6116 27.9716 32.6401 28.121 32.6388C28.2703 32.6375 28.418 32.6065 28.5552 32.5475C28.6925 32.4885 28.8166 32.4028 28.9204 32.2954L31.5 29.7158L34.0796 32.2954C34.2918 32.5003 34.576 32.6137 34.871 32.6111C35.1659 32.6086 35.4481 32.4903 35.6567 32.2817C35.8653 32.0731 35.9836 31.7909 35.9861 31.496C35.9887 31.201 35.8753 30.9168 35.6704 30.7046L33.0907 28.125L35.6704 25.5454C35.8813 25.3344 35.9998 25.0483 35.9998 24.75C35.9998 24.4517 35.8813 24.1656 35.6704 23.9546Z" fill="#215679"/>
<path d="M46.9204 23.9546C46.7094 23.7437 46.4233 23.6252 46.125 23.6252C45.8267 23.6252 45.5406 23.7437 45.3296 23.9546L42.75 26.5343L40.1704 23.9546C39.9582 23.7497 39.674 23.6363 39.379 23.6389C39.0841 23.6414 38.8019 23.7597 38.5933 23.9683C38.3847 24.1769 38.2664 24.4591 38.2639 24.7541C38.2613 25.049 38.3747 25.3332 38.5796 25.5454L41.1592 28.125L38.5796 30.7046C38.4722 30.8084 38.3865 30.9325 38.3275 31.0698C38.2685 31.2071 38.2375 31.3547 38.2362 31.5041C38.2349 31.6534 38.2634 31.8016 38.32 31.9398C38.3765 32.0781 38.46 32.2037 38.5657 32.3093C38.6713 32.415 38.7969 32.4985 38.9352 32.5551C39.0734 32.6116 39.2216 32.6401 39.371 32.6388C39.5203 32.6375 39.6679 32.6065 39.8052 32.5475C39.9425 32.4885 40.0666 32.4028 40.1704 32.2954L42.75 29.7158L45.3296 32.2954C45.5418 32.5003 45.826 32.6137 46.121 32.6111C46.4159 32.6086 46.6981 32.4903 46.9067 32.2817C47.1153 32.0731 47.2336 31.7909 47.2361 31.496C47.2387 31.201 47.1253 30.9168 46.9204 30.7046L44.3407 28.125L46.9204 25.5454C47.1313 25.3344 47.2498 25.0483 47.2498 24.75C47.2498 24.4517 47.1313 24.1656 46.9204 23.9546Z" fill="#215679"/>
</svg>
