<svg width="72" height="72" viewBox="0 0 72 72" fill="none" xmlns="http://www.w3.org/2000/svg">
<g clip-path="url(#clip0_312_1738)">
<path d="M68.6971 50.3016V37.8761C68.6952 36.2273 68.0394 34.6465 66.8735 33.4806C65.7076 32.3147 64.1268 31.6589 62.478 31.6571H51.6181C50.6178 31.6574 49.6323 31.8992 48.7454 32.3619C47.8586 32.8246 47.0965 33.4946 46.524 34.3149C45.9514 33.4946 45.1894 32.8247 44.3025 32.3619C43.4157 31.8992 42.4303 31.6574 41.43 31.6571H30.57C29.5697 31.6575 28.5843 31.8993 27.6974 32.362C26.8106 32.8247 26.0485 33.4947 25.4759 34.3149C24.9034 33.4946 24.1413 32.8247 23.2545 32.3619C22.3676 31.8992 21.3822 31.6574 20.3819 31.6571H9.52186C7.87305 31.6589 6.2923 32.3148 5.12641 33.4806C3.96053 34.6465 3.30472 36.2273 3.30286 37.8761V50.3016C3.30286 50.5999 3.42138 50.8861 3.63236 51.0971C3.84334 51.308 4.12949 51.4266 4.42786 51.4266H23.8001C23.7497 51.5641 23.7009 51.7023 23.6555 51.8415L20.8842 52.1312C20.6076 52.1602 20.3515 52.2905 20.1654 52.4972C19.9792 52.7038 19.8762 52.9721 19.8762 53.2502V58.5028C19.8762 58.7809 19.9793 59.0491 20.1654 59.2558C20.3516 59.4624 20.6076 59.5927 20.8842 59.6216L23.6555 59.9115C23.8621 60.5435 24.1173 61.1587 24.4187 61.7515L22.6633 63.9172C22.4881 64.1332 22.3992 64.4064 22.4137 64.6841C22.4282 64.9618 22.545 65.2243 22.7416 65.421L26.4559 69.1352C26.6526 69.3318 26.9151 69.4487 27.1928 69.4631C27.4705 69.4776 27.7437 69.3888 27.9598 69.2137L30.1254 67.4582C30.7182 67.7596 31.3333 68.0147 31.9653 68.2214L32.255 70.9927C32.2841 71.2691 32.4145 71.525 32.621 71.711C32.8276 71.897 33.0957 72 33.3737 72H38.6263C38.9044 72 39.1727 71.897 39.3793 71.7109C39.586 71.5247 39.7163 71.2686 39.7453 70.992L40.0348 68.2207C40.6669 68.0141 41.2821 67.759 41.8749 67.4575L44.0405 69.213C44.2566 69.3881 44.5298 69.477 44.8076 69.4625C45.0853 69.448 45.3478 69.3312 45.5445 69.1345L49.2585 65.4203C49.4552 65.2236 49.572 64.9611 49.5864 64.6834C49.6009 64.4057 49.512 64.1325 49.3369 63.9165L47.5815 61.7508C47.8829 61.1581 48.1381 60.5429 48.3448 59.9109L51.1161 59.6211C51.3927 59.5921 51.6487 59.4618 51.8349 59.2552C52.021 59.0486 52.124 58.7803 52.1241 58.5023V53.2499C52.1241 52.9718 52.0211 52.7035 51.8349 52.4969C51.6488 52.2902 51.3927 52.1599 51.1161 52.131L48.3446 51.8413C48.2991 51.7019 48.2503 51.5638 48.2001 51.4263H67.5721C67.8705 51.4263 68.1566 51.3078 68.3675 51.0969C68.5785 50.886 68.6971 50.5999 68.6971 50.3016ZM30.57 33.9071H41.43C42.4822 33.9083 43.4911 34.3268 44.2351 35.0709C44.9792 35.815 45.3978 36.8238 45.399 37.8761V42.496C45.1988 42.3541 44.9576 42.2814 44.7123 42.2893C44.467 42.2971 44.231 42.3849 44.0402 42.5393L41.8746 44.2949C41.2819 43.9934 40.6667 43.7383 40.0347 43.5317L39.7451 40.7604C39.7162 40.4838 39.5858 40.2277 39.3792 40.0416C39.1726 39.8554 38.9043 39.7524 38.6262 39.7524H33.3735C33.0954 39.7524 32.8272 39.8554 32.6205 40.0416C32.4139 40.2277 32.2835 40.4838 32.2546 40.7604L31.965 43.5317C31.333 43.7384 30.7178 43.9935 30.125 44.2949L27.9593 42.5395C27.7686 42.385 27.5325 42.2972 27.2872 42.2894C27.0418 42.2816 26.8007 42.3543 26.6005 42.4963V37.8761C26.6017 36.8237 27.0203 35.8148 27.7645 35.0707C28.5087 34.3266 29.5177 33.9081 30.57 33.9071ZM5.55286 37.8761C5.55405 36.8238 5.97259 35.815 6.71667 35.0709C7.46074 34.3268 8.46958 33.9083 9.52186 33.9071H20.3819C21.4342 33.9083 22.443 34.3268 23.1871 35.0709C23.9312 35.815 24.3497 36.8238 24.3509 37.8761V44.7227L22.7416 46.332C22.5449 46.5286 22.4281 46.7912 22.4136 47.0689C22.3991 47.3467 22.488 47.6199 22.6631 47.836L23.7497 49.1763H21.2677V41.942C21.2677 41.6436 21.1492 41.3575 20.9382 41.1465C20.7272 40.9355 20.4411 40.817 20.1427 40.817C19.8443 40.817 19.5582 40.9355 19.3472 41.1465C19.1362 41.3575 19.0177 41.6436 19.0177 41.942V49.1766H10.8862V41.942C10.8862 41.6436 10.7677 41.3575 10.5567 41.1465C10.3457 40.9355 10.0596 40.817 9.7612 40.817C9.46283 40.817 9.17668 40.9355 8.9657 41.1465C8.75473 41.3575 8.6362 41.6436 8.6362 41.942V49.1766H5.55286V37.8761ZM49.8738 54.2634V57.489L47.3608 57.7517C47.1331 57.7755 46.918 57.8683 46.7444 58.0176C46.5707 58.1669 46.4468 58.3656 46.3891 58.5872C46.1407 59.5404 45.7615 60.4547 45.2623 61.3039C45.1462 61.5014 45.0933 61.7297 45.1105 61.9581C45.1277 62.1865 45.2142 62.4043 45.3585 62.5822L46.9506 64.546L44.6698 66.8268L42.706 65.2347C42.528 65.0904 42.3103 65.0039 42.0819 64.9868C41.8534 64.9696 41.6252 65.0226 41.4277 65.1386C40.5785 65.6378 39.6642 66.017 38.711 66.2653C38.4893 66.323 38.2906 66.4469 38.1413 66.6206C37.992 66.7942 37.8992 67.0093 37.8754 67.237L37.6128 69.75H34.3872L34.1245 67.237C34.1007 67.0093 34.0079 66.7942 33.8586 66.6206C33.7093 66.4469 33.5105 66.323 33.2889 66.2653C32.3357 66.0169 31.4214 65.6378 30.5722 65.1386C30.3747 65.0226 30.1465 64.9697 29.9181 64.9868C29.6897 65.004 29.472 65.0905 29.294 65.2347L27.3302 66.8268L25.0492 64.546L26.6414 62.5822C26.7857 62.4043 26.8722 62.1865 26.8894 61.958C26.9066 61.7296 26.8536 61.5013 26.7376 61.3038C26.2383 60.4547 25.8592 59.5404 25.6109 58.5872C25.5532 58.3656 25.4293 58.1669 25.2556 58.0176C25.082 57.8683 24.8669 57.7755 24.6392 57.7517L22.1262 57.489V54.2634L24.6392 54.0007C24.867 53.9769 25.082 53.8841 25.2557 53.7348C25.4293 53.5855 25.5532 53.3867 25.6109 53.1651C25.8592 52.2118 26.2384 51.2976 26.7376 50.4484C26.8536 50.2509 26.9065 50.0227 26.8893 49.7943C26.8721 49.5659 26.7856 49.3482 26.6414 49.1702L25.0492 47.2063L27.3302 44.9255L29.294 46.5176C29.4719 46.6619 29.6897 46.7484 29.9181 46.7656C30.1465 46.7828 30.3748 46.7298 30.5723 46.6138C31.4215 46.1145 32.3358 45.7353 33.289 45.487C33.5106 45.4293 33.7094 45.3053 33.8586 45.1317C34.0079 44.9581 34.1007 44.743 34.1245 44.5153L34.387 42.0024H37.6128L37.8754 44.5153C37.8992 44.7431 37.9919 44.9582 38.1412 45.1318C38.2906 45.3055 38.4893 45.4294 38.711 45.4871C39.6642 45.7355 40.5785 46.1146 41.4277 46.6138C41.6252 46.7298 41.8535 46.7828 42.0819 46.7656C42.3103 46.7484 42.528 46.6619 42.706 46.5176L44.6698 44.9255L46.9506 47.2063L45.3585 49.1702C45.2142 49.3482 45.1277 49.5659 45.1106 49.7944C45.0934 50.0228 45.1464 50.251 45.2624 50.4485C45.7616 51.2978 46.1407 52.212 46.3891 53.1652C46.4468 53.3869 46.5707 53.5856 46.7444 53.7349C46.918 53.8841 47.1331 53.9769 47.3608 54.0007L49.8738 54.2634ZM66.4471 49.1766H63.3638V41.942C63.3638 41.6436 63.2453 41.3575 63.0343 41.1465C62.8233 40.9355 62.5372 40.817 62.2388 40.817C61.9404 40.817 61.6543 40.9355 61.4433 41.1465C61.2323 41.3575 61.1138 41.6436 61.1138 41.942V49.1766H52.9823V41.942C52.9823 41.6436 52.8638 41.3575 52.6528 41.1465C52.4418 40.9355 52.1557 40.817 51.8573 40.817C51.5589 40.817 51.2728 40.9355 51.0618 41.1465C50.8508 41.3575 50.7323 41.6436 50.7323 41.942V49.1766H48.2501L49.3366 47.8363C49.5118 47.6202 49.6007 47.347 49.5862 47.0692C49.5718 46.7915 49.4549 46.5289 49.2583 46.3323L47.649 44.7228V37.8761C47.6501 36.8238 48.0687 35.8149 48.8128 35.0708C49.5569 34.3268 50.5658 33.9082 51.6181 33.9071H62.478C63.5303 33.9082 64.5392 34.3268 65.2833 35.0708C66.0274 35.8149 66.4459 36.8238 66.4471 37.8761V49.1766ZM57.048 17.0736C57.0059 17.0736 56.9654 17.076 56.924 17.0767C56.3459 16.304 55.5958 15.6764 54.7332 15.2437C53.8706 14.811 52.9191 14.585 51.954 14.5835H41.094C40.1288 14.5847 39.1772 14.8106 38.3145 15.2433C37.4518 15.676 36.7018 16.3037 36.1237 17.0767C36.0824 17.0767 36.0415 17.0736 36 17.0736C35.9585 17.0736 35.9184 17.0758 35.8777 17.0767C35.2999 16.3031 34.5496 15.675 33.6866 15.2423C32.8236 14.8095 31.8715 14.5839 30.906 14.5835H20.0459C19.0803 14.5827 18.1279 14.8077 17.2648 15.2406C16.4017 15.6735 15.6518 16.3022 15.075 17.0767C15.0338 17.0767 14.993 17.0736 14.9515 17.0736C13.2861 17.0723 11.6793 17.6883 10.4417 18.8027C9.20398 19.917 8.42326 21.4506 8.25034 23.107C8.07743 24.7634 8.52459 26.4251 9.50544 27.771C10.4863 29.117 11.9312 30.0516 13.5609 30.3943C15.1907 30.737 16.8897 30.4635 18.3295 29.6266C19.7694 28.7897 20.848 27.4488 21.3568 25.8631C21.8657 24.2773 21.7687 22.5592 21.0847 21.0408C20.4007 19.5223 19.1781 18.3113 17.6532 17.6417C18.3403 17.117 19.181 16.8331 20.0455 16.8335H30.9056C31.7695 16.8342 32.6093 17.1184 33.2962 17.6424C31.882 18.263 30.7243 19.3512 30.0176 20.7245C29.3109 22.0977 29.0982 23.6723 29.4153 25.1838C29.7323 26.6953 30.5598 28.0517 31.7587 29.0252C32.9576 29.9987 34.455 30.5301 35.9994 30.5301C37.5438 30.5301 39.0411 29.9987 40.2401 29.0252C41.439 28.0517 42.2664 26.6953 42.5835 25.1838C42.9005 23.6723 42.6878 22.0977 41.9811 20.7245C41.2744 19.3512 40.1168 18.263 38.7025 17.6424C39.3895 17.1186 40.2292 16.8344 41.0932 16.8334H51.9532C52.8171 16.8345 53.6568 17.1187 54.3438 17.6424C52.8215 18.3119 51.6013 19.5219 50.919 21.0385C50.2366 22.5551 50.1405 24.2708 50.6493 25.8541C51.158 27.4374 52.2354 28.7761 53.6735 29.6114C55.1115 30.4467 56.8081 30.7195 58.4355 30.377C60.0629 30.0345 61.5056 29.101 62.485 27.7569C63.4644 26.4129 63.9109 24.7535 63.7383 23.0994C63.5657 21.4454 62.7863 19.914 61.5505 18.801C60.3148 17.6881 58.7104 17.0726 57.0473 17.0734L57.048 17.0736ZM19.4292 23.8008C19.4292 24.6863 19.1666 25.552 18.6747 26.2883C18.1827 27.0246 17.4834 27.5985 16.6653 27.9374C15.8471 28.2763 14.9469 28.365 14.0784 28.1923C13.2098 28.0195 12.412 27.5931 11.7858 26.9669C11.1597 26.3407 10.7332 25.5429 10.5605 24.6744C10.3877 23.8058 10.4764 22.9056 10.8153 22.0874C11.1542 21.2693 11.7281 20.57 12.4644 20.0781C13.2007 19.5861 14.0664 19.3235 14.952 19.3236C16.139 19.3249 17.277 19.797 18.1164 20.6363C18.9557 21.4757 19.4279 22.6137 19.4292 23.8008ZM40.4774 23.8008C40.4774 24.6863 40.2148 25.552 39.7229 26.2883C39.2309 27.0246 38.5316 27.5985 37.7135 27.9374C36.8954 28.2763 35.9951 28.365 35.1266 28.1923C34.2581 28.0195 33.4603 27.5931 32.8341 26.9669C32.2079 26.3408 31.7815 25.543 31.6087 24.6745C31.4359 23.8059 31.5246 22.9057 31.8634 22.0875C32.2023 21.2694 32.7762 20.5701 33.5125 20.0781C34.2488 19.5862 35.1145 19.3236 36 19.3236C37.187 19.3249 38.3251 19.797 39.1645 20.6363C40.0039 21.4757 40.476 22.6137 40.4774 23.8008ZM57.048 28.278C56.1625 28.278 55.2969 28.0154 54.5606 27.5235C53.8244 27.0315 53.2505 26.3322 52.9116 25.5141C52.5728 24.696 52.4841 23.7958 52.6569 22.9273C52.8296 22.0588 53.256 21.2611 53.8822 20.6349C54.5083 20.0088 55.3061 19.5823 56.1746 19.4096C57.0431 19.2368 57.9433 19.3255 58.7614 19.6644C59.5795 20.0032 60.2788 20.5771 60.7707 21.3134C61.2627 22.0496 61.5253 22.9153 61.5253 23.8008C61.5239 24.9878 61.0518 26.1258 60.2124 26.9652C59.3731 27.8045 58.2351 28.2767 57.048 28.278ZM18.7487 6.72722C18.7487 8.05778 19.1432 9.35846 19.8824 10.4648C20.6216 11.5711 21.6723 12.4334 22.9015 12.9426C24.1308 13.4518 25.4835 13.585 26.7885 13.3255C28.0934 13.0659 29.2922 12.4252 30.233 11.4843C31.1739 10.5435 31.8146 9.34476 32.0741 8.03977C32.3337 6.73477 32.2005 5.38212 31.6913 4.15285C31.1821 2.92358 30.3198 1.87291 29.2135 1.13371C28.1071 0.394505 26.8065 -2.78115e-05 25.4759 1.47042e-09C23.6924 0.00200989 21.9824 0.711414 20.7213 1.97258C19.4601 3.23374 18.7507 4.94367 18.7487 6.72722ZM25.4759 2.25C26.3614 2.25 27.227 2.51258 27.9633 3.00455C28.6996 3.49651 29.2734 4.19576 29.6123 5.01386C29.9512 5.83197 30.0398 6.73219 29.8671 7.60068C29.6943 8.46918 29.2679 9.26694 28.6418 9.89309C28.0156 10.5192 27.2179 10.9457 26.3494 11.1184C25.4809 11.2912 24.5807 11.2025 23.7625 10.8636C22.9444 10.5248 22.2452 9.9509 21.7532 9.21463C21.2613 8.47835 20.9987 7.61273 20.9987 6.72722C21.0001 5.54021 21.4722 4.40221 22.3116 3.56287C23.1509 2.72353 24.2889 2.25138 25.4759 2.25ZM46.5241 1.47042e-09C45.1936 1.47042e-09 43.8929 0.394544 42.7866 1.13374C41.6804 1.87294 40.8181 2.92359 40.309 4.15282C39.7998 5.38206 39.6666 6.73468 39.9261 8.03963C40.1857 9.34459 40.8264 10.5433 41.7672 11.4841C42.708 12.4249 43.9067 13.0656 45.2117 13.3252C46.5166 13.5847 47.8692 13.4515 49.0985 12.9424C50.3277 12.4332 51.3784 11.5709 52.1176 10.4647C52.8568 9.35838 53.2513 8.05774 53.2513 6.72722C53.2493 4.94367 52.5399 3.23374 51.2787 1.97258C50.0176 0.711414 48.3076 0.00200989 46.5241 1.47042e-09ZM46.5241 11.2044C45.6386 11.2044 44.773 10.9419 44.0367 10.4499C43.3004 9.95793 42.7266 9.25868 42.3877 8.44058C42.0488 7.62247 41.9601 6.72225 42.1329 5.85376C42.3057 4.98526 42.7321 4.1875 43.3582 3.56135C43.9844 2.9352 44.7821 2.50878 45.6506 2.33603C46.5191 2.16327 47.4193 2.25194 48.2374 2.59081C49.0556 2.92968 49.7548 3.50353 50.2468 4.23981C50.7387 4.97608 51.0013 5.84171 51.0013 6.72722C51 7.91425 50.5279 9.05229 49.6885 9.89165C48.8492 10.731 47.7111 11.2031 46.5241 11.2044ZM36 49.2636C34.6921 49.2636 33.4136 49.6514 32.3262 50.378C31.2387 51.1046 30.3912 52.1373 29.8906 53.3456C29.3901 54.5539 29.2592 55.8835 29.5143 57.1662C29.7694 58.4489 30.3992 59.6272 31.324 60.552C32.2488 61.4768 33.427 62.1066 34.7097 62.3618C35.9925 62.6169 37.3221 62.486 38.5304 61.9855C39.7387 61.485 40.7714 60.6374 41.498 59.55C42.2246 58.4626 42.6125 57.1841 42.6125 55.8762C42.6105 54.1231 41.9132 52.4423 40.6735 51.2026C39.4339 49.963 37.7531 49.2656 36 49.2636ZM36 60.2387C35.1371 60.2387 34.2937 59.9829 33.5762 59.5035C32.8588 59.0242 32.2996 58.3428 31.9694 57.5456C31.6391 56.7485 31.5527 55.8713 31.7211 55.025C31.8894 54.1787 32.3049 53.4014 32.915 52.7912C33.5252 52.1811 34.3025 51.7656 35.1488 51.5973C35.9951 51.429 36.8723 51.5154 37.6694 51.8456C38.4666 52.1758 39.1479 52.735 39.6273 53.4524C40.1067 54.1699 40.3625 55.0134 40.3625 55.8762C40.3612 57.0328 39.9011 58.1417 39.0833 58.9595C38.2654 59.7774 37.1566 60.2374 36 60.2387Z" fill="#215679"/>
</g>
<defs>
<clipPath id="clip0_312_1738">
<rect width="72" height="72" fill="white"/>
</clipPath>
</defs>
</svg>
