<svg width="72" height="72" viewBox="0 0 72 72" fill="none" xmlns="http://www.w3.org/2000/svg">
<path d="M54.486 45.6875C49.8319 45.6875 46.0455 49.4738 46.0455 54.128C46.0455 58.7819 49.8319 62.5681 54.486 62.5681C59.14 62.5681 62.9263 58.7819 62.9263 54.128C62.9262 49.4738 59.1398 45.6875 54.486 45.6875ZM54.486 60.318C51.0726 60.318 48.2955 57.5411 48.2955 54.1278C48.2955 50.7144 51.0724 47.9374 54.486 47.9374C57.8992 47.9374 60.6763 50.7144 60.6763 54.1278C60.6762 57.5411 57.8992 60.318 54.486 60.318ZM70.3873 50.9806L68.3586 50.1997C68.0531 49.1186 67.6222 48.079 67.0723 47.0971L67.9553 45.1092C68.1442 44.6839 68.0518 44.1862 67.7227 43.8571L64.7567 40.8911C64.4275 40.562 63.9301 40.4695 63.5045 40.6583L61.5158 41.5416C60.5341 40.992 59.4949 40.5613 58.4142 40.2557L57.633 38.2265C57.466 37.7921 57.0486 37.5057 56.5831 37.5057H52.3886C51.9231 37.5057 51.5059 37.7922 51.3387 38.2265L50.5573 40.2559C49.5059 40.5531 48.4941 40.97 47.5359 41.4984C44.1364 38.4964 40.0902 36.4084 35.7474 35.3712C40.5174 33.0058 43.8048 28.0845 43.8048 22.409C43.8048 21.7617 43.7602 21.1131 43.6742 20.4715C43.8345 20.276 43.9294 20.0268 43.9294 19.7585V9.87171L46.7125 9.13245V16.8649L45.0125 17.8464C44.6643 18.0474 44.45 18.4188 44.45 18.8207V25.7214C44.45 26.1478 44.691 26.5375 45.0725 26.728C45.4539 26.9183 45.9105 26.8768 46.2511 26.6206L47.8375 25.4277L49.4239 26.6206C49.6226 26.7699 49.8605 26.8464 50.1002 26.8464C50.2715 26.8464 50.4434 26.8073 50.6025 26.728C50.984 26.5376 51.225 26.1478 51.225 25.7214V18.8207C51.225 18.4188 51.0107 18.0474 50.6625 17.8464L48.9625 16.8649V8.53479L49.317 8.44057C49.8101 8.30965 50.1532 7.86345 50.1532 7.35326C50.1532 6.84307 49.8101 6.39687 49.317 6.26595L29.6347 1.03765C29.4454 0.987449 29.2463 0.987449 29.0572 1.03765L9.3746 6.26595C8.88157 6.39687 8.53845 6.84307 8.53845 7.35326C8.53845 7.86345 8.88157 8.30965 9.3746 8.44057L14.7622 9.87171V19.7584C14.7622 20.0267 14.8572 20.2759 15.0175 20.4713C14.9313 21.1131 14.8867 21.7618 14.8867 22.4089C14.8867 28.0845 18.1742 33.0059 22.9446 35.3714C18.4969 36.4335 14.3577 38.5962 10.9094 41.7147C5.88584 46.2577 2.72403 52.4527 2.00642 59.1584C1.97239 59.4758 2.07476 59.7926 2.28823 60.0301C2.5017 60.2675 2.80587 60.4031 3.12495 60.4031L41.5055 60.4029C41.6292 60.6583 41.7604 60.9102 41.8993 61.1584L41.0164 63.1462C40.8275 63.5716 40.9199 64.0693 41.2491 64.3984L44.2153 67.3644C44.5442 67.6935 45.0419 67.786 45.4673 67.5972L47.456 66.7139C48.4377 67.2635 49.4769 67.6943 50.5576 67.9998L51.3388 70.029C51.5059 70.4634 51.9232 70.7498 52.3887 70.7498H56.5833C57.0487 70.7498 57.466 70.4632 57.6332 70.029L58.4141 68.0005C59.4953 67.6949 60.5348 67.2639 61.5167 66.7142L63.5045 67.597C63.9297 67.786 64.4273 67.6936 64.7567 67.3644L67.7227 64.3984C68.0518 64.0693 68.1442 63.5716 67.9553 63.1462L67.0721 61.1575C67.6216 60.1757 68.0525 59.1366 68.3581 58.0559L70.3874 57.2747C70.8217 57.1077 71.1083 56.6903 71.1083 56.2248V52.0302C71.1081 51.5651 70.8215 51.1477 70.3873 50.9806ZM48.9752 19.4702V23.4679L48.5138 23.121C48.3135 22.9704 48.0757 22.8951 47.8377 22.8951C47.5996 22.8951 47.3618 22.9704 47.1615 23.121L46.7001 23.4679V19.4702L47.8377 18.8135L48.9752 19.4702ZM35.9305 37.7399C36.663 37.9375 37.3857 38.1677 38.0961 38.4303L34.1817 45.4062L30.9618 41.5884L35.9305 37.7399ZM29.3457 39.994L25.6557 37.136C26.8596 36.9606 28.0897 36.8683 29.3401 36.8681L29.3459 36.8682H29.3515C30.592 36.8685 31.8216 36.9606 33.0328 37.1385L29.3457 39.994ZM14.0453 7.35326L29.3459 3.28892L44.6465 7.35326L29.3459 11.4176L14.0453 7.35326ZM17.0122 10.4694L29.057 13.6689C29.1517 13.694 29.2487 13.7066 29.3459 13.7066C29.4431 13.7066 29.5401 13.694 29.6347 13.6689L41.6795 10.4694V18.8215C39.7888 19.1715 38.1971 19.4792 36.8831 19.7332C29.3459 21.1901 29.3459 21.1901 21.8088 19.7332C20.4947 19.4791 18.9031 19.1714 17.0124 18.8215L17.0122 10.4694ZM17.1367 22.4089C17.1367 21.9874 17.1602 21.5652 17.2035 21.1455C18.8249 21.448 20.2137 21.7164 21.3816 21.9423C25.3265 22.7049 27.3362 23.0861 29.3459 23.0861C31.3554 23.0861 33.3651 22.7049 37.31 21.9423C38.4781 21.7164 39.8669 21.448 41.4883 21.1455C41.5316 21.5651 41.555 21.9871 41.555 22.4089C41.555 29.1392 36.081 34.615 29.3514 34.6181H29.3456H29.34C22.6107 34.615 17.1367 29.1392 17.1367 22.4089ZM22.7538 37.7342L27.7297 41.5883L24.5099 45.4061L20.59 38.4207C21.2972 38.1605 22.019 37.9313 22.7538 37.7342ZM4.40759 58.1531C5.73073 49.7142 11.1521 42.7804 18.5017 39.2971L23.342 47.9229C23.5226 48.2446 23.8494 48.4574 24.2169 48.4923C24.2524 48.4956 24.2879 48.4973 24.3233 48.4973C24.6529 48.4973 24.9684 48.3523 25.1831 48.0977L29.3457 43.1619L33.5085 48.0977C33.7233 48.3525 34.0387 48.4973 34.3683 48.4973C34.4036 48.4973 34.4392 48.4956 34.4748 48.4923C34.8421 48.4574 35.169 48.2446 35.3496 47.9229L40.183 39.3093C41.417 39.8963 42.6051 40.5851 43.7356 41.3706L41.2492 43.8571C40.9202 44.1862 40.8278 44.6839 41.0166 45.1092L41.8998 47.0977C41.3501 48.0797 40.9192 49.1189 40.6136 50.1996L38.5847 50.9806C38.1504 51.1478 37.8638 51.5651 37.8638 52.0305V56.2251C37.8638 56.6906 38.1504 57.1078 38.5847 57.275L40.6133 58.0557C40.6225 58.0884 40.6329 58.1204 40.6423 58.1529L4.40759 58.1531ZM68.8581 55.4526L67.0107 56.1636C66.6645 56.2968 66.4063 56.5923 66.3206 56.9531C66.0226 58.2051 65.5283 59.3973 64.8515 60.4966C64.657 60.8124 64.6308 61.2039 64.7813 61.543L65.5855 63.3537L63.712 65.2273L61.9021 64.4235C61.5634 64.2731 61.1717 64.2992 60.8556 64.4937C59.7566 65.1705 58.564 65.665 57.3113 65.9631C56.9504 66.049 56.655 66.3072 56.5218 66.6534L55.8108 68.5H53.1612L52.45 66.6527C52.3168 66.3065 52.0214 66.0483 51.6607 65.9624C50.4087 65.6644 49.2165 65.1701 48.1172 64.4933C47.8011 64.2988 47.4096 64.2726 47.0708 64.4231L45.2601 65.2273L43.3865 63.3537L44.1904 61.5438C44.3409 61.2046 44.3147 60.8131 44.1201 60.4971C43.4434 59.3983 42.949 58.2058 42.651 56.9528C42.5651 56.592 42.3069 56.2965 41.9607 56.1634L40.114 55.4525V52.8028L41.9609 52.0918C42.3072 51.9585 42.5653 51.6632 42.6511 51.3024C42.9491 50.0504 43.4434 48.8582 44.1204 47.7588C44.3149 47.4428 44.341 47.0513 44.1905 46.7122L43.3865 44.9018L45.2601 43.028L47.0708 43.8322C47.4096 43.9826 47.8012 43.9565 48.1172 43.7619C49.2162 43.0852 50.4084 42.5909 51.6605 42.2929C52.0212 42.207 52.3167 41.9488 52.4499 41.6026L53.161 39.7554H55.8108L56.5219 41.6026C56.6551 41.9488 56.9504 42.207 57.3113 42.2929C58.5633 42.5909 59.7556 43.0852 60.8547 43.7621C61.1709 43.9565 61.5624 43.9826 61.9011 43.8322L63.7118 43.0281L65.5854 44.9017L64.7814 46.7115C64.631 47.0507 64.6571 47.4422 64.8517 47.7582C65.5287 48.8575 66.0231 50.05 66.321 51.3025C66.4069 51.6634 66.6651 51.9588 67.0113 52.092L68.858 52.8028L68.8581 55.4526Z" fill="#215679"/>
</svg>
