<svg width="72" height="72" viewBox="0 0 72 72" fill="none" xmlns="http://www.w3.org/2000/svg">
<g clip-path="url(#clip0_149_14242)">
<path d="M50.31 38.0836C50.31 38.255 50.1815 38.3836 49.9994 38.3836H47.975L47.7929 38.3193L47.7072 38.1158V4.03869C47.7072 3.42806 47.6537 3.17096 47.6001 3.06383C47.4502 2.74245 47.1717 2.60318 46.7325 2.60318C32.3582 2.60318 17.9839 2.60318 3.60964 2.60318C3.13835 2.60318 2.62422 2.83886 2.62422 3.51376C2.61351 23.3215 2.6028 43.1293 2.6028 62.9371C2.6028 63.4299 2.76346 63.7405 3.09551 63.8905C3.21333 63.9333 3.45968 63.9976 3.9524 63.9976C11.5251 63.9869 19.205 63.9869 26.992 63.9869H34.8218C35.0039 63.9869 35.1217 64.1155 35.1217 64.2976V66.3223L34.8646 66.5794H3.53466C1.928 66.5794 0.546266 65.551 0.149955 64.0726C0.0535555 63.7084 0 63.3013 0 62.8621C0.0107111 42.4973 0.0107111 22.7216 0.0107111 3.52448C0.0107111 2.0247 0.899732 0.728463 2.28146 0.224967C2.68849 0.0749888 3.15977 0 3.68462 0C10.604 0.0107127 17.352 0.0107127 23.9179 0.0107127C31.5763 0.0107127 39.0098 0.0107127 46.197 0C47.0431 0 47.6323 0.0642762 47.9964 0.203541C49.4424 0.749888 50.31 2.03541 50.31 3.64232C50.2993 15.6405 50.2993 27.1245 50.31 38.0836Z" fill="#215679"/>
<path d="M45.5864 4.72429C45.3294 4.4779 45.008 4.33864 44.6546 4.33864H5.65546C5.30199 4.33864 4.98066 4.4779 4.7343 4.72429C4.47724 4.97069 4.34871 5.30278 4.34871 5.6563V12.1375C4.34871 12.4803 4.47724 12.8124 4.7343 13.0588C4.98066 13.3052 5.30199 13.4444 5.65546 13.4444H44.6546C45.008 13.4444 45.3294 13.3052 45.5864 13.0588C45.8221 12.8124 45.9613 12.4803 45.9613 12.1375V5.6563C45.9613 5.31349 45.8221 4.97069 45.5864 4.72429ZM43.3692 10.852H6.94079V6.94182H43.3692V10.852Z" fill="#215679"/>
<path d="M12.2749 16.0048C12.1999 15.8441 12.1035 15.7048 11.9857 15.5763C11.8679 15.4584 11.7179 15.362 11.5573 15.287C11.3966 15.2227 11.2252 15.1906 11.0539 15.1906H5.66617C5.49479 15.1906 5.32342 15.212 5.16275 15.2763C5.00208 15.3513 4.86284 15.4477 4.7343 15.5655C4.61648 15.6834 4.52008 15.8334 4.44511 15.994C4.38084 16.1547 4.34871 16.3261 4.34871 16.4975V21.886C4.34871 22.0574 4.37013 22.2288 4.43439 22.3895C4.50937 22.5502 4.59506 22.7002 4.72359 22.818C4.84142 22.9466 4.99137 23.043 5.15204 23.1073C5.3127 23.1716 5.48408 23.2037 5.65546 23.2037H11.0431C11.2145 23.2144 11.3859 23.1823 11.5466 23.118C11.7072 23.0537 11.8465 22.9573 11.975 22.8287C12.0928 22.7109 12.1892 22.5609 12.2642 22.4002C12.3285 22.2395 12.3606 22.0789 12.3606 21.8967V16.5083C12.3713 16.3369 12.3392 16.1655 12.2749 16.0048ZM9.98274 20.7826C9.98274 20.7826 9.97203 20.804 9.96132 20.8148C9.96132 20.8148 9.9399 20.8255 9.92919 20.8255H6.78012L6.74799 20.8148C6.73728 20.8148 6.72657 20.7933 6.72657 20.7826V17.6224C6.72657 17.6224 6.73728 17.6117 6.73728 17.601C6.73728 17.601 6.73728 17.601 6.74799 17.601C6.74799 17.601 6.74799 17.5974 6.74799 17.5902H9.9399C9.9399 17.5902 9.95061 17.5902 9.95061 17.601C9.95061 17.6117 9.96132 17.6117 9.96132 17.6224V20.7826H9.98274Z" fill="#215679"/>
<path d="M16.4308 16.4868H14.3743C14.3743 16.4868 14.3207 16.5083 14.3207 16.5404V18.5865C14.3207 18.5865 14.3422 18.6401 14.3743 18.6401H16.4308C16.4308 18.6401 16.4844 18.6187 16.4844 18.5865V16.5404C16.4844 16.5404 16.463 16.4868 16.4308 16.4868Z" fill="#215679"/>
<path d="M44.8795 16.5511V18.5865L44.601 18.8651H18.7123L18.4338 18.5865V16.5511L18.7123 16.2726H44.601L44.8795 16.5511Z" fill="#215679"/>
<path d="M44.8795 20.8898V22.9252L44.7938 23.1287L44.601 23.2037H14.385L14.1815 23.1287L14.0958 22.9252V20.8898L14.1815 20.6862L14.385 20.6112H44.601L44.7938 20.6862L44.8795 20.8898Z" fill="#215679"/>
<path d="M12.2642 25.7533C12.1999 25.5926 12.1035 25.4534 11.9857 25.3248C11.8572 25.207 11.7179 25.1106 11.5573 25.0356C11.3966 24.9713 11.2252 24.9391 11.0431 24.9391H5.66617C5.48408 24.9391 5.3127 24.9713 5.15204 25.0356C4.99137 25.1106 4.85213 25.207 4.7343 25.3248C4.60577 25.4534 4.50937 25.5926 4.4451 25.7533C4.38084 25.914 4.33799 26.0854 4.33799 26.2568V31.6453C4.33799 31.9988 4.47724 32.3309 4.7343 32.5773C4.98066 32.8237 5.3127 32.963 5.66617 32.963H11.0431C11.3966 32.963 11.7287 32.8237 11.9857 32.5773C12.2321 32.3309 12.3713 31.9988 12.3713 31.6453V26.2568C12.3713 26.0854 12.3285 25.914 12.2642 25.7533ZM9.98274 30.5205C9.98274 30.5205 9.97203 30.5526 9.96132 30.5633C9.95061 30.574 9.9399 30.574 9.92919 30.574H6.78012C6.78012 30.574 6.7587 30.574 6.74799 30.5633C6.73728 30.5526 6.72657 30.5419 6.72657 30.5205V27.3816C6.72657 27.3816 6.73728 27.3495 6.74799 27.3388C6.74799 27.3281 6.76941 27.3281 6.78012 27.3281H9.92919C9.92919 27.3281 9.95061 27.3281 9.96132 27.3388C9.96132 27.3495 9.98274 27.3709 9.98274 27.3816V30.5205Z" fill="#215679"/>
<path d="M16.4308 26.2461H14.3743C14.3743 26.2461 14.31 26.2782 14.31 26.3104V28.3565C14.31 28.3565 14.3422 28.4208 14.3743 28.4208H16.4308C16.4308 28.4208 16.4951 28.3886 16.4951 28.3565V26.3104C16.4951 26.3104 16.463 26.2461 16.4308 26.2461Z" fill="#215679"/>
<path d="M44.8795 26.2997V28.3565L44.6117 28.6243H18.7016L18.4338 28.3565V26.2997L18.7016 26.0318H44.6117L44.8795 26.2997Z" fill="#215679"/>
<path d="M44.8795 30.6276V32.6951L44.6117 32.963H14.3636L14.0958 32.6951V30.6276L14.3636 30.3598H44.6117L44.8795 30.6276Z" fill="#215679"/>
<path d="M12.3606 36.0161C12.3606 35.6626 12.2214 35.3305 11.975 35.0841C11.7287 34.827 11.3966 34.6984 11.0431 34.6984H5.65546C5.48408 34.6984 5.3127 34.7413 5.15204 34.8055C4.99137 34.8698 4.85213 34.9662 4.72359 35.0948C4.60577 35.2126 4.50937 35.3626 4.43439 35.5233C4.37013 35.684 4.33799 35.8554 4.33799 36.0268V41.4153C4.33799 41.7581 4.48795 42.1009 4.7343 42.3473C4.98066 42.5937 5.3127 42.7329 5.66617 42.7329H11.0539C11.2252 42.7222 11.3966 42.6901 11.5573 42.6151C11.7179 42.5508 11.8572 42.4544 11.9857 42.3366C12.1142 42.208 12.2107 42.058 12.2749 41.9081C12.3392 41.7474 12.3713 41.576 12.3713 41.3938V36.0161H12.3606ZM9.98274 40.2797C9.98274 40.2797 9.97203 40.3119 9.96132 40.3226C9.95061 40.3333 9.9399 40.3333 9.91848 40.3333H6.79083C6.79083 40.3333 6.7587 40.3333 6.74799 40.3226C6.73728 40.3119 6.72657 40.2904 6.72657 40.2797V37.1409C6.72657 37.1409 6.73728 37.1195 6.74799 37.1088C6.74799 37.0981 6.76941 37.0873 6.79083 37.0873H9.91848C9.91848 37.0873 9.95061 37.0981 9.96132 37.1088C9.96132 37.1195 9.98274 37.1302 9.98274 37.1409V40.2797Z" fill="#215679"/>
<path d="M16.4844 36.0589V38.1158C16.4844 38.1158 16.463 38.1693 16.4308 38.1693H14.3743C14.3743 38.1693 14.31 38.1479 14.31 38.1158V36.0589C14.31 36.0589 14.3422 36.0054 14.3743 36.0054H16.4308C16.4308 36.0054 16.4844 36.0268 16.4844 36.0589Z" fill="#215679"/>
<path d="M16.4844 36.0589V38.1158C16.4844 38.1158 16.463 38.1693 16.4308 38.1693H14.3743C14.3743 38.1693 14.31 38.1479 14.31 38.1158V36.0589C14.31 36.0589 14.3422 36.0054 14.3743 36.0054H16.4308C16.4308 36.0054 16.4844 36.0268 16.4844 36.0589Z" fill="#215679"/>
<path d="M44.8795 36.0589V38.1158L44.6117 38.3836H18.7123L18.4338 38.1158V36.0589L18.7123 35.7911H44.6117L44.8795 36.0589Z" fill="#215679"/>
<path d="M71.9786 45.9039C71.9786 44.3077 71.2609 43.1829 69.8471 42.5615C69.44 42.3901 68.9902 42.2937 68.4975 42.2937H66.5588C66.4838 41.3403 66.1089 40.5583 65.4341 39.9583C64.7807 39.3584 63.9667 39.0478 63.0991 39.0478C61.4817 39.0478 59.7679 40.2583 59.6394 42.2937H57.8828C57.8078 41.201 57.3258 40.3226 56.4582 39.6798C55.8798 39.2513 55.1514 39.0156 54.4017 39.0156C53.9732 39.0156 53.5769 39.0906 53.202 39.2406C51.8631 39.7869 51.1134 40.8154 50.9634 42.2937H49.2068C49.0461 40.4404 47.5894 39.0478 45.7792 39.0478C45.3722 39.0478 44.9545 39.1228 44.5475 39.262C43.2943 39.7012 42.3838 40.9332 42.2981 42.3044H40.3273C38.4207 42.3044 36.8676 43.8578 36.8676 45.7539V68.5827C36.8676 69.5468 37.2639 70.4252 37.9816 71.068C38.6564 71.6679 39.5561 72 40.5094 72H40.5201C45.64 72 50.7278 71.9893 55.7834 71.9893C60.0036 71.9893 64.1916 72 68.3689 72C69.922 72 71.2181 71.1537 71.7536 69.7718C71.9036 69.3968 71.9786 68.7541 72 67.8113C72 67.8113 71.9893 60.5053 71.9786 45.9039ZM62.2422 42.4544C62.2422 42.2401 62.3279 42.0366 62.4778 41.8866C62.6278 41.7366 62.8313 41.651 63.0455 41.651H63.1526C63.3669 41.651 63.5704 41.7366 63.7203 41.8866C63.8703 42.0366 63.956 42.2401 63.956 42.4544V44.6826C63.956 44.7898 63.9345 44.8969 63.9024 44.9933C63.8596 45.0897 63.7953 45.1861 63.7203 45.2611C63.6453 45.3361 63.5597 45.3897 63.4633 45.4325C63.3669 45.4754 63.2597 45.4968 63.0455 45.4968C62.8313 45.4968 62.6278 45.4111 62.4778 45.2611C62.3279 45.1111 62.2422 44.8969 62.2422 44.6826V42.4544ZM53.5662 42.4544C53.5662 42.3473 53.5876 42.2401 53.6305 42.1437C53.6733 42.0473 53.7269 41.9616 53.8018 41.8866C53.8768 41.8116 53.9732 41.7474 54.0696 41.7152C54.166 41.6724 54.2731 41.651 54.3802 41.651H54.4874C54.5945 41.651 54.6909 41.6724 54.7873 41.7152C54.8944 41.7474 54.9801 41.8116 55.055 41.8866C55.13 41.9616 55.1836 42.0473 55.2264 42.1544C55.2693 42.2509 55.2907 42.3473 55.2907 42.4544V44.7576C55.2907 44.8648 55.2586 44.9719 55.2264 45.0683C55.1836 45.1647 55.1193 45.2504 55.0443 45.3254C54.9694 45.4004 54.8837 45.4647 54.7873 45.5075C54.6909 45.5397 54.5838 45.5611 54.4766 45.5611H54.3695C54.2624 45.5611 54.1553 45.5397 54.0589 45.4968C53.9625 45.4647 53.8768 45.4004 53.8018 45.3254C53.7269 45.2504 53.6626 45.1647 53.6198 45.0683C53.5876 44.9612 53.5662 44.8648 53.5662 44.7576V42.4544ZM44.8902 42.4651C44.8795 42.2509 44.9652 42.0473 45.1151 41.8973C45.2758 41.7367 45.4793 41.651 45.6935 41.651H45.8007C45.9078 41.651 46.0149 41.6724 46.1113 41.7152C46.2077 41.7581 46.2934 41.8116 46.3791 41.8866C46.454 41.9616 46.5076 42.0473 46.5504 42.1544C46.5933 42.2509 46.6147 42.3473 46.6147 42.4651V44.6826C46.6254 44.8969 46.5397 45.1004 46.3898 45.2504C46.2398 45.4004 46.0256 45.4968 45.8114 45.4968H45.7043C45.5971 45.4968 45.49 45.4754 45.3936 45.4325C45.2972 45.3897 45.2115 45.3361 45.1366 45.2611C45.0616 45.1861 44.9973 45.1004 44.9545 44.9933C44.9116 44.8969 44.8902 44.7898 44.8902 44.6826V42.4651ZM69.3972 68.4434C69.3972 68.7005 69.2901 68.9469 69.1187 69.129C68.9259 69.3111 68.6903 69.4182 68.4332 69.4182H40.413C40.1559 69.4182 39.9095 69.3111 39.7275 69.129C39.5454 68.9469 39.449 68.7005 39.449 68.4434V52.7921C39.449 52.6957 39.449 52.5886 39.4597 52.4601H69.3865C69.3972 52.5565 69.3972 52.6743 69.3972 52.7921V68.4434ZM69.3865 49.8783H39.4597V45.8503C39.4597 45.229 39.8346 44.8862 40.4879 44.8862V44.6719L40.5201 44.8862C40.8521 44.8862 41.1735 44.8969 41.4841 44.8969C41.7626 44.8969 42.0303 44.8862 42.2874 44.8862C42.5445 46.6859 43.5192 47.7679 45.1794 48.0786C45.3936 48.1214 45.6186 48.1428 45.8221 48.1428C47.5894 48.1428 49.0247 46.7502 49.2068 44.8862H50.9634C51.1348 46.7395 52.5379 48.1107 54.4231 48.1536C56.2547 48.1536 57.7864 46.6966 57.8828 44.8862L59.6394 44.854C59.7572 46.9109 61.471 48.1321 63.0991 48.1321C63.881 48.1321 64.6308 47.875 65.2627 47.3715C66.0339 46.7609 66.4624 45.9253 66.5588 44.8862H68.3475C68.7117 44.8862 68.9688 44.9719 69.1401 45.1433C69.3115 45.3147 69.3972 45.5825 69.3972 45.9575C69.3865 47.2644 69.3865 48.5713 69.3865 49.8783Z" fill="#215679"/>
<path d="M36.2142 40.3976V42.4437L35.9357 42.7222H14.3743L14.0958 42.4437V40.3976L14.3743 40.119H35.9357L36.2142 40.3976Z" fill="#215679"/>
<path d="M11.9857 44.8433C11.7394 44.5969 11.3966 44.4577 11.0539 44.4577H5.65546C5.3127 44.4577 4.96995 44.5969 4.72359 44.8433C4.47724 45.0897 4.33799 45.4218 4.33799 45.7753V51.1638C4.33799 51.5173 4.47724 51.8494 4.72359 52.0958C4.98066 52.3422 5.30199 52.4815 5.65546 52.4815H11.0539C11.4073 52.4815 11.7287 52.3422 11.9857 52.0958C12.2321 51.8494 12.3713 51.5173 12.3713 51.1638V45.7753C12.3713 45.4218 12.2321 45.0897 11.9857 44.8433ZM9.98274 50.039C9.98274 50.039 9.97203 50.0604 9.96132 50.0711C9.95061 50.0711 9.9399 50.0925 9.92919 50.0925H6.78012C6.78012 50.0925 6.7587 50.0818 6.74799 50.0711C6.73728 50.0604 6.72657 50.0497 6.72657 50.039V46.9002C6.72657 46.9002 6.73728 46.868 6.74799 46.8573C6.74799 46.8573 6.76941 46.8466 6.78012 46.8466H9.92919C9.92919 46.8466 9.95061 46.8573 9.96132 46.8573C9.96132 46.8573 9.98274 46.8787 9.98274 46.9002V50.039Z" fill="#215679"/>
<path d="M16.4844 45.8182V47.8643C16.4844 47.8643 16.463 47.9286 16.4201 47.9286H14.3743C14.3743 47.9286 14.31 47.9072 14.31 47.8643V45.8182C14.31 45.8182 14.3422 45.7539 14.3743 45.7539H16.4201C16.4201 45.7539 16.4844 45.786 16.4844 45.8182Z" fill="#215679"/>
<path d="M16.4844 45.8182V47.8643C16.4844 47.8643 16.463 47.9286 16.4201 47.9286H14.3743C14.3743 47.9286 14.31 47.9072 14.31 47.8643V45.8182C14.31 45.8182 14.3422 45.7539 14.3743 45.7539H16.4201C16.4201 45.7539 16.4844 45.786 16.4844 45.8182Z" fill="#215679"/>
<path d="M35.1217 45.8182V47.875L34.8539 48.1428H18.7123L18.4338 47.875V45.8182L18.7123 45.5396H34.8539L35.1217 45.8182Z" fill="#215679"/>
<path d="M35.1217 50.1461V52.2137L34.8539 52.4815H14.3636L14.0958 52.2137V50.1461L14.3636 49.8783H34.8539L35.1217 50.1461Z" fill="#215679"/>
<path d="M11.975 54.6026C11.7287 54.3562 11.3966 54.2169 11.0431 54.2169H5.66617C5.3127 54.2169 4.98066 54.3562 4.7343 54.6026C4.48795 54.849 4.33799 55.1811 4.33799 55.5346V60.9231C4.33799 61.2659 4.48795 61.6087 4.7343 61.8551C4.98066 62.1015 5.3127 62.2407 5.66617 62.2407H11.0431C11.3966 62.2407 11.7287 62.1015 11.975 61.8551C12.2214 61.6087 12.3713 61.2659 12.3713 60.9231V55.5346C12.3713 55.1811 12.2214 54.849 11.975 54.6026ZM9.98274 59.7982C9.98274 59.7982 9.97203 59.8304 9.96132 59.8411C9.96132 59.8411 9.9399 59.8411 9.92919 59.8411H6.78012C6.78012 59.8411 6.7587 59.8411 6.74799 59.8411C6.73728 59.8304 6.72657 59.8197 6.72657 59.7982V56.6487C6.72657 56.6487 6.73728 56.6273 6.74799 56.6166C6.74799 56.6059 6.76941 56.6059 6.78012 56.6059H9.92919C9.92919 56.6059 9.96132 56.6059 9.96132 56.6166C9.96132 56.6273 9.98274 56.638 9.98274 56.6487V59.7982Z" fill="#215679"/>
<path d="M16.4201 55.5132H14.3743C14.3743 55.5132 14.31 55.5453 14.31 55.5774V57.6236C14.31 57.6236 14.3422 57.6878 14.3743 57.6878H16.4201C16.4201 57.6878 16.4844 57.6557 16.4844 57.6236V55.5774C16.4844 55.5774 16.4522 55.5132 16.4201 55.5132Z" fill="#215679"/>
<path d="M35.1217 55.5667V57.6236L34.8539 57.9021H18.7123L18.4338 57.6236V55.5667L18.7123 55.2989H34.8539L35.1217 55.5667Z" fill="#215679"/>
<path d="M48.9497 55.5132H46.8932C46.8636 55.5132 46.8396 55.5371 46.8396 55.5667V57.6343C46.8396 57.6639 46.8636 57.6878 46.8932 57.6878H48.9497C48.9793 57.6878 49.0033 57.6639 49.0033 57.6343V55.5667C49.0033 55.5371 48.9793 55.5132 48.9497 55.5132Z" fill="#215679"/>
<path d="M48.9497 55.5132H46.8932C46.8636 55.5132 46.8396 55.5371 46.8396 55.5667V57.6343C46.8396 57.6639 46.8636 57.6878 46.8932 57.6878H48.9497C48.9793 57.6878 49.0033 57.6639 49.0033 57.6343V55.5667C49.0033 55.5371 48.9793 55.5132 48.9497 55.5132Z" fill="#215679"/>
<path d="M53.2877 55.5132H51.2419C51.2419 55.5132 51.1776 55.5453 51.1776 55.5774V57.6343C51.1776 57.6343 51.2098 57.6986 51.2419 57.6986H53.2877C53.2877 57.6986 53.352 57.6664 53.352 57.6343V55.5774C53.352 55.5774 53.3198 55.5132 53.2877 55.5132Z" fill="#215679"/>
<path d="M57.6793 55.5774V57.6236C57.6793 57.6236 57.6578 57.6878 57.615 57.6878H55.5692C55.5692 57.6878 55.5049 57.6557 55.5049 57.6236V55.5774C55.5049 55.5774 55.537 55.5132 55.5692 55.5132H57.615C57.615 55.5132 57.6793 55.5453 57.6793 55.5774Z" fill="#215679"/>
<path d="M57.6793 55.5774V57.6236C57.6793 57.6236 57.6578 57.6878 57.615 57.6878H55.5692C55.5692 57.6878 55.5049 57.6557 55.5049 57.6236V55.5774C55.5049 55.5774 55.537 55.5132 55.5692 55.5132H57.615C57.615 55.5132 57.6793 55.5453 57.6793 55.5774Z" fill="#215679"/>
<path d="M62.0173 55.5774V57.6236C62.0173 57.6236 61.9851 57.6878 61.9423 57.6878H59.9072C59.9072 57.6878 59.8429 57.6557 59.8429 57.6236V55.5774C59.8429 55.5774 59.875 55.5132 59.9072 55.5132H61.9423C61.9423 55.5132 62.0173 55.5453 62.0173 55.5774Z" fill="#215679"/>
<path d="M62.0173 55.5774V57.6236C62.0173 57.6236 61.9851 57.6878 61.9423 57.6878H59.9072C59.9072 57.6878 59.8429 57.6557 59.8429 57.6236V55.5774C59.8429 55.5774 59.875 55.5132 59.9072 55.5132H61.9423C61.9423 55.5132 62.0173 55.5453 62.0173 55.5774Z" fill="#215679"/>
<path d="M66.3445 55.5774V57.6236C66.3445 57.6236 66.3231 57.6878 66.291 57.6878H64.2452C64.2452 57.6878 64.1809 57.6557 64.1809 57.6236V55.5774C64.1809 55.5774 64.213 55.5132 64.2452 55.5132H66.291C66.291 55.5132 66.3445 55.5453 66.3445 55.5774Z" fill="#215679"/>
<path d="M66.3445 55.5774V57.6236C66.3445 57.6236 66.3231 57.6878 66.291 57.6878H64.2452C64.2452 57.6878 64.1809 57.6557 64.1809 57.6236V55.5774C64.1809 55.5774 64.213 55.5132 64.2452 55.5132H66.291C66.291 55.5132 66.3445 55.5453 66.3445 55.5774Z" fill="#215679"/>
<path d="M35.1217 59.9054V61.9622L34.8539 62.2407H14.3743L14.0958 61.9622V59.9054L14.3743 59.6376H34.8539L35.1217 59.9054Z" fill="#215679"/>
<path d="M44.6653 59.9054V61.9622C44.6653 61.9622 44.6439 62.0265 44.6117 62.0265H42.5659C42.5659 62.0265 42.5016 61.9943 42.5016 61.9622V59.9054C42.5016 59.9054 42.5338 59.8518 42.5659 59.8518H44.6117C44.6117 59.8518 44.6653 59.8732 44.6653 59.9054Z" fill="#215679"/>
<path d="M44.6653 59.9054V61.9622C44.6653 61.9622 44.6439 62.0265 44.6117 62.0265H42.5659C42.5659 62.0265 42.5016 61.9943 42.5016 61.9622V59.9054C42.5016 59.9054 42.5338 59.8518 42.5659 59.8518H44.6117C44.6117 59.8518 44.6653 59.8732 44.6653 59.9054Z" fill="#215679"/>
<path d="M49.0033 59.9054V61.9729C49.0033 61.9729 48.9819 62.0265 48.9497 62.0265H46.8932C46.8932 62.0265 46.8396 61.9943 46.8396 61.9729V59.9054C46.8396 59.9054 46.8611 59.8518 46.8932 59.8518H48.9497C48.9497 59.8518 49.0033 59.8732 49.0033 59.9054Z" fill="#215679"/>
<path d="M49.0033 59.9054V61.9729C49.0033 61.9729 48.9819 62.0265 48.9497 62.0265H46.8932C46.8932 62.0265 46.8396 61.9943 46.8396 61.9729V59.9054C46.8396 59.9054 46.8611 59.8518 46.8932 59.8518H48.9497C48.9497 59.8518 49.0033 59.8732 49.0033 59.9054Z" fill="#215679"/>
<path d="M53.3413 59.9161V61.9622C53.3413 61.9622 53.3198 62.0265 53.277 62.0265H51.2419C51.2419 62.0265 51.1776 61.9943 51.1776 61.9622V59.9161C51.1776 59.9161 51.199 59.8518 51.2419 59.8518H53.277C53.277 59.8518 53.3413 59.8732 53.3413 59.9161Z" fill="#215679"/>
<path d="M53.3413 59.9161V61.9622C53.3413 61.9622 53.3198 62.0265 53.277 62.0265H51.2419C51.2419 62.0265 51.1776 61.9943 51.1776 61.9622V59.9161C51.1776 59.9161 51.199 59.8518 51.2419 59.8518H53.277C53.277 59.8518 53.3413 59.8732 53.3413 59.9161Z" fill="#215679"/>
<path d="M57.6793 59.9161V61.9515C57.6793 61.9515 57.6471 62.0265 57.615 62.0265H55.5799C55.5799 62.0265 55.5049 61.9943 55.5049 61.9515V59.9161C55.5049 59.9161 55.537 59.8518 55.5799 59.8518H57.615C57.615 59.8518 57.6793 59.8839 57.6793 59.9161Z" fill="#215679"/>
<path d="M57.6793 59.9161V61.9515C57.6793 61.9515 57.6471 62.0265 57.615 62.0265H55.5799C55.5799 62.0265 55.5049 61.9943 55.5049 61.9515V59.9161C55.5049 59.9161 55.537 59.8518 55.5799 59.8518H57.615C57.615 59.8518 57.6793 59.8839 57.6793 59.9161Z" fill="#215679"/>
<path d="M62.0173 59.9161V61.9515C62.0173 61.9515 61.9851 62.0265 61.953 62.0265H59.9072C59.9072 62.0265 59.8429 61.9943 59.8429 61.9622V59.9161C59.8429 59.9161 59.8643 59.8518 59.9072 59.8518H61.953C61.953 59.8518 62.0173 59.8732 62.0173 59.9161Z" fill="#215679"/>
<path d="M62.0173 59.9161V61.9515C62.0173 61.9515 61.9851 62.0265 61.953 62.0265H59.9072C59.9072 62.0265 59.8429 61.9943 59.8429 61.9622V59.9161C59.8429 59.9161 59.8643 59.8518 59.9072 59.8518H61.953C61.953 59.8518 62.0173 59.8732 62.0173 59.9161Z" fill="#215679"/>
<path d="M66.291 59.8518H64.2452C64.2452 59.8518 64.1809 59.8839 64.1809 59.9161V61.9729C64.1809 61.9729 64.213 62.0372 64.2452 62.0372H66.291C66.291 62.0372 66.3552 62.0051 66.3552 61.9729V59.9161C66.3552 59.9161 66.3231 59.8518 66.291 59.8518Z" fill="#215679"/>
<path d="M44.6117 64.1904H42.5659C42.5659 64.1904 42.5123 64.2119 42.5123 64.244V66.3008C42.5123 66.3008 42.5338 66.3544 42.5659 66.3544H44.6117C44.6117 66.3544 44.6653 66.333 44.6653 66.3008V64.244C44.6653 64.244 44.6439 64.1904 44.6117 64.1904Z" fill="#215679"/>
<path d="M49.0033 64.2333V66.3116C49.0033 66.3116 48.9818 66.3544 48.9604 66.3544H46.8932C46.8932 66.3544 46.8396 66.333 46.8396 66.3116V64.2333C46.8396 64.2333 46.8611 64.1904 46.8932 64.1904H48.9604C48.9604 64.1904 49.0033 64.2119 49.0033 64.2333Z" fill="#215679"/>
<path d="M49.0033 64.2333V66.3116C49.0033 66.3116 48.9818 66.3544 48.9604 66.3544H46.8932C46.8932 66.3544 46.8396 66.333 46.8396 66.3116V64.2333C46.8396 64.2333 46.8611 64.1904 46.8932 64.1904H48.9604C48.9604 64.1904 49.0033 64.2119 49.0033 64.2333Z" fill="#215679"/>
<path d="M53.2877 64.1904H51.2312C51.2016 64.1904 51.1776 64.2144 51.1776 64.244V66.3008C51.1776 66.3304 51.2016 66.3544 51.2312 66.3544H53.2877C53.3173 66.3544 53.3413 66.3304 53.3413 66.3008V64.244C53.3413 64.2144 53.3173 64.1904 53.2877 64.1904Z" fill="#215679"/>
<path d="M53.2877 64.1904H51.2312C51.2016 64.1904 51.1776 64.2144 51.1776 64.244V66.3008C51.1776 66.3304 51.2016 66.3544 51.2312 66.3544H53.2877C53.3173 66.3544 53.3413 66.3304 53.3413 66.3008V64.244C53.3413 64.2144 53.3173 64.1904 53.2877 64.1904Z" fill="#215679"/>
<path d="M57.6793 64.2547V66.2901C57.6793 66.2901 57.6471 66.3544 57.615 66.3544H55.5692C55.5692 66.3544 55.5049 66.333 55.5049 66.2901V64.2547C55.5049 64.2547 55.537 64.1904 55.5692 64.1904H57.615C57.615 64.1904 57.6793 64.2119 57.6793 64.2547Z" fill="#215679"/>
<path d="M57.6793 64.2547V66.2901C57.6793 66.2901 57.6471 66.3544 57.615 66.3544H55.5692C55.5692 66.3544 55.5049 66.333 55.5049 66.2901V64.2547C55.5049 64.2547 55.537 64.1904 55.5692 64.1904H57.615C57.615 64.1904 57.6793 64.2119 57.6793 64.2547Z" fill="#215679"/>
<path d="M62.0173 64.2547V66.2901C62.0173 66.2901 61.9851 66.3544 61.953 66.3544H59.9072C59.9072 66.3544 59.8429 66.333 59.8429 66.2901V64.2547C59.8429 64.2547 59.875 64.1904 59.9072 64.1904H61.953C61.953 64.1904 62.0173 64.2119 62.0173 64.2547Z" fill="#215679"/>
<path d="M62.0173 64.2547V66.2901C62.0173 66.2901 61.9851 66.3544 61.953 66.3544H59.9072C59.9072 66.3544 59.8429 66.333 59.8429 66.2901V64.2547C59.8429 64.2547 59.875 64.1904 59.9072 64.1904H61.953C61.953 64.1904 62.0173 64.2119 62.0173 64.2547Z" fill="#215679"/>
</g>
<defs>
<clipPath id="clip0_149_14242">
<rect width="72" height="72" fill="white"/>
</clipPath>
</defs>
</svg>
