<svg width="73" height="72" viewBox="0 0 73 72" fill="none" xmlns="http://www.w3.org/2000/svg">
<g clip-path="url(#clip0_1632_963)">
<path fill-rule="evenodd" clip-rule="evenodd" d="M10.7207 72C5.08972 72 0.5 67.4103 0.5 61.7793C0.5 56.1483 5.08972 51.5586 10.7207 51.5586H62.2793C67.9103 51.5586 72.5 56.1483 72.5 61.7793C72.5 67.4103 67.9103 72 62.2793 72H10.7207ZM10.7207 53.8029C6.32308 53.8029 2.74431 57.3816 2.74431 61.7793C2.74431 66.1769 6.32308 69.7557 10.7207 69.7557H62.2793C66.6769 69.7557 70.2557 66.1769 70.2557 61.7793C70.2557 57.3816 66.6769 53.8029 62.2793 53.8029H10.7207ZM57.73 67.4507C57.2852 67.4507 56.8808 67.1879 56.6988 66.7835L54.6971 62.2645L52.6955 66.7835C52.5135 67.1879 52.1091 67.4507 51.6643 67.4507C51.1487 67.4305 50.7443 67.1171 50.6028 66.6824L47.5699 57.5838C47.4789 57.3008 47.4992 56.9975 47.6306 56.7346C47.762 56.4617 47.9945 56.2595 48.2877 56.1685C48.3989 56.1281 48.5202 56.1078 48.6415 56.1078C49.1268 56.1078 49.5514 56.4212 49.7131 56.8762L51.8361 63.235L53.6862 59.0497C53.8682 58.6453 54.2725 58.3825 54.7174 58.3825C55.1622 58.3825 55.5666 58.6453 55.7485 59.0497L57.5986 63.235L59.7216 56.8762C59.8732 56.4212 60.3079 56.1078 60.7932 56.1078C60.9145 56.1078 61.0358 56.1281 61.147 56.1685C61.4301 56.2595 61.6626 56.4617 61.8041 56.7346C61.9356 56.9975 61.9558 57.3008 61.8648 57.5838L58.8319 66.6824C58.6904 67.1171 58.286 67.4305 57.821 67.4507H57.7704H57.73ZM39.5329 67.4507C39.088 67.4507 38.6837 67.1879 38.5017 66.7835L36.5 62.2645L34.4983 66.7835C34.3163 67.1879 33.912 67.4507 33.4671 67.4507C32.9516 67.4305 32.5472 67.1171 32.4056 66.6824L29.3728 57.5838C29.2818 57.3008 29.302 56.9975 29.4334 56.7346C29.5649 56.4718 29.7974 56.2595 30.0906 56.1685C30.2018 56.1281 30.3231 56.1078 30.4444 56.1078C30.9297 56.1078 31.3543 56.4212 31.516 56.8762L33.639 63.235L35.489 59.0497C35.671 58.6453 36.0754 58.3825 36.5202 58.3825C36.965 58.3825 37.3694 58.6453 37.5514 59.0497L39.4014 63.235L41.5244 56.8762C41.6761 56.4212 42.1108 56.1078 42.596 56.1078C42.7174 56.1078 42.8387 56.1281 42.9499 56.1685C43.2329 56.2595 43.4655 56.4617 43.607 56.7346C43.7384 56.9975 43.7586 57.3008 43.6677 57.5838L40.6348 66.6824C40.4933 67.1171 40.0889 67.4305 39.6238 67.4507H39.5733H39.5329ZM21.3357 67.4507C20.8909 67.4507 20.4865 67.1879 20.3045 66.7835L18.3029 62.2645L16.3012 66.7835C16.1192 67.1879 15.7148 67.4507 15.27 67.4507C14.7544 67.4305 14.35 67.1171 14.2085 66.6824L11.1757 57.5838C11.0847 57.3008 11.1049 56.9975 11.2363 56.7346C11.3677 56.4718 11.6003 56.2595 11.8934 56.1685C12.0046 56.1281 12.1259 56.1078 12.2473 56.1078C12.7325 56.1078 13.1571 56.4212 13.3189 56.8762L15.4419 63.235L17.2919 59.0497C17.4739 58.6453 17.8783 58.3825 18.3231 58.3825C18.7679 58.3825 19.1723 58.6453 19.3543 59.0497L21.2043 63.235L23.3273 56.8762C23.4789 56.4212 23.9136 56.1078 24.3989 56.1078C24.5202 56.1078 24.6314 56.1281 24.7527 56.1685C25.0358 56.2595 25.2683 56.4617 25.4099 56.7346C25.5514 57.0076 25.5615 57.3008 25.4705 57.5838L22.4377 66.6824C22.2961 67.1171 21.8917 67.4305 21.4267 67.4507H21.3762H21.3357ZM68.5876 50.8104C68.436 50.8104 68.2843 50.7801 68.1428 50.7195C67.5767 50.4768 67.3138 49.8197 67.5564 49.2435C69.1436 45.5434 70.0333 41.6007 70.2152 37.5366L70.2355 37.1222H55.8092V37.5063C55.7182 41.2064 55.334 44.8458 54.6668 48.3437C54.5657 48.8694 54.1007 49.2536 53.5649 49.2536C53.4941 49.2536 53.4233 49.2536 53.3526 49.2334C52.746 49.112 52.3517 48.5257 52.4629 47.9191C53.1099 44.5931 53.4739 41.0952 53.5649 37.5265V37.1222H37.6323V48.1314C37.6323 48.7481 37.1268 49.2536 36.5101 49.2536C35.8934 49.2536 35.388 48.7481 35.388 48.1314V37.1222H19.4452V37.5265C19.5362 41.0952 19.9103 44.5931 20.5573 47.9191C20.6786 48.5257 20.2742 49.112 19.6676 49.2334C19.5969 49.2435 19.5261 49.2536 19.4553 49.2536C18.9195 49.2536 18.4545 48.8694 18.3534 48.3437C17.6761 44.8458 17.2919 41.2064 17.2211 37.5063V37.1222H2.76453L2.78475 37.5366C2.96672 41.6007 3.85636 45.5434 5.44356 49.2435C5.68618 49.8096 5.42334 50.4768 4.8572 50.7195C4.71567 50.7801 4.56403 50.8104 4.41238 50.8104C3.96757 50.8104 3.55307 50.5375 3.38121 50.123C1.47051 45.6546 0.5 40.9031 0.5 36C0.5 16.1449 16.6449 0 36.5 0C56.3551 0 72.5 16.1449 72.5 36C72.5 40.893 71.5295 45.6546 69.6188 50.123C69.4368 50.5375 69.0324 50.8003 68.5876 50.8003V50.8104ZM63.9878 16.8324C60.6314 17.5299 57.2346 18.1062 53.8985 18.5409L53.4436 18.6015L53.5649 19.0362C54.9297 23.8686 55.6879 29.0649 55.7991 34.4937V34.8778H70.2254L70.2051 34.4634C69.9322 28.2056 67.9204 22.1702 64.3821 16.9941L64.2304 16.7818L63.9777 16.8324H63.9878ZM50.8555 18.9048C46.5994 19.3698 42.2725 19.6226 38.0063 19.6731H37.6222V34.8778H53.5649V34.4735C53.4334 29.1053 52.6348 23.818 51.27 19.1879L51.179 18.8745L50.8555 18.9149V18.9048ZM21.7199 19.1879C20.3551 23.8281 19.5666 29.1154 19.4452 34.4735V34.8778H35.3778V19.6832H34.9836C30.7174 19.6327 26.4006 19.3698 22.1344 18.9048L21.8109 18.8644L21.7199 19.1778V19.1879ZM8.60784 16.9941C5.0695 22.1702 3.05771 28.2056 2.78475 34.4634L2.76453 34.8778H17.1908V34.4937C17.3121 29.075 18.0703 23.8686 19.4351 19.0463L19.5564 18.6116L19.1015 18.551C15.7654 18.1163 12.3686 17.54 9.01222 16.8425L8.75948 16.7919L8.60784 17.0042V16.9941ZM37.6222 17.4389H38.0164C41.9693 17.3884 45.9928 17.1559 49.9659 16.7515L50.4714 16.7009L50.2894 16.2258C49.1976 13.2738 47.8631 10.6858 46.3265 8.52233C43.8698 5.06487 41.019 2.95198 38.0872 2.40607L37.6222 2.31508V17.449V17.4389ZM34.9128 2.39596C31.981 2.94187 29.1302 5.05476 26.6735 8.51222C25.1369 10.6757 23.8024 13.2637 22.7005 16.2157L22.5185 16.6908L23.024 16.7414C26.9869 17.1559 31.0105 17.3783 34.9735 17.4288H35.3677V2.30497L34.9027 2.39596H34.9128ZM26.896 3.62932C20.5573 5.50969 14.9465 9.18955 10.6702 14.2746L10.2355 14.7902L10.8926 14.9217C13.8648 15.508 16.9078 16.0034 19.9305 16.3875L20.2439 16.428L20.345 16.1247C21.5783 12.647 23.0847 9.64448 24.8235 7.19798C25.612 6.10615 26.4309 5.12553 27.27 4.28644L26.8757 3.62932H26.896ZM45.7098 4.28644C46.5489 5.12553 47.3677 6.10615 48.1563 7.19798C49.9052 9.65459 51.4115 12.647 52.6348 16.1146L52.746 16.4179L53.0594 16.3774C56.072 15.9933 59.1251 15.4979 62.1074 14.9115L62.7645 14.7801L62.3298 14.2645C58.0535 9.17944 52.4427 5.49958 46.104 3.61921L45.7098 4.27633V4.28644Z" fill="#215679"/>
</g>
<defs>
<clipPath id="clip0_1632_963">
<rect width="72" height="72" fill="white" transform="translate(0.5)"/>
</clipPath>
</defs>
</svg>
